<svg width="83" height="126" viewBox="0 0 83 126" fill="none" xmlns="http://www.w3.org/2000/svg">
<ellipse cx="75.0498" cy="102.056" rx="5.55979" ry="12.4645" transform="rotate(3.7251 75.0498 102.056)" fill="#D8D8D8"/>
<path d="M7 22L60 24.5945L58.9679 125L15.0506 120.953L7 22Z" fill="#D8D8D8"/>
<path d="M76 20L63.8947 24.9802L60.0526 24.6171L59 125L76 20Z" fill="#D8D8D8"/>
<path d="M32.3836 0.58534C3.5244 -3.62407 7.66174 16.0364 0 22.3258L63.6435 25V19.8001C63.7457 19.8001 80.8058 12.7184 80.8058 12.7184C82.2871 2.41768 74.9318 2.31863 70.9988 1.62532C57.9398 1.09707 41.1117 1.85842 32.3836 0.58534Z" fill="#D8D8D8"/>
<path d="M1.15352 17.2362L1 14.4724M1 14.4724L5.40077 10.7539M1 14.4724L63.3784 17.2865M5.40077 10.7539H1.92109C5.40077 6.18104 14.6424 -0.0400068 21.7246 0.000193845L70.7471 1.40722C79.4463 2.61324 81.8002 5.12577 80.7768 12.7136M5.40077 10.7539H15.0211M15.0211 10.7539V12.4121L45.98 13.3669L46.1847 12.2614M15.0211 10.7539C18.5007 6.18104 27.026 0.315421 34.1081 0.355622M46.1847 12.2614L59.8476 12.8644L73.7663 5.02527C75.0797 4.69027 77.9214 4.58307 78.7811 6.8343C79.1839 7.88909 79.5126 9.05125 79.7639 10.1006M46.1847 12.2614C49.6644 7.68857 58.2919 1.2128 65.3741 1.253M80.3163 12.9146C80.2347 12.336 80.049 11.2909 79.7639 10.1006M63.3784 17.2865V20M63.3784 17.2865L79.7639 10.1006" stroke="black" stroke-width="0.7"/>
<path d="M7.175 21.9706L15.3237 121.001L59.0912 125M7.175 21.9706L60.1162 24.8267M7.175 21.9706L0 21.7109V16.9334L63.755 19.8934L82 12V16.9334L75.5937 19.8415M59.0912 125L60.1162 24.8267M59.0912 125L69.6487 114.302M60.1162 24.8267L63.755 24.9825L70.1612 22.2302L75.5937 19.8415M75.5937 19.8415L72.3137 89.5317" stroke="black" stroke-width="0.7"/>
<path d="M80.1398 102.577C79.9172 105.997 79.1017 109.036 77.9777 111.183C77.4155 112.257 76.784 113.093 76.125 113.645C75.4678 114.195 74.8008 114.45 74.1488 114.407C73.4967 114.365 72.8684 114.026 72.2881 113.395C71.7062 112.763 71.1884 111.852 70.7702 110.714C69.9342 108.439 69.5196 105.32 69.7423 101.9C69.9649 98.4805 70.7804 95.4415 71.9044 93.2941C72.4666 92.22 73.0981 91.3841 73.7571 90.8323C74.4143 90.2822 75.0813 90.0277 75.7333 90.0701C76.3854 90.1126 77.0137 90.4514 77.594 91.0821C78.1759 91.7147 78.6937 92.6255 79.1119 93.7634C79.9479 96.0383 80.3625 99.1575 80.1398 102.577Z" stroke="black" stroke-width="0.7"/>
<path d="M78.9401 102.674C78.7753 105.205 78.1688 107.45 77.3361 109.032C76.9196 109.823 76.4543 110.433 75.9734 110.833C75.4944 111.232 75.017 111.409 74.5573 111.379C74.0976 111.349 73.6472 111.111 73.224 110.654C72.799 110.195 72.4167 109.53 72.1063 108.691C71.4858 107.015 71.1755 104.71 71.3403 102.179C71.5051 99.6474 72.1116 97.4024 72.9443 95.8207C73.3608 95.0294 73.8261 94.4191 74.307 94.0191C74.786 93.6207 75.2634 93.4435 75.7231 93.4734C76.1828 93.5034 76.6332 93.741 77.0564 94.1981C77.4814 94.6571 77.8637 95.3226 78.1741 96.1612C78.7946 97.8375 79.1049 100.142 78.9401 102.674Z" stroke="black" stroke-width="0.7"/>
<path d="M76 90L72.4992 89.7091C69.4351 89.5096 66.5886 94.9166 66.1414 101.786C65.6941 108.655 67.4353 114.301 70.4994 114.5L74.1192 114.415" stroke="black" stroke-width="0.7"/>
<rect x="39" y="82" width="5" height="8" fill="#D8D8D8"/>
<path d="M28.6615 61.6927C28.6264 61.6658 28.5852 61.6343 28.5388 61.599C28.384 61.4813 28.1698 61.3198 27.9335 61.143C27.6413 60.9242 27.4277 60.761 27.2851 60.6469C27.2378 60.6091 27.2 60.5781 27.1707 60.5532C27.1764 60.5411 27.1831 60.5272 27.1912 60.5113C27.3005 60.2947 27.5484 59.8848 28.0751 59.0146L28.0752 59.0144C29.2959 56.9943 30.1873 55.5221 30.7786 54.5501C31.0744 54.0641 31.2948 53.7036 31.4436 53.4625C31.5182 53.3418 31.5742 53.252 31.6125 53.1916C31.6163 53.1856 31.6199 53.18 31.6233 53.1747C31.6486 53.1752 31.6835 53.1767 31.7313 53.1796C31.8812 53.1887 32.1271 53.2099 32.539 53.2487L32.5395 53.2488C32.9457 53.2865 33.8428 53.3685 34.7714 53.4535C35.0926 53.4829 35.4176 53.5126 35.7273 53.541L35.728 53.5411C36.5871 53.618 37.6735 53.7179 38.522 53.796C38.8636 53.8274 39.1667 53.8553 39.4009 53.8767L39.4013 53.8767M28.6615 61.6927L39.4332 53.5282L39.4013 53.8767M28.6615 61.6927L29.0116 61.9515L29.1347 62.0425L29.1371 62.0444C29.5948 62.3889 29.913 62.6276 30.1247 62.7851C30.2306 62.864 30.3092 62.922 30.3649 62.9625C30.3847 62.977 30.4013 62.989 30.4149 62.9987C30.4681 62.9212 30.5628 62.775 30.7404 62.4935C31.1312 61.8739 31.9057 60.6277 33.4776 58.0973L34.915 55.7805L35.0275 55.5991L35.2402 55.6161L36.2477 55.6964L37.2552 55.7766L37.4637 55.7932L37.5478 55.9848L37.7842 56.5229C37.7843 56.5231 37.7844 56.5233 37.7845 56.5235C37.8227 56.6094 37.9078 56.8011 38.027 57.0696C38.3221 57.7343 38.826 58.8695 39.3439 60.0341C39.7086 60.8529 40.0396 61.6003 40.28 62.1452C40.4002 62.4177 40.4979 62.6398 40.5657 62.7949C40.5996 62.8724 40.6262 62.9337 40.6446 62.9763L40.6665 63.0275L40.674 63.0456L40.6786 63.0575L40.683 63.0697L40.683 63.0699C40.6838 63.0722 40.6898 63.0896 40.6943 63.1117C40.7272 63.2729 40.6388 63.3837 40.6245 63.4017L40.6242 63.402C40.5977 63.4352 40.5711 63.4561 40.5607 63.4641C40.5368 63.4825 40.5143 63.4951 40.5043 63.5007C40.4803 63.5139 40.453 63.5267 40.4288 63.5375C40.3778 63.5604 40.3073 63.5895 40.2228 63.623C40.0526 63.6906 39.8103 63.782 39.5193 63.8884L39.5189 63.8885C39.2564 63.9842 39.0081 64.0762 38.8194 64.147C38.735 64.1787 38.6628 64.206 38.6068 64.2274C38.6338 64.2326 38.6641 64.2385 38.6977 64.2449C38.8505 64.2744 39.0682 64.3158 39.3348 64.3663C39.868 64.4673 40.5961 64.6041 41.3903 64.7521L41.3909 64.7522L41.7238 64.8149C42.385 64.9392 42.981 65.0513 43.4312 65.1364C43.6934 65.1859 43.9066 65.2264 44.0544 65.2548C44.1282 65.269 44.1864 65.2803 44.2265 65.2883C44.2463 65.2922 44.263 65.2956 44.2754 65.2983C44.2774 65.2987 44.2796 65.2992 44.2819 65.2997C44.2862 65.3006 44.291 65.3017 44.2956 65.3028C44.2983 65.3034 44.3059 65.3053 44.315 65.3079C44.3183 65.3089 44.3301 65.3123 44.3446 65.318C44.3507 65.3204 44.368 65.3272 44.3887 65.3388C44.3996 65.3451 44.426 65.3628 44.441 65.3746C44.4504 65.3831 44.4647 65.3992 44.48 65.4186L28.6615 61.6927ZM39.4013 53.8767L40.7404 54.0007M39.4013 53.8767L40.7404 54.0007M40.7404 54.0007C40.7581 54.033 40.7819 54.0779 40.8127 54.1378C40.8876 54.2836 40.998 54.5063 41.1529 54.8245C41.4622 55.4603 41.9448 56.469 42.6675 57.9885L42.6675 57.9885C43.1938 59.0947 43.6743 60.1023 44.024 60.8346C44.1988 61.2007 44.341 61.4981 44.4399 61.7047L44.5546 61.9438L44.5854 62.0077L44.5942 62.0259L44.5978 62.0331L44.6007 62.0388L44.6041 62.0452L44.6041 62.0453C44.6048 62.0465 44.6098 62.0557 44.6167 62.0665L44.6436 62.1086L44.6813 62.1415C44.7359 62.1892 44.7912 62.2077 44.8168 62.2149C44.846 62.2231 44.8702 62.2259 44.884 62.227C44.9114 62.2292 44.9332 62.2277 44.9422 62.227C44.9622 62.2254 44.9784 62.2224 44.9849 62.2211C45.0005 62.2182 45.0157 62.2144 45.0266 62.2117C45.0502 62.2057 45.0804 62.1972 45.1141 62.1874C45.1828 62.1675 45.2788 62.1382 45.3944 62.1022C45.6261 62.03 45.9426 61.9284 46.2885 61.8145L46.179 61.4821L46.2885 61.8145L46.2903 61.8139C47.0325 61.5695 47.3969 61.4495 47.5917 61.3943C47.5735 61.4183 47.552 61.4465 47.5274 61.4787C47.4464 61.5847 47.3329 61.7328 47.1952 61.912C46.9197 62.2703 46.5478 62.7527 46.1457 63.2721C45.7433 63.792 45.3777 64.2653 45.1129 64.609C44.9806 64.7809 44.8732 64.9206 44.799 65.0176C44.7775 65.0458 44.7586 65.0705 44.7426 65.0915C44.7312 65.1066 44.7212 65.1197 44.7128 65.1308L44.6884 65.1635L44.6779 65.178C44.6766 65.1799 44.6723 65.1861 44.6674 65.1938L44.6673 65.194C44.6655 65.1968 44.6587 65.2076 44.6513 65.222L44.6513 65.2221C44.6485 65.2276 44.6383 65.2476 44.6297 65.2748C44.625 65.2905 44.6164 65.3328 44.6138 65.3596C44.614 65.3894 44.6277 65.4503 44.6495 65.5095L44.6392 65.5138C44.7122 65.6923 44.881 65.7222 44.899 65.7254L44.9 65.7256C44.9418 65.7333 44.9754 65.7314 44.9858 65.7307C45.0115 65.7291 45.0317 65.7249 45.0373 65.7238L45.0375 65.7237C45.0451 65.7222 45.0523 65.7204 45.0582 65.7189C45.0642 65.7173 45.069 65.716 45.0721 65.7151C45.0868 65.7109 45.1037 65.7055 45.1199 65.7002C45.1535 65.6892 45.1996 65.6733 45.2537 65.6543C45.3625 65.6162 45.5106 65.5628 45.6719 65.5036C45.8312 65.4457 45.9837 65.3922 46.1006 65.3526C46.1509 65.3356 46.1935 65.3215 46.2268 65.3109C46.2294 65.3164 46.2322 65.3221 46.2351 65.3281C46.2646 65.3895 46.3071 65.4788 46.3609 65.5925C46.4684 65.8197 46.6202 66.1422 46.802 66.5294C47.1655 67.3038 47.6481 68.3355 48.1347 69.3778C49.058 71.3554 49.9885 73.3564 50.1525 73.7227C50.1481 73.7321 50.1424 73.7436 50.1348 73.7578C50.1154 73.7941 50.088 73.8405 50.0494 73.9018C49.5221 74.7349 48.3847 76.5247 47.3732 78.1131C46.8674 78.9074 46.3933 79.6511 46.0428 80.1996C45.8675 80.4739 45.7233 80.6991 45.6216 80.8573C45.5707 80.9365 45.5307 80.9985 45.5028 81.0413L45.4887 81.0629C45.4564 81.0635 45.4133 81.0631 45.3556 81.061C45.0412 81.05 44.4238 80.9975 43.158 80.8899C42.9882 80.8755 42.8067 80.8601 42.6127 80.8436L42.6125 80.8436C40.997 80.7077 39.0176 80.5357 38.2173 80.4647L40.7404 54.0007ZM25.9333 61.9257C26.6397 62.062 27.2827 62.1849 27.7497 62.2733C27.9831 62.3174 28.1729 62.353 28.3047 62.3773C28.3705 62.3894 28.4227 62.3988 28.4589 62.4052C28.4645 62.4062 28.47 62.4071 28.4751 62.408C28.4842 62.4096 28.4924 62.411 28.4995 62.4121L28.6973 62.8719C28.6974 62.8722 28.6975 62.8724 28.6976 62.8727C29.2278 64.1204 29.74 65.3359 30.1201 66.2472C30.3102 66.703 30.467 67.082 30.5765 67.3506C30.6009 67.4106 30.6229 67.4649 30.6423 67.5131C30.6082 67.48 30.5694 67.4423 30.5267 67.4005C30.3695 67.2466 30.1614 67.0406 29.941 66.8197C29.7205 66.5975 29.5188 66.3959 29.3716 66.2498C29.2981 66.1768 29.2378 66.1173 29.1954 66.0759C29.1743 66.0553 29.1568 66.0384 29.1439 66.0261C29.1412 66.0235 29.1382 66.0207 29.1352 66.0179C29.1316 66.0146 29.128 66.0112 29.1244 66.008C29.1219 66.0057 29.1153 65.9998 29.1073 65.9933C29.1047 65.9911 29.0934 65.982 29.0782 65.9719C29.0726 65.9683 29.0515 65.9543 29.0218 65.9418C29.0082 65.9361 28.9738 65.9223 28.9273 65.9167C28.8881 65.912 28.7688 65.9046 28.6598 65.9966L28.6332 66.019L28.6116 66.0462C28.6046 66.0549 28.5995 66.0622 28.5986 66.0636L28.5944 66.0698L28.5904 66.0758L28.5853 66.0837L28.5731 66.1031L28.5318 66.1696L28.3841 66.4084C28.2597 66.6099 28.0875 66.8892 27.8935 67.204C27.5057 67.8336 27.0308 68.6054 26.677 69.1817C26.5972 69.3112 26.5167 69.4419 26.4374 69.5705C26.0651 70.1745 25.7207 70.7334 25.611 70.91C25.4768 71.1238 25.1215 71.7005 24.8222 72.1895L25.9333 61.9257ZM25.9333 61.9257C25.2287 61.7908 24.5725 61.6663 24.0833 61.5749C23.8386 61.5291 23.6362 61.4917 23.4906 61.4655C23.4403 61.4564 23.3994 61.4491 23.3671 61.4435C23.5034 61.5792 23.7467 61.7986 24.1865 62.1924C24.1865 62.1924 24.1865 62.1924 24.1866 62.1924L25.1622 63.0655L25.3809 63.2612L25.2263 63.5107L24.7747 64.2391L24.7747 64.2392C23.3956 66.4615 22.2263 68.3538 21.4001 69.6993C20.9869 70.3721 20.6598 70.9076 20.4352 71.279C20.3228 71.4649 20.2367 71.6087 20.1785 71.7077C20.1644 71.7317 20.1522 71.7526 20.1418 71.7706C20.1619 71.8418 20.2016 71.9574 20.2761 72.1632C20.5719 72.9715 21.7703 76.2546 22.3486 77.8409L22.3488 77.8413C22.5216 78.3174 22.6593 78.6863 22.7584 78.941C22.8081 79.0687 22.847 79.1652 22.8753 79.2311C22.8782 79.2379 22.8809 79.2441 22.8835 79.25C22.9 79.2516 22.9204 79.2535 22.9447 79.2558C23.0193 79.2626 23.1266 79.2719 23.2634 79.2834C23.5367 79.3063 23.9252 79.3379 24.4004 79.3758C25.3508 79.4515 26.6464 79.5523 28.0582 79.66M25.9333 61.9257L28.0582 79.66M33.3865 76.807C33.4245 76.374 33.4434 76.1567 33.4488 76.0379C33.4079 76.0319 33.3448 76.0242 33.2462 76.0143C32.9765 75.9873 32.4877 75.9477 31.5717 75.8747C30.4891 75.7884 28.678 75.637 27.5479 75.5374C27.5478 75.5374 27.5478 75.5373 27.5478 75.5373C27.5477 75.5373 27.5475 75.5373 27.5473 75.5373L25.4932 75.3593L25.306 75.3431L25.2161 75.178L24.7401 74.3041L24.7398 74.3035L24.2663 73.4298L24.17 73.2521L24.2757 73.0799L24.822 72.1899L33.7352 76.8377M33.3865 76.807C33.3865 76.807 33.3865 76.8071 33.3865 76.8071L33.7352 76.8377M33.3865 76.807C33.3865 76.8069 33.3865 76.8067 33.3866 76.8066L33.7352 76.8377M33.3865 76.807C33.3639 77.0601 33.3444 77.2897 33.3315 77.4558C33.3251 77.5386 33.3201 77.6075 33.3172 77.6561C33.3159 77.6796 33.3147 77.7025 33.3143 77.7211C33.3142 77.7282 33.3139 77.745 33.3151 77.7635L33.3151 77.764C33.3154 77.7686 33.3167 77.7916 33.3233 77.8208M33.7352 76.8377C33.726 76.9401 33.7174 77.0385 33.7095 77.1303C33.626 77.2345 33.5564 77.3212 33.5039 77.3866L33.3885 77.1736L33.3233 77.8208M33.3233 77.8208L33.2744 78.3056L33.182 79.2225M33.3233 77.8208L33.182 79.2225M33.5243 77.4243C33.5612 77.4079 33.607 77.3953 33.661 77.3946C33.67 77.3945 33.6788 77.3948 33.6874 77.3953L33.5243 77.4243ZM33.5243 77.4243L33.6661 77.6861L33.5243 77.4243ZM38.239 64.4251C38.1729 64.3458 38.1566 64.3086 38.1622 64.2374C38.1723 64.1116 38.2465 63.9981 38.3516 63.9516C38.4016 63.9293 38.872 63.7518 39.3991 63.5597L38.4842 64.2044C38.4851 64.2047 38.4859 64.205 38.4868 64.2052C38.4886 64.2058 38.4904 64.2064 38.4921 64.207L38.484 64.214L38.4766 64.2204L38.4727 64.2237L38.4723 64.2241L38.4319 64.2589L38.239 64.4251ZM38.239 64.4251L38.4378 64.2594L38.474 64.2293L38.4744 64.2289L38.4749 64.2285L38.4811 64.2233L38.4981 64.2091M38.239 64.4251C38.2854 64.4789 38.349 64.5294 38.382 64.5392L38.4981 64.2091M38.4981 64.2091C38.4999 64.2097 38.5015 64.2104 38.503 64.211M38.4981 64.2091L38.503 64.211M38.503 64.211C38.5063 64.2217 38.5087 64.2329 38.51 64.2439C38.5109 64.2507 38.5111 64.2563 38.5112 64.2601C38.5107 64.2605 38.5102 64.261 38.5095 64.2616C38.5085 64.2625 38.5071 64.2636 38.5055 64.2648C38.5026 64.2668 38.4988 64.2691 38.4939 64.2713C38.4923 64.272 38.4962 64.2704 38.5094 64.2651C38.51 64.2649 38.5106 64.2646 38.5111 64.2644C38.5111 64.2657 38.5111 64.2661 38.5111 64.2652C38.5111 64.2649 38.5112 64.2647 38.5112 64.2644L38.503 64.211ZM33.182 79.2225L33.5303 79.2577L33.5602 78.9602L33.3149 78.5074L33.6227 78.3407L33.9709 78.3757L33.9193 78.8882L33.182 79.2225ZM33.0902 80.0254C33.113 79.8968 33.1374 79.6655 33.182 79.2226L33.1914 80.0258C33.1914 80.0258 33.1904 80.0259 33.1885 80.0261C33.1878 80.0261 33.1869 80.0262 33.1859 80.0262C33.1728 80.0268 33.1448 80.0272 33.0902 80.0254ZM33.0902 80.0254C33.0858 80.0504 33.0815 80.0715 33.077 80.0895C33.0723 80.1086 33.0693 80.1162 33.0692 80.1161C33.0692 80.1161 33.0773 80.0958 33.0997 80.072C33.1113 80.0596 33.1235 80.0502 33.1331 80.0437L28.0582 79.66M33.0902 80.0254C33.088 80.0254 33.0857 80.0253 33.0834 80.0252C32.9667 80.0213 32.7657 80.0098 32.4132 79.9856C31.7105 79.9373 30.426 79.8403 28.0582 79.66M34.0493 77.2662C33.9878 77.3427 33.9325 77.4117 33.8843 77.4718C33.8934 77.4792 33.9017 77.4866 33.9091 77.4937C33.9792 77.562 33.9995 77.6408 34.0019 77.6499C34.002 77.6503 34.002 77.6505 34.0021 77.6507C34.0123 77.6877 34.0136 77.7182 34.0136 77.7185C34.0145 77.7315 34.0141 77.7397 34.0142 77.7353C34.0143 77.7308 34.0147 77.719 34.016 77.6972C34.0185 77.6554 34.023 77.5918 34.0294 77.5102C34.0349 77.4398 34.0416 77.3574 34.0493 77.2662ZM40.9942 77.0434C39.905 76.971 38.9131 76.9033 38.1922 76.853C37.8318 76.8279 37.5389 76.8071 37.3353 76.7922C37.2336 76.7848 37.1537 76.7788 37.0987 76.7745C37.0714 76.7723 37.0492 76.7705 37.0332 76.7691L37.0103 76.7669C37.0071 76.7665 37.001 76.7659 36.9941 76.7649C36.9911 76.7644 36.9834 76.7633 36.9739 76.7614C36.9695 76.7605 36.9599 76.7585 36.9481 76.7552L36.9476 76.7551C36.9435 76.754 36.9186 76.7473 36.8878 76.7322L36.8878 76.7322C36.7931 76.6858 36.7492 76.612 36.7353 76.5871C36.7177 76.5552 36.7089 76.5275 36.705 76.514C36.6968 76.4861 36.6939 76.4629 36.6928 76.4541C36.6903 76.4334 36.6897 76.4147 36.6895 76.4048C36.689 76.382 36.6895 76.3553 36.6903 76.3292C36.6919 76.2752 36.6956 76.201 36.7007 76.114C36.711 75.9388 36.7276 75.7003 36.747 75.4408L36.7472 75.4392C36.7837 74.9809 36.8111 74.5418 36.8176 74.3834C36.8077 74.3953 36.7971 74.408 36.7859 74.4216C36.7041 74.5204 36.5901 74.66 36.4519 74.8304C36.1755 75.1711 35.8043 75.6327 35.4052 76.133L35.405 76.1333C35.0053 76.6331 34.64 77.089 34.3739 77.4208L34.0573 77.8154L33.97 77.9241L33.9468 77.953L33.9423 77.9586L33.9392 77.9625L33.9175 77.9897L33.891 78.0121C33.8819 78.0198 33.8704 78.0286 33.8566 78.0376L33.9304 78.1739L35.1299 80.3881C35.1299 80.3881 35.1299 80.3881 35.13 80.3882C35.5751 81.2094 35.879 81.7642 36.0783 82.1189C36.1546 82.2544 36.2146 82.3591 36.2608 82.4373C36.2732 82.2959 36.2885 82.0617 36.3148 81.6543L40.9942 77.0434ZM36.3148 81.6536L36.377 80.6608L36.3995 80.3021L36.7575 80.3341L38.217 80.4647L36.3148 81.6536ZM36.3623 82.599C36.3622 82.5989 36.3609 82.5971 36.3585 82.5941C36.3611 82.5977 36.3623 82.5992 36.3623 82.599ZM33.6847 77.7204C33.6725 77.7357 33.6658 77.7439 33.6653 77.7445C33.6651 77.7447 33.6649 77.7446 33.6648 77.7441L33.6847 77.7204ZM36.9102 74.2746C36.9103 74.2745 36.9095 74.2753 36.9077 74.2773C36.9092 74.2758 36.9101 74.2748 36.9102 74.2746ZM35.2124 55.965L36.2199 56.0452L37.2274 56.1255L37.4644 56.6651C37.5022 56.7501 37.5876 56.9423 37.7073 57.212L35.2124 55.965ZM38.5015 64.2063L38.5012 64.2066L38.5017 64.2067C38.5016 64.2065 38.5016 64.2064 38.5015 64.2063ZM22.9123 79.3117C22.9123 79.3115 22.9114 79.3097 22.9096 79.3067C22.9114 79.3103 22.9123 79.3118 22.9123 79.3117ZM31.5743 53.1753C31.5743 53.1753 31.575 53.1752 31.5762 53.1751L31.5743 53.1753ZM27.1078 60.4967C27.104 60.4923 27.103 60.4916 27.1064 60.4953C27.1067 60.4956 27.1072 60.4961 27.1078 60.4967Z" stroke="black" stroke-width="0.7"/>
</svg>
