<svg width="306" height="220" viewBox="0 0 306 220" fill="none" xmlns="http://www.w3.org/2000/svg">
<g clip-path="url(#clip0)">
<g filter="url(#filter0_d)">
<rect x="-553.684" y="-54" width="1192" height="36" transform="rotate(15 -553.684 -54)" fill="#CBA576"/>
<path d="M177.328 153.902L169.57 151.823L169.38 152.22L169.989 152.483C170.625 152.769 170.747 152.868 170.401 153.603C169.203 156.098 167.362 159.133 165.54 160.616C165.308 160.803 165.168 160.831 164.905 160.761L164.179 160.566L162.669 163.607L163.117 163.727L164.253 162.392C165.021 161.504 165.166 161.394 165.816 161.568L171.055 162.972C171.627 163.125 171.674 163.32 171.408 164.126L170.829 165.793L171.292 165.918L173.189 162.98L172.107 162.691C171.752 162.595 171.746 162.494 172.011 161.936L175.151 155.472C175.791 154.136 175.943 154.061 177.123 154.295L177.328 153.902ZM170.905 161.242C170.499 162.077 170.277 162.167 169.566 161.976L166.706 161.21C166.397 161.127 166.404 160.98 166.605 160.786C168.458 158.814 170.095 155.857 171.309 153.366C171.503 152.954 171.546 152.916 172.288 153.115L173.972 153.566C174.56 153.724 174.543 153.786 174.093 154.725L170.905 161.242ZM179.799 161.041C180.227 160.99 180.472 160.94 180.901 160.823C181.478 160.646 181.887 160.358 182.019 159.864C182.218 159.122 181.756 158.435 180.875 158.199L180.86 158.195C180.458 158.087 179.877 158.031 179.195 158.163C178.144 158.378 177.188 158.917 176.363 160.203C176.116 160.568 175.939 160.918 175.698 161.383C174.628 163.399 175.373 164.328 176.579 164.651C177.352 164.858 178.237 164.83 179.055 164.619C179.979 164.386 180.826 163.884 181.062 163.003C181.335 161.983 180.597 161.338 179.79 161.072L179.799 161.041ZM180.192 158.645C180.548 158.741 180.914 159.104 180.753 159.706C180.608 160.247 179.922 160.643 179.004 160.729C178.278 160.783 177.735 160.77 177.359 160.752C177.932 159.663 178.503 158.955 179.291 158.669C179.6 158.569 179.868 158.558 180.177 158.641L180.192 158.645ZM178.715 161.314C179.442 161.509 179.894 162.044 179.692 162.801C179.418 163.821 178.425 164.499 177.312 164.201C176.292 163.928 176.331 162.978 176.683 162.161C176.848 161.791 176.913 161.61 177.101 161.279C177.413 161.23 178.236 161.186 178.7 161.31L178.715 161.314ZM187.028 165.214C186.041 165.745 185.09 165.954 184.441 165.78C183.498 165.527 183.491 164.565 183.715 163.73C183.756 163.576 183.798 163.421 183.863 163.24C185.461 163.271 188.266 163.128 188.672 161.613C188.85 160.948 188.482 160.22 187.663 160.001C186.998 159.823 186.079 159.974 185.294 160.31C183.824 160.911 182.74 162.359 182.359 163.781C181.867 165.62 182.744 166.303 183.47 166.497C184.212 166.696 185.45 166.713 187.184 165.62L187.028 165.214ZM186.932 160.501C187.365 160.617 187.607 161.013 187.466 161.538C187.271 162.265 186.42 162.782 184.053 162.777C184.791 161.136 185.754 160.632 186.222 160.493C186.421 160.43 186.685 160.435 186.917 160.497L186.932 160.501ZM193.111 160.401L192.997 160.271C192.583 160.392 191.998 160.599 191.628 160.865L191.268 161.53C190.689 161.59 190.077 161.708 189.581 161.89L189.582 162.321C189.976 162.211 190.447 162.122 190.987 162.084C189.703 164.589 188.395 167.121 187.098 169.672C186.629 170.557 186.426 170.635 185.399 170.575L185.233 170.945L188.849 171.732L189.023 171.331L188.645 171.197C187.908 170.916 187.848 170.768 188.274 169.921L189.282 167.889C189.543 168.091 189.906 168.222 190.153 168.288C191.208 168.306 192.503 167.924 193.508 167.265C194.654 166.512 195.401 165.454 195.675 164.434C196.039 163.074 195.612 162.131 194.021 161.705C193.82 161.651 193.553 161.596 193.297 161.56C193.042 161.525 192.766 161.501 192.529 161.52L193.111 160.401ZM193.178 162.191C194.043 162.423 194.679 162.958 194.31 164.333C193.78 166.311 191.726 167.981 190.629 167.686C190.242 167.583 189.915 167.197 189.796 166.9L192.237 162.055C192.547 162.072 192.9 162.116 193.147 162.183L193.178 162.191ZM198.331 166.421L199.282 164.787C199.829 163.857 199.994 163.305 199.592 163.197C199.19 163.09 197.934 163.449 196.978 163.988L197.064 164.408C197.51 164.23 198.122 164.046 198.277 164.087C198.361 164.143 198.339 164.286 198.135 164.679L196.435 167.685C196.127 168.216 195.996 168.644 196.028 169.017C196.073 169.592 196.512 169.992 197.1 170.149C197.718 170.315 198.563 170.376 199.563 169.981C200.762 169.524 201.704 168.666 202.019 167.492C202.243 166.657 202.018 165.951 201.276 165.752C200.658 165.587 199.564 165.774 198.377 166.433L198.331 166.421ZM200.346 166.381C200.716 166.48 200.87 166.836 200.692 167.501C200.393 168.613 199.557 169.449 198.936 169.664C198.584 169.802 198.281 169.82 197.957 169.733C197.338 169.567 197.069 168.965 197.471 168.145C197.813 167.425 198.032 167.103 198.709 166.738C199.461 166.343 200.006 166.29 200.33 166.377L200.346 166.381ZM213.154 172.53C212.606 172.78 212.029 172.957 211.89 172.92C211.797 172.895 211.788 172.743 212.009 172.289C212.528 171.219 214.13 168.021 214.687 167.242L214.486 167.188L213.292 167.316C212.943 168.001 212.421 169.02 212.005 169.77L209.161 169.008L209.895 167.631C210.404 166.658 210.498 166.12 210.143 166.025C209.726 165.913 208.501 166.28 207.576 166.827L207.681 167.237C208.065 167.041 208.697 166.846 208.852 166.888C208.94 166.928 208.942 167.044 208.714 167.464C207.864 169.091 207.021 170.754 206.057 172.433L206.121 172.566C206.525 172.542 206.929 172.518 207.329 172.509C207.614 171.94 208.439 170.405 208.88 169.562L211.739 170.328C211.439 170.894 210.933 171.918 210.66 172.441C210.262 173.245 210.294 173.685 210.603 173.767C210.974 173.867 212.228 173.573 213.225 172.946L213.154 172.53ZM220.904 174.407C220.321 174.731 219.696 174.962 219.557 174.924C219.479 174.904 219.47 174.752 219.704 174.251C220.585 172.384 221.612 170.406 222.112 169.53L222.098 169.46C221.928 169.414 221.724 169.31 221.535 169.21C221.216 169.041 220.919 168.912 220.61 168.829L220.595 168.825C219.636 168.568 218.363 168.807 217.401 169.245C216.02 169.885 214.843 171.375 214.424 172.936C214.093 174.173 214.455 174.8 214.857 174.907C215.274 175.019 215.859 174.878 216.481 174.597C217.29 174.234 218.227 173.706 219.046 172.998L219.092 173.011L218.39 174.396C217.856 175.462 217.994 175.748 218.288 175.827C218.674 175.93 219.863 175.636 220.986 174.844L220.904 174.407ZM219.763 169.331C220.15 169.435 220.523 169.651 220.71 169.817C220.485 170.286 219.955 171.337 219.608 171.89C218.812 172.82 216.528 174.295 215.926 174.134C215.694 174.071 215.595 173.697 215.778 173.017C216.188 171.487 217.29 169.845 218.548 169.353C218.88 169.227 219.331 169.215 219.748 169.327L219.763 169.331ZM232.013 177.384C231.429 177.708 230.804 177.938 230.665 177.901C230.588 177.88 230.579 177.728 230.812 177.228C231.693 175.36 232.72 173.383 233.22 172.506L233.206 172.436C233.036 172.391 232.832 172.286 232.643 172.186C232.324 172.018 232.027 171.888 231.718 171.806L231.703 171.801C230.745 171.545 229.472 171.783 228.509 172.221C227.129 172.862 225.951 174.352 225.533 175.913C225.201 177.149 225.563 177.776 225.965 177.884C226.382 177.996 226.967 177.854 227.589 177.573C228.398 177.211 229.335 176.683 230.154 175.975L230.2 175.987L229.498 177.373C228.964 178.439 229.102 178.724 229.396 178.803C229.782 178.907 230.971 178.612 232.095 177.82L232.013 177.384ZM230.872 172.308C231.258 172.411 231.631 172.627 231.818 172.793C231.593 173.263 231.063 174.313 230.716 174.866C229.92 175.796 227.637 177.271 227.034 177.11C226.802 177.048 226.704 176.674 226.886 175.994C227.296 174.464 228.398 172.821 229.656 172.33C229.988 172.203 230.439 172.192 230.856 172.303L230.872 172.308ZM236.615 174.824C237.136 173.87 237.243 173.286 236.872 173.187C236.439 173.071 235.261 173.451 234.301 174.005L234.391 174.41C234.864 174.189 235.422 174.024 235.576 174.065C235.685 174.094 235.61 174.372 235.354 174.834C234.452 176.53 233.658 178.073 232.786 179.595L232.85 179.728C233.269 179.708 233.673 179.684 234.073 179.675C234.503 178.813 235.1 177.698 235.629 176.713C236.267 176.867 236.618 177.226 236.625 177.941C236.636 178.457 236.662 178.978 236.712 179.72C236.764 180.512 236.976 180.834 237.301 180.921C237.811 181.058 238.878 180.598 239.524 180.043L239.368 179.636C238.9 179.958 238.435 180.148 238.204 180.086C238.034 180.041 237.975 179.826 237.904 179.227C237.836 178.431 237.795 178.088 237.697 177.648C237.615 177.212 237.34 176.757 237.067 176.601C237.661 176.363 238.159 176.049 238.783 175.637C239.364 175.262 239.732 175.063 239.964 175.125C240.211 175.191 240.34 175.391 240.395 175.555C240.436 175.649 240.529 175.674 240.642 175.621C240.974 175.495 241.161 175.23 241.227 174.983C241.31 174.674 241.107 174.321 240.767 174.23C240.38 174.127 239.955 174.228 239.233 174.697C238.551 175.144 237.914 175.603 237.322 175.957C236.636 176.353 236.217 176.374 235.818 176.316L236.615 174.824ZM247.78 181.576C247.166 181.891 246.431 182.158 246.246 182.109C246.107 182.071 246.109 181.94 246.302 181.528C247.104 179.771 248.045 178.052 248.961 176.426L248.776 176.376L247.586 176.488C247.087 177.547 246.703 178.239 246.349 178.757C245.55 179.636 243.227 181.383 242.392 181.159C242.13 181.089 242.06 180.855 242.458 180.05C243.099 178.831 243.784 177.573 244.332 176.577C244.797 175.708 244.788 175.308 244.464 175.221C244.047 175.109 242.904 175.416 241.827 176.038L241.936 176.432C242.543 176.147 243.038 176.031 243.161 176.064C243.285 176.098 243.283 176.229 243.058 176.633C242.354 177.902 241.806 178.898 241.22 180.033C240.47 181.472 240.874 181.879 241.261 181.982C241.678 182.094 242.161 182.024 242.692 181.835C243.653 181.464 244.9 180.704 245.896 179.829L245.927 179.837C245.61 180.464 245.453 180.803 245.22 181.238C244.495 182.584 244.738 182.914 245.032 182.993C245.356 183.08 246.132 182.906 247.044 182.405C246.487 183.002 246.092 183.426 245.922 184.059C245.872 184.245 245.851 184.388 245.813 184.527C245.697 184.96 245.226 185.049 244.716 185.161L244.774 185.624C246.426 185.453 246.709 185.016 246.829 184.568C246.892 184.336 246.914 184.127 246.937 183.917C246.952 183.739 246.979 183.514 247.054 183.236C247.182 182.757 247.578 182.267 247.901 181.989L247.78 181.576ZM255.875 183.828C255.327 184.144 254.686 184.37 254.547 184.333C254.439 184.304 254.441 184.172 254.647 183.714C255.572 181.808 256.453 180.189 257.309 178.663L257.139 178.617L255.965 178.733C255.507 179.638 255.106 180.391 254.746 181.057C253.825 182.019 251.544 183.611 250.694 183.383C250.446 183.317 250.405 183.041 250.777 182.329C251.402 181.171 252.031 179.998 252.637 178.852C253.146 177.878 253.167 177.553 252.827 177.462C252.41 177.35 251.302 177.65 250.15 178.302L250.237 178.722C250.878 178.43 251.389 178.253 251.513 178.286C251.602 178.326 251.599 178.458 251.407 178.804C250.814 179.904 250.217 181.019 249.609 182.115C248.775 183.681 249.191 184.107 249.608 184.219C249.979 184.318 250.473 184.268 250.989 184.075C251.961 183.723 253.121 183.04 254.152 182.223L254.183 182.231C253.934 182.728 253.789 183.02 253.525 183.512C252.855 184.774 252.993 185.126 253.318 185.213C253.781 185.337 254.999 184.934 255.981 184.237L255.875 183.828ZM263.905 185.979C263.356 186.296 262.716 186.522 262.576 186.484C262.468 186.455 262.471 186.324 262.676 185.865C263.601 183.96 264.482 182.34 265.338 180.814L265.168 180.768L263.994 180.885C263.536 181.789 263.136 182.543 262.775 183.208C261.855 184.171 259.573 185.763 258.723 185.535C258.476 185.469 258.434 185.192 258.807 184.481C259.432 183.323 260.061 182.15 260.666 181.003C261.175 180.03 261.196 179.704 260.856 179.613C260.439 179.501 259.332 179.801 258.18 180.453L258.266 180.874C258.907 180.582 259.419 180.404 259.542 180.437C259.631 180.477 259.629 180.609 259.437 180.955C258.844 182.055 258.247 183.171 257.638 184.267C256.805 185.832 257.22 186.259 257.638 186.37C258.009 186.47 258.502 186.42 259.018 186.227C259.99 185.874 261.151 185.191 262.181 184.374L262.212 184.383C261.963 184.879 261.818 185.172 261.554 185.664C260.885 186.926 261.022 187.277 261.347 187.364C261.811 187.488 263.028 187.086 264.01 186.388L263.905 185.979Z" fill="white"/>
<path d="M-75.7425 86.0898L-83.5008 84.011L-83.6899 84.4075L-83.0811 84.6701C-82.4455 84.9563 -82.323 85.0554 -82.6691 85.7909C-83.8677 88.2857 -85.7079 91.3208 -87.5298 92.8038C-87.7619 92.9901 -87.9021 93.0187 -88.1649 92.9483L-88.8913 92.7537L-90.4017 95.7944L-89.9535 95.9145L-88.8172 94.5791C-88.0493 93.6916 -87.9039 93.5815 -87.2548 93.7554L-82.0156 95.1592C-81.4437 95.3125 -81.3966 95.5073 -81.6624 96.314L-82.2416 97.9809L-81.7779 98.1051L-79.8811 95.168L-80.9629 94.8781C-81.3184 94.7829 -81.3245 94.6818 -81.0589 94.1235L-77.919 87.66C-77.2795 86.324 -77.1268 86.2489 -75.947 86.4822L-75.7425 86.0898ZM-82.165 93.4296C-82.5711 94.265 -82.7938 94.3544 -83.5047 94.1639L-86.3638 93.3978C-86.6729 93.315 -86.6666 93.1676 -86.4654 92.9731C-84.612 91.0016 -82.9748 88.0445 -81.7608 85.5539C-81.5676 85.1418 -81.5243 85.1038 -80.7824 85.3025L-79.0979 85.7539C-78.5106 85.9113 -78.5272 85.9731 -78.9776 86.9125L-82.165 93.4296ZM-73.2716 93.2286C-72.8438 93.1775 -72.5984 93.1273 -72.1695 93.0104C-71.5922 92.8338 -71.1837 92.5457 -71.0512 92.0511C-70.8524 91.3093 -71.3143 90.6223 -72.1952 90.3863L-72.2107 90.3821C-72.6125 90.2745 -73.1937 90.2181 -73.8752 90.3503C-74.9267 90.5654 -75.8827 91.1044 -76.7078 92.3907C-76.9545 92.7552 -77.1312 93.1054 -77.3719 93.571C-78.4421 95.5867 -77.697 96.5152 -76.4915 96.8382C-75.7188 97.0452 -74.8334 97.0174 -74.0148 96.8061C-73.0911 96.5732 -72.2443 96.0713 -72.0083 95.1904C-71.735 94.1704 -72.4732 93.5253 -73.2798 93.2595L-73.2716 93.2286ZM-72.8781 90.8328C-72.5226 90.928 -72.1561 91.2912 -72.3176 91.894C-72.4626 92.4349 -73.1484 92.8309 -74.0658 92.9164C-74.7925 92.9701 -75.3356 92.9571 -75.7118 92.9391C-75.1385 91.8504 -74.5677 91.142 -73.7789 90.8564C-73.4706 90.7568 -73.2026 90.7458 -72.8935 90.8286L-72.8781 90.8328ZM-74.3551 93.5014C-73.6287 93.6961 -73.1759 94.2315 -73.3788 94.9888C-73.6521 96.0088 -74.6454 96.6868 -75.7582 96.3887C-76.7782 96.1153 -76.7389 95.1651 -76.3875 94.3482C-76.2222 93.9784 -76.157 93.7971 -75.9691 93.4665C-75.6577 93.4174 -74.8342 93.373 -74.3706 93.4973L-74.3551 93.5014ZM-66.0427 97.4017C-67.0297 97.9324 -67.9802 98.1415 -68.6293 97.9676C-69.572 97.7149 -69.5791 96.7523 -69.3555 95.9177C-69.3141 95.7632 -69.2727 95.6087 -69.2075 95.4273C-67.609 95.4581 -64.8045 95.3151 -64.3986 93.8005C-64.2206 93.136 -64.5887 92.4079 -65.4078 92.1884C-66.0723 92.0104 -66.9908 92.1618 -67.7766 92.4979C-69.246 93.098 -70.3299 94.5468 -70.7109 95.9687C-71.2037 97.8078 -70.3264 98.4901 -69.6 98.6848C-68.8582 98.8835 -67.6204 98.9005 -65.8865 97.808L-66.0427 97.4017ZM-66.1381 92.6884C-65.7053 92.8044 -65.4636 93.2005 -65.6044 93.7259C-65.799 94.4523 -66.6499 94.9697 -69.0173 94.9648C-68.2795 93.3239 -67.3163 92.82 -66.8482 92.6804C-66.6492 92.6177 -66.3853 92.6222 -66.1535 92.6843L-66.1381 92.6884ZM-59.9593 92.5882L-60.0736 92.4582C-60.487 92.5793 -61.0727 92.7868 -61.442 93.0523L-61.8025 93.7177C-62.3818 93.7778 -62.9931 93.8956 -63.489 94.0774L-63.4885 94.5082C-63.0947 94.3984 -62.6236 94.3093 -62.0835 94.2718C-63.3676 96.7768 -64.6754 99.3086 -65.9719 101.86C-66.4409 102.745 -66.644 102.823 -67.6715 102.763L-67.8369 103.133L-64.2212 103.919L-64.0476 103.519L-64.4257 103.384C-65.1623 103.104 -65.2219 102.955 -64.7962 102.109L-63.7879 100.076C-63.5274 100.279 -63.1648 100.409 -62.9175 100.475C-61.8621 100.493 -60.5672 100.111 -59.5625 99.4528C-58.4166 98.6998 -57.6691 97.6411 -57.3958 96.6211C-57.0314 95.2611 -57.458 94.3186 -59.0498 93.892C-59.2507 93.8382 -59.5176 93.7833 -59.7731 93.7479C-60.0287 93.7126 -60.3039 93.6885 -60.5409 93.7078L-59.9593 92.5882ZM-59.8924 94.3785C-59.027 94.6104 -58.3917 95.1451 -58.7602 96.5205C-59.2903 98.4988 -61.3443 100.168 -62.4416 99.874C-62.828 99.7705 -63.1553 99.3846 -63.2745 99.0876L-60.8333 94.2424C-60.523 94.2592 -60.1706 94.304 -59.9233 94.3702L-59.8924 94.3785ZM-54.7397 98.6083L-53.7885 96.9748C-53.2412 96.0448 -53.0766 95.4925 -53.4785 95.3849C-53.8803 95.2772 -55.1361 95.6364 -56.0921 96.1753L-56.006 96.596C-55.5606 96.4172 -54.9482 96.2334 -54.7936 96.2748C-54.7092 96.3306 -54.731 96.4738 -54.9355 96.8662L-56.6356 99.8727C-56.9433 100.403 -57.0747 100.832 -57.0422 101.205C-56.9975 101.78 -56.5579 102.179 -55.9707 102.337C-55.3525 102.502 -54.5074 102.563 -53.5072 102.169C-52.308 101.711 -51.366 100.854 -51.0513 99.6794C-50.8276 98.8448 -51.0525 98.1386 -51.7943 97.9398C-52.4125 97.7742 -53.5063 97.9615 -54.6934 98.6207L-54.7397 98.6083ZM-52.7247 98.5684C-52.3538 98.6678 -52.2007 99.0236 -52.3788 99.6881C-52.6769 100.801 -53.5138 101.637 -54.1345 101.851C-54.4861 101.989 -54.7891 102.007 -55.1137 101.92C-55.7319 101.755 -56.0012 101.152 -55.5993 100.333C-55.2573 99.6125 -55.0384 99.2902 -54.3608 98.9251C-53.609 98.5303 -53.0648 98.4773 -52.7402 98.5643L-52.7247 98.5684ZM-39.9163 104.717C-40.4639 104.968 -41.0413 105.144 -41.1804 105.107C-41.2731 105.082 -41.2822 104.931 -41.0611 104.477C-40.5424 103.406 -38.94 100.208 -38.3836 99.4295L-38.5845 99.3757L-39.7781 99.5031C-40.1273 100.188 -40.649 101.208 -41.0653 101.958L-43.909 101.196L-43.1755 99.8185C-42.6663 98.8452 -42.5718 98.3073 -42.9273 98.212C-43.3446 98.1002 -44.5694 98.4677 -45.4946 99.0149L-45.3889 99.4242C-45.0053 99.2289 -44.3733 99.0338 -44.2187 99.0752C-44.1301 99.1155 -44.1282 99.232 -44.3565 99.6512C-45.2066 101.279 -46.0496 102.941 -47.0133 104.621L-46.9495 104.754C-46.5455 104.73 -46.1414 104.705 -45.7415 104.697C-45.4564 104.127 -44.6311 102.592 -44.19 101.75L-41.3308 102.516C-41.6314 103.081 -42.1377 104.105 -42.4104 104.628C-42.8081 105.433 -42.7767 105.872 -42.4676 105.955C-42.0967 106.054 -40.842 105.761 -39.8457 105.133L-39.9163 104.717ZM-32.1659 106.595C-32.7496 106.919 -33.3745 107.149 -33.5136 107.112C-33.5908 107.091 -33.5999 106.94 -33.3664 106.439C-32.485 104.571 -31.4582 102.594 -30.9583 101.717L-30.9727 101.647C-31.1427 101.602 -31.3466 101.497 -31.5351 101.397C-31.8544 101.229 -32.1511 101.1 -32.4602 101.017L-32.4756 101.013C-33.4338 100.756 -34.707 100.994 -35.6691 101.432C-37.0499 102.073 -38.2276 103.563 -38.6459 105.124C-38.9772 106.36 -38.6151 106.987 -38.2133 107.095C-37.796 107.207 -37.2115 107.065 -36.5897 106.784C-35.7802 106.422 -34.8437 105.894 -34.0245 105.186L-33.9782 105.198L-34.6807 106.584C-35.2148 107.65 -35.076 107.935 -34.7823 108.014C-34.396 108.118 -33.2073 107.823 -32.084 107.031L-32.1659 106.595ZM-33.3069 101.519C-32.9206 101.622 -32.5477 101.838 -32.3603 102.004C-32.5856 102.474 -33.1156 103.525 -33.4625 104.078C-34.2583 105.007 -36.5419 106.483 -37.1446 106.321C-37.3765 106.259 -37.475 105.885 -37.2927 105.205C-36.8828 103.675 -35.7801 102.032 -34.5221 101.541C-34.1901 101.415 -33.7397 101.403 -33.3224 101.515L-33.3069 101.519ZM-21.0577 109.571C-21.6415 109.895 -22.2663 110.125 -22.4054 110.088C-22.4827 110.067 -22.4918 109.916 -22.2583 109.415C-21.3769 107.548 -20.35 105.57 -19.8502 104.694L-19.8645 104.624C-20.0345 104.578 -20.2385 104.474 -20.4269 104.374C-20.7462 104.205 -21.0429 104.076 -21.352 103.993L-21.3675 103.989C-22.3257 103.732 -23.5988 103.971 -24.5609 104.409C-25.9417 105.049 -27.1195 106.539 -27.5377 108.1C-27.869 109.336 -27.507 109.964 -27.1052 110.071C-26.6879 110.183 -26.1033 110.041 -25.4815 109.761C-24.672 109.398 -23.7356 108.87 -22.9164 108.162L-22.87 108.175L-23.5725 109.56C-24.1066 110.626 -23.9678 110.912 -23.6742 110.991C-23.2878 111.094 -22.0991 110.8 -20.9758 110.007L-21.0577 109.571ZM-22.1988 104.495C-21.8124 104.599 -21.4396 104.814 -21.2522 104.981C-21.4774 105.45 -22.0074 106.501 -22.3544 107.054C-23.1501 107.984 -25.4338 109.459 -26.0365 109.297C-26.2683 109.235 -26.3668 108.861 -26.1846 108.181C-25.7746 106.651 -24.6719 105.008 -23.4139 104.517C-23.0819 104.391 -22.6315 104.379 -22.2142 104.491L-22.1988 104.495ZM-16.4548 107.011C-15.9343 106.058 -15.8274 105.473 -16.1983 105.374C-16.6311 105.258 -17.8095 105.638 -18.7697 106.192L-18.6795 106.598C-18.2062 106.377 -17.6484 106.211 -17.4939 106.253C-17.3857 106.282 -17.4602 106.56 -17.7164 107.021C-18.6182 108.718 -19.4126 110.261 -20.2843 111.783L-20.2205 111.916C-19.801 111.896 -19.397 111.872 -18.9971 111.863C-18.5673 111.001 -17.9703 109.885 -17.4414 108.9C-16.8036 109.055 -16.4526 109.414 -16.4452 110.128C-16.4345 110.645 -16.4083 111.165 -16.3587 111.907C-16.306 112.7 -16.0941 113.022 -15.7695 113.109C-15.2595 113.245 -14.1923 112.786 -13.5464 112.23L-13.7026 111.824C-14.1699 112.146 -14.6349 112.336 -14.8667 112.274C-15.0367 112.228 -15.0952 112.014 -15.1667 111.415C-15.2348 110.618 -15.2756 110.276 -15.373 109.836C-15.4549 109.4 -15.7306 108.945 -16.0035 108.789C-15.4095 108.55 -14.9114 108.237 -14.2873 107.824C-13.7066 107.45 -13.3384 107.25 -13.1066 107.312C-12.8593 107.379 -12.7308 107.579 -12.6753 107.743C-12.6342 107.836 -12.5415 107.861 -12.428 107.809C-12.096 107.682 -11.9091 107.418 -11.8429 107.171C-11.7601 106.861 -11.9637 106.509 -12.3037 106.418C-12.6901 106.314 -13.1148 106.416 -13.8368 106.885C-14.5197 107.331 -15.1561 107.79 -15.7481 108.145C-16.434 108.541 -16.8535 108.561 -17.2523 108.504L-16.4548 107.011ZM-5.29014 113.763C-5.90478 114.079 -6.63893 114.346 -6.82439 114.296C-6.96348 114.259 -6.96126 114.127 -6.76803 113.715C-5.96615 111.959 -5.02517 110.24 -4.10903 108.613L-4.29449 108.564L-5.48399 108.676C-5.98307 109.735 -6.3673 110.427 -6.72143 110.945C-7.52021 111.824 -9.84332 113.57 -10.6779 113.347C-10.9406 113.276 -11.0104 113.042 -10.6127 112.238C-9.97116 111.018 -9.28634 109.76 -8.73787 108.764C-8.27303 107.895 -8.28183 107.495 -8.60638 107.408C-9.02366 107.296 -10.166 107.603 -11.2438 108.226L-11.134 108.619C-10.5276 108.335 -10.0327 108.219 -9.9091 108.252C-9.78547 108.285 -9.78769 108.417 -10.0118 108.821C-10.7162 110.09 -11.2647 111.086 -11.8504 112.221C-12.6004 113.66 -12.1959 114.066 -11.8095 114.17C-11.3922 114.281 -10.9098 114.212 -10.3788 114.023C-9.41776 113.651 -8.1708 112.892 -7.17414 112.016L-7.14323 112.024C-7.46039 112.652 -7.61745 112.99 -7.84987 113.425C-8.575 114.771 -8.33216 115.101 -8.03852 115.18C-7.71397 115.267 -6.93871 115.094 -6.02599 114.593C-6.58325 115.189 -6.9785 115.613 -7.14828 116.247C-7.19798 116.432 -7.21979 116.576 -7.25706 116.715C-7.37301 117.147 -7.84413 117.236 -8.35443 117.348L-8.29624 117.811C-6.6439 117.641 -6.36098 117.203 -6.24089 116.755C-6.17877 116.523 -6.15585 116.314 -6.13292 116.105C-6.11828 115.927 -6.09121 115.702 -6.01667 115.424C-5.8883 114.945 -5.49194 114.454 -5.16902 114.177L-5.29014 113.763ZM2.80499 116.015C2.2563 116.332 1.61599 116.558 1.4769 116.521C1.36872 116.492 1.37094 116.36 1.57659 115.901C2.5013 113.996 3.38238 112.377 4.23862 110.85L4.06862 110.805L2.89457 110.921C2.43691 111.825 2.03611 112.579 1.67562 113.244C0.755123 114.207 -1.52658 115.799 -2.3766 115.571C-2.62387 115.505 -2.6658 115.228 -2.29288 114.517C-1.66795 113.359 -1.03888 112.186 -0.433549 111.039C0.0757273 110.066 0.0967302 109.74 -0.243276 109.649C-0.660556 109.537 -1.76783 109.837 -2.91985 110.489L-2.83378 110.91C-2.19237 110.618 -1.68095 110.44 -1.55731 110.473C-1.46872 110.513 -1.47094 110.645 -1.66306 110.991C-2.25597 112.091 -2.85302 113.207 -3.46139 114.303C-4.295 115.868 -3.87912 116.295 -3.46184 116.406C-3.09093 116.506 -2.59719 116.456 -2.08163 116.263C-1.1093 115.91 0.0509975 115.227 1.0816 114.41L1.11251 114.419C0.863525 114.915 0.718883 115.208 0.454447 115.7C-0.214925 116.962 -0.0772389 117.313 0.247312 117.4C0.710957 117.525 1.92864 117.122 2.91065 116.424L2.80499 116.015ZM10.8342 118.166C10.2856 118.483 9.64525 118.709 9.50616 118.672C9.39798 118.643 9.4002 118.511 9.60584 118.053C10.5306 116.147 11.4116 114.528 12.2679 113.002L12.0979 112.956L10.9238 113.072C10.4662 113.976 10.0654 114.73 9.70487 115.396C8.78438 116.358 6.50268 117.95 5.65266 117.722C5.40538 117.656 5.36346 117.38 5.73637 116.668C6.3613 115.51 6.99038 114.337 7.59571 113.191C8.10499 112.217 8.12599 111.892 7.78598 111.801C7.3687 111.689 6.26142 111.988 5.10941 112.64L5.19548 113.061C5.83689 112.769 6.34831 112.591 6.47195 112.625C6.56053 112.665 6.55831 112.797 6.3662 113.143C5.77329 114.243 5.17624 115.358 4.56787 116.454C3.73426 118.02 4.15014 118.446 4.56742 118.558C4.93833 118.657 5.43207 118.607 5.94763 118.414C6.91996 118.062 8.08026 117.379 9.11085 116.562L9.14176 116.57C8.89278 117.067 8.74814 117.359 8.48371 117.851C7.81433 119.113 7.95202 119.465 8.27657 119.552C8.74021 119.676 9.9579 119.273 10.9399 118.576L10.8342 118.166Z" fill="white"/>
<path d="M303.867 187.809L296.109 185.73L295.919 186.126L296.528 186.389C297.164 186.675 297.286 186.774 296.94 187.51C295.742 190.004 293.901 193.04 292.08 194.523C291.847 194.709 291.707 194.737 291.444 194.667L290.718 194.472L289.208 197.513L289.656 197.633L290.792 196.298C291.56 195.41 291.706 195.3 292.355 195.474L297.594 196.878C298.166 197.031 298.213 197.226 297.947 198.033L297.368 199.7L297.831 199.824L299.728 196.887L298.646 196.597C298.291 196.502 298.285 196.401 298.55 195.842L301.69 189.379C302.33 188.043 302.483 187.968 303.662 188.201L303.867 187.809ZM297.444 195.148C297.038 195.984 296.816 196.073 296.105 195.883L293.246 195.117C292.936 195.034 292.943 194.886 293.144 194.692C294.997 192.72 296.635 189.763 297.849 187.273C298.042 186.861 298.085 186.823 298.827 187.021L300.512 187.473C301.099 187.63 301.082 187.692 300.632 188.631L297.444 195.148ZM306.338 194.947C306.766 194.896 307.011 194.846 307.44 194.729C308.017 194.553 308.426 194.264 308.558 193.77C308.757 193.028 308.295 192.341 307.414 192.105L307.399 192.101C306.997 191.993 306.416 191.937 305.734 192.069C304.683 192.284 303.727 192.823 302.902 194.109C302.655 194.474 302.478 194.824 302.237 195.29C301.167 197.305 301.912 198.234 303.118 198.557C303.891 198.764 304.776 198.736 305.595 198.525C306.518 198.292 307.365 197.79 307.601 196.909C307.874 195.889 307.136 195.244 306.33 194.978L306.338 194.947ZM306.731 192.552C307.087 192.647 307.453 193.01 307.292 193.613C307.147 194.154 306.461 194.55 305.544 194.635C304.817 194.689 304.274 194.676 303.898 194.658C304.471 193.569 305.042 192.861 305.83 192.575C306.139 192.476 306.407 192.465 306.716 192.547L306.731 192.552ZM305.254 195.22C305.981 195.415 306.433 195.95 306.231 196.708C305.957 197.728 304.964 198.406 303.851 198.107C302.831 197.834 302.87 196.884 303.222 196.067C303.387 195.697 303.452 195.516 303.64 195.185C303.952 195.136 304.775 195.092 305.239 195.216L305.254 195.22ZM313.567 199.12C312.58 199.651 311.629 199.86 310.98 199.686C310.037 199.434 310.03 198.471 310.254 197.636C310.295 197.482 310.337 197.327 310.402 197.146C312 197.177 314.805 197.034 315.211 195.519C315.389 194.855 315.021 194.127 314.202 193.907C313.537 193.729 312.619 193.881 311.833 194.217C310.363 194.817 309.279 196.266 308.899 197.687C308.406 199.527 309.283 200.209 310.009 200.404C310.751 200.602 311.989 200.619 313.723 199.527L313.567 199.12ZM313.471 194.407C313.904 194.523 314.146 194.919 314.005 195.445C313.81 196.171 312.959 196.688 310.592 196.684C311.33 195.043 312.293 194.539 312.761 194.399C312.96 194.336 313.224 194.341 313.456 194.403L313.471 194.407ZM319.65 194.307L319.536 194.177C319.122 194.298 318.537 194.506 318.167 194.771L317.807 195.436C317.228 195.497 316.616 195.614 316.12 195.796L316.121 196.227C316.515 196.117 316.986 196.028 317.526 195.991C316.242 198.496 314.934 201.027 313.637 203.579C313.168 204.463 312.965 204.542 311.938 204.482L311.773 204.851L315.388 205.638L315.562 205.237L315.184 205.103C314.447 204.823 314.387 204.674 314.813 203.827L315.821 201.795C316.082 201.998 316.445 202.128 316.692 202.194C317.747 202.212 319.042 201.83 320.047 201.172C321.193 200.419 321.94 199.36 322.214 198.34C322.578 196.98 322.151 196.037 320.56 195.611C320.359 195.557 320.092 195.502 319.836 195.467C319.581 195.431 319.306 195.407 319.068 195.427L319.65 194.307ZM319.717 196.097C320.582 196.329 321.218 196.864 320.849 198.239C320.319 200.218 318.265 201.887 317.168 201.593C316.781 201.489 316.454 201.103 316.335 200.806L318.776 195.961C319.086 195.978 319.439 196.023 319.686 196.089L319.717 196.097ZM324.87 200.327L325.821 198.694C326.368 197.764 326.533 197.211 326.131 197.104C325.729 196.996 324.473 197.355 323.517 197.894L323.603 198.315C324.049 198.136 324.661 197.952 324.816 197.994C324.9 198.049 324.878 198.193 324.674 198.585L322.974 201.591C322.666 202.122 322.535 202.55 322.567 202.924C322.612 203.499 323.051 203.898 323.639 204.055C324.257 204.221 325.102 204.282 326.102 203.887C327.301 203.43 328.243 202.573 328.558 201.398C328.782 200.564 328.557 199.857 327.815 199.659C327.197 199.493 326.103 199.68 324.916 200.339L324.87 200.327ZM326.885 200.287C327.256 200.387 327.409 200.742 327.231 201.407C326.932 202.52 326.096 203.356 325.475 203.57C325.123 203.708 324.82 203.726 324.496 203.639C323.877 203.473 323.608 202.871 324.01 202.051C324.352 201.331 324.571 201.009 325.249 200.644C326 200.249 326.545 200.196 326.869 200.283L326.885 200.287ZM339.693 206.436C339.145 206.687 338.568 206.863 338.429 206.826C338.336 206.801 338.327 206.65 338.548 206.195C339.067 205.125 340.669 201.927 341.226 201.148L341.025 201.094L339.831 201.222C339.482 201.907 338.96 202.927 338.544 203.676L335.7 202.914L336.434 201.537C336.943 200.564 337.038 200.026 336.682 199.931C336.265 199.819 335.04 200.186 334.115 200.734L334.22 201.143C334.604 200.948 335.236 200.753 335.391 200.794C335.479 200.834 335.481 200.951 335.253 201.37C334.403 202.997 333.56 204.66 332.596 206.34L332.66 206.473C333.064 206.448 333.468 206.424 333.868 206.415C334.153 205.846 334.978 204.311 335.419 203.469L338.279 204.235C337.978 204.8 337.472 205.824 337.199 206.347C336.801 207.152 336.833 207.591 337.142 207.674C337.513 207.773 338.767 207.48 339.764 206.852L339.693 206.436ZM347.443 208.314C346.86 208.638 346.235 208.868 346.096 208.83C346.019 208.81 346.009 208.658 346.243 208.158C347.124 206.29 348.151 204.313 348.651 203.436L348.637 203.366C348.467 203.32 348.263 203.216 348.074 203.116C347.755 202.947 347.458 202.818 347.149 202.735L347.134 202.731C346.176 202.475 344.902 202.713 343.94 203.151C342.559 203.792 341.382 205.281 340.963 206.842C340.632 208.079 340.994 208.706 341.396 208.814C341.813 208.925 342.398 208.784 343.02 208.503C343.829 208.14 344.766 207.613 345.585 206.905L345.631 206.917L344.929 208.302C344.395 209.369 344.533 209.654 344.827 209.733C345.213 209.836 346.402 209.542 347.525 208.75L347.443 208.314ZM346.302 203.237C346.689 203.341 347.062 203.557 347.249 203.723C347.024 204.193 346.494 205.243 346.147 205.796C345.351 206.726 343.067 208.201 342.465 208.04C342.233 207.978 342.134 207.603 342.317 206.923C342.727 205.393 343.829 203.751 345.087 203.26C345.419 203.133 345.87 203.121 346.287 203.233L346.302 203.237ZM358.552 211.29C357.968 211.614 357.343 211.844 357.204 211.807C357.127 211.786 357.118 211.635 357.351 211.134C358.232 209.267 359.259 207.289 359.759 206.412L359.745 206.342C359.575 206.297 359.371 206.192 359.182 206.092C358.863 205.924 358.566 205.795 358.257 205.712L358.242 205.708C357.284 205.451 356.011 205.69 355.048 206.128C353.668 206.768 352.49 208.258 352.072 209.819C351.74 211.055 352.102 211.682 352.504 211.79C352.921 211.902 353.506 211.76 354.128 211.48C354.937 211.117 355.874 210.589 356.693 209.881L356.739 209.893L356.037 211.279C355.503 212.345 355.642 212.631 355.935 212.709C356.322 212.813 357.51 212.518 358.634 211.726L358.552 211.29ZM357.411 206.214C357.797 206.317 358.17 206.533 358.357 206.699C358.132 207.169 357.602 208.22 357.255 208.773C356.459 209.702 354.176 211.178 353.573 211.016C353.341 210.954 353.243 210.58 353.425 209.9C353.835 208.37 354.937 206.727 356.195 206.236C356.527 206.11 356.978 206.098 357.395 206.21L357.411 206.214ZM363.155 208.73C363.675 207.776 363.782 207.192 363.411 207.093C362.978 206.977 361.8 207.357 360.84 207.911L360.93 208.316C361.403 208.095 361.961 207.93 362.116 207.971C362.224 208 362.149 208.279 361.893 208.74C360.991 210.436 360.197 211.979 359.325 213.502L359.389 213.635C359.808 213.615 360.212 213.59 360.612 213.582C361.042 212.719 361.639 211.604 362.168 210.619C362.806 210.774 363.157 211.133 363.164 211.847C363.175 212.363 363.201 212.884 363.251 213.626C363.303 214.419 363.515 214.74 363.84 214.827C364.35 214.964 365.417 214.505 366.063 213.949L365.907 213.543C365.44 213.865 364.974 214.055 364.743 213.993C364.573 213.947 364.514 213.733 364.443 213.134C364.375 212.337 364.334 211.995 364.236 211.554C364.154 211.118 363.879 210.664 363.606 210.508C364.2 210.269 364.698 209.955 365.322 209.543C365.903 209.168 366.271 208.969 366.503 209.031C366.75 209.097 366.879 209.297 366.934 209.461C366.975 209.555 367.068 209.58 367.181 209.528C367.513 209.401 367.7 209.137 367.767 208.889C367.849 208.58 367.646 208.227 367.306 208.136C366.919 208.033 366.495 208.134 365.773 208.603C365.09 209.05 364.453 209.509 363.861 209.864C363.175 210.26 362.756 210.28 362.357 210.223L363.155 208.73ZM374.319 215.482C373.705 215.798 372.97 216.065 372.785 216.015C372.646 215.978 372.648 215.846 372.841 215.434C373.643 213.677 374.584 211.958 375.5 210.332L375.315 210.282L374.125 210.394C373.626 211.453 373.242 212.145 372.888 212.663C372.089 213.543 369.766 215.289 368.931 215.065C368.669 214.995 368.599 214.761 368.997 213.956C369.638 212.737 370.323 211.479 370.872 210.483C371.336 209.614 371.328 209.214 371.003 209.127C370.586 209.015 369.443 209.322 368.366 209.944L368.475 210.338C369.082 210.053 369.577 209.938 369.7 209.971C369.824 210.004 369.822 210.136 369.598 210.539C368.893 211.808 368.345 212.804 367.759 213.939C367.009 215.378 367.414 215.785 367.8 215.888C368.217 216 368.7 215.931 369.231 215.742C370.192 215.37 371.439 214.611 372.435 213.735L372.466 213.743C372.149 214.37 371.992 214.709 371.76 215.144C371.034 216.49 371.277 216.82 371.571 216.899C371.895 216.986 372.671 216.813 373.583 216.312C373.026 216.908 372.631 217.332 372.461 217.966C372.411 218.151 372.39 218.294 372.352 218.433C372.236 218.866 371.765 218.955 371.255 219.067L371.313 219.53C372.965 219.36 373.248 218.922 373.368 218.474C373.431 218.242 373.454 218.033 373.476 217.824C373.491 217.645 373.518 217.421 373.593 217.142C373.721 216.663 374.117 216.173 374.44 215.895L374.319 215.482ZM382.414 217.734C381.866 218.051 381.225 218.277 381.086 218.239C380.978 218.21 380.98 218.078 381.186 217.62C382.111 215.714 382.992 214.095 383.848 212.569L383.678 212.523L382.504 212.639C382.046 213.544 381.645 214.298 381.285 214.963C380.364 215.926 378.083 217.517 377.233 217.29C376.986 217.223 376.944 216.947 377.316 216.235C377.941 215.078 378.57 213.904 379.176 212.758C379.685 211.785 379.706 211.459 379.366 211.368C378.949 211.256 377.842 211.556 376.69 212.208L376.776 212.628C377.417 212.336 377.928 212.159 378.052 212.192C378.141 212.232 378.138 212.364 377.946 212.71C377.353 213.81 376.756 214.926 376.148 216.022C375.314 217.587 375.73 218.013 376.148 218.125C376.518 218.225 377.012 218.175 377.528 217.981C378.5 217.629 379.66 216.946 380.691 216.129L380.722 216.137C380.473 216.634 380.328 216.926 380.064 217.419C379.394 218.68 379.532 219.032 379.857 219.119C380.32 219.243 381.538 218.841 382.52 218.143L382.414 217.734ZM390.444 219.885C389.895 220.202 389.255 220.428 389.116 220.391C389.007 220.362 389.01 220.23 389.215 219.771C390.14 217.866 391.021 216.247 391.877 214.72L391.707 214.675L390.533 214.791C390.076 215.695 389.675 216.449 389.314 217.115C388.394 218.077 386.112 219.669 385.262 219.441C385.015 219.375 384.973 219.098 385.346 218.387C385.971 217.229 386.6 216.056 387.205 214.91C387.714 213.936 387.735 213.61 387.395 213.519C386.978 213.408 385.871 213.707 384.719 214.359L384.805 214.78C385.446 214.488 385.958 214.31 386.081 214.343C386.17 214.384 386.168 214.516 385.976 214.862C385.383 215.962 384.786 217.077 384.177 218.173C383.344 219.739 383.76 220.165 384.177 220.277C384.548 220.376 385.041 220.326 385.557 220.133C386.529 219.781 387.69 219.098 388.72 218.281L388.751 218.289C388.502 218.785 388.358 219.078 388.093 219.57C387.424 220.832 387.561 221.184 387.886 221.27C388.35 221.395 389.567 220.992 390.549 220.295L390.444 219.885Z" fill="white"/>
<path d="M50.7927 119.996L43.0344 117.917L42.8453 118.314L43.4541 118.576C44.0896 118.863 44.2122 118.962 43.866 119.697C42.6675 122.192 40.8272 125.227 39.0053 126.71C38.7732 126.896 38.633 126.925 38.3703 126.855L37.6439 126.66L36.1334 129.701L36.5816 129.821L37.718 128.485C38.4858 127.598 38.6313 127.488 39.2804 127.662L44.5196 129.065C45.0914 129.219 45.1386 129.414 44.8727 130.22L44.2936 131.887L44.7572 132.011L46.6541 129.074L45.5722 128.784C45.2168 128.689 45.2107 128.588 45.4762 128.03L48.6161 121.566C49.2557 120.23 49.4083 120.155 50.5881 120.388L50.7927 119.996ZM44.3702 127.336C43.9641 128.171 43.7414 128.261 43.0305 128.07L40.1713 127.304C39.8622 127.221 39.8686 127.074 40.0698 126.879C41.9232 124.908 43.5603 121.951 44.7743 119.46C44.9675 119.048 45.0109 119.01 45.7527 119.209L47.4373 119.66C48.0246 119.818 48.008 119.879 47.5575 120.819L44.3702 127.336ZM53.2636 127.135C53.6914 127.084 53.9367 127.034 54.3656 126.917C54.943 126.74 55.3515 126.452 55.484 125.957C55.6828 125.216 55.2208 124.529 54.3399 124.293L54.3245 124.288C53.9226 124.181 53.3414 124.124 52.66 124.257C51.6085 124.472 50.6524 125.011 49.8274 126.297C49.5806 126.661 49.404 127.012 49.1633 127.477C48.0931 129.493 48.8382 130.421 50.0436 130.744C50.8164 130.951 51.7018 130.924 52.5203 130.712C53.4441 130.479 54.2908 129.978 54.5269 129.097C54.8002 128.077 54.062 127.432 53.2553 127.166L53.2636 127.135ZM53.6571 124.739C54.0125 124.834 54.379 125.197 54.2175 125.8C54.0726 126.341 53.3867 126.737 52.4693 126.823C51.7427 126.876 51.1995 126.863 50.8234 126.845C51.3967 125.757 51.9675 125.048 52.7563 124.763C53.0646 124.663 53.3325 124.652 53.6416 124.735L53.6571 124.739ZM52.1801 127.408C52.9064 127.602 53.3593 128.138 53.1564 128.895C52.8831 129.915 51.8897 130.593 50.777 130.295C49.757 130.022 49.7962 129.071 50.1476 128.254C50.313 127.885 50.3781 127.703 50.5661 127.373C50.8774 127.324 51.701 127.279 52.1646 127.404L52.1801 127.408ZM60.4924 131.308C59.5055 131.839 58.555 132.048 57.9059 131.874C56.9631 131.621 56.956 130.659 57.1796 129.824C57.2211 129.669 57.2625 129.515 57.3276 129.334C58.9261 129.364 61.7307 129.221 62.1365 127.707C62.3146 127.042 61.9465 126.314 61.1274 126.095C60.4628 125.917 59.5443 126.068 58.7586 126.404C57.2892 127.004 56.2053 128.453 55.8243 129.875C55.3315 131.714 56.2088 132.396 56.9352 132.591C57.677 132.79 58.9148 132.807 60.6486 131.714L60.4924 131.308ZM60.3971 126.595C60.8298 126.711 61.0716 127.107 60.9308 127.632C60.7361 128.359 59.8852 128.876 57.5178 128.871C58.2557 127.23 59.2189 126.726 59.687 126.587C59.886 126.524 60.1498 126.528 60.3816 126.591L60.3971 126.595ZM66.5758 126.494L66.4616 126.364C66.0481 126.486 65.4625 126.693 65.0932 126.959L64.7327 127.624C64.1534 127.684 63.5421 127.802 63.0461 127.984L63.0466 128.414C63.4405 128.305 63.9116 128.216 64.4517 128.178C63.1676 130.683 61.8598 133.215 60.5632 135.766C60.0943 136.651 59.8911 136.729 58.8636 136.669L58.6983 137.039L62.3139 137.825L62.4875 137.425L62.1094 137.29C61.3729 137.01 61.3133 136.862 61.7389 136.015L62.7473 133.983C63.0078 134.185 63.3704 134.315 63.6177 134.382C64.673 134.399 65.968 134.017 66.9726 133.359C68.1186 132.606 68.8661 131.547 69.1394 130.527C69.5038 129.167 69.0772 128.225 67.4854 127.798C67.2844 127.744 67.0176 127.69 66.762 127.654C66.5064 127.619 66.2313 127.595 65.9942 127.614L66.5758 126.494ZM66.6427 128.285C67.5082 128.517 68.1435 129.051 67.7749 130.427C67.2448 132.405 65.1908 134.074 64.0935 133.78C63.7072 133.677 63.3799 133.291 63.2607 132.994L65.7019 128.149C66.0121 128.165 66.3645 128.21 66.6118 128.276L66.6427 128.285ZM71.7954 132.515L72.7466 130.881C73.294 129.951 73.4585 129.399 73.0567 129.291C72.6549 129.183 71.3991 129.543 70.443 130.082L70.5291 130.502C70.9746 130.323 71.587 130.14 71.7415 130.181C71.826 130.237 71.8042 130.38 71.5996 130.772L69.8996 133.779C69.5918 134.309 69.4604 134.738 69.4929 135.111C69.5376 135.686 69.9772 136.086 70.5645 136.243C71.1827 136.409 72.0278 136.469 73.028 136.075C74.2272 135.618 75.1692 134.76 75.4839 133.586C75.7075 132.751 75.4826 132.045 74.7408 131.846C74.1226 131.68 73.0289 131.868 71.8418 132.527L71.7954 132.515ZM73.8104 132.475C74.1813 132.574 74.3345 132.93 74.1564 133.594C73.8582 134.707 73.0214 135.543 72.4007 135.758C72.0491 135.895 71.746 135.914 71.4215 135.827C70.8033 135.661 70.534 135.059 70.9359 134.239C71.2779 133.519 71.4968 133.196 72.1743 132.831C72.9262 132.437 73.4704 132.384 73.795 132.471L73.8104 132.475ZM86.6189 138.623C86.0713 138.874 85.4939 139.051 85.3548 139.013C85.2621 138.989 85.253 138.837 85.4741 138.383C85.9928 137.313 87.5951 134.114 88.1516 133.336L87.9507 133.282L86.757 133.409C86.4078 134.094 85.8861 135.114 85.4699 135.864L82.6262 135.102L83.3596 133.725C83.8689 132.751 83.9633 132.214 83.6079 132.118C83.1906 132.006 81.9657 132.374 81.0406 132.921L81.1462 133.33C81.5299 133.135 82.1619 132.94 82.3165 132.981C82.405 133.022 82.407 133.138 82.1787 133.557C81.3285 135.185 80.4855 136.847 79.5219 138.527L79.5856 138.66C79.9897 138.636 80.3937 138.612 80.7936 138.603C81.0788 138.033 81.9041 136.499 82.3452 135.656L85.2043 136.422C84.9037 136.988 84.3975 138.011 84.1248 138.535C83.727 139.339 83.7584 139.778 84.0675 139.861C84.4385 139.96 85.6931 139.667 86.6895 139.04L86.6189 138.623ZM94.3693 140.501C93.7855 140.825 93.1607 141.055 93.0216 141.018C92.9443 140.997 92.9352 140.846 93.1687 140.345C94.0501 138.478 95.077 136.5 95.5768 135.624L95.5625 135.553C95.3925 135.508 95.1886 135.404 95.0001 135.303C94.6808 135.135 94.3841 135.006 94.075 134.923L94.0595 134.919C93.1013 134.662 91.8282 134.901 90.8661 135.339C89.4853 135.979 88.3075 137.469 87.8893 139.03C87.558 140.266 87.92 140.893 88.3218 141.001C88.7391 141.113 89.3237 140.971 89.9455 140.691C90.755 140.328 91.6914 139.8 92.5106 139.092L92.557 139.105L91.8545 140.49C91.3204 141.556 91.4592 141.842 91.7528 141.92C92.1392 142.024 93.3279 141.73 94.4512 140.937L94.3693 140.501ZM93.2282 135.425C93.6146 135.528 93.9874 135.744 94.1748 135.91C93.9496 136.38 93.4196 137.431 93.0726 137.984C92.2769 138.914 89.9933 140.389 89.3905 140.227C89.1587 140.165 89.0602 139.791 89.2424 139.111C89.6524 137.581 90.7551 135.938 92.0131 135.447C92.3451 135.321 92.7955 135.309 93.2128 135.421L93.2282 135.425ZM105.477 143.478C104.894 143.802 104.269 144.032 104.13 143.994C104.052 143.974 104.043 143.822 104.277 143.322C105.158 141.454 106.185 139.476 106.685 138.6L106.671 138.53C106.501 138.484 106.297 138.38 106.108 138.28C105.789 138.111 105.492 137.982 105.183 137.899L105.168 137.895C104.209 137.638 102.936 137.877 101.974 138.315C100.593 138.955 99.4157 140.445 98.9974 142.006C98.6661 143.243 99.0282 143.87 99.43 143.977C99.8473 144.089 100.432 143.948 101.054 143.667C101.863 143.304 102.8 142.777 103.619 142.069L103.665 142.081L102.963 143.466C102.429 144.532 102.567 144.818 102.861 144.897C103.247 145 104.436 144.706 105.559 143.914L105.477 143.478ZM104.336 138.401C104.723 138.505 105.096 138.721 105.283 138.887C105.058 139.357 104.528 140.407 104.181 140.96C103.385 141.89 101.101 143.365 100.499 143.204C100.267 143.142 100.168 142.767 100.351 142.087C100.761 140.557 101.863 138.915 103.121 138.424C103.453 138.297 103.904 138.285 104.321 138.397L104.336 138.401ZM110.08 140.918C110.601 139.964 110.708 139.38 110.337 139.28C109.904 139.164 108.726 139.544 107.765 140.099L107.856 140.504C108.329 140.283 108.887 140.118 109.041 140.159C109.149 140.188 109.075 140.466 108.819 140.928C107.917 142.624 107.123 144.167 106.251 145.689L106.315 145.822C106.734 145.802 107.138 145.778 107.538 145.769C107.968 144.907 108.565 143.791 109.094 142.807C109.732 142.961 110.083 143.32 110.09 144.034C110.101 144.551 110.127 145.071 110.176 145.813C110.229 146.606 110.441 146.928 110.766 147.015C111.276 147.151 112.343 146.692 112.989 146.136L112.833 145.73C112.365 146.052 111.9 146.242 111.668 146.18C111.498 146.134 111.44 145.92 111.369 145.321C111.3 144.524 111.26 144.182 111.162 143.742C111.08 143.306 110.805 142.851 110.532 142.695C111.126 142.457 111.624 142.143 112.248 141.73C112.829 141.356 113.197 141.156 113.429 141.219C113.676 141.285 113.804 141.485 113.86 141.649C113.901 141.743 113.994 141.768 114.107 141.715C114.439 141.589 114.626 141.324 114.692 141.077C114.775 140.768 114.571 140.415 114.231 140.324C113.845 140.22 113.42 140.322 112.698 140.791C112.015 141.237 111.379 141.696 110.787 142.051C110.101 142.447 109.682 142.467 109.283 142.41L110.08 140.918ZM121.245 147.669C120.63 147.985 119.896 148.252 119.711 148.202C119.572 148.165 119.574 148.033 119.767 147.621C120.569 145.865 121.51 144.146 122.426 142.52L122.241 142.47L121.051 142.582C120.552 143.641 120.168 144.333 119.814 144.851C119.015 145.73 116.692 147.476 115.857 147.253C115.595 147.182 115.525 146.948 115.922 146.144C116.564 144.924 117.249 143.667 117.797 142.671C118.262 141.801 118.253 141.402 117.929 141.315C117.511 141.203 116.369 141.51 115.291 142.132L115.401 142.526C116.008 142.241 116.502 142.125 116.626 142.158C116.75 142.191 116.747 142.323 116.523 142.727C115.819 143.996 115.27 144.992 114.685 146.127C113.935 147.566 114.339 147.972 114.726 148.076C115.143 148.188 115.625 148.118 116.156 147.929C117.117 147.557 118.364 146.798 119.361 145.922L119.392 145.931C119.075 146.558 118.918 146.897 118.685 147.331C117.96 148.678 118.203 149.008 118.497 149.086C118.821 149.173 119.596 149 120.509 148.499C119.952 149.095 119.557 149.519 119.387 150.153C119.337 150.339 119.315 150.482 119.278 150.621C119.162 151.054 118.691 151.143 118.181 151.254L118.239 151.717C119.891 151.547 120.174 151.109 120.294 150.661C120.356 150.429 120.379 150.22 120.402 150.011C120.417 149.833 120.444 149.608 120.518 149.33C120.647 148.851 121.043 148.361 121.366 148.083L121.245 147.669ZM129.34 149.921C128.791 150.238 128.151 150.464 128.012 150.427C127.904 150.398 127.906 150.266 128.112 149.807C129.036 147.902 129.918 146.283 130.774 144.756L130.604 144.711L129.43 144.827C128.972 145.731 128.571 146.485 128.211 147.151C127.29 148.113 125.009 149.705 124.159 149.477C123.911 149.411 123.869 149.135 124.242 148.423C124.867 147.265 125.496 146.092 126.102 144.946C126.611 143.972 126.632 143.647 126.292 143.555C125.875 143.444 124.767 143.743 123.615 144.395L123.701 144.816C124.343 144.524 124.854 144.346 124.978 144.379C125.066 144.42 125.064 144.552 124.872 144.898C124.279 145.998 123.682 147.113 123.074 148.209C122.24 149.775 122.656 150.201 123.073 150.313C123.444 150.412 123.938 150.362 124.454 150.169C125.426 149.817 126.586 149.134 127.617 148.317L127.648 148.325C127.399 148.821 127.254 149.114 126.99 149.606C126.32 150.868 126.458 151.22 126.782 151.307C127.246 151.431 128.464 151.028 129.446 150.331L129.34 149.921ZM137.369 152.073C136.821 152.39 136.18 152.616 136.041 152.578C135.933 152.549 135.935 152.417 136.141 151.959C137.066 150.053 137.947 148.434 138.803 146.908L138.633 146.862L137.459 146.978C137.001 147.883 136.601 148.637 136.24 149.302C135.32 150.265 133.038 151.856 132.188 151.629C131.941 151.562 131.899 151.286 132.272 150.574C132.896 149.417 133.526 148.243 134.131 147.097C134.64 146.124 134.661 145.798 134.321 145.707C133.904 145.595 132.797 145.895 131.645 146.547L131.731 146.967C132.372 146.675 132.883 146.498 133.007 146.531C133.096 146.571 133.093 146.703 132.901 147.049C132.308 148.149 131.711 149.265 131.103 150.361C130.269 151.926 130.685 152.352 131.103 152.464C131.473 152.563 131.967 152.514 132.483 152.32C133.455 151.968 134.615 151.285 135.646 150.468L135.677 150.476C135.428 150.973 135.283 151.265 135.019 151.758C134.349 153.019 134.487 153.371 134.812 153.458C135.275 153.582 136.493 153.18 137.475 152.482L137.369 152.073Z" fill="white"/>
</g>
<g filter="url(#filter1_d)">
<rect x="-570" y="207.742" width="1192" height="36" transform="rotate(-4.75169 -570 207.742)" fill="#CBA576"/>
<path d="M188.262 156.369L180.258 157.034L180.214 157.472L180.876 157.513C181.571 157.567 181.719 157.619 181.642 158.429C181.357 161.182 180.651 164.66 179.437 166.671C179.282 166.925 179.16 167 178.889 167.022L178.139 167.084L177.745 170.457L178.208 170.418L178.826 168.777C179.249 167.683 179.348 167.53 180.018 167.474L185.423 167.025C186.013 166.976 186.124 167.143 186.146 167.992L186.164 169.757L186.643 169.717L187.435 166.312L186.319 166.405C185.952 166.435 185.912 166.342 185.974 165.727L186.745 158.582C186.895 157.109 187.013 156.987 188.203 156.807L188.262 156.369ZM184.698 165.447C184.598 166.371 184.419 166.53 183.685 166.591L180.736 166.837C180.417 166.863 180.373 166.722 180.497 166.471C181.575 163.989 182.116 160.653 182.417 157.898C182.46 157.445 182.488 157.395 183.253 157.331L184.991 157.187C185.597 157.136 185.602 157.2 185.496 158.237L184.698 165.447ZM193 162.253C193.386 162.06 193.6 161.93 193.964 161.675C194.448 161.314 194.735 160.904 194.692 160.394C194.629 159.629 193.962 159.138 193.053 159.214L193.037 159.215C192.622 159.25 192.056 159.393 191.46 159.748C190.543 160.306 189.825 161.136 189.483 162.625C189.374 163.052 189.326 163.441 189.257 163.961C188.931 166.219 189.946 166.842 191.19 166.738C191.987 166.672 192.811 166.347 193.51 165.871C194.301 165.34 194.928 164.581 194.852 163.672C194.765 162.62 193.852 162.262 193.003 162.285L193 162.253ZM192.561 159.865C192.928 159.834 193.396 160.052 193.447 160.674C193.494 161.232 192.982 161.837 192.147 162.227C191.482 162.524 190.966 162.695 190.606 162.805C190.778 161.587 191.075 160.727 191.721 160.192C191.978 159.994 192.226 159.893 192.545 159.866L192.561 159.865ZM192.073 162.876C192.822 162.813 193.429 163.164 193.494 163.946C193.582 164.998 192.876 165.972 191.728 166.067C190.676 166.155 190.392 165.247 190.446 164.36C190.477 163.956 190.477 163.763 190.542 163.388C190.818 163.237 191.579 162.917 192.057 162.877L192.073 162.876ZM201.214 163.737C200.465 164.57 199.641 165.088 198.971 165.144C197.998 165.225 197.666 164.321 197.595 163.46C197.582 163.301 197.568 163.141 197.568 162.949C199.083 162.438 201.675 161.355 201.545 159.793C201.488 159.107 200.895 158.546 200.05 158.616C199.364 158.673 198.551 159.126 197.925 159.708C196.745 160.769 196.215 162.499 196.336 163.966C196.494 165.864 197.55 166.209 198.3 166.147C199.065 166.084 200.236 165.681 201.499 164.067L201.214 163.737ZM199.532 159.334C199.978 159.297 200.34 159.588 200.385 160.13C200.447 160.879 199.821 161.654 197.591 162.449C197.731 160.655 198.467 159.856 198.861 159.566C199.027 159.44 199.277 159.355 199.516 159.335L199.532 159.334ZM205.313 157.151L205.162 157.068C204.813 157.321 204.332 157.714 204.074 158.089L203.96 158.837C203.435 159.09 202.9 159.407 202.494 159.746L202.64 160.151C202.974 159.915 203.387 159.671 203.883 159.454C203.521 162.245 203.146 165.07 202.788 167.909C202.645 168.901 202.48 169.043 201.493 169.334L201.462 169.738L205.131 169.256L205.159 168.82L204.758 168.821C203.97 168.807 203.864 168.687 203.978 167.746L204.24 165.493C204.554 165.595 204.939 165.595 205.194 165.574C206.194 165.234 207.283 164.437 208.006 163.478C208.83 162.382 209.176 161.133 209.089 160.081C208.972 158.677 208.252 157.935 206.61 158.071C206.402 158.088 206.133 158.127 205.88 158.18C205.628 158.233 205.361 158.303 205.144 158.402L205.313 157.151ZM205.981 158.814C206.874 158.739 207.653 159.028 207.771 160.447C207.94 162.488 206.571 164.753 205.439 164.847C205.04 164.88 204.602 164.628 204.389 164.389L205.05 159.003C205.347 158.915 205.694 158.838 205.949 158.816L205.981 158.814ZM212.26 161.053L212.603 159.194C212.804 158.134 212.772 157.559 212.358 157.593C211.943 157.628 210.883 158.39 210.165 159.22L210.388 159.587C210.747 159.268 211.261 158.889 211.421 158.875C211.519 158.899 211.547 159.041 211.487 159.48L210.903 162.884C210.793 163.487 210.814 163.935 210.97 164.275C211.207 164.801 211.756 165.029 212.362 164.978C212.999 164.925 213.815 164.697 214.623 163.988C215.597 163.152 216.194 162.027 216.093 160.815C216.022 159.954 215.572 159.365 214.806 159.429C214.168 159.482 213.202 160.028 212.308 161.049L212.26 161.053ZM214.143 160.335C214.526 160.303 214.79 160.586 214.847 161.272C214.942 162.42 214.437 163.489 213.926 163.901C213.641 164.149 213.362 164.269 213.027 164.297C212.39 164.35 211.933 163.874 212.034 162.967C212.112 162.173 212.209 161.796 212.724 161.223C213.298 160.598 213.792 160.364 214.127 160.336L214.143 160.335ZM228.276 161.793C227.845 162.214 227.361 162.575 227.218 162.587C227.122 162.595 227.062 162.456 227.117 161.954C227.244 160.771 227.671 157.219 227.931 156.299L227.724 156.316L226.644 156.839C226.547 157.602 226.4 158.738 226.262 159.584L223.328 159.828L223.553 158.284C223.703 157.196 223.61 156.658 223.244 156.688C222.813 156.724 221.784 157.484 221.099 158.312L221.336 158.661C221.631 158.348 222.16 157.95 222.32 157.937C222.417 157.945 222.458 158.054 222.385 158.526C222.135 160.345 221.903 162.194 221.564 164.101L221.669 164.205C222.041 164.045 222.413 163.886 222.786 163.742C222.862 163.11 223.12 161.387 223.251 160.445L226.201 160.199C226.109 160.833 225.978 161.968 225.898 162.553C225.796 163.444 225.974 163.847 226.293 163.82C226.676 163.788 227.757 163.088 228.483 162.161L228.276 161.793ZM236.205 160.941C235.765 161.443 235.255 161.871 235.111 161.883C235.031 161.89 234.972 161.75 235.022 161.2C235.221 159.145 235.519 156.936 235.693 155.943L235.656 155.881C235.48 155.896 235.253 155.867 235.042 155.836C234.684 155.786 234.362 155.764 234.043 155.791L234.027 155.792C233.038 155.874 231.921 156.529 231.163 157.266C230.08 158.336 229.475 160.136 229.609 161.746C229.715 163.022 230.268 163.49 230.682 163.455C231.113 163.42 231.615 163.089 232.105 162.615C232.745 162 233.448 161.187 233.979 160.243L234.027 160.239L233.834 161.781C233.692 162.964 233.919 163.186 234.222 163.161C234.621 163.128 235.64 162.449 236.429 161.324L236.205 160.941ZM233.415 156.549C233.814 156.516 234.238 156.593 234.47 156.686C234.417 157.205 234.273 158.372 234.134 159.01C233.699 160.154 232.048 162.314 231.426 162.366C231.187 162.386 230.968 162.067 230.91 161.365C230.779 159.787 231.261 157.868 232.279 156.981C232.549 156.75 232.969 156.586 233.399 156.551L233.415 156.549ZM247.665 159.989C247.225 160.491 246.715 160.919 246.572 160.931C246.492 160.937 246.432 160.798 246.483 160.248C246.681 158.192 246.979 155.984 247.153 154.99L247.116 154.929C246.941 154.943 246.714 154.914 246.502 154.883C246.145 154.833 245.822 154.812 245.503 154.838L245.487 154.839C244.499 154.922 243.381 155.576 242.624 156.314C241.54 157.383 240.935 159.183 241.069 160.794C241.175 162.069 241.728 162.537 242.143 162.503C242.573 162.467 243.075 162.136 243.566 161.662C244.205 161.047 244.908 160.234 245.44 159.291L245.488 159.287L245.295 160.828C245.152 162.012 245.379 162.234 245.682 162.209C246.081 162.175 247.1 161.497 247.89 160.371L247.665 159.989ZM244.876 155.597C245.274 155.564 245.698 155.641 245.931 155.734C245.878 156.252 245.734 157.42 245.594 158.058C245.159 159.202 243.509 161.362 242.887 161.413C242.648 161.433 242.429 161.114 242.37 160.413C242.239 158.834 242.722 156.916 243.74 156.028C244.009 155.797 244.429 155.634 244.86 155.598L244.876 155.597ZM251.132 156.024C251.3 154.95 251.203 154.364 250.82 154.396C250.374 154.433 249.393 155.189 248.677 156.035L248.899 156.386C249.269 156.018 249.738 155.674 249.898 155.661C250.01 155.652 250.033 155.939 249.948 156.459C249.673 158.361 249.447 160.081 249.141 161.809L249.246 161.912C249.634 161.752 250.006 161.592 250.379 161.449C250.492 160.492 250.677 159.241 250.842 158.135C251.495 158.065 251.946 158.284 252.195 158.954C252.379 159.436 252.58 159.917 252.877 160.599C253.195 161.327 253.503 161.559 253.838 161.531C254.364 161.487 255.213 160.694 255.633 159.953L255.349 159.623C255.018 160.084 254.644 160.42 254.405 160.44C254.23 160.454 254.102 160.272 253.833 159.733C253.499 159.006 253.345 158.698 253.105 158.316C252.88 157.934 252.467 157.599 252.158 157.544C252.636 157.119 252.999 156.655 253.447 156.056C253.867 155.508 254.146 155.195 254.385 155.175C254.64 155.154 254.829 155.299 254.937 155.435C255.007 155.509 255.103 155.501 255.192 155.413C255.461 155.182 255.548 154.87 255.527 154.615C255.5 154.296 255.189 154.033 254.838 154.062C254.44 154.095 254.074 154.334 253.553 155.02C253.062 155.671 252.618 156.318 252.18 156.852C251.669 157.456 251.281 157.617 250.886 157.698L251.132 156.024ZM263.922 158.605C263.45 159.11 262.849 159.61 262.658 159.625C262.514 159.637 262.472 159.512 262.515 159.059C262.676 157.135 262.98 155.2 263.293 153.359L263.102 153.375L262.02 153.883C261.908 155.048 261.78 155.829 261.622 156.436C261.168 157.534 259.571 159.962 258.71 160.034C258.439 160.056 258.294 159.86 258.397 158.968C258.588 157.604 258.808 156.189 258.988 155.066C259.131 154.091 258.988 153.717 258.653 153.745C258.223 153.781 257.251 154.456 256.447 155.405L256.683 155.739C257.158 155.266 257.585 154.99 257.712 154.979C257.84 154.969 257.882 155.094 257.808 155.549C257.573 156.982 257.394 158.104 257.226 159.371C257.007 160.978 257.525 161.224 257.923 161.191C258.354 161.155 258.784 160.927 259.22 160.569C259.999 159.895 260.916 158.759 261.558 157.598L261.59 157.595C261.504 158.293 261.47 158.665 261.398 159.152C261.171 160.664 261.511 160.893 261.814 160.868C262.149 160.84 262.82 160.415 263.51 159.635C263.187 160.384 262.958 160.917 263.012 161.571C263.028 161.762 263.056 161.904 263.068 162.048C263.105 162.494 262.692 162.737 262.249 163.015L262.461 163.431C263.958 162.712 264.077 162.205 264.038 161.742C264.018 161.503 263.969 161.299 263.92 161.094C263.873 160.921 263.823 160.701 263.799 160.414C263.758 159.919 263.965 159.324 264.176 158.953L263.922 158.605ZM272.302 157.989C271.892 158.473 271.366 158.902 271.223 158.914C271.111 158.923 271.068 158.798 271.107 158.297C271.333 156.191 271.615 154.369 271.906 152.643L271.73 152.658L270.664 153.164C270.539 154.17 270.417 155.015 270.302 155.763C269.761 156.98 268.152 159.249 267.275 159.322C267.02 159.343 266.887 159.097 266.997 158.301C267.194 157.001 267.39 155.684 267.572 154.4C267.723 153.312 267.632 152.999 267.281 153.028C266.851 153.064 265.91 153.72 265.046 154.723L265.269 155.09C265.774 154.598 266.196 154.258 266.323 154.247C266.42 154.255 266.463 154.38 266.399 154.771C266.213 156.007 266.028 157.258 265.825 158.495C265.57 160.25 266.105 160.511 266.536 160.475C266.918 160.443 267.366 160.23 267.786 159.874C268.582 159.213 269.444 158.178 270.137 157.061L270.169 157.058C270.103 157.61 270.065 157.934 269.983 158.487C269.779 159.901 270.028 160.185 270.363 160.157C270.841 160.117 271.851 159.327 272.539 158.338L272.302 157.989ZM280.586 157.3C280.176 157.784 279.65 158.213 279.506 158.225C279.395 158.234 279.352 158.109 279.391 157.608C279.617 155.502 279.899 153.681 280.189 151.955L280.014 151.969L278.948 152.475C278.823 153.481 278.701 154.326 278.586 155.074C278.045 156.291 276.436 158.56 275.559 158.633C275.304 158.655 275.171 158.409 275.281 157.613C275.478 156.312 275.674 154.995 275.856 153.712C276.006 152.624 275.916 152.31 275.565 152.339C275.135 152.375 274.194 153.031 273.33 154.034L273.553 154.401C274.058 153.909 274.48 153.569 274.607 153.559C274.704 153.567 274.747 153.692 274.683 154.082C274.496 155.318 274.312 156.57 274.109 157.807C273.854 159.562 274.389 159.822 274.82 159.787C275.202 159.755 275.65 159.541 276.07 159.185C276.866 158.525 277.727 157.49 278.421 156.372L278.453 156.37C278.387 156.921 278.349 157.245 278.267 157.798C278.063 159.212 278.312 159.496 278.647 159.468C279.125 159.429 280.135 158.638 280.823 157.65L280.586 157.3Z" fill="white"/>
<path d="M-72.8392 178.072L-80.8436 178.738L-80.8875 179.175L-80.2258 179.216C-79.5309 179.271 -79.3821 179.322 -79.4593 180.132C-79.7442 182.885 -80.4505 186.363 -81.6641 188.375C-81.8196 188.628 -81.9418 188.703 -82.2129 188.725L-82.9623 188.788L-83.3563 192.16L-82.8939 192.121L-82.2757 190.48C-81.853 189.386 -81.7533 189.233 -81.0836 189.177L-75.6782 188.728C-75.0883 188.679 -74.978 188.846 -74.9556 189.695L-74.9374 191.46L-74.459 191.42L-73.6664 188.015L-74.7825 188.108C-75.1493 188.138 -75.1891 188.045 -75.1279 187.43L-74.357 180.285C-74.2066 178.812 -74.0883 178.69 -72.8991 178.511L-72.8392 178.072ZM-76.4034 187.151C-76.5032 188.074 -76.6826 188.233 -77.4161 188.294L-80.3659 188.54C-80.6848 188.566 -80.7287 188.425 -80.605 188.174C-79.5269 185.692 -78.9854 182.356 -78.6846 179.602C-78.6419 179.149 -78.614 179.098 -77.8487 179.034L-76.1107 178.89C-75.5048 178.84 -75.4995 178.903 -75.606 179.94L-76.4034 187.151ZM-68.1011 183.956C-67.7157 183.763 -67.5018 183.633 -67.1377 183.378C-66.6539 183.017 -66.3668 182.608 -66.4093 182.097C-66.4729 181.332 -67.1398 180.842 -68.0487 180.917L-68.0646 180.918C-68.4792 180.953 -69.0452 181.096 -69.6419 181.451C-70.5589 182.009 -71.2765 182.839 -71.6183 184.329C-71.7274 184.755 -71.7753 185.144 -71.8445 185.664C-72.1705 187.923 -71.1555 188.545 -69.9118 188.441C-69.1145 188.375 -68.2906 188.05 -67.5916 187.574C-66.8009 187.043 -66.1736 186.284 -66.2492 185.375C-66.3366 184.323 -67.2494 183.965 -68.0985 183.988L-68.1011 183.956ZM-68.5404 181.568C-68.1737 181.538 -67.706 181.756 -67.6543 182.377C-67.6079 182.936 -68.1196 183.54 -68.9542 183.93C-69.6199 184.227 -70.1355 184.398 -70.4956 184.508C-70.3239 183.29 -70.0261 182.43 -69.3803 181.895C-69.1238 181.697 -68.8753 181.596 -68.5564 181.569L-68.5404 181.568ZM-69.0287 184.579C-68.2793 184.517 -67.6721 184.867 -67.6072 185.649C-67.5197 186.701 -68.2255 187.675 -69.3735 187.77C-70.4259 187.858 -70.71 186.95 -70.6554 186.063C-70.6247 185.659 -70.6247 185.466 -70.5595 185.091C-70.2831 184.94 -69.523 184.62 -69.0446 184.58L-69.0287 184.579ZM-59.8873 185.441C-60.6368 186.274 -61.4608 186.792 -62.1305 186.847C-63.1031 186.928 -63.4351 186.024 -63.5067 185.163C-63.5199 185.004 -63.5332 184.845 -63.5331 184.652C-62.0183 184.141 -59.427 183.058 -59.5569 181.496C-59.6139 180.81 -60.2064 180.249 -61.0515 180.319C-61.7371 180.376 -62.5504 180.829 -63.1764 181.411C-64.3565 182.473 -64.887 184.202 -64.7651 185.669C-64.6074 187.567 -63.5511 187.913 -62.8017 187.85C-62.0363 187.787 -60.8656 187.384 -59.603 185.77L-59.8873 185.441ZM-61.5699 181.037C-61.1234 181 -60.762 181.291 -60.717 181.833C-60.6547 182.582 -61.2807 183.357 -63.5104 184.152C-63.3706 182.359 -62.6343 181.559 -62.2409 181.269C-62.0748 181.143 -61.825 181.058 -61.5858 181.038L-61.5699 181.037ZM-55.7885 178.854L-55.94 178.771C-56.2882 179.024 -56.7692 179.418 -57.0271 179.792L-57.1415 180.54C-57.6664 180.793 -58.202 181.11 -58.6073 181.449L-58.4612 181.854C-58.1277 181.618 -57.7144 181.375 -57.2187 181.157C-57.5807 183.948 -57.956 186.773 -58.314 189.613C-58.4564 190.604 -58.6212 190.746 -59.6085 191.037L-59.6391 191.441L-55.9704 190.959L-55.9424 190.523L-56.3437 190.525C-57.1316 190.51 -57.2379 190.39 -57.1234 189.449L-56.8612 187.196C-56.5477 187.298 -56.1623 187.298 -55.9072 187.277C-54.9079 186.937 -53.8182 186.14 -53.0952 185.181C-52.2711 184.085 -51.9254 182.836 -52.0129 181.784C-52.1295 180.381 -52.8495 179.638 -54.4919 179.774C-54.6992 179.791 -54.9689 179.83 -55.2214 179.883C-55.4738 179.936 -55.7409 180.006 -55.9575 180.105L-55.7885 178.854ZM-55.1205 180.517C-54.2276 180.443 -53.449 180.731 -53.3311 182.15C-53.1614 184.191 -54.5305 186.456 -55.6626 186.55C-56.0612 186.584 -56.4996 186.331 -56.7122 186.092L-56.052 180.707C-55.7543 180.618 -55.4075 180.541 -55.1524 180.519L-55.1205 180.517ZM-48.8415 182.756L-48.4983 180.898C-48.2975 179.837 -48.3292 179.262 -48.7438 179.296C-49.1584 179.331 -50.2189 180.093 -50.9366 180.924L-50.7134 181.29C-50.3546 180.972 -49.8403 180.592 -49.6808 180.578C-49.5825 180.602 -49.5546 180.745 -49.6145 181.183L-50.1986 184.587C-50.309 185.19 -50.2878 185.638 -50.1311 185.978C-49.8947 186.504 -49.346 186.732 -48.74 186.681C-48.1022 186.628 -47.2864 186.4 -46.4783 185.691C-45.5042 184.855 -44.9074 183.73 -45.0081 182.518C-45.0797 181.657 -45.53 181.068 -46.2954 181.132C-46.9332 181.185 -47.8993 181.731 -48.7937 182.752L-48.8415 182.756ZM-46.9586 182.038C-46.5759 182.006 -46.3115 182.289 -46.2546 182.975C-46.1591 184.123 -46.6643 185.192 -47.1759 185.604C-47.4603 185.853 -47.7394 185.972 -48.0742 186C-48.712 186.053 -49.169 185.577 -49.0678 184.67C-48.9893 183.876 -48.8922 183.499 -48.3778 182.927C-47.8037 182.301 -47.3094 182.067 -46.9745 182.039L-46.9586 182.038ZM-32.8258 183.496C-33.2564 183.917 -33.7402 184.279 -33.8837 184.291C-33.9793 184.298 -34.0391 184.159 -33.9845 183.657C-33.858 182.474 -33.4308 178.923 -33.1702 178.002L-33.3774 178.019L-34.4578 178.542C-34.555 179.305 -34.7014 180.441 -34.8397 181.287L-37.7736 181.531L-37.5487 179.987C-37.3984 178.899 -37.4913 178.361 -37.858 178.391C-38.2885 178.427 -39.3171 179.187 -40.0029 180.015L-39.7651 180.364C-39.4701 180.051 -38.9412 179.654 -38.7817 179.64C-38.6847 179.648 -38.6436 179.757 -38.7167 180.229C-38.9669 182.048 -39.1985 183.897 -39.5377 185.804L-39.4328 185.908C-39.0607 185.748 -38.6886 185.589 -38.3152 185.446C-38.2393 184.813 -37.9812 183.09 -37.8508 182.148L-34.901 181.903C-34.9928 182.536 -35.1232 183.671 -35.2031 184.256C-35.3056 185.147 -35.1276 185.55 -34.8087 185.523C-34.426 185.492 -33.3443 184.792 -32.6186 183.864L-32.8258 183.496ZM-24.8968 182.644C-25.3367 183.147 -25.847 183.574 -25.9905 183.586C-26.0702 183.593 -26.13 183.453 -26.0794 182.903C-25.881 180.848 -25.5829 178.64 -25.4086 177.646L-25.4458 177.585C-25.6212 177.599 -25.8484 177.57 -26.0597 177.539C-26.4171 177.489 -26.74 177.467 -27.0589 177.494L-27.0748 177.495C-28.0634 177.577 -29.181 178.232 -29.9385 178.969C-31.0217 180.039 -31.6266 181.839 -31.4927 183.45C-31.3867 184.725 -30.834 185.193 -30.4195 185.159C-29.989 185.123 -29.4866 184.792 -28.9962 184.318C-28.357 183.703 -27.6539 182.89 -27.1222 181.946L-27.0744 181.942L-27.2674 183.484C-27.4098 184.668 -27.1826 184.89 -26.8797 184.864C-26.4811 184.831 -25.4618 184.152 -24.6723 183.027L-24.8968 182.644ZM-27.6862 178.252C-27.2875 178.219 -26.8637 178.296 -26.6312 178.389C-26.6844 178.908 -26.8282 180.076 -26.9678 180.713C-27.4026 181.857 -29.0533 184.017 -29.6752 184.069C-29.9143 184.089 -30.1335 183.77 -30.1918 183.069C-30.323 181.49 -29.8403 179.571 -28.8223 178.684C-28.5525 178.453 -28.1326 178.29 -27.7021 178.254L-27.6862 178.252ZM-13.4363 181.692C-13.8762 182.194 -14.3865 182.622 -14.53 182.634C-14.6098 182.64 -14.6695 182.501 -14.6189 181.951C-14.4205 179.895 -14.1224 177.687 -13.9481 176.693L-13.9853 176.632C-14.1607 176.646 -14.3879 176.617 -14.5992 176.587C-14.9566 176.536 -15.2795 176.515 -15.5984 176.541L-15.6143 176.543C-16.6029 176.625 -17.7205 177.28 -18.478 178.017C-19.5612 179.086 -20.1661 180.887 -20.0323 182.497C-19.9262 183.773 -19.3736 184.24 -18.959 184.206C-18.5285 184.17 -18.0262 183.839 -17.5358 183.365C-16.8965 182.75 -16.1934 181.937 -15.6618 180.994L-15.6139 180.99L-15.8069 182.531C-15.9493 183.715 -15.7222 183.937 -15.4192 183.912C-15.0206 183.879 -14.0013 183.2 -13.2118 182.075L-13.4363 181.692ZM-16.2257 177.3C-15.8271 177.267 -15.4032 177.344 -15.1707 177.437C-15.224 177.955 -15.3677 179.123 -15.5074 179.761C-15.9421 180.905 -17.5928 183.065 -18.2147 183.117C-18.4539 183.136 -18.673 182.817 -18.7314 182.116C-18.8626 180.537 -18.3798 178.619 -17.3619 177.731C-17.0921 177.5 -16.6722 177.337 -16.2416 177.301L-16.2257 177.3ZM-9.96931 177.727C-9.80166 176.653 -9.89854 176.067 -10.2812 176.099C-10.7277 176.136 -11.7084 176.892 -12.4248 177.738L-12.203 178.089C-11.8322 177.721 -11.3631 177.377 -11.2036 177.364C-11.092 177.355 -11.0681 177.642 -11.1533 178.163C-11.4287 180.064 -11.655 181.785 -11.9609 183.512L-11.856 183.616C-11.468 183.455 -11.0959 183.295 -10.7225 183.152C-10.6094 182.195 -10.4244 180.944 -10.2594 179.838C-9.60699 179.768 -9.15527 179.987 -8.90694 180.657C-8.72234 181.139 -8.52181 181.62 -8.22431 182.302C-7.9069 183.03 -7.59868 183.262 -7.26384 183.234C-6.73765 183.19 -5.88843 182.397 -5.4684 181.656L-5.75268 181.326C-6.08363 181.787 -6.45707 182.123 -6.69624 182.143C-6.87164 182.158 -6.99916 181.976 -7.26878 181.436C-7.60214 180.709 -7.7562 180.401 -7.99662 180.019C-8.2211 179.637 -8.63426 179.302 -8.94385 179.247C-8.46542 178.822 -8.10258 178.359 -7.65467 177.759C-7.23468 177.211 -6.95558 176.898 -6.7164 176.879C-6.46128 176.857 -6.27263 177.002 -6.16504 177.138C-6.09463 177.212 -5.99896 177.204 -5.90992 177.117C-5.64014 176.885 -5.5537 176.573 -5.57491 176.318C-5.60142 175.999 -5.91229 175.736 -6.26308 175.765C-6.6617 175.798 -7.02715 176.037 -7.54816 176.723C-8.03992 177.374 -8.48385 178.021 -8.92111 178.555C-9.4328 179.159 -9.82082 179.32 -10.2155 179.401L-9.96931 177.727ZM2.82024 180.308C2.34843 180.813 1.74775 181.313 1.55641 181.329C1.4129 181.341 1.37041 181.216 1.41302 180.763C1.5742 178.839 1.87888 176.903 2.19152 175.062L2.00018 175.078L0.918486 175.586C0.80663 176.751 0.678908 177.532 0.520663 178.139C0.0660092 179.237 -1.5303 181.665 -2.39133 181.737C-2.6624 181.76 -2.80719 181.563 -2.70469 180.671C-2.51307 179.307 -2.29353 177.892 -2.11392 176.769C-1.97021 175.794 -2.11364 175.42 -2.44848 175.448C-2.879 175.484 -3.85044 176.159 -4.65452 177.109L-4.41807 177.442C-3.94362 176.969 -3.51704 176.693 -3.38948 176.682C-3.26192 176.672 -3.21943 176.797 -3.29393 177.252C-3.52808 178.685 -3.7077 179.807 -3.87538 181.074C-4.09496 182.681 -3.5768 182.927 -3.17818 182.894C-2.74766 182.858 -2.31711 182.63 -1.88121 182.273C-1.10244 181.598 -0.185376 180.462 0.456642 179.301L0.488532 179.298C0.402019 179.996 0.368723 180.368 0.29687 180.855C0.0693421 182.367 0.409449 182.596 0.712404 182.571C1.04725 182.543 1.71835 182.118 2.40812 181.338C2.08508 182.087 1.85643 182.62 1.91077 183.274C1.92667 183.465 1.95455 183.607 1.96648 183.751C2.00359 184.197 1.5903 184.44 1.14778 184.718L1.35896 185.134C2.85659 184.416 2.97495 183.908 2.93651 183.446C2.91663 183.206 2.86751 183.002 2.81839 182.797C2.77192 182.624 2.72148 182.404 2.69762 182.117C2.65653 181.622 2.86394 181.027 3.07395 180.657L2.82024 180.308ZM11.2001 179.692C10.7908 180.176 10.2645 180.605 10.121 180.617C10.0094 180.626 9.96688 180.501 10.0055 180C10.2318 177.894 10.5139 176.073 10.8039 174.347L10.6285 174.361L9.5628 174.867C9.43769 175.873 9.31527 176.718 9.20084 177.466C8.6598 178.683 7.05023 180.952 6.17326 181.025C5.91814 181.046 5.78532 180.8 5.89577 180.005C6.09269 178.704 6.28829 177.387 6.47059 176.104C6.62096 175.015 6.53068 174.702 6.17989 174.731C5.74937 174.767 4.80849 175.423 3.94461 176.426L4.16776 176.793C4.67278 176.301 5.09406 175.961 5.22162 175.95C5.31861 175.958 5.36111 176.083 5.29725 176.474C5.11097 177.71 4.92601 178.961 4.72379 180.198C4.46831 181.954 5.00373 182.214 5.43424 182.178C5.81692 182.146 6.26475 181.933 6.6847 181.577C7.48075 180.916 8.34198 179.882 9.03581 178.764L9.0677 178.762C9.00115 179.313 8.96388 179.637 8.88138 180.19C8.67779 181.604 8.9262 181.888 9.26105 181.86C9.7394 181.82 10.7494 181.03 11.4379 180.042L11.2001 179.692ZM19.484 179.004C19.0747 179.487 18.5484 179.916 18.4049 179.928C18.2933 179.937 18.2508 179.812 18.2895 179.312C18.5158 177.206 18.7978 175.384 19.0879 173.658L18.9125 173.673L17.8467 174.179C17.7216 175.184 17.5992 176.029 17.4848 176.777C16.9437 177.994 15.3342 180.264 14.4572 180.337C14.2021 180.358 14.0692 180.112 14.1797 179.316C14.3766 178.015 14.5722 176.698 14.7545 175.415C14.9049 174.327 14.8146 174.013 14.4638 174.042C14.0333 174.078 13.0924 174.734 12.2285 175.737L12.4517 176.104C12.9567 175.613 13.378 175.273 13.5055 175.262C13.6025 175.27 13.645 175.395 13.5812 175.785C13.3949 177.021 13.2099 178.273 13.0077 179.51C12.7522 181.265 13.2877 181.525 13.7182 181.49C14.1009 181.458 14.5487 181.244 14.9686 180.888C15.7647 180.228 16.6259 179.193 17.3197 178.076L17.3516 178.073C17.2851 178.624 17.2478 178.949 17.1653 179.501C16.9617 180.915 17.2101 181.199 17.545 181.172C18.0233 181.132 19.0333 180.341 19.7218 179.353L19.484 179.004Z" fill="white"/>
<path d="M57.7116 167.221L49.7072 167.886L49.6633 168.323L50.325 168.364C51.0199 168.419 51.1687 168.471 51.0915 169.28C50.8065 172.033 50.1003 175.512 48.8867 177.523C48.7312 177.777 48.6089 177.851 48.3379 177.874L47.5885 177.936L47.1944 181.308L47.6569 181.27L48.2751 179.629C48.6978 178.534 48.7975 178.381 49.4672 178.326L54.8726 177.876C55.4625 177.827 55.5728 177.995 55.5952 178.844L55.6134 180.608L56.0918 180.569L56.8844 177.163L55.7682 177.256C55.4015 177.287 55.3617 177.194 55.4229 176.578L56.1937 169.434C56.3442 167.96 56.4625 167.838 57.6517 167.659L57.7116 167.221ZM54.1474 176.299C54.0476 177.222 53.8681 177.382 53.1347 177.443L50.1848 177.688C49.8659 177.715 49.8221 177.574 49.9457 177.323C51.0239 174.841 51.5654 171.504 51.8662 168.75C51.9088 168.297 51.9367 168.246 52.7021 168.183L54.4401 168.038C55.046 167.988 55.0513 168.052 54.9448 169.088L54.1474 176.299ZM62.4497 173.104C62.835 172.912 63.049 172.782 63.4131 172.527C63.8968 172.165 64.1839 171.756 64.1415 171.246C64.0779 170.48 63.411 169.99 62.5021 170.066L62.4862 170.067C62.0716 170.101 61.5055 170.245 60.9089 170.599C59.9919 171.157 59.2742 171.988 58.9324 173.477C58.8234 173.903 58.7755 174.293 58.7063 174.812C58.3803 177.071 59.3953 177.693 60.639 177.59C61.4363 177.523 62.2601 177.198 62.9591 176.723C63.7498 176.191 64.3772 175.433 64.3016 174.524C64.2141 173.471 63.3014 173.114 62.4523 173.136L62.4497 173.104ZM62.0104 170.717C62.3771 170.686 62.8448 170.904 62.8964 171.526C62.9428 172.084 62.4312 172.688 61.5966 173.079C60.9309 173.375 60.4153 173.546 60.0552 173.657C60.2268 172.438 60.5247 171.579 61.1705 171.043C61.427 170.845 61.6755 170.744 61.9944 170.718L62.0104 170.717ZM61.5221 173.727C62.2715 173.665 62.8787 174.016 62.9436 174.797C63.0311 175.85 62.3253 176.823 61.1773 176.919C60.1249 177.006 59.8407 176.099 59.8954 175.211C59.9261 174.807 59.9261 174.615 59.9913 174.24C60.2677 174.088 61.0278 173.768 61.5061 173.729L61.5221 173.727ZM70.6635 174.589C69.9139 175.422 69.09 175.94 68.4203 175.996C67.4477 176.077 67.1157 175.173 67.0441 174.312C67.0309 174.152 67.0176 173.993 67.0176 173.8C68.5325 173.289 71.1237 172.207 70.9939 170.644C70.9369 169.958 70.3444 169.398 69.4993 169.468C68.8136 169.525 68.0004 169.978 67.3744 170.56C66.1943 171.621 65.6638 173.351 65.7857 174.818C65.9434 176.715 66.9997 177.061 67.7491 176.999C68.5145 176.935 69.6852 176.533 70.9478 174.919L70.6635 174.589ZM68.9809 170.185C69.4274 170.148 69.7887 170.439 69.8338 170.981C69.8961 171.731 69.2701 172.505 67.0403 173.301C67.1802 171.507 67.9165 170.707 68.3099 170.418C68.476 170.291 68.7258 170.206 68.965 170.187L68.9809 170.185ZM74.7623 168.003L74.6108 167.919C74.2626 168.173 73.7815 168.566 73.5237 168.941L73.4093 169.689C72.8844 169.941 72.3488 170.259 71.9435 170.597L72.0896 171.003C72.4231 170.766 72.8364 170.523 73.3321 170.305C72.9701 173.097 72.5948 175.922 72.2368 178.761C72.0944 179.752 71.9296 179.894 70.9423 180.185L70.9116 180.589L74.5804 180.108L74.6084 179.672L74.2071 179.673C73.4191 179.658 73.3129 179.539 73.4273 178.598L73.6896 176.344C74.0031 176.447 74.3885 176.447 74.6436 176.426C75.6429 176.086 76.7326 175.289 77.4556 174.329C78.2796 173.233 78.6254 171.985 78.5379 170.932C78.4213 169.529 77.7012 168.786 76.0589 168.923C75.8516 168.94 75.5819 168.978 75.3294 169.031C75.0769 169.084 74.8099 169.155 74.5933 169.253L74.7623 168.003ZM75.4303 169.665C76.3232 169.591 77.1018 169.879 77.2197 171.299C77.3894 173.34 76.0203 175.605 74.8882 175.699C74.4896 175.732 74.0512 175.479 73.8386 175.24L74.4988 169.855C74.7964 169.766 75.1433 169.689 75.3984 169.668L75.4303 169.665ZM81.7092 171.905L82.0524 170.046C82.2533 168.986 82.2215 168.41 81.807 168.445C81.3924 168.479 80.3319 169.242 79.6142 170.072L79.8374 170.439C80.1962 170.12 80.7105 169.74 80.8699 169.727C80.9683 169.751 80.9961 169.893 80.9363 170.331L80.3522 173.735C80.2418 174.339 80.263 174.786 80.4197 175.127C80.6561 175.653 81.2048 175.88 81.8107 175.83C82.4485 175.777 83.2644 175.548 84.0724 174.839C85.0466 174.004 85.6434 172.878 85.5427 171.666C85.4711 170.805 85.0208 170.217 84.2554 170.28C83.6176 170.333 82.6515 170.879 81.7571 171.901L81.7092 171.905ZM83.5922 171.186C83.9749 171.155 84.2392 171.438 84.2962 172.123C84.3917 173.271 83.8865 174.341 83.3749 174.753C83.0905 175.001 82.8114 175.121 82.4766 175.148C81.8388 175.201 81.3818 174.726 81.483 173.818C81.5615 173.025 81.6586 172.648 82.1729 172.075C82.7471 171.449 83.2414 171.215 83.5763 171.188L83.5922 171.186ZM97.7249 172.645C97.2944 173.066 96.8106 173.427 96.6671 173.439C96.5714 173.447 96.5117 173.307 96.5663 172.805C96.6927 171.623 97.12 168.071 97.3806 167.15L97.1733 167.167L96.093 167.691C95.9958 168.453 95.8494 169.589 95.7111 170.436L92.7772 170.68L93.0021 169.136C93.1524 168.048 93.0595 167.509 92.6928 167.54C92.2623 167.576 91.2337 168.336 90.5479 169.163L90.7857 169.513C91.0807 169.199 91.6096 168.802 91.7691 168.789C91.8661 168.797 91.9072 168.906 91.8341 169.377C91.5839 171.196 91.3523 173.046 91.0131 174.953L91.118 175.056C91.4901 174.897 91.8622 174.737 92.2356 174.594C92.3114 173.962 92.5696 172.238 92.7 171.296L95.6498 171.051C95.558 171.685 95.4275 172.82 95.3477 173.404C95.2452 174.296 95.4232 174.698 95.7421 174.672C96.1247 174.64 97.2065 173.94 97.9322 173.013L97.7249 172.645ZM105.654 171.793C105.214 172.295 104.704 172.723 104.56 172.735C104.481 172.741 104.421 172.602 104.471 172.052C104.67 169.996 104.968 167.788 105.142 166.794L105.105 166.733C104.93 166.748 104.702 166.718 104.491 166.688C104.134 166.637 103.811 166.616 103.492 166.642L103.476 166.644C102.487 166.726 101.37 167.381 100.612 168.118C99.5291 169.187 98.9242 170.988 99.058 172.598C99.1641 173.874 99.7167 174.341 100.131 174.307C100.562 174.271 101.064 173.94 101.555 173.466C102.194 172.851 102.897 172.038 103.429 171.095L103.476 171.091L103.283 172.632C103.141 173.816 103.368 174.038 103.671 174.013C104.07 173.98 105.089 173.301 105.878 172.176L105.654 171.793ZM102.865 167.401C103.263 167.368 103.687 167.445 103.92 167.538C103.866 168.056 103.723 169.224 103.583 169.862C103.148 171.006 101.497 173.166 100.876 173.218C100.636 173.237 100.417 172.919 100.359 172.217C100.228 170.638 100.71 168.72 101.728 167.832C101.998 167.601 102.418 167.438 102.849 167.402L102.865 167.401ZM117.114 170.84C116.675 171.342 116.164 171.77 116.021 171.782C115.941 171.789 115.881 171.649 115.932 171.099C116.13 169.044 116.428 166.835 116.603 165.841L116.565 165.78C116.39 165.795 116.163 165.766 115.952 165.735C115.594 165.684 115.271 165.663 114.952 165.69L114.936 165.691C113.948 165.773 112.83 166.428 112.073 167.165C110.99 168.235 110.385 170.035 110.519 171.645C110.625 172.921 111.177 173.389 111.592 173.354C112.022 173.319 112.525 172.988 113.015 172.514C113.654 171.899 114.357 171.085 114.889 170.142L114.937 170.138L114.744 171.68C114.601 172.863 114.829 173.085 115.132 173.06C115.53 173.027 116.549 172.348 117.339 171.223L117.114 170.84ZM114.325 166.448C114.724 166.415 115.148 166.492 115.38 166.585C115.327 167.103 115.183 168.271 115.043 168.909C114.609 170.053 112.958 172.213 112.336 172.265C112.097 172.285 111.878 171.966 111.819 171.264C111.688 169.686 112.171 167.767 113.189 166.88C113.459 166.649 113.879 166.485 114.309 166.45L114.325 166.448ZM120.581 166.875C120.749 165.802 120.652 165.216 120.27 165.248C119.823 165.285 118.842 166.041 118.126 166.887L118.348 167.238C118.719 166.87 119.188 166.526 119.347 166.512C119.459 166.503 119.483 166.79 119.397 167.311C119.122 169.212 118.896 170.933 118.59 172.66L118.695 172.764C119.083 172.603 119.455 172.444 119.828 172.3C119.941 171.344 120.126 170.092 120.291 168.987C120.944 168.916 121.396 169.136 121.644 169.805C121.828 170.288 122.029 170.769 122.326 171.451C122.644 172.179 122.952 172.41 123.287 172.382C123.813 172.338 124.662 171.545 125.082 170.804L124.798 170.474C124.467 170.935 124.094 171.272 123.855 171.291C123.679 171.306 123.552 171.124 123.282 170.584C122.949 169.858 122.795 169.549 122.554 169.168C122.33 168.785 121.917 168.45 121.607 168.396C122.085 167.971 122.448 167.507 122.896 166.908C123.316 166.359 123.595 166.047 123.834 166.027C124.089 166.006 124.278 166.151 124.386 166.286C124.456 166.361 124.552 166.353 124.641 166.265C124.911 166.034 124.997 165.722 124.976 165.467C124.949 165.148 124.638 164.885 124.288 164.914C123.889 164.947 123.524 165.186 123.003 165.871C122.511 166.522 122.067 167.169 121.63 167.703C121.118 168.308 120.73 168.469 120.335 168.55L120.581 166.875ZM133.371 169.457C132.899 169.962 132.299 170.461 132.107 170.477C131.964 170.489 131.921 170.364 131.964 169.911C132.125 167.987 132.43 166.051 132.742 164.211L132.551 164.227L131.469 164.734C131.357 165.899 131.23 166.681 131.071 167.288C130.617 168.385 129.02 170.814 128.159 170.885C127.888 170.908 127.744 170.711 127.846 169.82C128.038 168.455 128.257 167.04 128.437 165.917C128.581 164.942 128.437 164.569 128.102 164.597C127.672 164.632 126.7 165.307 125.896 166.257L126.133 166.591C126.607 166.118 127.034 165.841 127.161 165.831C127.289 165.82 127.331 165.945 127.257 166.401C127.023 167.833 126.843 168.956 126.675 170.222C126.456 171.83 126.974 172.076 127.373 172.043C127.803 172.007 128.234 171.778 128.67 171.421C129.448 170.746 130.365 169.61 131.007 168.449L131.039 168.447C130.953 169.144 130.92 169.516 130.848 170.004C130.62 171.516 130.96 171.744 131.263 171.719C131.598 171.691 132.269 171.266 132.959 170.487C132.636 171.236 132.407 171.769 132.462 172.422C132.477 172.614 132.505 172.756 132.517 172.899C132.554 173.346 132.141 173.589 131.699 173.867L131.91 174.282C133.407 173.564 133.526 173.056 133.487 172.594C133.467 172.355 133.418 172.15 133.369 171.946C133.323 171.773 133.272 171.552 133.248 171.265C133.207 170.771 133.415 170.176 133.625 169.805L133.371 169.457ZM141.751 168.841C141.342 169.324 140.815 169.753 140.672 169.765C140.56 169.774 140.518 169.649 140.556 169.149C140.783 167.043 141.065 165.221 141.355 163.495L141.179 163.51L140.114 164.016C139.988 165.021 139.866 165.866 139.752 166.615C139.211 167.832 137.601 170.101 136.724 170.174C136.469 170.195 136.336 169.949 136.447 169.153C136.643 167.852 136.839 166.536 137.021 165.252C137.172 164.164 137.081 163.85 136.731 163.879C136.3 163.915 135.359 164.571 134.495 165.574L134.719 165.941C135.224 165.45 135.645 165.11 135.772 165.099C135.869 165.107 135.912 165.232 135.848 165.622C135.662 166.858 135.477 168.11 135.275 169.347C135.019 171.102 135.555 171.363 135.985 171.327C136.368 171.295 136.816 171.081 137.235 170.725C138.032 170.065 138.893 169.03 139.587 167.913L139.618 167.91C139.552 168.461 139.515 168.786 139.432 169.338C139.229 170.752 139.477 171.036 139.812 171.009C140.29 170.969 141.3 170.178 141.989 169.19L141.751 168.841ZM150.035 168.152C149.625 168.636 149.099 169.065 148.956 169.077C148.844 169.086 148.802 168.961 148.84 168.46C149.067 166.354 149.349 164.532 149.639 162.806L149.463 162.821L148.398 163.327C148.272 164.333 148.15 165.178 148.036 165.926C147.495 167.143 145.885 169.412 145.008 169.485C144.753 169.506 144.62 169.26 144.73 168.464C144.927 167.164 145.123 165.847 145.305 164.563C145.456 163.475 145.365 163.162 145.015 163.191C144.584 163.227 143.643 163.883 142.779 164.886L143.002 165.253C143.507 164.761 143.929 164.421 144.056 164.41C144.153 164.418 144.196 164.543 144.132 164.934C143.946 166.17 143.761 167.421 143.558 168.658C143.303 170.413 143.838 170.674 144.269 170.638C144.652 170.606 145.099 170.392 145.519 170.036C146.315 169.376 147.177 168.341 147.871 167.224L147.902 167.221C147.836 167.773 147.799 168.097 147.716 168.65C147.513 170.063 147.761 170.348 148.096 170.32C148.574 170.28 149.584 169.49 150.273 168.501L150.035 168.152Z" fill="white"/>
</g>
</g>
<defs>
<filter id="filter0_d" x="-568" y="-55" width="1170.7" height="353.286" filterUnits="userSpaceOnUse" color-interpolation-filters="sRGB">
<feFlood flood-opacity="0" result="BackgroundImageFix"/>
<feColorMatrix in="SourceAlpha" type="matrix" values="0 0 0 0 0 0 0 0 0 0 0 0 0 0 0 0 0 0 127 0"/>
<feOffset dy="4"/>
<feGaussianBlur stdDeviation="2.5"/>
<feColorMatrix type="matrix" values="0 0 0 0 0 0 0 0 0 0 0 0 0 0 0 0 0 0 0.1 0"/>
<feBlend mode="normal" in2="BackgroundImageFix" result="effect1_dropShadow"/>
<feBlend mode="normal" in="SourceGraphic" in2="effect1_dropShadow" result="shape"/>
</filter>
<filter id="filter1_d" x="-575" y="108" width="1200.89" height="144.619" filterUnits="userSpaceOnUse" color-interpolation-filters="sRGB">
<feFlood flood-opacity="0" result="BackgroundImageFix"/>
<feColorMatrix in="SourceAlpha" type="matrix" values="0 0 0 0 0 0 0 0 0 0 0 0 0 0 0 0 0 0 127 0"/>
<feOffset dy="4"/>
<feGaussianBlur stdDeviation="2.5"/>
<feColorMatrix type="matrix" values="0 0 0 0 0 0 0 0 0 0 0 0 0 0 0 0 0 0 0.1 0"/>
<feBlend mode="normal" in2="BackgroundImageFix" result="effect1_dropShadow"/>
<feBlend mode="normal" in="SourceGraphic" in2="effect1_dropShadow" result="shape"/>
</filter>
<clipPath id="clip0">
<rect width="306" height="220" fill="white"/>
</clipPath>
</defs>
</svg>
