<?xml version="1.0" encoding="utf-8"?><svg xmlns="http://www.w3.org/2000/svg" xmlns:xlink="http://www.w3.org/1999/xlink"><symbol viewBox="0 0 24 24" id="Trash" xmlns="http://www.w3.org/2000/svg"><path fill-rule="evenodd" clip-rule="evenodd" d="M17.002 22A2 2 0 0019 20V7c.556 0 1-.448 1-1 0-.556-.448-1-1-1h-5a2 2 0 10-4 0H5c-.555 0-1 .448-1 1 0 .556.448 1 1 1v13c0 1.107.895 2 1.998 2h10.004zm0-2S7 20.002 7 20V7h10c0 3.203 0 13 .002 13zM13 9.998A.997.997 0 0114 9c.552 0 1 .446 1 .998v7.005c0 .55-.444.997-1 .997-.552 0-1-.446-1-.997V9.998zM10 9c-.556 0-1 .447-1 .998v7.005A1 1 0 0010 18c.556 0 1-.447 1-.997V9.998A.999.999 0 0010 9z"/></symbol><symbol viewBox="0 0 7 5" id="arrow-down" xmlns="http://www.w3.org/2000/svg"><path d="M1 1l2.5 2.5L6 1"/></symbol><symbol viewBox="0 0 6 4" id="arrow-dropdown" xmlns="http://www.w3.org/2000/svg"><path d="M.5.5L3 3 5.5.5"/></symbol><symbol viewBox="0 0 24 24" id="burger" xmlns="http://www.w3.org/2000/svg"><path d="M21 1H1m20 6H1m20 6H8"/></symbol><symbol viewBox="0 0 28 28" id="cart" xmlns="http://www.w3.org/2000/svg"><path fill-rule="evenodd" clip-rule="evenodd" d="M13.5 1.592a5.351 5.351 0 015.35 5.347l1.067.002c1.183 0 2.202.957 2.275 2.134l.804 12.851a1.98 1.98 0 01-2.001 2.134H6.005a1.982 1.982 0 01-2-2.134l.802-12.851c.074-1.179 1.09-2.134 2.276-2.134H8.15a5.352 5.352 0 015.35-5.35zm3.211 5.349a3.212 3.212 0 00-3.21-3.21 3.211 3.211 0 00-3.21 3.207l6.42.003zm-8.56 2.14H7.083c-.055 0-.136.076-.14.127l-.786 12.711 14.695-.002-.794-12.71c-.004-.048-.087-.126-.14-.126H18.85v2.14a1.07 1.07 0 11-2.14 0V9.08h-6.42v2.14a1.07 1.07 0 11-2.139 0V9.08zm0 9.63c0-.592.48-1.07 1.064-1.07h8.57c.588 0 1.064.474 1.064 1.07 0 .59-.48 1.07-1.064 1.07h-8.57a1.065 1.065 0 01-1.065-1.07z"/></symbol><symbol viewBox="0 0 28 28" id="favorite" xmlns="http://www.w3.org/2000/svg"><path fill-rule="evenodd" clip-rule="evenodd" d="M18.67 3.5a6.974 6.974 0 00-4.667 1.782A7 7 0 002.336 10.5c0 5.643 5.808 11.096 11.175 14.278.271.169.716.166.987-.002 5.331-3.193 11.171-8.634 11.171-14.276a7 7 0 00-7-7zm-4.662 18.822c-5.769-3.771-9.34-8.177-9.34-11.822a4.667 4.667 0 017.778-3.479l1.123 1.005a.662.662 0 00.866 0l1.123-1.005a4.667 4.667 0 017.777 3.479c0 3.739-3.557 8.05-9.327 11.822z"/></symbol><symbol viewBox="0 0 20 19" id="favorite-icon" xmlns="http://www.w3.org/2000/svg"><path fill-rule="evenodd" clip-rule="evenodd" d="M14 0a5.978 5.978 0 00-4 1.528A6 6 0 000 6c0 4.836 4.979 9.511 9.578 12.238a.88.88 0 00.847-.002C14.994 15.5 20 10.836 20 6a6 6 0 00-6-6zm-3.994 16.133C5.06 12.901 2 9.124 2 6a4 4 0 016.666-2.982l.962.861a.567.567 0 00.743 0l.963-.86A4 4 0 0118 6c0 3.204-3.05 6.9-7.994 10.132z"/></symbol><symbol viewBox="0 0 151 36" id="logo" xmlns="http://www.w3.org/2000/svg"><path fill-rule="evenodd" clip-rule="evenodd" d="M46.711 18.15c2.006 0 2.88-1.142 2.88-2.874 0-1.379-.893-2.402-2.721-2.402h-1.151v5.276h.992zm-3.732-5.08c0-1.003-.12-2.008-.12-2.008h4.289c3.435 0 5.222 1.989 5.222 4.116 0 2.618-2.025 4.803-5.34 4.803h-1.312v3.031c0 .906.1 1.831.1 1.831h-2.84V13.071zm19.698 6.399c0-2.855-.835-4.843-3.356-4.843-1.867 0-2.8 1.673-2.8 3.859 0 2.854.893 4.764 3.336 4.764 1.807 0 2.82-1.595 2.82-3.78zm-8.857-.433c0-3.032 1.629-6.202 5.977-6.202 3.575 0 5.6 2.54 5.6 6.084 0 3.031-1.629 6.122-5.998 6.122-3.553 0-5.579-2.46-5.579-6.004zm17.812-.138c1.608 0 2.442-.729 2.442-2.107 0-1.063-.496-1.909-2.323-1.909h-1.152v4.016h1.033zm.655 1.812s-.258.058-.834.058H70.6v2.245c0 .905.1 1.83.1 1.83h-2.74V15.04c0-1.003-.12-2.028-.12-2.028h4.19c2.979 0 4.726 1.457 4.726 3.78 0 1.517-.775 2.638-2.144 3.19l2.144 3.367c.318.516.662 1.015 1.032 1.495l-3.018.1-2.482-4.233zm9.432-5.868l-2.105.04c-.655.02-1.528.119-1.528.119l.1-1.989h9.966l-.099 1.989s-.933-.1-1.39-.119l-2.303-.04v8.17c0 .906.099 1.831.099 1.831h-2.74v-10zm8.3.197c0-1.003-.119-2.027-.119-2.027h8.3l-.1 1.89s-.634-.099-1.825-.119l-3.615-.039v3.327l4.25-.06-.1 1.872-4.15-.08v3.327l3.555-.039c.774-.02 2.084-.138 2.084-.138l-.099 1.89h-8.18V15.04zm18.507 3.15c2.323 0 3.316-1.18 3.316-2.854 0-1.516-1.013-2.461-2.92-2.461h-1.151v5.315h.755zm.893 1.792h-1.648v3.031c0 .906.099 1.831.099 1.831h-2.84V13.071c0-1.004-.118-2.008-.118-2.008h4.289c3.435 0 5.42 1.673 5.42 4.37 0 1.752-1.29 3.07-2.859 3.603l2.582 4.311c.317.516.662 1.016 1.032 1.496l-3.058.1-2.899-4.962zm7.983-4.942c0-1.003-.12-2.165-.12-2.165l2.761.04v10.098c0 .906.099 1.831.099 1.831h-2.74V15.04zm5.202 4.076c0-3.17 1.767-6.28 5.619-6.28 1.787 0 2.801.571 3.793.846l-.576 1.93c-1.032-.276-1.767-.827-3.316-.827-1.827 0-2.74 1.436-2.74 4.094 0 2.835 1.072 4.213 3.336 4.213 1.687 0 2.938-.57 2.938-.57l.259 1.712s-1.251.807-3.435.807c-3.356 0-5.877-1.968-5.877-5.925h-.001zm11.656-4.076c0-1.003-.119-2.027-.119-2.027l2.76-.099v5.099h5.441v-2.973c0-1.003-.119-2.027-.119-2.027l2.759-.099v10.1c0 .905.1 1.83.1 1.83h-2.74v-4.98h-5.441v3.149c0 .905.099 1.83.099 1.83h-2.74V15.04zm13.98 0c0-1.003-.12-2.205-.12-2.205l2.761.08v10.098c0 .906.099 1.831.099 1.831h-2.74V15.04zM15.958 35.834l-6.98-6.92 8.8-8.726 10.003 9.918-1.76 1.745-8.243-8.172-5.279 5.234 3.46 3.43 3.812-3.78 1.76 1.746-5.573 5.525zM29.965 27.942l-10.003-9.918 8.799-8.722 6.98 6.92-5.573 5.524-1.76-1.744 3.812-3.78-3.46-3.43-5.278 5.234 8.242 8.171-1.76 1.745zM7.134 26.73l-6.98-6.92 5.572-5.525 1.76 1.745-3.812 3.78 3.46 3.43 5.278-5.234L4.17 9.833l1.76-1.745 10.003 9.918-8.8 8.724z"/><mask id="ha" maskUnits="userSpaceOnUse" x="8" y="0" width="19" height="16"><path d="M8.114.197h18.802v15.644H8.114V.197z"/></mask><g mask="url(#ha)"><path fill-rule="evenodd" clip-rule="evenodd" d="M18.117 15.841L8.113 5.923l1.76-1.745 8.243 8.173 5.28-5.234-3.46-3.43-3.812 3.78-1.76-1.745L19.935.197l6.98 6.92-8.799 8.724z"/></g></symbol><symbol viewBox="0 0 107 16" id="long-arrow" xmlns="http://www.w3.org/2000/svg"><path d="M106.707 8.707a1 1 0 000-1.414L100.343.929a1 1 0 10-1.414 1.414L104.586 8l-5.657 5.657a1 1 0 001.414 1.414l6.364-6.364zM0 9h106V7H0v2z"/></symbol><symbol viewBox="0 0 13 11" id="percent" xmlns="http://www.w3.org/2000/svg"><path d="M3.066 5.128A2.85 2.85 0 011.75 4.82a2.578 2.578 0 01-.952-.896c-.233-.392-.35-.845-.35-1.358 0-.504.117-.952.35-1.344.243-.392.56-.69.952-.896.401-.215.84-.322 1.316-.322.467 0 .896.107 1.288.322.401.205.719.504.952.896a2.5 2.5 0 01.364 1.344c0 .513-.117.966-.35 1.358-.233.383-.55.681-.952.896a2.817 2.817 0 01-1.302.308zM10.08.2L4.242 10H2.828L8.666.2h1.414zM3.066 3.854c.345 0 .644-.117.896-.35.252-.233.378-.546.378-.938 0-.392-.126-.705-.378-.938a1.275 1.275 0 00-.896-.35c-.355 0-.658.117-.91.35-.252.233-.378.546-.378.938 0 .392.126.705.378.938.252.233.555.35.91.35zm6.776 6.342a2.85 2.85 0 01-1.316-.308 2.542 2.542 0 01-.952-.91 2.577 2.577 0 01-.35-1.344c0-.513.117-.961.35-1.344.243-.392.56-.69.952-.896.401-.215.84-.322 1.316-.322.476 0 .91.107 1.302.322.401.205.719.504.952.896.243.383.364.83.364 1.344a2.5 2.5 0 01-.364 1.344c-.233.392-.55.695-.952.91a2.763 2.763 0 01-1.302.308zm0-1.274c.345 0 .644-.117.896-.35.252-.233.378-.546.378-.938 0-.392-.126-.705-.378-.938a1.275 1.275 0 00-.896-.35c-.345 0-.644.117-.896.35-.252.233-.378.546-.378.938 0 .392.126.705.378.938.252.233.55.35.896.35z"/></symbol><symbol viewBox="0 0 28 28" id="search" xmlns="http://www.w3.org/2000/svg"><path fill-rule="evenodd" clip-rule="evenodd" d="M24.959 23.307a1.161 1.161 0 01-.004 1.646 1.163 1.163 0 01-1.646.004l-6.334-6.334a8.75 8.75 0 111.65-1.65l6.334 6.334zm-13.291-5.224a6.417 6.417 0 100-12.834 6.417 6.417 0 000 12.834z"/></symbol></svg>