<svg width="1700" height="485" viewBox="0 0 1700 485" fill="none" xmlns="http://www.w3.org/2000/svg">
<g clip-path="url(#clip0)">
<path d="M1380.22 464.55C1393.37 464.325 1406.52 463.876 1419.55 463.09L1443.83 461.068C1461.81 459.384 1480.35 457.25 1498.22 454.329L1614.87 435.573M1630.94 424.453H1107.36M1123.77 435.573L1242.89 454.666C1259.3 457.25 1275.71 459.384 1292.23 460.956L1322.79 463.315C1335.27 463.989 1347.41 464.662 1359.88 464.775" stroke="#231F20" stroke-width="0.5" stroke-miterlimit="10" stroke-linecap="round" stroke-linejoin="round"/>
<path d="M1107.36 424.453L1107.93 437.706C1108.26 442.536 1107.93 447.478 1106.69 452.195C1105.12 458.036 1101.63 462.978 1099.38 468.481C1096.91 474.434 1098.94 477.916 1101.3 483.756C1101.52 484.205 1101.74 484.655 1102.08 484.992C1102.53 485.329 1103.21 485.329 1103.77 485.329C1105.9 485.329 1108.04 485.329 1110.06 485.216C1110.51 485.216 1110.96 485.216 1111.3 484.992C1111.63 484.879 1111.97 484.542 1112.31 484.205C1115.9 480.387 1120.06 477.13 1122.09 472.862C1124.56 467.583 1123.1 461.068 1123.43 455.228L1123.55 435.572" stroke="#231F20" stroke-width="0.5" stroke-miterlimit="10" stroke-linecap="round" stroke-linejoin="round"/>
<path d="M1630.94 424.453L1630.38 437.706C1630.04 442.536 1630.38 447.478 1631.61 452.195C1633.19 458.036 1636.67 462.978 1638.92 468.481C1641.39 474.434 1639.55 477.467 1637.19 483.307C1636.96 483.757 1636.74 484.206 1636.4 484.543C1635.95 484.88 1635.28 484.88 1634.72 484.88C1632.58 484.88 1630.45 484.88 1628.42 484.768C1627.97 484.768 1627.52 484.768 1627.19 484.543C1626.85 484.431 1626.51 484.094 1626.18 483.757C1622.58 479.938 1618.24 477.13 1616.22 472.862C1613.75 467.583 1615.21 461.068 1614.87 455.228L1614.76 435.572" stroke="#231F20" stroke-width="0.5" stroke-miterlimit="10" stroke-linecap="round" stroke-linejoin="round"/>
<path d="M1107.36 166.123V161.293H1630.94V166.684" stroke="#231F20" stroke-width="0.5" stroke-miterlimit="10" stroke-linecap="round" stroke-linejoin="round"/>
<path d="M1630.94 315.73V424.453H1107.36V316.404" stroke="#231F20" stroke-width="0.5" stroke-miterlimit="10" stroke-linecap="round" stroke-linejoin="round"/>
<path d="M1097.47 269.457C1094.55 271.367 1099.05 280.689 1104.78 278.667C1110.51 276.646 1113.32 279.678 1113.32 280.464C1113.32 281.138 1108.94 283.497 1108.94 283.497C1108.94 283.497 1100.73 288.551 1095.56 276.982C1090.39 265.414 1098.04 262.044 1098.04 262.044C1098.04 262.044 1106.24 259.236 1108.15 265.302C1110.06 271.367 1105.45 273.276 1105.45 273.276C1107.14 270.468 1106.91 265.975 1103.43 264.515C1100.62 263.392 1098.71 265.751 1097.81 268.109C1095 275.635 1103.09 277.656 1106.46 276.646C1109.84 275.635 1114.33 277.769 1115.9 279.229C1117.48 280.689 1114.11 282.261 1114.11 282.261C1114.11 282.261 1118.26 283.048 1117.93 285.855C1117.59 288.776 1114.11 289.225 1114.11 289.225C1118.94 292.257 1117.14 294.841 1117.14 294.841C1121.3 296.638 1120.51 301.355 1120.51 301.355C1122.53 303.601 1122.76 310.004 1122.76 310.004L1120.51 310.116C1120.51 310.116 1122.31 317.529 1122.31 317.978C1122.31 318.427 1118.71 318.09 1118.71 318.09L1118.83 320.786C1118.83 327.525 1110.06 330.445 1110.06 330.445C1110.06 330.445 1109.95 320.224 1106.58 314.945C1101.74 306.971 1097.47 298.66 1094.66 289.787C1093.2 285.294 1092.08 280.689 1091.52 276.084C1090.96 271.479 1090.17 267.211 1093.09 263.28C1096.8 258.226 1103.32 257.215 1108.37 261.37C1112.42 264.628 1114.22 275.41 1107.36 276.646" stroke="#231F20" stroke-width="0.5" stroke-miterlimit="10" stroke-linecap="round" stroke-linejoin="round"/>
<path d="M1110.06 330.555C1110.06 330.555 1116.69 325.838 1115.01 322.243C1113.32 318.762 1111.3 316.515 1111.3 316.515L1119.28 316.291C1119.28 316.291 1098.6 306.07 1094.78 282.82C1094.78 282.82 1104.89 307.642 1120.51 310.226" stroke="#231F20" stroke-width="0.5" stroke-miterlimit="10" stroke-linecap="round" stroke-linejoin="round"/>
<path d="M1120.51 310.115L1100.51 286.416C1100.51 286.416 1109.27 287.427 1114.11 282.148" stroke="#231F20" stroke-width="0.5" stroke-miterlimit="10" stroke-linecap="round" stroke-linejoin="round"/>
<path d="M1120.62 301.465L1113.54 301.577" stroke="#231F20" stroke-width="0.5" stroke-miterlimit="10" stroke-linecap="round" stroke-linejoin="round"/>
<path d="M1117.25 294.953L1108.04 295.178" stroke="#231F20" stroke-width="0.5" stroke-miterlimit="10" stroke-linecap="round" stroke-linejoin="round"/>
<path d="M1114.22 289.225L1102.64 289" stroke="#231F20" stroke-width="0.5" stroke-miterlimit="10" stroke-linecap="round" stroke-linejoin="round"/>
<path d="M1097.47 227.787C1094.44 226.102 1098.48 216.555 1104.22 218.24C1109.95 219.925 1112.64 216.667 1112.64 215.994C1112.64 215.32 1108.15 213.298 1108.15 213.298C1108.15 213.298 1099.61 208.581 1095.11 220.486C1090.62 232.392 1098.37 235.312 1098.37 235.312C1098.37 235.312 1106.8 237.671 1108.26 231.493C1109.84 225.316 1105.23 223.743 1105.23 223.743C1107.03 226.439 1107.14 230.932 1103.65 232.504C1100.96 233.74 1098.93 231.493 1097.92 229.247C1094.66 221.834 1102.64 219.363 1106.13 220.262C1109.61 221.16 1113.99 218.801 1115.34 217.117C1116.69 215.544 1113.43 214.196 1113.43 214.196C1113.43 214.196 1117.59 213.186 1117.03 210.378C1116.58 207.345 1113.09 207.008 1113.09 207.008C1117.7 203.751 1115.79 201.168 1115.79 201.168C1119.95 199.146 1118.71 194.541 1118.71 194.541C1120.62 192.182 1120.51 185.78 1120.51 185.78L1118.26 185.893C1118.26 185.893 1119.61 178.367 1119.61 177.918C1119.61 177.469 1116.02 178.031 1116.02 178.031L1115.9 175.335C1115.57 168.596 1106.58 166.125 1106.58 166.125C1106.58 166.125 1107.03 176.233 1103.99 181.849C1099.61 190.048 1095.9 198.697 1093.54 207.682C1092.3 212.287 1091.52 216.892 1091.18 221.609C1090.84 226.214 1090.28 230.595 1093.43 234.301C1097.47 239.131 1103.99 239.805 1108.82 235.424C1112.64 231.942 1113.88 221.048 1107.03 220.149" stroke="#231F20" stroke-width="0.5" stroke-miterlimit="10" stroke-linecap="round" stroke-linejoin="round"/>
<path d="M1106.58 166.125C1106.58 166.125 1113.43 170.505 1111.97 174.099C1110.51 177.694 1108.6 180.052 1108.6 180.052L1116.58 179.828C1116.58 179.828 1096.57 191.172 1093.99 214.646C1093.99 214.646 1102.76 189.375 1118.15 185.893" stroke="#231F20" stroke-width="0.5" stroke-miterlimit="10" stroke-linecap="round" stroke-linejoin="round"/>
<path d="M1118.26 185.781L1099.61 210.491C1099.61 210.491 1108.26 208.918 1113.43 213.973" stroke="#231F20" stroke-width="0.5" stroke-miterlimit="10" stroke-linecap="round" stroke-linejoin="round"/>
<path d="M1118.71 194.543L1111.75 194.768" stroke="#231F20" stroke-width="0.5" stroke-miterlimit="10" stroke-linecap="round" stroke-linejoin="round"/>
<path d="M1115.79 201.281L1106.58 201.506" stroke="#231F20" stroke-width="0.5" stroke-miterlimit="10" stroke-linecap="round" stroke-linejoin="round"/>
<path d="M1113.09 207.008L1101.52 208.019" stroke="#231F20" stroke-width="0.5" stroke-miterlimit="10" stroke-linecap="round" stroke-linejoin="round"/>
<path d="M1091.97 265.299C1091.97 265.299 1077.58 249.35 1092.08 233.738" stroke="#231F20" stroke-width="0.5" stroke-miterlimit="10" stroke-linecap="round" stroke-linejoin="round"/>
<path d="M1109.5 262.38C1109.5 262.38 1113.54 261.706 1113.32 257.438C1113.21 255.866 1112.31 254.967 1111.07 254.181C1109.95 253.507 1109.05 252.496 1110.17 251.148C1110.4 250.811 1110.73 250.699 1111.07 250.362C1111.75 249.801 1112.31 248.79 1111.97 247.891C1111.75 247.442 1111.41 247.105 1111.07 246.656C1110.4 245.757 1110.17 244.522 1110.62 243.399C1111.18 242.163 1112.53 241.826 1113.09 240.815C1113.43 240.254 1113.54 239.467 1113.54 238.794C1113.54 236.66 1112.2 233.739 1109.61 234.526" stroke="#231F20" stroke-width="0.5" stroke-miterlimit="10" stroke-linecap="round" stroke-linejoin="round"/>
<path d="M1092.53 261.143C1096.13 256.875 1102.87 255.303 1107.59 258.672C1108.15 259.009 1108.6 259.346 1109.27 259.459C1110.4 259.683 1111.3 259.122 1111.75 258.111C1111.75 258.111 1113.54 255.752 1109.95 253.281" stroke="#231F20" stroke-width="0.5" stroke-miterlimit="10" stroke-linecap="round" stroke-linejoin="round"/>
<path d="M1090.28 257.889C1090.28 257.777 1096.91 249.914 1107.7 255.643" stroke="#231F20" stroke-width="0.5" stroke-miterlimit="10" stroke-linecap="round" stroke-linejoin="round"/>
<path d="M1106.13 251.934C1096.8 248.79 1088.48 253.282 1088.48 253.282L1095.11 248.565L1088.26 243.848C1088.26 243.848 1096.69 247.779 1105.9 244.185" stroke="#231F20" stroke-width="0.5" stroke-miterlimit="10" stroke-linecap="round" stroke-linejoin="round"/>
<path d="M1091.74 235.762C1093.99 238.12 1097.25 239.468 1100.51 239.468C1102.08 239.468 1103.77 239.131 1105.23 238.457C1107.48 237.446 1110.51 235.2 1112.08 238.57C1112.76 239.917 1112.53 242.164 1111.07 242.838" stroke="#231F20" stroke-width="0.5" stroke-miterlimit="10" stroke-linecap="round" stroke-linejoin="round"/>
<path d="M1089.72 239.242C1089.72 239.355 1096.58 246.543 1107.03 240.253" stroke="#231F20" stroke-width="0.5" stroke-miterlimit="10" stroke-linecap="round" stroke-linejoin="round"/>
<path d="M1107.93 250.024C1108.92 250.024 1109.72 249.219 1109.72 248.227C1109.72 247.234 1108.92 246.43 1107.93 246.43C1106.93 246.43 1106.13 247.234 1106.13 248.227C1106.13 249.219 1106.93 250.024 1107.93 250.024Z" stroke="#231F20" stroke-width="0.5" stroke-miterlimit="10" stroke-linecap="round" stroke-linejoin="round"/>
<path d="M1108.83 241.375C1109.69 241.375 1110.4 240.671 1110.4 239.803C1110.4 238.934 1109.69 238.23 1108.83 238.23C1107.96 238.23 1107.25 238.934 1107.25 239.803C1107.25 240.671 1107.96 241.375 1108.83 241.375Z" stroke="#231F20" stroke-width="0.5" stroke-miterlimit="10" stroke-linecap="round" stroke-linejoin="round"/>
<path d="M1109.27 258.114C1110.14 258.114 1110.85 257.41 1110.85 256.541C1110.85 255.673 1110.14 254.969 1109.27 254.969C1108.41 254.969 1107.7 255.673 1107.7 256.541C1107.7 257.41 1108.41 258.114 1109.27 258.114Z" stroke="#231F20" stroke-width="0.5" stroke-miterlimit="10" stroke-linecap="round" stroke-linejoin="round"/>
<path d="M1102.64 274.284C1104.69 274.284 1106.35 272.625 1106.35 270.578C1106.35 268.531 1104.69 266.871 1102.64 266.871C1100.6 266.871 1098.94 268.531 1098.94 270.578C1098.94 272.625 1100.6 274.284 1102.64 274.284Z" stroke="#231F20" stroke-width="0.5" stroke-miterlimit="10" stroke-linecap="round" stroke-linejoin="round"/>
<path d="M1102.53 229.921C1104.58 229.921 1106.24 228.261 1106.24 226.214C1106.24 224.167 1104.58 222.508 1102.53 222.508C1100.48 222.508 1098.82 224.167 1098.82 226.214C1098.82 228.261 1100.48 229.921 1102.53 229.921Z" stroke="#231F20" stroke-width="0.5" stroke-miterlimit="10" stroke-linecap="round" stroke-linejoin="round"/>
<path d="M1095.11 248.564L1106.01 248.34" stroke="#231F20" stroke-width="0.5" stroke-miterlimit="10" stroke-linecap="round" stroke-linejoin="round"/>
<path d="M1349.32 455.34C1347.52 458.26 1338.08 453.767 1340.1 448.151C1342.13 442.423 1338.98 439.728 1338.3 439.615C1337.63 439.615 1335.38 443.996 1335.38 443.996C1335.38 443.996 1330.33 452.195 1342.01 457.361C1353.7 462.528 1356.96 454.778 1356.96 454.778C1356.96 454.778 1359.77 446.579 1353.59 444.67C1347.41 442.76 1345.61 447.365 1345.61 447.365C1348.42 445.68 1352.91 445.793 1354.37 449.387C1355.5 452.195 1353.14 454.104 1350.78 455.003C1343.25 457.811 1341.11 449.836 1342.24 446.354C1343.36 442.985 1341.11 438.492 1339.54 437.032C1337.97 435.572 1336.51 438.829 1336.51 438.829C1336.51 438.829 1335.72 434.673 1332.91 435.01C1330.1 435.347 1329.54 438.829 1329.54 438.829C1326.5 433.999 1323.92 435.797 1323.92 435.797C1322.12 431.641 1317.4 432.539 1317.4 432.539C1315.15 430.518 1308.75 430.293 1308.75 430.293V432.539C1308.75 432.539 1301.33 430.855 1300.88 430.742C1300.43 430.63 1300.77 434.336 1300.77 434.336L1298.07 434.224C1291.33 434.224 1288.41 443.097 1288.41 443.097C1288.41 443.097 1298.63 443.209 1303.92 446.467C1311.9 451.296 1320.32 455.452 1329.2 458.148C1333.7 459.608 1338.3 460.618 1342.91 461.18C1347.52 461.742 1351.9 462.528 1355.72 459.495C1360.78 455.677 1361.68 449.162 1357.63 444.22C1354.26 440.177 1343.59 438.492 1342.35 445.343" stroke="#231F20" stroke-width="0.5" stroke-miterlimit="10" stroke-linecap="round" stroke-linejoin="round"/>
<path d="M1288.18 443.098C1288.18 443.098 1292.9 436.471 1296.5 438.156C1300.1 439.841 1302.23 441.862 1302.23 441.862L1302.46 433.888C1302.46 433.888 1312.79 454.442 1336.06 458.148C1336.06 458.148 1311.22 448.152 1308.52 432.652" stroke="#231F20" stroke-width="0.5" stroke-miterlimit="10" stroke-linecap="round" stroke-linejoin="round"/>
<path d="M1308.52 432.539L1332.35 452.419C1332.35 452.419 1331.22 443.658 1336.51 438.716" stroke="#231F20" stroke-width="0.5" stroke-miterlimit="10" stroke-linecap="round" stroke-linejoin="round"/>
<path d="M1317.29 432.426L1317.06 439.389" stroke="#231F20" stroke-width="0.5" stroke-miterlimit="10" stroke-linecap="round" stroke-linejoin="round"/>
<path d="M1323.81 435.684L1323.58 444.894" stroke="#231F20" stroke-width="0.5" stroke-miterlimit="10" stroke-linecap="round" stroke-linejoin="round"/>
<path d="M1329.43 438.715L1329.88 450.283" stroke="#231F20" stroke-width="0.5" stroke-miterlimit="10" stroke-linecap="round" stroke-linejoin="round"/>
<path d="M1391.12 455.113C1392.81 458.146 1402.36 454.102 1400.67 448.262C1398.99 442.421 1402.14 439.838 1402.81 439.838C1403.48 439.838 1405.62 444.331 1405.62 444.331C1405.62 444.331 1410.34 452.754 1398.43 457.359C1386.63 461.964 1383.59 454.215 1383.59 454.215C1383.59 454.215 1381.23 445.903 1387.41 444.218C1393.59 442.646 1395.28 447.251 1395.28 447.251C1392.58 445.454 1387.98 445.342 1386.51 448.823C1385.28 451.519 1387.53 453.541 1389.89 454.551C1397.3 457.696 1399.78 449.722 1398.76 446.24C1397.87 442.758 1400.22 438.378 1401.8 437.03C1403.37 435.682 1404.72 438.939 1404.72 438.939C1404.72 438.939 1405.62 434.784 1408.54 435.345C1411.46 435.907 1411.8 439.276 1411.8 439.276C1415.06 434.671 1417.64 436.581 1417.64 436.581C1419.55 432.425 1424.27 433.548 1424.27 433.548C1426.63 431.639 1433.04 431.751 1433.04 431.751V433.998C1433.04 433.998 1440.57 432.537 1440.91 432.537C1441.24 432.537 1440.79 436.132 1440.79 436.132L1443.49 436.244C1450.23 436.581 1452.71 445.454 1452.71 445.454C1452.71 445.454 1442.48 445.117 1436.97 448.149C1428.77 452.642 1420.23 456.349 1411.24 458.82C1406.74 460.055 1402.02 460.954 1397.3 461.29C1392.7 461.627 1388.31 462.189 1384.6 459.044C1379.77 455.001 1379.1 448.486 1383.37 443.657C1386.85 439.838 1397.64 438.603 1398.65 445.454" stroke="#231F20" stroke-width="0.5" stroke-miterlimit="10" stroke-linecap="round" stroke-linejoin="round"/>
<path d="M1452.71 445.568C1452.71 445.568 1448.21 438.716 1444.62 440.289C1441.02 441.861 1438.66 443.771 1438.66 443.771L1438.88 435.796C1438.88 435.796 1427.65 455.901 1404.27 458.596C1404.27 458.596 1429.56 449.723 1432.93 434.336" stroke="#231F20" stroke-width="0.5" stroke-miterlimit="10" stroke-linecap="round" stroke-linejoin="round"/>
<path d="M1432.93 434.113L1408.32 452.982C1408.32 452.982 1409.78 444.222 1404.72 439.168" stroke="#231F20" stroke-width="0.5" stroke-miterlimit="10" stroke-linecap="round" stroke-linejoin="round"/>
<path d="M1424.16 433.551L1424.05 440.627" stroke="#231F20" stroke-width="0.5" stroke-miterlimit="10" stroke-linecap="round" stroke-linejoin="round"/>
<path d="M1417.53 436.582L1417.31 445.792" stroke="#231F20" stroke-width="0.5" stroke-miterlimit="10" stroke-linecap="round" stroke-linejoin="round"/>
<path d="M1411.69 439.391L1410.9 450.847" stroke="#231F20" stroke-width="0.5" stroke-miterlimit="10" stroke-linecap="round" stroke-linejoin="round"/>
<path d="M1353.59 460.845C1353.59 460.845 1369.66 475.109 1385.17 460.508" stroke="#231F20" stroke-width="0.5" stroke-miterlimit="10" stroke-linecap="round" stroke-linejoin="round"/>
<path d="M1356.29 443.209C1356.29 443.209 1356.96 439.166 1361.23 439.391C1362.8 439.503 1363.7 440.402 1364.6 441.637C1365.28 442.76 1366.29 443.659 1367.64 442.536C1367.97 442.311 1368.09 441.974 1368.42 441.637C1368.98 440.963 1370 440.402 1370.89 440.626C1371.34 440.851 1371.79 441.188 1372.13 441.525C1373.03 442.199 1374.27 442.423 1375.39 441.974C1376.63 441.412 1376.85 440.065 1377.97 439.391C1378.54 439.054 1379.32 438.941 1380 438.941C1382.13 438.941 1385.05 440.289 1384.38 442.872" stroke="#231F20" stroke-width="0.5" stroke-miterlimit="10" stroke-linecap="round" stroke-linejoin="round"/>
<path d="M1357.75 460.283C1362.02 456.689 1363.48 449.838 1360.11 445.121C1359.77 444.671 1359.43 444.11 1359.32 443.436C1359.09 442.313 1359.66 441.414 1360.67 440.965C1360.67 440.965 1363.03 439.168 1365.61 442.762" stroke="#231F20" stroke-width="0.5" stroke-miterlimit="10" stroke-linecap="round" stroke-linejoin="round"/>
<path d="M1361.01 462.417C1361.12 462.417 1368.87 455.678 1363.14 445.008" stroke="#231F20" stroke-width="0.5" stroke-miterlimit="10" stroke-linecap="round" stroke-linejoin="round"/>
<path d="M1366.85 446.578C1370 455.9 1365.61 464.212 1365.61 464.212L1370.22 457.585L1375.05 464.436C1375.05 464.436 1371.01 456.013 1374.6 446.803" stroke="#231F20" stroke-width="0.5" stroke-miterlimit="10" stroke-linecap="round" stroke-linejoin="round"/>
<path d="M1383.14 460.842C1380.78 458.596 1379.44 455.451 1379.44 452.081C1379.44 450.509 1379.77 448.824 1380.45 447.364C1381.46 445.118 1383.59 442.085 1380.33 440.513C1378.99 439.839 1376.74 440.176 1376.06 441.524" stroke="#231F20" stroke-width="0.5" stroke-miterlimit="10" stroke-linecap="round" stroke-linejoin="round"/>
<path d="M1379.66 462.863C1379.55 462.863 1372.36 456.012 1378.54 445.566" stroke="#231F20" stroke-width="0.5" stroke-miterlimit="10" stroke-linecap="round" stroke-linejoin="round"/>
<path d="M1370.56 446.578C1371.55 446.578 1372.36 445.774 1372.36 444.781C1372.36 443.789 1371.55 442.984 1370.56 442.984C1369.56 442.984 1368.76 443.789 1368.76 444.781C1368.76 445.774 1369.56 446.578 1370.56 446.578Z" stroke="#231F20" stroke-width="0.5" stroke-miterlimit="10" stroke-linecap="round" stroke-linejoin="round"/>
<path d="M1378.99 445.344C1379.85 445.344 1380.56 444.64 1380.56 443.772C1380.56 442.903 1379.85 442.199 1378.99 442.199C1378.12 442.199 1377.41 442.903 1377.41 443.772C1377.41 444.64 1378.12 445.344 1378.99 445.344Z" stroke="#231F20" stroke-width="0.5" stroke-miterlimit="10" stroke-linecap="round" stroke-linejoin="round"/>
<path d="M1362.24 445.008C1363.11 445.008 1363.81 444.304 1363.81 443.436C1363.81 442.567 1363.11 441.863 1362.24 441.863C1361.37 441.863 1360.67 442.567 1360.67 443.436C1360.67 444.304 1361.37 445.008 1362.24 445.008Z" stroke="#231F20" stroke-width="0.5" stroke-miterlimit="10" stroke-linecap="round" stroke-linejoin="round"/>
<path d="M1348.19 453.878C1350.24 453.878 1351.9 452.218 1351.9 450.171C1351.9 448.124 1350.24 446.465 1348.19 446.465C1346.15 446.465 1344.49 448.124 1344.49 450.171C1344.49 452.218 1346.15 453.878 1348.19 453.878Z" stroke="#231F20" stroke-width="0.5" stroke-miterlimit="10" stroke-linecap="round" stroke-linejoin="round"/>
<path d="M1392.58 453.655C1394.63 453.655 1396.29 451.996 1396.29 449.949C1396.29 447.902 1394.63 446.242 1392.58 446.242C1390.54 446.242 1388.88 447.902 1388.88 449.949C1388.88 451.996 1390.54 453.655 1392.58 453.655Z" stroke="#231F20" stroke-width="0.5" stroke-miterlimit="10" stroke-linecap="round" stroke-linejoin="round"/>
<path d="M1370.22 457.473L1370.45 446.578" stroke="#231F20" stroke-width="0.5" stroke-miterlimit="10" stroke-linecap="round" stroke-linejoin="round"/>
<path d="M1640.15 269.457C1643.08 271.367 1638.58 280.689 1632.85 278.667C1627.12 276.646 1624.31 279.678 1624.31 280.464C1624.31 281.25 1628.69 283.497 1628.69 283.497C1628.69 283.497 1636.9 288.551 1642.06 276.982C1647.23 265.414 1639.59 262.044 1639.59 262.044C1639.59 262.044 1631.39 259.236 1629.48 265.302C1627.57 271.367 1632.18 273.276 1632.18 273.276C1630.49 270.468 1630.71 265.975 1634.2 264.515C1637.01 263.392 1638.92 265.751 1639.82 268.109C1642.63 275.635 1634.54 277.656 1631.16 276.646C1627.79 275.635 1623.3 277.769 1621.72 279.229C1620.15 280.689 1623.52 282.261 1623.52 282.261C1623.52 282.261 1619.36 283.048 1619.7 285.855C1620.04 288.776 1623.52 289.225 1623.52 289.225C1618.69 292.257 1620.49 294.841 1620.49 294.841C1616.33 296.638 1617.12 301.355 1617.12 301.355C1615.09 303.601 1614.87 310.004 1614.87 310.004L1617.12 310.116C1617.12 310.116 1615.32 317.529 1615.32 317.978C1615.32 318.427 1618.91 318.09 1618.91 318.09L1618.8 320.786C1618.8 327.525 1627.57 330.445 1627.57 330.445C1627.57 330.445 1627.68 320.224 1631.05 314.945C1635.88 306.971 1640.15 298.66 1642.96 289.787C1644.42 285.294 1645.55 280.689 1646.11 276.084C1646.67 271.479 1647.46 267.211 1644.54 263.28C1640.83 258.226 1634.31 257.215 1629.25 261.37C1625.21 264.628 1623.41 275.41 1630.27 276.646" stroke="#231F20" stroke-width="0.5" stroke-miterlimit="10" stroke-linecap="round" stroke-linejoin="round"/>
<path d="M1627.57 330.555C1627.57 330.555 1620.94 325.838 1622.62 322.243C1624.31 318.762 1626.33 316.515 1626.33 316.515L1618.35 316.291C1618.35 316.291 1639.03 306.07 1642.85 282.82C1642.85 282.82 1632.74 307.642 1617.12 310.226" stroke="#231F20" stroke-width="0.5" stroke-miterlimit="10" stroke-linecap="round" stroke-linejoin="round"/>
<path d="M1617 310.115L1637.01 286.416C1637.01 286.416 1628.24 287.427 1623.41 282.148" stroke="#231F20" stroke-width="0.5" stroke-miterlimit="10" stroke-linecap="round" stroke-linejoin="round"/>
<path d="M1617 301.465L1623.97 301.577" stroke="#231F20" stroke-width="0.5" stroke-miterlimit="10" stroke-linecap="round" stroke-linejoin="round"/>
<path d="M1620.38 294.953L1629.59 295.178" stroke="#231F20" stroke-width="0.5" stroke-miterlimit="10" stroke-linecap="round" stroke-linejoin="round"/>
<path d="M1623.41 289.225L1634.87 289" stroke="#231F20" stroke-width="0.5" stroke-miterlimit="10" stroke-linecap="round" stroke-linejoin="round"/>
<path d="M1640.15 227.789C1643.19 226.104 1639.14 216.557 1633.41 218.242C1627.68 219.927 1624.98 216.669 1624.98 215.995C1624.98 215.322 1629.48 213.3 1629.48 213.3C1629.48 213.3 1637.91 208.695 1642.51 220.488C1647.01 232.394 1639.26 235.314 1639.26 235.314C1639.26 235.314 1630.83 237.673 1629.37 231.495C1627.79 225.318 1632.4 223.745 1632.4 223.745C1630.6 226.441 1630.49 230.934 1633.97 232.506C1636.67 233.741 1638.69 231.495 1639.7 229.249C1642.96 221.836 1634.98 219.365 1631.5 220.264C1628.02 221.162 1623.63 218.803 1622.29 217.119C1620.94 215.546 1624.2 214.198 1624.2 214.198C1624.2 214.198 1620.04 213.188 1620.6 210.38C1621.16 207.572 1624.53 207.235 1624.53 207.235C1619.93 203.978 1621.84 201.394 1621.84 201.394C1617.68 199.373 1618.91 194.768 1618.91 194.768C1617 192.409 1617.12 186.007 1617.12 186.007L1619.36 186.119C1619.36 186.119 1618.02 178.594 1618.02 178.145C1618.02 177.696 1621.61 178.257 1621.61 178.257L1621.72 175.562C1622.06 168.823 1631.05 166.352 1631.05 166.352C1631.05 166.352 1630.6 176.46 1633.64 182.076C1638.02 190.275 1641.73 198.923 1644.09 207.909C1645.32 212.514 1646.11 217.119 1646.45 221.836C1646.78 226.441 1647.35 230.821 1644.2 234.528C1640.15 239.357 1633.64 240.031 1628.8 235.651C1624.98 232.169 1623.75 221.274 1630.6 220.376" stroke="#231F20" stroke-width="0.5" stroke-miterlimit="10" stroke-linecap="round" stroke-linejoin="round"/>
<path d="M1630.94 166.125C1630.94 166.125 1624.09 170.505 1625.55 174.099C1627.01 177.694 1628.92 180.052 1628.92 180.052L1620.94 179.828C1620.94 179.828 1640.94 191.172 1643.53 214.646C1643.53 214.646 1634.76 189.375 1619.37 185.893" stroke="#231F20" stroke-width="0.5" stroke-miterlimit="10" stroke-linecap="round" stroke-linejoin="round"/>
<path d="M1619.37 185.781L1638.02 210.491C1638.02 210.491 1629.37 208.918 1624.2 213.973" stroke="#231F20" stroke-width="0.5" stroke-miterlimit="10" stroke-linecap="round" stroke-linejoin="round"/>
<path d="M1618.8 194.543L1625.77 194.768" stroke="#231F20" stroke-width="0.5" stroke-miterlimit="10" stroke-linecap="round" stroke-linejoin="round"/>
<path d="M1621.84 201.281L1631.05 201.506" stroke="#231F20" stroke-width="0.5" stroke-miterlimit="10" stroke-linecap="round" stroke-linejoin="round"/>
<path d="M1624.53 207.008L1636 208.019" stroke="#231F20" stroke-width="0.5" stroke-miterlimit="10" stroke-linecap="round" stroke-linejoin="round"/>
<path d="M1645.66 265.299C1645.66 265.299 1660.05 249.35 1645.55 233.738" stroke="#231F20" stroke-width="0.5" stroke-miterlimit="10" stroke-linecap="round" stroke-linejoin="round"/>
<path d="M1628.02 262.38C1628.02 262.38 1623.97 261.706 1624.2 257.438C1624.31 255.866 1625.21 254.967 1626.44 254.181C1627.57 253.507 1628.47 252.496 1627.34 251.148C1627.12 250.811 1626.78 250.699 1626.44 250.362C1625.77 249.801 1625.21 248.79 1625.55 247.891C1625.77 247.442 1626.11 247.105 1626.44 246.656C1627.12 245.757 1627.34 244.522 1626.89 243.399C1626.33 242.163 1624.98 241.826 1624.42 240.815C1624.09 240.254 1623.97 239.467 1623.97 238.794C1623.97 236.66 1625.32 233.739 1627.91 234.526" stroke="#231F20" stroke-width="0.5" stroke-miterlimit="10" stroke-linecap="round" stroke-linejoin="round"/>
<path d="M1645.1 261.143C1641.5 256.875 1634.76 255.303 1630.04 258.672C1629.48 259.009 1629.03 259.346 1628.36 259.459C1627.23 259.683 1626.33 259.122 1625.88 258.111C1625.88 258.111 1624.09 255.752 1627.68 253.281" stroke="#231F20" stroke-width="0.5" stroke-miterlimit="10" stroke-linecap="round" stroke-linejoin="round"/>
<path d="M1647.35 257.889C1647.35 257.777 1640.72 249.914 1629.93 255.643" stroke="#231F20" stroke-width="0.5" stroke-miterlimit="10" stroke-linecap="round" stroke-linejoin="round"/>
<path d="M1631.39 251.934C1640.72 248.79 1649.03 253.282 1649.03 253.282L1642.4 248.565L1649.26 243.848C1649.26 243.848 1640.83 247.779 1631.61 244.185" stroke="#231F20" stroke-width="0.5" stroke-miterlimit="10" stroke-linecap="round" stroke-linejoin="round"/>
<path d="M1645.77 235.762C1643.53 238.12 1640.27 239.468 1637.01 239.468C1635.44 239.468 1633.75 239.131 1632.29 238.457C1630.04 237.446 1627.01 235.2 1625.43 238.57C1624.76 239.917 1624.98 242.164 1626.44 242.838" stroke="#231F20" stroke-width="0.5" stroke-miterlimit="10" stroke-linecap="round" stroke-linejoin="round"/>
<path d="M1647.8 239.242C1647.8 239.355 1640.94 246.543 1630.49 240.253" stroke="#231F20" stroke-width="0.5" stroke-miterlimit="10" stroke-linecap="round" stroke-linejoin="round"/>
<path d="M1629.7 250.024C1630.7 250.024 1631.5 249.219 1631.5 248.227C1631.5 247.234 1630.7 246.43 1629.7 246.43C1628.71 246.43 1627.9 247.234 1627.9 248.227C1627.9 249.219 1628.71 250.024 1629.7 250.024Z" stroke="#231F20" stroke-width="0.5" stroke-miterlimit="10" stroke-linecap="round" stroke-linejoin="round"/>
<path d="M1628.8 241.375C1629.67 241.375 1630.38 240.671 1630.38 239.803C1630.38 238.934 1629.67 238.23 1628.8 238.23C1627.93 238.23 1627.23 238.934 1627.23 239.803C1627.23 240.671 1627.93 241.375 1628.8 241.375Z" stroke="#231F20" stroke-width="0.5" stroke-miterlimit="10" stroke-linecap="round" stroke-linejoin="round"/>
<path d="M1628.24 258.114C1629.11 258.114 1629.81 257.41 1629.81 256.541C1629.81 255.673 1629.11 254.969 1628.24 254.969C1627.37 254.969 1626.67 255.673 1626.67 256.541C1626.67 257.41 1627.37 258.114 1628.24 258.114Z" stroke="#231F20" stroke-width="0.5" stroke-miterlimit="10" stroke-linecap="round" stroke-linejoin="round"/>
<path d="M1634.87 274.284C1636.92 274.284 1638.58 272.625 1638.58 270.578C1638.58 268.531 1636.92 266.871 1634.87 266.871C1632.82 266.871 1631.16 268.531 1631.16 270.578C1631.16 272.625 1632.82 274.284 1634.87 274.284Z" stroke="#231F20" stroke-width="0.5" stroke-miterlimit="10" stroke-linecap="round" stroke-linejoin="round"/>
<path d="M1635.1 229.921C1637.15 229.921 1638.81 228.261 1638.81 226.214C1638.81 224.167 1637.15 222.508 1635.1 222.508C1633.05 222.508 1631.39 224.167 1631.39 226.214C1631.39 228.261 1633.05 229.921 1635.1 229.921Z" stroke="#231F20" stroke-width="0.5" stroke-miterlimit="10" stroke-linecap="round" stroke-linejoin="round"/>
<path d="M1642.4 248.564L1631.5 248.34" stroke="#231F20" stroke-width="0.5" stroke-miterlimit="10" stroke-linecap="round" stroke-linejoin="round"/>
<path d="M1647.01 153.095H1093.99C1089.38 153.095 1085.56 149.388 1085.56 144.671V142.986C1085.56 138.381 1089.27 134.562 1093.99 134.562H1647.12C1651.73 134.562 1655.55 138.269 1655.55 142.986V144.783C1655.44 149.388 1651.73 153.095 1647.01 153.095Z" stroke="#231F20" stroke-width="0.5" stroke-miterlimit="10" stroke-linecap="round" stroke-linejoin="round"/>
<path d="M1646.34 161.293H1094.67C1092.64 161.293 1090.96 159.608 1090.96 157.586V156.8C1090.96 154.778 1092.64 153.094 1094.67 153.094H1646.22C1648.25 153.094 1649.93 154.778 1649.93 156.8V157.586C1650.04 159.72 1648.36 161.293 1646.34 161.293Z" stroke="#231F20" stroke-width="0.5" stroke-miterlimit="10" stroke-linecap="round" stroke-linejoin="round"/>
<path d="M1610.04 161.293H1127.82V408.165H1610.04V161.293Z" stroke="#231F20" stroke-width="0.5" stroke-miterlimit="10" stroke-linecap="round" stroke-linejoin="round"/>
<path d="M1106.24 485.441C1107.81 483.644 1114.78 468.706 1114.78 468.706C1114.78 468.706 1117.93 460.956 1117.82 446.467L1117.14 434.898" stroke="#231F20" stroke-width="0.5" stroke-miterlimit="10" stroke-linecap="round" stroke-linejoin="round"/>
<path d="M1631.73 484.991C1630.15 483.194 1623.52 468.706 1623.52 468.706C1623.52 468.706 1620.38 460.956 1620.49 446.467L1621.16 434.898" stroke="#231F20" stroke-width="0.5" stroke-miterlimit="10" stroke-linecap="round" stroke-linejoin="round"/>
<path d="M1368.87 173.535H1127.82V234.186H1368.87V173.535Z" stroke="#231F20" stroke-width="0.5" stroke-miterlimit="10" stroke-linecap="round" stroke-linejoin="round"/>
<path d="M1609.93 173.535H1368.87V234.186H1609.93V173.535Z" stroke="#231F20" stroke-width="0.5" stroke-miterlimit="10" stroke-linecap="round" stroke-linejoin="round"/>
<path d="M1600.49 177.805H1377.75V229.92H1600.49V177.805Z" stroke="#231F20" stroke-width="0.5" stroke-miterlimit="10" stroke-linecap="round" stroke-linejoin="round"/>
<path d="M1359.66 177.805H1136.92V229.92H1359.66V177.805Z" stroke="#231F20" stroke-width="0.5" stroke-miterlimit="10" stroke-linecap="round" stroke-linejoin="round"/>
<path d="M1600.49 248.227H1136.92V315.729H1600.49V248.227Z" stroke="#231F20" stroke-width="0.5" stroke-miterlimit="10" stroke-linecap="round" stroke-linejoin="round"/>
<path d="M1600.49 336.281H1136.92V403.783H1600.49V336.281Z" stroke="#231F20" stroke-width="0.5" stroke-miterlimit="10" stroke-linecap="round" stroke-linejoin="round"/>
<path d="M1610.04 330.441H1127.82V408.277H1610.04V330.441Z" stroke="#231F20" stroke-width="0.5" stroke-miterlimit="10" stroke-linecap="round" stroke-linejoin="round"/>
<path d="M1610.04 243.398H1127.82V321.234H1610.04V243.398Z" stroke="#231F20" stroke-width="0.5" stroke-miterlimit="10" stroke-linecap="round" stroke-linejoin="round"/>
<path d="M1610.04 236.883H1127.82V240.702H1610.04V236.883Z" stroke="#231F20" stroke-width="0.5" stroke-miterlimit="10" stroke-linecap="round" stroke-linejoin="round"/>
<path d="M1610.04 323.93H1127.82V327.748H1610.04V323.93Z" stroke="#231F20" stroke-width="0.5" stroke-miterlimit="10" stroke-linecap="round" stroke-linejoin="round"/>
<path d="M1610.04 413.219H1127.82V417.038H1610.04V413.219Z" stroke="#231F20" stroke-width="0.5" stroke-miterlimit="10" stroke-linecap="round" stroke-linejoin="round"/>
<path d="M1610.04 164.777H1127.82V168.596H1610.04V164.777Z" stroke="#231F20" stroke-width="0.5" stroke-miterlimit="10" stroke-linecap="round" stroke-linejoin="round"/>
<path d="M1294.14 206.895C1292.68 219.025 1286.61 218.912 1284.03 220.373" stroke="#231F20" stroke-width="0.5" stroke-miterlimit="10" stroke-linecap="round" stroke-linejoin="round"/>
<path d="M1221.43 201.39C1223.34 202.288 1225.36 203.187 1225.36 203.187C1233.9 207.006 1243.23 208.803 1252.67 208.353C1262.79 207.904 1272.45 204.085 1281.89 200.379" stroke="#231F20" stroke-width="0.5" stroke-miterlimit="10" stroke-linecap="round" stroke-linejoin="round"/>
<path d="M1218.39 221.496C1215.7 219.923 1208.96 217.789 1208.96 206.445" stroke="#231F20" stroke-width="0.5" stroke-miterlimit="10" stroke-linecap="round" stroke-linejoin="round"/>
<path d="M1287.73 209.59C1287.85 210.376 1287.96 211.05 1287.96 211.836C1287.96 216.217 1286.39 218.8 1284.03 220.485" stroke="#231F20" stroke-width="0.5" stroke-miterlimit="10" stroke-linecap="round" stroke-linejoin="round"/>
<path d="M1221.21 205.885C1221.88 206.11 1222.33 206.334 1222.33 206.334L1228.51 209.591C1244.92 218.24 1262.34 214.533 1278.07 206.334C1279.19 205.773 1280.43 205.099 1281.67 204.762" stroke="#231F20" stroke-width="0.5" stroke-miterlimit="10" stroke-linecap="round" stroke-linejoin="round"/>
<path d="M1218.4 221.495C1216.15 219.923 1214.35 218.463 1214.46 212.847C1214.46 211.499 1214.69 210.488 1214.91 209.59" stroke="#231F20" stroke-width="0.5" stroke-miterlimit="10" stroke-linecap="round" stroke-linejoin="round"/>
<path d="M1290.88 209.027C1290.77 210.263 1290.54 211.386 1290.43 212.06C1289.98 214.419 1288.86 217.002 1286.83 218.35" stroke="#231F20" stroke-width="0.5" stroke-miterlimit="10" stroke-linecap="round" stroke-linejoin="round"/>
<path d="M1221.65 203.524C1222.78 204.086 1223.9 204.648 1224.91 205.097C1236.49 209.927 1248.96 212.959 1261.44 210.039C1266.04 208.916 1270.43 207.231 1274.7 205.434C1276.95 204.535 1279.08 203.524 1281.33 202.738" stroke="#231F20" stroke-width="0.5" stroke-miterlimit="10" stroke-linecap="round" stroke-linejoin="round"/>
<path d="M1216.26 219.813C1213.45 217.005 1212.21 212.961 1211.99 208.918" stroke="#231F20" stroke-width="0.5" stroke-miterlimit="10" stroke-linecap="round" stroke-linejoin="round"/>
<path d="M1208.62 197.348C1207.49 199.145 1207.05 201.391 1207.49 203.413C1208.28 207.232 1211.43 209.366 1215.14 209.478C1216.82 209.59 1218.4 209.254 1219.63 208.018C1220.53 207.007 1221.09 205.659 1221.32 204.312C1221.99 199.819 1219.18 194.652 1214.01 195.663C1212.21 196 1210.64 197.236 1209.97 199.033C1209.29 200.717 1209.74 202.852 1211.2 204.087C1212.78 205.435 1216.26 205.659 1216.71 203.076C1216.93 201.953 1216.82 200.717 1216.71 199.594" stroke="#231F20" stroke-width="0.5" stroke-miterlimit="10" stroke-linecap="round" stroke-linejoin="round"/>
<path d="M1209.52 200.379C1207.94 204.086 1211.65 208.691 1216.26 207.006C1217.72 206.444 1218.85 205.321 1219.41 203.861C1220.31 201.278 1218.73 196.897 1215.02 198.02C1213.68 198.357 1212.66 199.705 1212.66 201.053C1212.66 202.401 1213.45 203.749 1214.69 204.422" stroke="#231F20" stroke-width="0.5" stroke-miterlimit="10" stroke-linecap="round" stroke-linejoin="round"/>
<path d="M1294.48 197.348C1295.6 199.145 1296.05 201.391 1295.6 203.413C1294.81 207.232 1291.67 209.366 1287.96 209.478C1286.27 209.59 1284.7 209.254 1283.46 208.018C1282.56 207.007 1282 205.659 1281.78 204.312C1281.1 199.819 1283.91 194.652 1289.08 195.663C1290.88 196 1292.45 197.236 1293.13 199.033C1293.8 200.717 1293.35 202.852 1291.89 204.087C1290.32 205.435 1286.83 205.659 1286.38 203.076C1286.16 201.953 1286.27 200.717 1286.38 199.594" stroke="#231F20" stroke-width="0.5" stroke-miterlimit="10" stroke-linecap="round" stroke-linejoin="round"/>
<path d="M1293.69 200.379C1295.26 204.086 1291.55 208.691 1286.95 207.006C1285.49 206.444 1284.36 205.321 1283.8 203.861C1282.9 201.278 1284.47 196.897 1288.18 198.02C1289.53 198.357 1290.54 199.705 1290.54 201.053C1290.54 202.401 1289.76 203.749 1288.52 204.422" stroke="#231F20" stroke-width="0.5" stroke-miterlimit="10" stroke-linecap="round" stroke-linejoin="round"/>
<path d="M1534.41 206.895C1532.95 219.025 1526.88 218.912 1524.29 220.373" stroke="#231F20" stroke-width="0.5" stroke-miterlimit="10" stroke-linecap="round" stroke-linejoin="round"/>
<path d="M1461.58 201.39C1463.49 202.288 1465.52 203.187 1465.52 203.187C1474.06 207.006 1483.39 208.803 1492.83 208.353C1502.94 207.904 1512.6 204.085 1522.04 200.379" stroke="#231F20" stroke-width="0.5" stroke-miterlimit="10" stroke-linecap="round" stroke-linejoin="round"/>
<path d="M1458.66 221.496C1455.97 219.923 1449.22 217.789 1449.22 206.445" stroke="#231F20" stroke-width="0.5" stroke-miterlimit="10" stroke-linecap="round" stroke-linejoin="round"/>
<path d="M1527.89 209.59C1528 210.376 1528.11 211.05 1528.11 211.836C1528.11 216.217 1526.54 218.8 1524.18 220.485" stroke="#231F20" stroke-width="0.5" stroke-miterlimit="10" stroke-linecap="round" stroke-linejoin="round"/>
<path d="M1461.36 205.885C1462.03 206.11 1462.48 206.334 1462.48 206.334L1468.66 209.591C1485.07 218.24 1502.49 214.533 1518.22 206.334C1519.35 205.773 1520.58 205.099 1521.82 204.762" stroke="#231F20" stroke-width="0.5" stroke-miterlimit="10" stroke-linecap="round" stroke-linejoin="round"/>
<path d="M1458.66 221.495C1456.42 219.923 1454.62 218.463 1454.73 212.847C1454.73 211.499 1454.95 210.488 1455.18 209.59" stroke="#231F20" stroke-width="0.5" stroke-miterlimit="10" stroke-linecap="round" stroke-linejoin="round"/>
<path d="M1531.04 209.027C1530.92 210.263 1530.7 211.386 1530.59 212.06C1530.14 214.419 1529.01 217.002 1526.99 218.35" stroke="#231F20" stroke-width="0.5" stroke-miterlimit="10" stroke-linecap="round" stroke-linejoin="round"/>
<path d="M1461.92 203.524C1463.05 204.086 1464.17 204.648 1465.18 205.097C1476.76 209.927 1489.23 212.959 1501.7 210.039C1506.31 208.916 1510.69 207.231 1514.97 205.434C1517.21 204.535 1519.35 203.524 1521.6 202.738" stroke="#231F20" stroke-width="0.5" stroke-miterlimit="10" stroke-linecap="round" stroke-linejoin="round"/>
<path d="M1456.41 219.813C1453.61 217.005 1452.37 212.961 1452.14 208.918" stroke="#231F20" stroke-width="0.5" stroke-miterlimit="10" stroke-linecap="round" stroke-linejoin="round"/>
<path d="M1448.89 197.348C1447.76 199.145 1447.31 201.391 1447.76 203.413C1448.55 207.232 1451.7 209.366 1455.4 209.478C1457.09 209.59 1458.66 209.254 1459.9 208.018C1460.8 207.007 1461.36 205.659 1461.58 204.312C1462.26 199.819 1459.45 194.652 1454.28 195.663C1452.48 196 1450.91 197.236 1450.23 199.033C1449.56 200.717 1450.01 202.852 1451.47 204.087C1453.04 205.435 1456.53 205.659 1456.98 203.076C1457.2 201.953 1457.09 200.717 1456.98 199.594" stroke="#231F20" stroke-width="0.5" stroke-miterlimit="10" stroke-linecap="round" stroke-linejoin="round"/>
<path d="M1449.67 200.379C1448.1 204.086 1451.81 208.691 1456.41 207.006C1457.88 206.444 1459 205.321 1459.56 203.861C1460.46 201.278 1458.89 196.897 1455.18 198.02C1453.83 198.357 1452.82 199.705 1452.82 201.053C1452.82 202.401 1453.61 203.749 1454.84 204.422" stroke="#231F20" stroke-width="0.5" stroke-miterlimit="10" stroke-linecap="round" stroke-linejoin="round"/>
<path d="M1534.74 197.348C1535.87 199.145 1536.32 201.391 1535.87 203.413C1535.08 207.232 1531.93 209.366 1528.23 209.478C1526.54 209.59 1524.97 209.254 1523.73 208.018C1522.83 207.007 1522.27 205.659 1522.04 204.312C1521.37 199.819 1524.18 194.652 1529.35 195.663C1531.15 196 1532.72 197.236 1533.39 199.033C1534.07 200.717 1533.62 202.852 1532.16 204.087C1530.59 205.435 1527.1 205.659 1526.65 203.076C1526.43 201.953 1526.54 200.717 1526.65 199.594" stroke="#231F20" stroke-width="0.5" stroke-miterlimit="10" stroke-linecap="round" stroke-linejoin="round"/>
<path d="M1533.96 200.379C1535.53 204.086 1531.82 208.691 1527.21 207.006C1525.75 206.444 1524.63 205.321 1524.07 203.861C1523.17 201.278 1524.74 196.897 1528.45 198.02C1529.8 198.357 1530.81 199.705 1530.81 201.053C1530.81 202.401 1530.02 203.749 1528.79 204.422" stroke="#231F20" stroke-width="0.5" stroke-miterlimit="10" stroke-linecap="round" stroke-linejoin="round"/>
<path d="M1294.14 281.137C1292.68 293.267 1286.61 293.155 1284.03 294.615" stroke="#231F20" stroke-width="0.5" stroke-miterlimit="10" stroke-linecap="round" stroke-linejoin="round"/>
<path d="M1221.43 275.632C1223.34 276.53 1225.36 277.429 1225.36 277.429C1233.9 281.248 1243.23 283.045 1252.67 282.596C1262.79 282.146 1272.45 278.328 1281.89 274.621" stroke="#231F20" stroke-width="0.5" stroke-miterlimit="10" stroke-linecap="round" stroke-linejoin="round"/>
<path d="M1218.39 295.738C1215.7 294.165 1208.96 292.031 1208.96 280.688" stroke="#231F20" stroke-width="0.5" stroke-miterlimit="10" stroke-linecap="round" stroke-linejoin="round"/>
<path d="M1287.73 283.832C1287.85 284.618 1287.96 285.292 1287.96 286.078C1287.96 290.459 1286.39 293.042 1284.03 294.727" stroke="#231F20" stroke-width="0.5" stroke-miterlimit="10" stroke-linecap="round" stroke-linejoin="round"/>
<path d="M1221.21 280.014C1221.88 280.238 1222.33 280.463 1222.33 280.463L1228.51 283.72C1244.92 292.369 1262.34 288.662 1278.07 280.463C1279.19 279.901 1280.43 279.228 1281.67 278.891" stroke="#231F20" stroke-width="0.5" stroke-miterlimit="10" stroke-linecap="round" stroke-linejoin="round"/>
<path d="M1218.4 295.738C1216.15 294.165 1214.35 292.705 1214.46 287.089C1214.46 285.741 1214.69 284.731 1214.91 283.832" stroke="#231F20" stroke-width="0.5" stroke-miterlimit="10" stroke-linecap="round" stroke-linejoin="round"/>
<path d="M1290.88 283.16C1290.77 284.396 1290.54 285.519 1290.43 286.193C1289.98 288.551 1288.86 291.135 1286.83 292.482" stroke="#231F20" stroke-width="0.5" stroke-miterlimit="10" stroke-linecap="round" stroke-linejoin="round"/>
<path d="M1221.65 277.767C1222.78 278.328 1223.9 278.89 1224.91 279.339C1236.49 284.169 1248.96 287.201 1261.44 284.281C1266.04 283.158 1270.43 281.473 1274.7 279.676C1276.95 278.778 1279.08 277.767 1281.33 276.98" stroke="#231F20" stroke-width="0.5" stroke-miterlimit="10" stroke-linecap="round" stroke-linejoin="round"/>
<path d="M1216.26 294.055C1213.45 291.247 1212.21 287.204 1211.99 283.16" stroke="#231F20" stroke-width="0.5" stroke-miterlimit="10" stroke-linecap="round" stroke-linejoin="round"/>
<path d="M1208.62 271.59C1207.49 273.387 1207.05 275.634 1207.49 277.655C1208.28 281.474 1211.43 283.608 1215.14 283.72C1216.82 283.833 1218.4 283.496 1219.63 282.26C1220.53 281.249 1221.09 279.902 1221.32 278.554C1221.99 274.061 1219.18 268.895 1214.01 269.905C1212.21 270.242 1210.64 271.478 1209.97 273.275C1209.29 274.96 1209.74 277.094 1211.2 278.329C1212.78 279.677 1216.26 279.902 1216.71 277.318C1216.93 276.195 1216.82 274.96 1216.71 273.837" stroke="#231F20" stroke-width="0.5" stroke-miterlimit="10" stroke-linecap="round" stroke-linejoin="round"/>
<path d="M1209.52 274.621C1207.94 278.328 1211.65 282.933 1216.26 281.248C1217.72 280.686 1218.85 279.563 1219.41 278.103C1220.31 275.52 1218.73 271.139 1215.02 272.263C1213.68 272.6 1212.66 273.947 1212.66 275.295C1212.66 276.643 1213.45 277.991 1214.69 278.665" stroke="#231F20" stroke-width="0.5" stroke-miterlimit="10" stroke-linecap="round" stroke-linejoin="round"/>
<path d="M1294.48 271.59C1295.6 273.387 1296.05 275.634 1295.6 277.655C1294.81 281.474 1291.67 283.608 1287.96 283.72C1286.27 283.833 1284.7 283.496 1283.46 282.26C1282.56 281.249 1282 279.902 1281.78 278.554C1281.1 274.061 1283.91 268.895 1289.08 269.905C1290.88 270.242 1292.45 271.478 1293.13 273.275C1293.8 274.96 1293.35 277.094 1291.89 278.329C1290.32 279.677 1286.83 279.902 1286.38 277.318C1286.16 276.195 1286.27 274.96 1286.38 273.837" stroke="#231F20" stroke-width="0.5" stroke-miterlimit="10" stroke-linecap="round" stroke-linejoin="round"/>
<path d="M1293.69 274.621C1295.26 278.328 1291.55 282.933 1286.95 281.248C1285.49 280.686 1284.36 279.563 1283.8 278.103C1282.9 275.52 1284.47 271.139 1288.18 272.263C1289.53 272.6 1290.54 273.947 1290.54 275.295C1290.54 276.643 1289.76 277.991 1288.52 278.665" stroke="#231F20" stroke-width="0.5" stroke-miterlimit="10" stroke-linecap="round" stroke-linejoin="round"/>
<path d="M1534.41 281.137C1532.95 293.267 1526.88 293.155 1524.29 294.615" stroke="#231F20" stroke-width="0.5" stroke-miterlimit="10" stroke-linecap="round" stroke-linejoin="round"/>
<path d="M1461.58 275.632C1463.49 276.53 1465.52 277.429 1465.52 277.429C1474.06 281.248 1483.39 283.045 1492.83 282.596C1502.94 282.146 1512.6 278.328 1522.04 274.621" stroke="#231F20" stroke-width="0.5" stroke-miterlimit="10" stroke-linecap="round" stroke-linejoin="round"/>
<path d="M1458.66 295.738C1455.97 294.165 1449.22 292.031 1449.22 280.688" stroke="#231F20" stroke-width="0.5" stroke-miterlimit="10" stroke-linecap="round" stroke-linejoin="round"/>
<path d="M1527.89 283.832C1528 284.618 1528.11 285.292 1528.11 286.078C1528.11 290.459 1526.54 293.042 1524.18 294.727" stroke="#231F20" stroke-width="0.5" stroke-miterlimit="10" stroke-linecap="round" stroke-linejoin="round"/>
<path d="M1461.36 280.014C1462.03 280.238 1462.48 280.463 1462.48 280.463L1468.66 283.72C1485.07 292.369 1502.49 288.662 1518.22 280.463C1519.35 279.901 1520.58 279.228 1521.82 278.891" stroke="#231F20" stroke-width="0.5" stroke-miterlimit="10" stroke-linecap="round" stroke-linejoin="round"/>
<path d="M1458.66 295.738C1456.42 294.165 1454.62 292.705 1454.73 287.089C1454.73 285.741 1454.95 284.731 1455.18 283.832" stroke="#231F20" stroke-width="0.5" stroke-miterlimit="10" stroke-linecap="round" stroke-linejoin="round"/>
<path d="M1531.04 283.16C1530.92 284.396 1530.7 285.519 1530.59 286.193C1530.14 288.551 1529.01 291.135 1526.99 292.482" stroke="#231F20" stroke-width="0.5" stroke-miterlimit="10" stroke-linecap="round" stroke-linejoin="round"/>
<path d="M1461.92 277.767C1463.05 278.328 1464.17 278.89 1465.18 279.339C1476.76 284.169 1489.23 287.201 1501.7 284.281C1506.31 283.158 1510.69 281.473 1514.97 279.676C1517.21 278.778 1519.35 277.767 1521.6 276.98" stroke="#231F20" stroke-width="0.5" stroke-miterlimit="10" stroke-linecap="round" stroke-linejoin="round"/>
<path d="M1456.41 294.055C1453.61 291.247 1452.37 287.204 1452.14 283.16" stroke="#231F20" stroke-width="0.5" stroke-miterlimit="10" stroke-linecap="round" stroke-linejoin="round"/>
<path d="M1448.89 271.59C1447.76 273.387 1447.31 275.634 1447.76 277.655C1448.55 281.474 1451.7 283.608 1455.4 283.72C1457.09 283.833 1458.66 283.496 1459.9 282.26C1460.8 281.249 1461.36 279.902 1461.58 278.554C1462.26 274.061 1459.45 268.895 1454.28 269.905C1452.48 270.242 1450.91 271.478 1450.23 273.275C1449.56 274.96 1450.01 277.094 1451.47 278.329C1453.04 279.677 1456.53 279.902 1456.98 277.318C1457.2 276.195 1457.09 274.96 1456.98 273.837" stroke="#231F20" stroke-width="0.5" stroke-miterlimit="10" stroke-linecap="round" stroke-linejoin="round"/>
<path d="M1449.67 274.621C1448.1 278.328 1451.81 282.933 1456.41 281.248C1457.88 280.686 1459 279.563 1459.56 278.103C1460.46 275.52 1458.89 271.139 1455.18 272.263C1453.83 272.6 1452.82 273.947 1452.82 275.295C1452.82 276.643 1453.61 277.991 1454.84 278.665" stroke="#231F20" stroke-width="0.5" stroke-miterlimit="10" stroke-linecap="round" stroke-linejoin="round"/>
<path d="M1534.74 271.59C1535.87 273.387 1536.32 275.634 1535.87 277.655C1535.08 281.474 1531.93 283.608 1528.23 283.72C1526.54 283.833 1524.97 283.496 1523.73 282.26C1522.83 281.249 1522.27 279.902 1522.04 278.554C1521.37 274.061 1524.18 268.895 1529.35 269.905C1531.15 270.242 1532.72 271.478 1533.39 273.275C1534.07 274.96 1533.62 277.094 1532.16 278.329C1530.59 279.677 1527.1 279.902 1526.65 277.318C1526.43 276.195 1526.54 274.96 1526.65 273.837" stroke="#231F20" stroke-width="0.5" stroke-miterlimit="10" stroke-linecap="round" stroke-linejoin="round"/>
<path d="M1533.96 274.621C1535.53 278.328 1531.82 282.933 1527.21 281.248C1525.75 280.686 1524.63 279.563 1524.07 278.103C1523.17 275.52 1524.74 271.139 1528.45 272.263C1529.8 272.6 1530.81 273.947 1530.81 275.295C1530.81 276.643 1530.02 277.991 1528.79 278.665" stroke="#231F20" stroke-width="0.5" stroke-miterlimit="10" stroke-linecap="round" stroke-linejoin="round"/>
<path d="M1294.14 368.742C1292.68 380.872 1286.61 380.76 1284.03 382.22" stroke="#231F20" stroke-width="0.5" stroke-miterlimit="10" stroke-linecap="round" stroke-linejoin="round"/>
<path d="M1221.43 363.237C1223.34 364.136 1225.36 365.034 1225.36 365.034C1233.9 368.853 1243.23 370.65 1252.67 370.201C1262.79 369.752 1272.45 365.933 1281.89 362.227" stroke="#231F20" stroke-width="0.5" stroke-miterlimit="10" stroke-linecap="round" stroke-linejoin="round"/>
<path d="M1218.39 383.457C1215.7 381.884 1208.96 379.75 1208.96 368.406" stroke="#231F20" stroke-width="0.5" stroke-miterlimit="10" stroke-linecap="round" stroke-linejoin="round"/>
<path d="M1287.73 371.551C1287.85 372.337 1287.96 373.011 1287.96 373.797C1287.96 378.177 1286.39 380.761 1284.03 382.445" stroke="#231F20" stroke-width="0.5" stroke-miterlimit="10" stroke-linecap="round" stroke-linejoin="round"/>
<path d="M1221.21 367.733C1221.88 367.957 1222.33 368.182 1222.33 368.182L1228.51 371.439C1244.92 380.087 1262.34 376.381 1278.07 368.182C1279.19 367.62 1280.43 366.946 1281.67 366.609" stroke="#231F20" stroke-width="0.5" stroke-miterlimit="10" stroke-linecap="round" stroke-linejoin="round"/>
<path d="M1218.4 383.456C1216.15 381.884 1214.35 380.424 1214.46 374.808C1214.46 373.46 1214.69 372.449 1214.91 371.551" stroke="#231F20" stroke-width="0.5" stroke-miterlimit="10" stroke-linecap="round" stroke-linejoin="round"/>
<path d="M1290.88 370.875C1290.77 372.11 1290.54 373.234 1290.43 373.908C1289.98 376.266 1288.86 378.849 1286.83 380.197" stroke="#231F20" stroke-width="0.5" stroke-miterlimit="10" stroke-linecap="round" stroke-linejoin="round"/>
<path d="M1221.65 365.485C1222.78 366.047 1223.9 366.609 1224.91 367.058C1236.49 371.887 1248.96 374.92 1261.44 372C1266.04 370.877 1270.43 369.192 1274.7 367.395C1276.95 366.496 1279.08 365.485 1281.33 364.699" stroke="#231F20" stroke-width="0.5" stroke-miterlimit="10" stroke-linecap="round" stroke-linejoin="round"/>
<path d="M1216.26 381.77C1213.45 378.962 1212.21 374.918 1211.99 370.875" stroke="#231F20" stroke-width="0.5" stroke-miterlimit="10" stroke-linecap="round" stroke-linejoin="round"/>
<path d="M1208.62 359.196C1207.49 360.993 1207.05 363.239 1207.49 365.261C1208.28 369.08 1211.43 371.214 1215.14 371.326C1216.82 371.438 1218.4 371.101 1219.63 369.866C1220.53 368.855 1221.09 367.507 1221.32 366.159C1221.99 361.667 1219.18 356.5 1214.01 357.511C1212.21 357.848 1210.64 359.083 1209.97 360.88C1209.29 362.565 1209.74 364.699 1211.2 365.935C1212.78 367.282 1216.26 367.507 1216.71 364.924C1216.93 363.801 1216.82 362.565 1216.71 361.442" stroke="#231F20" stroke-width="0.5" stroke-miterlimit="10" stroke-linecap="round" stroke-linejoin="round"/>
<path d="M1209.52 362.34C1207.94 366.046 1211.65 370.651 1216.26 368.967C1217.72 368.405 1218.85 367.282 1219.41 365.822C1220.31 363.239 1218.73 358.858 1215.02 359.981C1213.68 360.318 1212.66 361.666 1212.66 363.014C1212.66 364.362 1213.45 365.709 1214.69 366.383" stroke="#231F20" stroke-width="0.5" stroke-miterlimit="10" stroke-linecap="round" stroke-linejoin="round"/>
<path d="M1294.48 359.196C1295.6 360.993 1296.05 363.239 1295.6 365.261C1294.81 369.08 1291.67 371.214 1287.96 371.326C1286.27 371.438 1284.7 371.101 1283.46 369.866C1282.56 368.855 1282 367.507 1281.78 366.159C1281.1 361.667 1283.91 356.5 1289.08 357.511C1290.88 357.848 1292.45 359.083 1293.13 360.88C1293.8 362.565 1293.35 364.699 1291.89 365.935C1290.32 367.282 1286.83 367.507 1286.38 364.924C1286.16 363.801 1286.27 362.565 1286.38 361.442" stroke="#231F20" stroke-width="0.5" stroke-miterlimit="10" stroke-linecap="round" stroke-linejoin="round"/>
<path d="M1293.69 362.34C1295.26 366.046 1291.55 370.651 1286.95 368.967C1285.49 368.405 1284.36 367.282 1283.8 365.822C1282.9 363.239 1284.47 358.858 1288.18 359.981C1289.53 360.318 1290.54 361.666 1290.54 363.014C1290.54 364.362 1289.76 365.709 1288.52 366.383" stroke="#231F20" stroke-width="0.5" stroke-miterlimit="10" stroke-linecap="round" stroke-linejoin="round"/>
<path d="M1534.41 368.742C1532.95 380.872 1526.88 380.76 1524.29 382.22" stroke="#231F20" stroke-width="0.5" stroke-miterlimit="10" stroke-linecap="round" stroke-linejoin="round"/>
<path d="M1461.58 363.237C1463.49 364.136 1465.52 365.034 1465.52 365.034C1474.06 368.853 1483.39 370.65 1492.83 370.201C1502.94 369.752 1512.6 365.933 1522.04 362.227" stroke="#231F20" stroke-width="0.5" stroke-miterlimit="10" stroke-linecap="round" stroke-linejoin="round"/>
<path d="M1458.66 383.457C1455.97 381.884 1449.22 379.75 1449.22 368.406" stroke="#231F20" stroke-width="0.5" stroke-miterlimit="10" stroke-linecap="round" stroke-linejoin="round"/>
<path d="M1527.89 371.551C1528 372.337 1528.11 373.011 1528.11 373.797C1528.11 378.177 1526.54 380.761 1524.18 382.445" stroke="#231F20" stroke-width="0.5" stroke-miterlimit="10" stroke-linecap="round" stroke-linejoin="round"/>
<path d="M1461.36 367.733C1462.03 367.957 1462.48 368.182 1462.48 368.182L1468.66 371.439C1485.07 380.087 1502.49 376.381 1518.22 368.182C1519.35 367.62 1520.58 366.946 1521.82 366.609" stroke="#231F20" stroke-width="0.5" stroke-miterlimit="10" stroke-linecap="round" stroke-linejoin="round"/>
<path d="M1458.66 383.456C1456.42 381.884 1454.62 380.424 1454.73 374.808C1454.73 373.46 1454.95 372.449 1455.18 371.551" stroke="#231F20" stroke-width="0.5" stroke-miterlimit="10" stroke-linecap="round" stroke-linejoin="round"/>
<path d="M1531.04 370.875C1530.92 372.11 1530.7 373.234 1530.59 373.908C1530.14 376.266 1529.01 378.849 1526.99 380.197" stroke="#231F20" stroke-width="0.5" stroke-miterlimit="10" stroke-linecap="round" stroke-linejoin="round"/>
<path d="M1461.92 365.485C1463.05 366.047 1464.17 366.609 1465.18 367.058C1476.76 371.887 1489.23 374.92 1501.7 372C1506.31 370.877 1510.69 369.192 1514.97 367.395C1517.21 366.496 1519.35 365.485 1521.6 364.699" stroke="#231F20" stroke-width="0.5" stroke-miterlimit="10" stroke-linecap="round" stroke-linejoin="round"/>
<path d="M1456.41 381.77C1453.61 378.962 1452.37 374.918 1452.14 370.875" stroke="#231F20" stroke-width="0.5" stroke-miterlimit="10" stroke-linecap="round" stroke-linejoin="round"/>
<path d="M1448.89 359.196C1447.76 360.993 1447.31 363.239 1447.76 365.261C1448.55 369.08 1451.7 371.214 1455.4 371.326C1457.09 371.438 1458.66 371.101 1459.9 369.866C1460.8 368.855 1461.36 367.507 1461.58 366.159C1462.26 361.667 1459.45 356.5 1454.28 357.511C1452.48 357.848 1450.91 359.083 1450.23 360.88C1449.56 362.677 1450.01 364.699 1451.47 365.935C1453.04 367.282 1456.53 367.507 1456.98 364.924C1457.2 363.801 1457.09 362.565 1456.98 361.442" stroke="#231F20" stroke-width="0.5" stroke-miterlimit="10" stroke-linecap="round" stroke-linejoin="round"/>
<path d="M1449.67 362.34C1448.1 366.046 1451.81 370.651 1456.41 368.967C1457.88 368.405 1459 367.282 1459.56 365.822C1460.46 363.239 1458.89 358.858 1455.18 359.981C1453.83 360.318 1452.82 361.666 1452.82 363.014C1452.82 364.362 1453.61 365.709 1454.84 366.383" stroke="#231F20" stroke-width="0.5" stroke-miterlimit="10" stroke-linecap="round" stroke-linejoin="round"/>
<path d="M1534.74 359.196C1535.87 360.993 1536.32 363.239 1535.87 365.261C1535.08 369.08 1531.93 371.214 1528.23 371.326C1526.54 371.438 1524.97 371.101 1523.73 369.866C1522.83 368.855 1522.27 367.507 1522.04 366.159C1521.37 361.667 1524.18 356.5 1529.35 357.511C1531.15 357.848 1532.72 359.083 1533.39 360.88C1534.07 362.677 1533.62 364.699 1532.16 365.935C1530.59 367.282 1527.1 367.507 1526.65 364.924C1526.43 363.801 1526.54 362.565 1526.65 361.442" stroke="#231F20" stroke-width="0.5" stroke-miterlimit="10" stroke-linecap="round" stroke-linejoin="round"/>
<path d="M1533.96 362.34C1535.53 366.046 1531.82 370.651 1527.21 368.967C1525.75 368.405 1524.63 367.282 1524.07 365.822C1523.17 363.239 1524.74 358.858 1528.45 359.981C1529.8 360.318 1530.81 361.666 1530.81 363.014C1530.81 364.362 1530.02 365.709 1528.79 366.383" stroke="#231F20" stroke-width="0.5" stroke-miterlimit="10" stroke-linecap="round" stroke-linejoin="round"/>
<path d="M-904 457V485.4H175" stroke="#231F20" stroke-width="0.5" stroke-miterlimit="10" stroke-linejoin="round"/>
<path d="M1360 467H1614.73" stroke="#231F20" stroke-width="0.5"/>
<path d="M1222.6 475.3L1228.9 467" stroke="#231F20" stroke-width="0.5" stroke-miterlimit="10" stroke-linejoin="round"/>
<path d="M1215 475.3L1221.4 467" stroke="#231F20" stroke-width="0.5" stroke-miterlimit="10" stroke-linejoin="round"/>
<path d="M1230.9 475.3L1237.3 467" stroke="#231F20" stroke-width="0.5" stroke-miterlimit="10" stroke-linejoin="round"/>
<path d="M1239.3 475.3L1245.6 467" stroke="#231F20" stroke-width="0.5" stroke-miterlimit="10" stroke-linejoin="round"/>
<path d="M1247.6 475.3L1254 467" stroke="#231F20" stroke-width="0.5" stroke-miterlimit="10" stroke-linejoin="round"/>
<path d="M1255.2 475.3L1261.6 467" stroke="#231F20" stroke-width="0.5" stroke-miterlimit="10" stroke-linejoin="round"/>
<path d="M1263.6 475.3L1270 467" stroke="#231F20" stroke-width="0.5" stroke-miterlimit="10" stroke-linejoin="round"/>
<path d="M1271.9 475.3L1278.3 467" stroke="#231F20" stroke-width="0.5" stroke-miterlimit="10" stroke-linejoin="round"/>
<path d="M1280.3 475.3L1286.7 467" stroke="#231F20" stroke-width="0.5" stroke-miterlimit="10" stroke-linejoin="round"/>
<path d="M1288 475.3L1294.3 467" stroke="#231F20" stroke-width="0.5" stroke-miterlimit="10" stroke-linejoin="round"/>
<path d="M1296.3 475.3L1302.7 467" stroke="#231F20" stroke-width="0.5" stroke-miterlimit="10" stroke-linejoin="round"/>
<path d="M1304.7 475.3L1311 467" stroke="#231F20" stroke-width="0.5" stroke-miterlimit="10" stroke-linejoin="round"/>
<path d="M1313 475.3L1319.4 467" stroke="#231F20" stroke-width="0.5" stroke-miterlimit="10" stroke-linejoin="round"/>
<path d="M1321.2 475.3L1327.6 467" stroke="#231F20" stroke-width="0.5" stroke-miterlimit="10" stroke-linejoin="round"/>
<path d="M1329 475.3L1335.4 467" stroke="#231F20" stroke-width="0.5" stroke-miterlimit="10" stroke-linejoin="round"/>
<path d="M1337.2 475.3L1343.6 467" stroke="#231F20" stroke-width="0.5" stroke-miterlimit="10" stroke-linejoin="round"/>
<path d="M1346.3 475.3L1352.7 467" stroke="#231F20" stroke-width="0.5" stroke-miterlimit="10" stroke-linejoin="round"/>
<path d="M1353.9 475.3L1360.3 467" stroke="#231F20" stroke-width="0.5" stroke-miterlimit="10" stroke-linejoin="round"/>
<path d="M1362.3 475.3L1368.6 467" stroke="#231F20" stroke-width="0.5" stroke-miterlimit="10" stroke-linejoin="round"/>
<path d="M1370.6 475.3L1376.9 467" stroke="#231F20" stroke-width="0.5" stroke-miterlimit="10" stroke-linejoin="round"/>
<path d="M1379 475.3L1385.3 467" stroke="#231F20" stroke-width="0.5" stroke-miterlimit="10" stroke-linejoin="round"/>
<path d="M1386.6 475.3L1393 467" stroke="#231F20" stroke-width="0.5" stroke-miterlimit="10" stroke-linejoin="round"/>
<path d="M1395 475.3L1401.4 467" stroke="#231F20" stroke-width="0.5" stroke-miterlimit="10" stroke-linejoin="round"/>
<path d="M1403.3 475.3L1409.7 467" stroke="#231F20" stroke-width="0.5" stroke-miterlimit="10" stroke-linejoin="round"/>
<path d="M1411.7 475.3L1418.1 467" stroke="#231F20" stroke-width="0.5" stroke-miterlimit="10" stroke-linejoin="round"/>
<path d="M1420.2 475.3L1426.6 467" stroke="#231F20" stroke-width="0.5" stroke-miterlimit="10" stroke-linejoin="round"/>
<path d="M1428.6 475.3L1434.9 467" stroke="#231F20" stroke-width="0.5" stroke-miterlimit="10" stroke-linejoin="round"/>
<path d="M1436.9 475.3L1443.2 467" stroke="#231F20" stroke-width="0.5" stroke-miterlimit="10" stroke-linejoin="round"/>
<path d="M1445.3 475.3L1451.6 467" stroke="#231F20" stroke-width="0.5" stroke-miterlimit="10" stroke-linejoin="round"/>
<path d="M1453 475.3L1459.4 467" stroke="#231F20" stroke-width="0.5" stroke-miterlimit="10" stroke-linejoin="round"/>
<path d="M1461.4 475.3L1467.8 467" stroke="#231F20" stroke-width="0.5" stroke-miterlimit="10" stroke-linejoin="round"/>
<path d="M1469.7 475.3L1476.1 467" stroke="#231F20" stroke-width="0.5" stroke-miterlimit="10" stroke-linejoin="round"/>
<path d="M1478.1 475.3L1484.5 467" stroke="#231F20" stroke-width="0.5" stroke-miterlimit="10" stroke-linejoin="round"/>
<path d="M1485.8 475.3L1492.1 467" stroke="#231F20" stroke-width="0.5" stroke-miterlimit="10" stroke-linejoin="round"/>
<path d="M1494.1 475.3L1500.5 467" stroke="#231F20" stroke-width="0.5" stroke-miterlimit="10" stroke-linejoin="round"/>
<path d="M1502.4 475.3L1508.8 467" stroke="#231F20" stroke-width="0.5" stroke-miterlimit="10" stroke-linejoin="round"/>
<path d="M1510.8 475.3L1517.2 467" stroke="#231F20" stroke-width="0.5" stroke-miterlimit="10" stroke-linejoin="round"/>
<path d="M1519 475.3L1525.4 467" stroke="#231F20" stroke-width="0.5" stroke-miterlimit="10" stroke-linejoin="round"/>
<path d="M1527.4 475.3L1533.8 467" stroke="#231F20" stroke-width="0.5" stroke-miterlimit="10" stroke-linejoin="round"/>
<path d="M1535.7 475.3L1542.1 467" stroke="#231F20" stroke-width="0.5" stroke-miterlimit="10" stroke-linejoin="round"/>
<path d="M1544.1 475.3L1550.4 467" stroke="#231F20" stroke-width="0.5" stroke-miterlimit="10" stroke-linejoin="round"/>
<path d="M1554 475.3L1560.4 467" stroke="#231F20" stroke-width="0.5" stroke-miterlimit="10" stroke-linejoin="round"/>
<path d="M1562.4 475.3L1568.8 467" stroke="#231F20" stroke-width="0.5" stroke-miterlimit="10" stroke-linejoin="round"/>
<path d="M1570.7 475.3L1577.1 467" stroke="#231F20" stroke-width="0.5" stroke-miterlimit="10" stroke-linejoin="round"/>
<path d="M1579.1 475.3L1585.4 467" stroke="#231F20" stroke-width="0.5" stroke-miterlimit="10" stroke-linejoin="round"/>
<path d="M195 457H-904V461H194.803" stroke="#231F20" stroke-width="0.5" stroke-miterlimit="10" stroke-linejoin="round"/>
<path d="M184 457H481.633M481.5 461H185.5" stroke="#231F20" stroke-width="0.5" stroke-miterlimit="10" stroke-linejoin="round"/>
<path d="M479 457H1105M1103 461H446.5" stroke="#231F20" stroke-width="0.5" stroke-miterlimit="10" stroke-linejoin="round"/>
<path d="M1445 461H1614.78" stroke="#231F20" stroke-width="0.5"/>
<path d="M1635.31 461L1701 461" stroke="#231F20" stroke-width="0.5"/>
<path d="M1633.5 457L1701 457" stroke="#231F20" stroke-width="0.5"/>
<path d="M1123.41 457H1258M1293 461H1123.41" stroke="#231F20" stroke-width="0.5" stroke-miterlimit="10" stroke-linejoin="round"/>
<path d="M198.854 466.801H-904V475.001H198.24" stroke="#231F20" stroke-width="0.5" stroke-miterlimit="10" stroke-linejoin="round"/>
<path d="M1.59961 475.101L7.99963 466.801" stroke="#231F20" stroke-width="0.5" stroke-miterlimit="10" stroke-linejoin="round"/>
<path d="M10.5 475.101L16.8 466.801" stroke="#231F20" stroke-width="0.5" stroke-miterlimit="10" stroke-linejoin="round"/>
<path d="M18.8008 475.101L25.1008 466.801" stroke="#231F20" stroke-width="0.5" stroke-miterlimit="10" stroke-linejoin="round"/>
<path d="M27.1992 475.101L33.4992 466.801" stroke="#231F20" stroke-width="0.5" stroke-miterlimit="10" stroke-linejoin="round"/>
<path d="M35.6992 475.101L41.9992 466.801" stroke="#231F20" stroke-width="0.5" stroke-miterlimit="10" stroke-linejoin="round"/>
<path d="M44 475.101L50.4 466.801" stroke="#231F20" stroke-width="0.5" stroke-miterlimit="10" stroke-linejoin="round"/>
<path d="M52.4004 475.101L58.7004 466.801" stroke="#231F20" stroke-width="0.5" stroke-miterlimit="10" stroke-linejoin="round"/>
<path d="M60.6992 475.101L67.0992 466.801" stroke="#231F20" stroke-width="0.5" stroke-miterlimit="10" stroke-linejoin="round"/>
<path d="M68.3008 475.101L74.7008 466.801" stroke="#231F20" stroke-width="0.5" stroke-miterlimit="10" stroke-linejoin="round"/>
<path d="M76.6992 475.101L83.0992 466.801" stroke="#231F20" stroke-width="0.5" stroke-miterlimit="10" stroke-linejoin="round"/>
<path d="M85 475.101L91.4 466.801" stroke="#231F20" stroke-width="0.5" stroke-miterlimit="10" stroke-linejoin="round"/>
<path d="M93.4004 475.101L99.8004 466.801" stroke="#231F20" stroke-width="0.5" stroke-miterlimit="10" stroke-linejoin="round"/>
<path d="M101.1 475.101L107.4 466.801" stroke="#231F20" stroke-width="0.5" stroke-miterlimit="10" stroke-linejoin="round"/>
<path d="M109.4 475.101L115.8 466.801" stroke="#231F20" stroke-width="0.5" stroke-miterlimit="10" stroke-linejoin="round"/>
<path d="M117.801 475.101L124.101 466.801" stroke="#231F20" stroke-width="0.5" stroke-miterlimit="10" stroke-linejoin="round"/>
<path d="M126.1 475.101L132.5 466.801" stroke="#231F20" stroke-width="0.5" stroke-miterlimit="10" stroke-linejoin="round"/>
<path d="M135.1 475.101L141.5 466.801" stroke="#231F20" stroke-width="0.5" stroke-miterlimit="10" stroke-linejoin="round"/>
<path d="M1480 457H1614.77" stroke="black" stroke-width="0.5"/>
<path d="M1700 467H1638.34" stroke="black" stroke-width="0.5"/>
<path d="M1579 475.3L1585.3 467" stroke="#231F20" stroke-width="0.5" stroke-miterlimit="10" stroke-linejoin="round"/>
<path d="M1587.3 475.3L1593.6 467" stroke="#231F20" stroke-width="0.5" stroke-miterlimit="10" stroke-linejoin="round"/>
<path d="M1595.7 475.3L1602 467" stroke="#231F20" stroke-width="0.5" stroke-miterlimit="10" stroke-linejoin="round"/>
<path d="M1603.3 475.3L1609.7 467" stroke="#231F20" stroke-width="0.5" stroke-miterlimit="10" stroke-linejoin="round"/>
<path d="M1611.7 475.3L1615.5 470" stroke="#231F20" stroke-width="0.5" stroke-miterlimit="10" stroke-linejoin="round"/>
<path d="M1643.3 467L1640 471.5" stroke="#231F20" stroke-width="0.5" stroke-miterlimit="10" stroke-linejoin="round"/>
<path d="M1645.3 475.3L1651.6 467" stroke="#231F20" stroke-width="0.5" stroke-miterlimit="10" stroke-linejoin="round"/>
<path d="M1653.6 475.3L1659.9 467" stroke="#231F20" stroke-width="0.5" stroke-miterlimit="10" stroke-linejoin="round"/>
<path d="M1661.9 475.3L1668.3 467" stroke="#231F20" stroke-width="0.5" stroke-miterlimit="10" stroke-linejoin="round"/>
<path d="M1669.6 475.3L1675.9 467" stroke="#231F20" stroke-width="0.5" stroke-miterlimit="10" stroke-linejoin="round"/>
<path d="M1677.9 475.3L1684.3 467" stroke="#231F20" stroke-width="0.5" stroke-miterlimit="10" stroke-linejoin="round"/>
<path d="M1686.2 475.3L1692.6 467" stroke="#231F20" stroke-width="0.5" stroke-miterlimit="10" stroke-linejoin="round"/>
<path d="M1694.6 475.3L1701 467" stroke="#231F20" stroke-width="0.5" stroke-miterlimit="10" stroke-linejoin="round"/>
<path d="M188 467H482.263" stroke="#231F20" stroke-width="0.5"/>
<path d="M188.359 475H485.999" stroke="#231F20" stroke-width="0.5"/>
<path d="M1100 467H478M478.528 475H1098.41" stroke="#231F20" stroke-width="0.5" stroke-miterlimit="10" stroke-linejoin="round"/>
<path d="M1367.5 467H1264.87H1216.25H1123.57M1121 475H1617.5M1701 475H1640" stroke="#231F20" stroke-width="0.5" stroke-miterlimit="10" stroke-linejoin="round"/>
<path d="M149.6 475.3L155.9 467" stroke="#231F20" stroke-width="0.5" stroke-miterlimit="10" stroke-linejoin="round"/>
<path d="M142 475.3L148.4 467" stroke="#231F20" stroke-width="0.5" stroke-miterlimit="10" stroke-linejoin="round"/>
<path d="M191.301 475.3L197.601 467" stroke="#231F20" stroke-width="0.5" stroke-miterlimit="10" stroke-linejoin="round"/>
<path d="M199.6 475.3L206 467" stroke="#231F20" stroke-width="0.5" stroke-miterlimit="10" stroke-linejoin="round"/>
<path d="M207.199 475.3L213.599 467" stroke="#231F20" stroke-width="0.5" stroke-miterlimit="10" stroke-linejoin="round"/>
<path d="M215.6 475.3L222 467" stroke="#231F20" stroke-width="0.5" stroke-miterlimit="10" stroke-linejoin="round"/>
<path d="M158.301 475.3L164.601 467" stroke="#231F20" stroke-width="0.5" stroke-miterlimit="10" stroke-linejoin="round"/>
<path d="M166.6 475.3L173 467" stroke="#231F20" stroke-width="0.5" stroke-miterlimit="10" stroke-linejoin="round"/>
<path d="M174.199 475.3L180.599 467" stroke="#231F20" stroke-width="0.5" stroke-miterlimit="10" stroke-linejoin="round"/>
<path d="M182.6 475.3L189 467" stroke="#231F20" stroke-width="0.5" stroke-miterlimit="10" stroke-linejoin="round"/>
<path d="M223.9 475.3L230.3 467" stroke="#231F20" stroke-width="0.5" stroke-miterlimit="10" stroke-linejoin="round"/>
<path d="M232.301 475.3L238.701 467" stroke="#231F20" stroke-width="0.5" stroke-miterlimit="10" stroke-linejoin="round"/>
<path d="M240 475.3L246.3 467" stroke="#231F20" stroke-width="0.5" stroke-miterlimit="10" stroke-linejoin="round"/>
<path d="M248.301 475.3L254.701 467" stroke="#231F20" stroke-width="0.5" stroke-miterlimit="10" stroke-linejoin="round"/>
<path d="M256.699 475.3L262.999 467" stroke="#231F20" stroke-width="0.5" stroke-miterlimit="10" stroke-linejoin="round"/>
<path d="M265 475.3L271.4 467" stroke="#231F20" stroke-width="0.5" stroke-miterlimit="10" stroke-linejoin="round"/>
<path d="M273.199 475.3L279.599 467" stroke="#231F20" stroke-width="0.5" stroke-miterlimit="10" stroke-linejoin="round"/>
<path d="M281.6 475.3L288 467" stroke="#231F20" stroke-width="0.5" stroke-miterlimit="10" stroke-linejoin="round"/>
<path d="M289.9 475.3L296.3 467" stroke="#231F20" stroke-width="0.5" stroke-miterlimit="10" stroke-linejoin="round"/>
<path d="M298.301 475.3L304.701 467" stroke="#231F20" stroke-width="0.5" stroke-miterlimit="10" stroke-linejoin="round"/>
<path d="M305.9 475.3L312.3 467" stroke="#231F20" stroke-width="0.5" stroke-miterlimit="10" stroke-linejoin="round"/>
<path d="M314.301 475.3L320.601 467" stroke="#231F20" stroke-width="0.5" stroke-miterlimit="10" stroke-linejoin="round"/>
<path d="M322.6 475.3L328.9 467" stroke="#231F20" stroke-width="0.5" stroke-miterlimit="10" stroke-linejoin="round"/>
<path d="M331 475.3L337.3 467" stroke="#231F20" stroke-width="0.5" stroke-miterlimit="10" stroke-linejoin="round"/>
<path d="M338.6 475.3L345 467" stroke="#231F20" stroke-width="0.5" stroke-miterlimit="10" stroke-linejoin="round"/>
<path d="M347 475.3L353.4 467" stroke="#231F20" stroke-width="0.5" stroke-miterlimit="10" stroke-linejoin="round"/>
<path d="M355.301 475.3L361.701 467" stroke="#231F20" stroke-width="0.5" stroke-miterlimit="10" stroke-linejoin="round"/>
<path d="M363.699 475.3L370.099 467" stroke="#231F20" stroke-width="0.5" stroke-miterlimit="10" stroke-linejoin="round"/>
<path d="M372.199 475.3L378.599 467" stroke="#231F20" stroke-width="0.5" stroke-miterlimit="10" stroke-linejoin="round"/>
<path d="M380.6 475.3L386.9 467" stroke="#231F20" stroke-width="0.5" stroke-miterlimit="10" stroke-linejoin="round"/>
<path d="M388.9 475.3L395.2 467" stroke="#231F20" stroke-width="0.5" stroke-miterlimit="10" stroke-linejoin="round"/>
<path d="M397.301 475.3L403.601 467" stroke="#231F20" stroke-width="0.5" stroke-miterlimit="10" stroke-linejoin="round"/>
<path d="M404.9 475.3L411.2 467" stroke="#231F20" stroke-width="0.5" stroke-miterlimit="10" stroke-linejoin="round"/>
<path d="M413.199 475.3L419.599 467" stroke="#231F20" stroke-width="0.5" stroke-miterlimit="10" stroke-linejoin="round"/>
<path d="M421.5 475.3L427.9 467" stroke="#231F20" stroke-width="0.5" stroke-miterlimit="10" stroke-linejoin="round"/>
<path d="M429.9 475.3L436.3 467" stroke="#231F20" stroke-width="0.5" stroke-miterlimit="10" stroke-linejoin="round"/>
<path d="M438.301 475.3L444.601 467" stroke="#231F20" stroke-width="0.5" stroke-miterlimit="10" stroke-linejoin="round"/>
<path d="M445.9 475.3L452.2 467" stroke="#231F20" stroke-width="0.5" stroke-miterlimit="10" stroke-linejoin="round"/>
<path d="M454.199 475.3L460.599 467" stroke="#231F20" stroke-width="0.5" stroke-miterlimit="10" stroke-linejoin="round"/>
<path d="M462.5 475.3L468.9 467" stroke="#231F20" stroke-width="0.5" stroke-miterlimit="10" stroke-linejoin="round"/>
<path d="M471.699 475.3L477.999 467" stroke="#231F20" stroke-width="0.5" stroke-miterlimit="10" stroke-linejoin="round"/>
<path d="M480.699 475.3L486.999 467" stroke="#231F20" stroke-width="0.5" stroke-miterlimit="10" stroke-linejoin="round"/>
<path d="M775.6 475.3L781.9 467" stroke="#231F20" stroke-width="0.5" stroke-miterlimit="10" stroke-linejoin="round"/>
<path d="M768 475.3L774.3 467" stroke="#231F20" stroke-width="0.5" stroke-miterlimit="10" stroke-linejoin="round"/>
<path d="M783.9 475.3L790.3 467" stroke="#231F20" stroke-width="0.5" stroke-miterlimit="10" stroke-linejoin="round"/>
<path d="M792.199 475.3L798.599 467" stroke="#231F20" stroke-width="0.5" stroke-miterlimit="10" stroke-linejoin="round"/>
<path d="M800.6 475.3L807 467" stroke="#231F20" stroke-width="0.5" stroke-miterlimit="10" stroke-linejoin="round"/>
<path d="M808.199 475.3L814.599 467" stroke="#231F20" stroke-width="0.5" stroke-miterlimit="10" stroke-linejoin="round"/>
<path d="M816.6 475.3L823 467" stroke="#231F20" stroke-width="0.5" stroke-miterlimit="10" stroke-linejoin="round"/>
<path d="M824.9 475.3L831.3 467" stroke="#231F20" stroke-width="0.5" stroke-miterlimit="10" stroke-linejoin="round"/>
<path d="M833.301 475.3L839.601 467" stroke="#231F20" stroke-width="0.5" stroke-miterlimit="10" stroke-linejoin="round"/>
<path d="M841 475.3L847.3 467" stroke="#231F20" stroke-width="0.5" stroke-miterlimit="10" stroke-linejoin="round"/>
<path d="M849.301 475.3L855.701 467" stroke="#231F20" stroke-width="0.5" stroke-miterlimit="10" stroke-linejoin="round"/>
<path d="M857.6 475.3L864 467" stroke="#231F20" stroke-width="0.5" stroke-miterlimit="10" stroke-linejoin="round"/>
<path d="M866 475.3L872.4 467" stroke="#231F20" stroke-width="0.5" stroke-miterlimit="10" stroke-linejoin="round"/>
<path d="M874.199 475.3L880.599 467" stroke="#231F20" stroke-width="0.5" stroke-miterlimit="10" stroke-linejoin="round"/>
<path d="M882.6 475.3L888.9 467" stroke="#231F20" stroke-width="0.5" stroke-miterlimit="10" stroke-linejoin="round"/>
<path d="M890.9 475.3L897.3 467" stroke="#231F20" stroke-width="0.5" stroke-miterlimit="10" stroke-linejoin="round"/>
<path d="M899.301 475.3L905.601 467" stroke="#231F20" stroke-width="0.5" stroke-miterlimit="10" stroke-linejoin="round"/>
<path d="M906.9 475.3L913.2 467" stroke="#231F20" stroke-width="0.5" stroke-miterlimit="10" stroke-linejoin="round"/>
<path d="M915.301 475.3L921.601 467" stroke="#231F20" stroke-width="0.5" stroke-miterlimit="10" stroke-linejoin="round"/>
<path d="M923.6 475.3L929.9 467" stroke="#231F20" stroke-width="0.5" stroke-miterlimit="10" stroke-linejoin="round"/>
<path d="M931.9 475.3L938.3 467" stroke="#231F20" stroke-width="0.5" stroke-miterlimit="10" stroke-linejoin="round"/>
<path d="M939.6 475.3L946 467" stroke="#231F20" stroke-width="0.5" stroke-miterlimit="10" stroke-linejoin="round"/>
<path d="M948 475.3L954.3 467" stroke="#231F20" stroke-width="0.5" stroke-miterlimit="10" stroke-linejoin="round"/>
<path d="M956.301 475.3L962.701 467" stroke="#231F20" stroke-width="0.5" stroke-miterlimit="10" stroke-linejoin="round"/>
<path d="M964.699 475.3L970.999 467" stroke="#231F20" stroke-width="0.5" stroke-miterlimit="10" stroke-linejoin="round"/>
<path d="M973.199 475.3L979.499 467" stroke="#231F20" stroke-width="0.5" stroke-miterlimit="10" stroke-linejoin="round"/>
<path d="M981.6 475.3L987.9 467" stroke="#231F20" stroke-width="0.5" stroke-miterlimit="10" stroke-linejoin="round"/>
<path d="M989.9 475.3L996.2 467" stroke="#231F20" stroke-width="0.5" stroke-miterlimit="10" stroke-linejoin="round"/>
<path d="M998.199 475.3L1004.6 467" stroke="#231F20" stroke-width="0.5" stroke-miterlimit="10" stroke-linejoin="round"/>
<path d="M1005.8 475.3L1012.2 467" stroke="#231F20" stroke-width="0.5" stroke-miterlimit="10" stroke-linejoin="round"/>
<path d="M1014.2 475.3L1020.6 467" stroke="#231F20" stroke-width="0.5" stroke-miterlimit="10" stroke-linejoin="round"/>
<path d="M1022.5 475.3L1028.9 467" stroke="#231F20" stroke-width="0.5" stroke-miterlimit="10" stroke-linejoin="round"/>
<path d="M1030.9 475.3L1037.3 467" stroke="#231F20" stroke-width="0.5" stroke-miterlimit="10" stroke-linejoin="round"/>
<path d="M1038.6 475.3L1044.9 467" stroke="#231F20" stroke-width="0.5" stroke-miterlimit="10" stroke-linejoin="round"/>
<path d="M1047 475.3L1053.3 467" stroke="#231F20" stroke-width="0.5" stroke-miterlimit="10" stroke-linejoin="round"/>
<path d="M1055.3 475.3L1061.6 467" stroke="#231F20" stroke-width="0.5" stroke-miterlimit="10" stroke-linejoin="round"/>
<path d="M1063.6 475.3L1070 467" stroke="#231F20" stroke-width="0.5" stroke-miterlimit="10" stroke-linejoin="round"/>
<path d="M1072.6 475.3L1079 467" stroke="#231F20" stroke-width="0.5" stroke-miterlimit="10" stroke-linejoin="round"/>
<path d="M1081.5 475.3L1087.8 467" stroke="#231F20" stroke-width="0.5" stroke-miterlimit="10" stroke-linejoin="round"/>
<path d="M1089.8 475.3L1096.1 467" stroke="#231F20" stroke-width="0.5" stroke-miterlimit="10" stroke-linejoin="round"/>
<path d="M1123.4 475.3L1129.7 467" stroke="#231F20" stroke-width="0.5" stroke-miterlimit="10" stroke-linejoin="round"/>
<path d="M1131.7 475.3L1138.1 467" stroke="#231F20" stroke-width="0.5" stroke-miterlimit="10" stroke-linejoin="round"/>
<path d="M1139.3 475.3L1145.7 467" stroke="#231F20" stroke-width="0.5" stroke-miterlimit="10" stroke-linejoin="round"/>
<path d="M1147.7 475.3L1154.1 467" stroke="#231F20" stroke-width="0.5" stroke-miterlimit="10" stroke-linejoin="round"/>
<path d="M1156 475.3L1162.4 467" stroke="#231F20" stroke-width="0.5" stroke-miterlimit="10" stroke-linejoin="round"/>
<path d="M1164.4 475.3L1170.8 467" stroke="#231F20" stroke-width="0.5" stroke-miterlimit="10" stroke-linejoin="round"/>
<path d="M1172.1 475.3L1178.4 467" stroke="#231F20" stroke-width="0.5" stroke-miterlimit="10" stroke-linejoin="round"/>
<path d="M1180.4 475.3L1186.8 467" stroke="#231F20" stroke-width="0.5" stroke-miterlimit="10" stroke-linejoin="round"/>
<path d="M1188.8 475.3L1195.1 467" stroke="#231F20" stroke-width="0.5" stroke-miterlimit="10" stroke-linejoin="round"/>
<path d="M1197.1 475.3L1203.5 467" stroke="#231F20" stroke-width="0.5" stroke-miterlimit="10" stroke-linejoin="round"/>
<path d="M1206.1 475.3L1212.5 467" stroke="#231F20" stroke-width="0.5" stroke-miterlimit="10" stroke-linejoin="round"/>
<path d="M512.699 475.3L519.099 467" stroke="#231F20" stroke-width="0.5" stroke-miterlimit="10" stroke-linejoin="round"/>
<path d="M521 475.3L527.4 467" stroke="#231F20" stroke-width="0.5" stroke-miterlimit="10" stroke-linejoin="round"/>
<path d="M529.4 475.3L535.8 467" stroke="#231F20" stroke-width="0.5" stroke-miterlimit="10" stroke-linejoin="round"/>
<path d="M487.699 475.3L494.099 467" stroke="#231F20" stroke-width="0.5" stroke-miterlimit="10" stroke-linejoin="round"/>
<path d="M496 475.3L502.4 467" stroke="#231F20" stroke-width="0.5" stroke-miterlimit="10" stroke-linejoin="round"/>
<path d="M504.4 475.3L510.8 467" stroke="#231F20" stroke-width="0.5" stroke-miterlimit="10" stroke-linejoin="round"/>
<path d="M537.1 475.3L543.4 467" stroke="#231F20" stroke-width="0.5" stroke-miterlimit="10" stroke-linejoin="round"/>
<path d="M545.4 475.3L551.8 467" stroke="#231F20" stroke-width="0.5" stroke-miterlimit="10" stroke-linejoin="round"/>
<path d="M553.699 475.3L560.099 467" stroke="#231F20" stroke-width="0.5" stroke-miterlimit="10" stroke-linejoin="round"/>
<path d="M562.1 475.3L568.5 467" stroke="#231F20" stroke-width="0.5" stroke-miterlimit="10" stroke-linejoin="round"/>
<path d="M570.301 475.3L576.701 467" stroke="#231F20" stroke-width="0.5" stroke-miterlimit="10" stroke-linejoin="round"/>
<path d="M578.699 475.3L585.099 467" stroke="#231F20" stroke-width="0.5" stroke-miterlimit="10" stroke-linejoin="round"/>
<path d="M587 475.3L593.4 467" stroke="#231F20" stroke-width="0.5" stroke-miterlimit="10" stroke-linejoin="round"/>
<path d="M595.4 475.3L601.7 467" stroke="#231F20" stroke-width="0.5" stroke-miterlimit="10" stroke-linejoin="round"/>
<path d="M603 475.3L609.4 467" stroke="#231F20" stroke-width="0.5" stroke-miterlimit="10" stroke-linejoin="round"/>
<path d="M611.4 475.3L617.7 467" stroke="#231F20" stroke-width="0.5" stroke-miterlimit="10" stroke-linejoin="round"/>
<path d="M619.699 475.3L625.999 467" stroke="#231F20" stroke-width="0.5" stroke-miterlimit="10" stroke-linejoin="round"/>
<path d="M628.1 475.3L634.4 467" stroke="#231F20" stroke-width="0.5" stroke-miterlimit="10" stroke-linejoin="round"/>
<path d="M635.699 475.3L642.099 467" stroke="#231F20" stroke-width="0.5" stroke-miterlimit="10" stroke-linejoin="round"/>
<path d="M644.1 475.3L650.5 467" stroke="#231F20" stroke-width="0.5" stroke-miterlimit="10" stroke-linejoin="round"/>
<path d="M652.4 475.3L658.8 467" stroke="#231F20" stroke-width="0.5" stroke-miterlimit="10" stroke-linejoin="round"/>
<path d="M660.801 475.3L667.101 467" stroke="#231F20" stroke-width="0.5" stroke-miterlimit="10" stroke-linejoin="round"/>
<path d="M669.301 475.3L675.701 467" stroke="#231F20" stroke-width="0.5" stroke-miterlimit="10" stroke-linejoin="round"/>
<path d="M677.699 475.3L683.999 467" stroke="#231F20" stroke-width="0.5" stroke-miterlimit="10" stroke-linejoin="round"/>
<path d="M686 475.3L692.3 467" stroke="#231F20" stroke-width="0.5" stroke-miterlimit="10" stroke-linejoin="round"/>
<path d="M694.301 475.3L700.701 467" stroke="#231F20" stroke-width="0.5" stroke-miterlimit="10" stroke-linejoin="round"/>
<path d="M702 475.3L708.3 467" stroke="#231F20" stroke-width="0.5" stroke-miterlimit="10" stroke-linejoin="round"/>
<path d="M710.301 475.3L716.701 467" stroke="#231F20" stroke-width="0.5" stroke-miterlimit="10" stroke-linejoin="round"/>
<path d="M718.6 475.3L725 467" stroke="#231F20" stroke-width="0.5" stroke-miterlimit="10" stroke-linejoin="round"/>
<path d="M727 475.3L733.4 467" stroke="#231F20" stroke-width="0.5" stroke-miterlimit="10" stroke-linejoin="round"/>
<path d="M734.699 475.3L741.099 467" stroke="#231F20" stroke-width="0.5" stroke-miterlimit="10" stroke-linejoin="round"/>
<path d="M743.1 475.3L749.4 467" stroke="#231F20" stroke-width="0.5" stroke-miterlimit="10" stroke-linejoin="round"/>
<path d="M751.4 475.3L757.7 467" stroke="#231F20" stroke-width="0.5" stroke-miterlimit="10" stroke-linejoin="round"/>
<path d="M759.699 475.3L766.099 467" stroke="#231F20" stroke-width="0.5" stroke-miterlimit="10" stroke-linejoin="round"/>
</g>
<defs>
<clipPath id="clip0">
<rect width="1701" height="487" fill="white"/>
</clipPath>
</defs>
</svg>
