<svg width="275" height="629" viewBox="0 0 275 629" fill="none" xmlns="http://www.w3.org/2000/svg">
<path d="M251.625 20.1406H23.375V607.024H251.625V20.1406Z" stroke="#231F20" stroke-width="0.75" stroke-miterlimit="10" stroke-linejoin="round"/>
<path d="M69.668 295.271V409.718V415.669V607.482H214.96V20.1406H69.668V290.235" stroke="#231F20" stroke-width="0.75" stroke-miterlimit="10" stroke-linejoin="round"/>
<path d="M211.292 105.746H72.875V187.232H211.292V105.746Z" stroke="#231F20" stroke-width="0.75" stroke-miterlimit="10" stroke-linejoin="round"/>
<path d="M211.292 191.812H72.875V268.721H211.292V191.812Z" stroke="#231F20" stroke-width="0.75" stroke-miterlimit="10" stroke-linejoin="round"/>
<path d="M211.292 24.2617H72.875V101.17H211.292V24.2617Z" stroke="#231F20" stroke-width="0.75" stroke-miterlimit="10" stroke-linejoin="round"/>
<path d="M72.875 290.236V272.84H211.292V352.495H72.875V294.814" stroke="#231F20" stroke-width="0.75" stroke-miterlimit="10" stroke-linejoin="round"/>
<path d="M211.292 357.988H72.875V437.643H211.292V357.988Z" stroke="#231F20" stroke-width="0.75" stroke-miterlimit="10" stroke-linejoin="round"/>
<path d="M211.292 442.68H72.875V520.046H211.292V442.68Z" stroke="#231F20" stroke-width="0.75" stroke-miterlimit="10" stroke-linejoin="round"/>
<path d="M211.292 524.621H72.875V602.903H211.292V524.621Z" stroke="#231F20" stroke-width="0.75" stroke-miterlimit="10" stroke-linejoin="round"/>
<path d="M77.0013 290.234H42.168V294.812H77.0013V290.234Z" stroke="#231F20" stroke-width="0.75" stroke-miterlimit="10" stroke-linejoin="round"/>
<path d="M41.709 290.234L37.584 292.981V298.017L42.1673 294.812" stroke="#231F20" stroke-width="0.75" stroke-miterlimit="10" stroke-linejoin="round"/>
<path d="M37.584 298.017H44.459L49.5007 294.812" stroke="#231F20" stroke-width="0.75" stroke-miterlimit="10" stroke-linejoin="round"/>
<path d="M52.25 294.814V302.138H34.375V287.031H52.25V290.236" stroke="#231F20" stroke-width="0.75" stroke-miterlimit="10" stroke-linejoin="round"/>
<path d="M51.3333 312.668H34.375V325.486H51.3333V312.668Z" stroke="#231F20" stroke-width="0.75" stroke-miterlimit="10" stroke-linejoin="round"/>
<path d="M44.4583 315.414H42.625V323.654H44.4583V315.414Z" stroke="#231F20" stroke-width="0.75" stroke-miterlimit="10" stroke-linejoin="round"/>
<path d="M23.3756 20.1419L0.458984 0.457031V3.66154" stroke="#231F20" stroke-width="0.75" stroke-miterlimit="10" stroke-linejoin="round"/>
<path d="M251.625 20.1419L274.542 0.457031V3.66154V628.541L251.625 607.483" stroke="#231F20" stroke-width="0.75" stroke-miterlimit="10" stroke-linejoin="round"/>
<path d="M274.542 0.457031H0.458984V628.541L24.0005 606.999" stroke="#231F20" stroke-width="0.75" stroke-miterlimit="10" stroke-linejoin="round"/>
</svg>
