<svg width="327" height="771" viewBox="0 0 327 771" fill="none" xmlns="http://www.w3.org/2000/svg">
<path d="M23 770H304V765H23V770Z" fill="#E4CEB2"/>
<path d="M307 20H21V765H307V20Z" stroke="#231F20" stroke-width="0.75" stroke-miterlimit="10" stroke-linejoin="round"/>
<path d="M260 364.538V20M79 20V370.993V376.155V514.373V521.828V765H260V370.03" stroke="#231F20" stroke-width="0.75" stroke-miterlimit="10" stroke-linejoin="round"/>
<path d="M255.84 131H83.0215V232.522H255.84V131Z" stroke="#231F20" stroke-width="0.75" stroke-miterlimit="10" stroke-linejoin="round"/>
<path d="M255.84 240H83.0215V335.317H255.84V240Z" stroke="#231F20" stroke-width="0.75" stroke-miterlimit="10" stroke-linejoin="round"/>
<path d="M255.84 27.6367H83.0215V122.954H255.84V27.6367Z" stroke="#231F20" stroke-width="0.75" stroke-miterlimit="10" stroke-linejoin="round"/>
<path d="M256.405 365V343H83.0215V370.636V376.841V442.266H256.405V370.5" stroke="#231F20" stroke-width="0.75" stroke-miterlimit="10" stroke-linejoin="round"/>
<path d="M255.84 450H83.0215V549.266H255.84V450Z" stroke="#231F20" stroke-width="0.75" stroke-miterlimit="10" stroke-linejoin="round"/>
<path d="M255.84 557H83.0215V652.881H255.84V557Z" stroke="#231F20" stroke-width="0.75" stroke-miterlimit="10" stroke-linejoin="round"/>
<path d="M255.84 661H83.0215V758.574H255.84V661Z" stroke="#231F20" stroke-width="0.75" stroke-miterlimit="10" stroke-linejoin="round"/>
<path d="M238.824 370.418L282.311 370.418L282.311 364.778L238.824 364.778L238.824 370.418Z" stroke="#231F20" stroke-width="0.75" stroke-miterlimit="10" stroke-linejoin="round"/>
<path d="M282.383 365L288.03 368.299V374.503L282.383 370.555" stroke="#231F20" stroke-width="0.75" stroke-miterlimit="10" stroke-linejoin="round"/>
<path d="M288.034 374.503H279.562L273.35 370.555" stroke="#231F20" stroke-width="0.75" stroke-miterlimit="10" stroke-linejoin="round"/>
<path d="M269.395 370.553V380.141H291.985V360.4H269.395V364.912" stroke="#231F20" stroke-width="0.75" stroke-miterlimit="10" stroke-linejoin="round"/>
<path d="M271.209 410.49L292.105 410.49L292.105 393.57L271.209 393.57L271.209 410.49Z" stroke="#231F20" stroke-width="0.75" stroke-miterlimit="10" stroke-linejoin="round"/>
<path d="M279.667 407.387L281.926 407.387L281.926 396.671L279.667 396.671L279.667 407.387Z" stroke="#231F20" stroke-width="0.75" stroke-miterlimit="10" stroke-linejoin="round"/>
<path d="M6.77734 0.564453H320.788" stroke="#231F20" stroke-width="0.75" stroke-miterlimit="10" stroke-linejoin="round"/>
<path d="M20.8941 0.564453H0.5625V769.872H20.8941V0.564453Z" stroke="#231F20" stroke-width="0.75" stroke-miterlimit="10" stroke-linejoin="round"/>
<path d="M325.87 0.564453H306.668V769.872H325.87V0.564453Z" stroke="#231F20" stroke-width="0.75" stroke-miterlimit="10" stroke-linejoin="round"/>
<path d="M304 765H23V770H304V767.5V765Z" stroke="#231F20" stroke-width="0.75" stroke-miterlimit="10" stroke-linejoin="round"/>
</svg>
