<svg width="69" height="63" viewBox="0 0 69 63" fill="none" xmlns="http://www.w3.org/2000/svg">
<path d="M58.2184 11.7622C58.2184 11.7622 56.9551 10.4169 54.4949 8.80255C66.164 23.2645 54.3287 37.5584 54.3287 37.5584C39.7339 55.6527 18.9888 48.5899 18.9888 48.5899L4.69329 59.6213L4.36084 61.942L22.5128 53.5675C22.5128 53.5675 45.9176 61.3366 60.5123 43.2087C60.4791 43.175 73.8437 27.065 58.2184 11.7622Z" fill="#D8D8D8"/>
<path d="M23.3461 26.1906C22.7809 22.9619 23.6121 20.6412 24.8089 19.0269C25.64 17.917 26.6706 17.1434 27.801 16.6726C24.9086 15.4618 21.3514 16.1681 19.1904 19.0269C17.9936 20.6412 17.1625 22.9619 17.7276 26.1906C19.1904 34.6996 32.5883 44.184 32.5883 44.184L32.7213 43.915L32.8543 44.184C32.8543 44.184 33.9514 43.4105 35.5472 42.0988C31.5245 38.8364 24.3767 32.2445 23.3461 26.1906Z" fill="#D8D8D8" stroke="#262626" stroke-width="0.5" stroke-miterlimit="10"/>
<path d="M3.86496 61.5383L22.0169 53.1638C22.0169 53.1638 45.4217 60.9329 60.0164 42.805C60.0164 42.805 73.3811 26.695 57.7558 11.3585C57.7558 11.3585 46.0201 -0.917345 25.1753 3.08493C19.1246 4.26207 13.4729 6.98631 8.9515 11.224C4.6296 15.2935 0.473924 21.381 1.07234 29.4865C1.07234 29.4865 1.67076 40.4843 10.6803 47.3454L3.86496 61.5383Z" stroke="#262626" stroke-width="0.5" stroke-miterlimit="10"/>
<path d="M46.2873 18.9933C42.9628 14.5874 36.2805 15.2601 33.9201 20.2713C33.0889 22.0202 32.8894 23.5673 32.8894 23.5673L32.7565 23.6009L32.6235 23.5673C32.6235 23.5673 32.424 21.9866 31.5929 20.2713C29.2325 15.2601 22.5501 14.5874 19.2256 18.9933C18.0288 20.6076 17.1976 22.9283 17.7628 26.157C19.2256 34.666 32.6235 44.1504 32.6235 44.1504L32.7565 43.8814L32.8894 44.1504C32.8894 44.1504 46.2873 34.666 47.7501 26.157C48.3153 22.9283 47.5174 20.6076 46.2873 18.9933Z" stroke="#262626" stroke-width="0.5" stroke-miterlimit="10"/>
<path d="M60.7444 10.1478C60.7444 10.1478 46.2162 -5.05411 20.7502 3.89214C20.7502 3.89214 19.4204 4.49753 17.5254 5.67467C42.393 -2.56531 56.5555 12.2667 56.5555 12.2667C72.1808 27.5695 58.8162 43.7131 58.8162 43.7131C56.2895 46.8409 53.4969 49.1952 50.6378 50.9441C54.9597 49.1279 59.2816 46.2019 63.0051 41.5942C63.0383 41.5606 76.403 25.4506 60.7444 10.1478Z" fill="#D8D8D8" stroke="#262626" stroke-width="0.5" stroke-miterlimit="10"/>
</svg>
