<svg width="70" height="70" viewBox="0 0 70 70" fill="none" xmlns="http://www.w3.org/2000/svg">
<g clip-path="url(#clip0)">
<path d="M22.5114 22.6736C22.1343 22.6736 21.7572 22.4982 21.5251 22.1476L17.0286 15.1348C16.6805 14.5797 16.8256 13.8784 17.3768 13.5278C17.9279 13.1771 18.6242 13.3232 18.9723 13.8784L23.4688 20.8619C23.8169 21.4171 23.6718 22.1184 23.1206 22.469C22.9466 22.6151 22.7145 22.6736 22.5114 22.6736Z" fill="#D8D8D8"/>
<path d="M30.4888 21.2125C29.9376 21.2125 29.4445 20.8034 29.3574 20.2483L27.2687 7.44997C27.1527 6.80714 27.5879 6.22274 28.2261 6.10586C28.8643 5.98898 29.4445 6.42728 29.5605 7.07012L31.6492 19.8684C31.7652 20.5112 31.3301 21.0956 30.6919 21.2125C30.6339 21.2125 30.5758 21.2125 30.4888 21.2125Z" fill="#D8D8D8"/>
<path d="M38.6402 21.2126C38.5822 21.2126 38.5242 21.2126 38.4661 21.2126C37.8279 21.1249 37.3928 20.5406 37.4798 19.8977L39.3074 7.09941C39.3944 6.45658 39.9746 6.01828 40.6128 6.10594C41.2511 6.1936 41.6862 6.778 41.5992 7.42083L39.7716 20.2191C39.6845 20.8035 39.1914 21.2126 38.6402 21.2126Z" fill="#D8D8D8"/>
<path d="M46.2125 22.6734C45.9804 22.6734 45.7773 22.615 45.5743 22.4689C45.0521 22.1183 44.9071 21.3878 45.2552 20.8326L50.5059 13.0017C50.854 12.4757 51.5793 12.3296 52.1304 12.6803C52.6526 13.0309 52.7977 13.7614 52.4495 14.3166L47.1988 22.1767C46.9667 22.4981 46.5896 22.6734 46.2125 22.6734Z" fill="#D8D8D8"/>
<path d="M47.6615 35.1212C49.5762 34.7413 51.7229 35.764 52.7092 37.4588C53.9276 39.5626 51.6939 42.2801 52.3901 44.6469C52.7092 45.7572 53.5795 46.6338 54.0436 47.7149C54.3917 48.5039 54.5368 49.4097 54.4208 50.2571C54.3917 50.4616 54.3627 50.6954 54.2177 50.8415C54.0146 51.0752 53.6665 51.0752 53.3764 50.9584C53.1153 50.8415 52.8833 50.6077 52.6802 50.4032C50.5625 48.0071 48.3288 45.8741 45.6309 44.0917C44.0934 43.069 41.9467 41.6957 41.7146 39.6503C41.5405 37.4296 45.8629 35.501 47.6615 35.1212Z" fill="#D8D8D8"/>
<path d="M7.74554 24.9235L0 47.2475L7.74554 49.6143C7.74554 49.6143 14.5628 41.4327 15.8682 28.6344L7.74554 24.9235Z" stroke="#262626" stroke-width="0.5" stroke-miterlimit="10" stroke-linecap="round"/>
<path d="M8.67423 26.5597L2.06006 44.8513L7.71692 47.1012C7.71692 47.1012 13.0837 40.5268 14.5632 29.92L8.67423 26.5597Z" fill="#D8D8D8"/>
<path d="M67.6202 44.1501L58.5402 26.7643L52.7383 30.1538C52.7383 30.1538 53.8116 38.9782 60.8029 47.0136L67.6202 44.1501Z" fill="#D8D8D8"/>
<path d="M69.42 46.1662L58.8315 25.0987L51.7822 29.0726C51.7822 29.0726 52.9136 39.6794 61.1523 49.5265L69.42 46.1662Z" stroke="#262626" stroke-width="0.5" stroke-miterlimit="10" stroke-linecap="round"/>
<path d="M23.3528 22.6736C22.9756 22.6736 22.5985 22.4982 22.3664 22.1476L17.87 15.1348C17.5218 14.5797 17.6669 13.8784 18.2181 13.5278C18.7692 13.1771 19.4655 13.3232 19.8136 13.8784L24.3101 20.8619C24.6582 21.4171 24.5131 22.1184 23.962 22.469C23.7879 22.6151 23.5558 22.6736 23.3528 22.6736Z" stroke="#262626" stroke-width="0.5" stroke-miterlimit="10" stroke-linecap="round"/>
<path d="M31.3293 21.2125C30.7782 21.2125 30.285 20.8034 30.198 20.2483L28.0803 7.44997C27.9642 6.80714 28.3994 6.22274 29.0376 6.10586C29.6758 5.98898 30.256 6.42728 30.372 7.07012L32.4607 19.8684C32.5768 20.5112 32.1416 21.0956 31.5034 21.2125C31.4454 21.2125 31.3874 21.2125 31.3293 21.2125Z" stroke="#262626" stroke-width="0.5" stroke-miterlimit="10" stroke-linecap="round"/>
<path d="M39.4537 21.2126C39.3957 21.2126 39.3376 21.2126 39.2796 21.2126C38.6414 21.1249 38.2063 20.5406 38.2933 19.8977L40.1209 7.09941C40.2079 6.45658 40.7881 6.01828 41.4263 6.10594C42.0645 6.1936 42.4997 6.778 42.4127 7.42083L40.5851 20.2191C40.527 20.8035 40.0339 21.2126 39.4537 21.2126Z" stroke="#262626" stroke-width="0.5" stroke-miterlimit="10" stroke-linecap="round"/>
<path d="M47.0533 22.6736C46.8212 22.6736 46.6182 22.6151 46.4151 22.469C45.8929 22.1184 45.7479 21.3879 46.096 20.8327L51.3467 12.9726C51.6948 12.4466 52.4201 12.3005 52.9712 12.6511C53.4934 13.0018 53.6385 13.7323 53.2904 14.2875L48.0396 22.1476C47.8076 22.4982 47.4304 22.6736 47.0533 22.6736Z" stroke="#262626" stroke-width="0.5" stroke-miterlimit="10" stroke-linecap="round"/>
<path d="M15.8691 28.6345L29.7067 29.9201" stroke="#262626" stroke-width="0.5" stroke-miterlimit="10" stroke-linecap="round"/>
<path d="M8.64404 48.4161L15.7224 51.2212" stroke="#262626" stroke-width="0.5" stroke-miterlimit="10" stroke-linecap="round"/>
<path d="M16.4186 54.5232C15.3162 53.7927 15.0261 52.3025 15.7513 51.2214L16.8827 49.4974C17.6079 48.387 19.0874 48.0948 20.1608 48.8253C21.2631 49.5558 21.5532 51.046 20.828 52.1272L19.6966 53.8512C18.9714 54.9323 17.4919 55.2537 16.4186 54.5232Z" stroke="#262626" stroke-width="0.5" stroke-miterlimit="10" stroke-linecap="round"/>
<path d="M20.0456 57.7665C19.0013 57.0652 18.7112 55.6334 19.3784 54.5815L21.322 51.6303C22.0183 50.5784 23.4397 50.2862 24.4841 50.9583C25.5284 51.6595 25.8185 53.0913 25.1513 54.1432L23.2076 57.0944C22.5114 58.1756 21.09 58.4678 20.0456 57.7665Z" stroke="#262626" stroke-width="0.5" stroke-miterlimit="10" stroke-linecap="round"/>
<path d="M24.0781 60.5131C22.9468 59.7534 22.6277 58.2047 23.3529 57.0652L25.8187 53.2958C26.573 52.1562 28.1105 51.8348 29.2418 52.5653C30.3732 53.325 30.6923 54.8737 29.9671 56.0132L27.5013 59.7826C26.776 60.9514 25.2095 61.2728 24.0781 60.5131Z" stroke="#262626" stroke-width="0.5" stroke-miterlimit="10" stroke-linecap="round"/>
<path d="M27.1823 56.3639L26.7182 56.0717C25.9929 55.575 25.7899 54.5815 26.254 53.851L26.8342 52.9744C27.3274 52.2439 28.3137 52.0394 29.0389 52.5069L29.5031 52.7991C30.2283 53.2959 30.4314 54.2893 29.9672 55.0198L29.387 55.8964C28.8939 56.6561 27.9076 56.8607 27.1823 56.3639Z" stroke="#262626" stroke-width="0.5" stroke-miterlimit="10" stroke-linecap="round"/>
<path d="M22.5687 54.2017L22.1335 53.9095C21.4953 53.4712 21.2922 52.5946 21.7274 51.9225L22.2206 51.1628C22.6557 50.52 23.526 50.3154 24.1932 50.7537L24.6283 51.0459C25.2666 51.4842 25.4696 52.3608 25.0345 53.0329L24.5413 53.7926C24.1062 54.4354 23.2359 54.64 22.5687 54.2017Z" stroke="#262626" stroke-width="0.5" stroke-miterlimit="10" stroke-linecap="round"/>
<path d="M18.3062 51.8935L18.0161 51.6889C17.3199 51.2214 17.1458 50.2864 17.581 49.6143L17.9001 49.1176C18.3642 48.4163 19.2926 48.241 19.9598 48.6793L20.2499 48.8838C20.9461 49.3513 21.1202 50.2864 20.685 50.9584L20.3659 51.4552C19.9308 52.1272 18.9734 52.3318 18.3062 51.8935Z" stroke="#262626" stroke-width="0.5" stroke-miterlimit="10" stroke-linecap="round"/>
<path d="M28.2545 63.143L28.1965 63.1138C27.1811 62.4417 26.891 61.0684 27.5292 60.0749L29.5309 56.9484C30.1981 55.9257 31.5616 55.6335 32.5479 56.2763L32.6059 56.3055C33.6212 56.9776 33.9113 58.3509 33.2731 59.3444L31.2715 62.4709C30.6042 63.4936 29.2408 63.7858 28.2545 63.143Z" stroke="#262626" stroke-width="0.5" stroke-miterlimit="10" stroke-linecap="round"/>
<path d="M32.4907 60.5717C32.4907 60.5717 37.2483 64.7794 40.4103 61.7405" stroke="#262626" stroke-width="0.5" stroke-miterlimit="10" stroke-linecap="round"/>
<path d="M31.5342 54.1725L40.4111 61.5067C41.1944 62.1496 42.2097 62.471 43.196 62.3249C44.3274 62.1496 45.4297 61.3898 45.0236 58.9354L34.9573 49.7019" stroke="#262626" stroke-width="0.5" stroke-miterlimit="10" stroke-linecap="round"/>
<path d="M38.4668 44.9682L50.8248 56.4516C50.8248 56.4516 51.6951 59.6366 48.8522 60.1041C47.9239 60.2502 46.9956 60.0456 46.1833 59.6073L45.0229 58.9645" stroke="#262626" stroke-width="0.5" stroke-miterlimit="10" stroke-linecap="round"/>
<path d="M51.8686 29.4526C50.5922 29.5403 49.0837 29.8325 47.8363 29.6279C46.2118 29.3357 44.5292 28.5176 42.9917 27.904C39.7426 26.6183 36.5226 25.7417 33.2155 27.378L27.9357 31.2642C27.9357 31.2642 25.9631 32.6668 26.0791 35.7349C26.0791 35.7349 23.1492 39.1244 25.3249 41.2867C27.5296 43.4489 32.7513 39.7088 33.5346 36.2316C33.5346 36.2316 35.7393 34.5953 37.741 36.6407C39.4525 38.3647 50.9983 48.7669 54.4215 51.835C55.6399 52.9162 55.3498 54.7278 54.4505 55.7797C53.8123 56.5102 51.5785 57.416 50.7662 56.3933" stroke="#262626" stroke-width="0.5" stroke-miterlimit="10" stroke-linecap="round"/>
<path d="M60.0206 48.0947L54.3638 51.7764" stroke="#262626" stroke-width="0.5" stroke-miterlimit="10" stroke-linecap="round"/>
<path d="M33.4187 36.6406C33.4767 36.0854 33.2446 35.238 32.8965 34.7997" stroke="#262626" stroke-width="0.5" stroke-miterlimit="10" stroke-linecap="round"/>
<path d="M24.5132 39.4457C24.7163 39.884 25.0934 40.2347 25.5575 40.3808C26.0217 40.5269 26.5438 40.4392 26.921 40.1762C27.1821 40.0009 27.3851 39.7671 27.5592 39.5334C27.8783 39.1243 28.1394 38.686 28.4005 38.2477C28.6035 37.9263 28.8066 37.5757 28.7776 37.1666C28.7196 36.553 28.0814 36.1439 27.5012 35.9686C27.066 35.8225 26.6019 35.7348 26.1377 35.7348" stroke="#262626" stroke-width="0.5" stroke-miterlimit="10" stroke-linecap="round"/>
<path d="M37.2476 36.2023C39.8874 37.5172 42.4113 37.0205 44.9061 35.4426" stroke="#262626" stroke-width="0.5" stroke-miterlimit="10" stroke-linecap="round"/>
<path d="M30.75 59.6367L30.3148 59.3738C29.6476 58.9355 29.4736 58.0589 29.8797 57.416L30.3729 56.6563C30.808 55.9843 31.6783 55.8089 32.3165 56.218L32.7517 56.481C33.4189 56.9193 33.5929 57.7959 33.1868 58.4387L32.6936 59.1984C32.2875 59.8705 31.3882 60.075 30.75 59.6367Z" stroke="#262626" stroke-width="0.5" stroke-miterlimit="10" stroke-linecap="round"/>
<path d="M40.0042 41.1697C39.7141 40.7314 39.1049 40.4976 38.5827 40.6729C38.0605 40.8482 37.7124 41.3742 37.7124 41.9002C37.7414 42.4261 38.1475 42.9521 38.6697 43.069" stroke="#262626" stroke-width="0.5" stroke-miterlimit="10" stroke-linecap="round"/>
<path d="M36.7268 45.3774C36.4367 44.9391 35.8275 44.7053 35.3053 44.8806C34.7832 45.0559 34.4351 45.5819 34.4351 46.1079C34.4641 46.6338 34.8702 47.1598 35.3924 47.2767" stroke="#262626" stroke-width="0.5" stroke-miterlimit="10" stroke-linecap="round"/>
<path d="M33.1575 50.6076C32.8674 50.1693 32.2582 49.9355 31.736 50.1109C31.2138 50.2862 30.8657 50.8121 30.8657 51.3381C30.8657 51.8641 31.3009 52.39 31.823 52.5069" stroke="#262626" stroke-width="0.5" stroke-miterlimit="10" stroke-linecap="round"/>
</g>
<defs>
<clipPath id="clip0">
<rect width="70" height="70" fill="white"/>
</clipPath>
</defs>
</svg>
