<svg width="595" height="948" viewBox="0 0 595 948" fill="none" xmlns="http://www.w3.org/2000/svg">
<path d="M146.579 453.039H134.184V457.969H146.579V453.039Z" fill="#D8D8D8"/>
<path d="M144.501 737.594H129.988V741.172H144.501V737.594Z" fill="#D8D8D8"/>
<path d="M521.991 0.294922H74.4951V130.296H521.991V0.294922Z" fill="#EEEEEE"/>
<path d="M82.4154 0.294922H0.669922V947.295H82.4154V0.294922Z" fill="#EEEEEE"/>
<path d="M592.708 0.294922H515.265V947.295H592.708V0.294922Z" fill="#EEEEEE"/>
<path d="M488.463 159.877H107.877V947.294H488.463V159.877Z" stroke="#231F20" stroke-width="1.34009" stroke-miterlimit="10"/>
<path d="M184.705 682.559V159.877H426.819V947.294H184.705V690.053" stroke="#231F20" stroke-width="1.34009" stroke-miterlimit="10"/>
<path d="M420.788 309.656H190.293V452.392H420.788V309.656Z" stroke="#231F20" stroke-width="1.34009" stroke-miterlimit="10"/>
<path d="M420.788 461.322H190.293V596.085H420.788V461.322Z" stroke="#231F20" stroke-width="1.34009" stroke-miterlimit="10"/>
<path d="M420.788 165.977H190.293V300.739H420.788V165.977Z" stroke="#231F20" stroke-width="1.34009" stroke-miterlimit="10"/>
<path d="M190.293 681.418V605.465H420.788V745.397H190.293V690.052" stroke="#231F20" stroke-width="1.34009" stroke-miterlimit="10"/>
<path d="M420.788 751.031H190.293V893.302H420.788V751.031Z" stroke="#231F20" stroke-width="1.34009" stroke-miterlimit="10"/>
<path d="M420.788 899.402H190.293V947.295H420.788V899.402Z" stroke="#231F20" stroke-width="1.34009" stroke-miterlimit="10"/>
<path d="M140.214 438.432H140.201C134.006 438.432 128.984 443.71 128.984 450.222V463.618C128.984 470.129 134.006 475.408 140.201 475.408H140.214C146.409 475.408 151.431 470.129 151.431 463.618V450.222C151.431 443.71 146.409 438.432 140.214 438.432Z" stroke="#231F20" stroke-width="1.34009" stroke-miterlimit="10"/>
<path d="M140.215 579.026C147.29 579.026 153.026 572.997 153.026 565.56C153.026 558.123 147.29 552.094 140.215 552.094C133.139 552.094 127.403 558.123 127.403 565.56C127.403 572.997 133.139 579.026 140.215 579.026Z" stroke="#231F20" stroke-width="1.34009" stroke-miterlimit="10"/>
<path d="M151.645 690.363C151.645 698.448 145.441 704.04 137.735 704.04C135.393 704.044 133.088 703.427 131.032 702.248C128.976 701.069 127.236 699.364 125.971 697.292C124.707 695.219 123.96 692.845 123.798 690.389C123.636 687.933 124.065 685.474 125.046 683.238C126.026 681.002 127.527 679.062 129.408 677.596C131.29 676.13 133.492 675.186 135.813 674.85C138.133 674.514 140.496 674.798 142.685 675.675C144.873 676.552 146.817 677.994 148.335 679.868L149.782 682.122" stroke="#231F20" stroke-width="1.34009" stroke-miterlimit="10"/>
<path d="M153.026 738.468C153.026 750.723 146.125 761.625 137.615 761.625C129.106 761.625 122.204 750.723 122.204 738.468C122.204 726.213 129.106 715.662 137.615 715.662C146.125 715.662 153.026 726.213 153.026 738.468Z" stroke="#231F20" stroke-width="1.34009" stroke-miterlimit="10"/>
<path d="M594.33 0.703125H0.669922V947.294H594.33V0.703125Z" stroke="#231F20" stroke-width="1.34009" stroke-miterlimit="10"/>
<path d="M551.447 50.0059H46.2334V947.296H551.447V50.0059Z" stroke="#231F20" stroke-width="1.34009" stroke-miterlimit="10"/>
<path d="M515.264 130.297H82.415V947.295H515.264V130.297Z" stroke="#231F20" stroke-width="1.34009" stroke-miterlimit="10"/>
<path d="M46.2334 50.0059L82.4158 130.297" stroke="#231F20" stroke-width="1.34009" stroke-miterlimit="10"/>
<path d="M64.3242 50.0059L100.507 130.297" stroke="#231F20" stroke-width="0.670045" stroke-miterlimit="10"/>
<path d="M55.2793 50.0059L91.4617 130.297" stroke="#231F20" stroke-width="0.670045" stroke-miterlimit="10"/>
<path d="M46.2334 513.342L82.4158 433.051" stroke="#231F20" stroke-width="0.670045" stroke-miterlimit="10"/>
<path d="M46.2334 492.27L82.4158 411.979" stroke="#231F20" stroke-width="0.670045" stroke-miterlimit="10"/>
<path d="M46.2334 469.971L82.4158 389.68" stroke="#231F20" stroke-width="0.670045" stroke-miterlimit="10"/>
<path d="M46.2334 448.897L82.4158 368.605" stroke="#231F20" stroke-width="0.670045" stroke-miterlimit="10"/>
<path d="M46.2334 427.219L82.4158 346.928" stroke="#231F20" stroke-width="0.670045" stroke-miterlimit="10"/>
<path d="M46.2334 406.147L82.4158 325.855" stroke="#231F20" stroke-width="0.670045" stroke-miterlimit="10"/>
<path d="M46.2334 383.848L82.4158 303.557" stroke="#231F20" stroke-width="0.670045" stroke-miterlimit="10"/>
<path d="M46.2334 362.774L82.4158 282.482" stroke="#231F20" stroke-width="0.670045" stroke-miterlimit="10"/>
<path d="M46.2334 341.082L82.4158 260.791" stroke="#231F20" stroke-width="0.670045" stroke-miterlimit="10"/>
<path d="M46.2334 320.008L82.4158 239.717" stroke="#231F20" stroke-width="0.670045" stroke-miterlimit="10"/>
<path d="M46.2334 297.711L82.4158 217.42" stroke="#231F20" stroke-width="0.670045" stroke-miterlimit="10"/>
<path d="M46.2334 276.637L82.4158 196.346" stroke="#231F20" stroke-width="0.670045" stroke-miterlimit="10"/>
<path d="M46.2334 254.959L82.4158 174.668" stroke="#231F20" stroke-width="0.670045" stroke-miterlimit="10"/>
<path d="M46.2334 233.887L82.4158 153.596" stroke="#231F20" stroke-width="0.670045" stroke-miterlimit="10"/>
<path d="M46.2334 211.588L82.4158 131.297" stroke="#231F20" stroke-width="0.670045" stroke-miterlimit="10"/>
<path d="M46.2334 190.515L77.8997 120.268" stroke="#231F20" stroke-width="0.670045" stroke-miterlimit="10"/>
<path d="M46.2334 171.442L73.598 110.73" stroke="#231F20" stroke-width="0.670045" stroke-miterlimit="10"/>
<path d="M46.2334 152.454L69.3231 101.236" stroke="#231F20" stroke-width="0.670045" stroke-miterlimit="10"/>
<path d="M46.2334 134.155L65.1957 92.0801" stroke="#231F20" stroke-width="0.670045" stroke-miterlimit="10"/>
<path d="M46.2334 116.282L61.162 83.1367" stroke="#231F20" stroke-width="0.670045" stroke-miterlimit="10"/>
<path d="M46.2334 99.8286L57.4634 74.9102" stroke="#231F20" stroke-width="0.670045" stroke-miterlimit="10"/>
<path d="M46.2334 83.1357L53.6977 66.5703" stroke="#231F20" stroke-width="0.670045" stroke-miterlimit="10"/>
<path d="M74.375 947.211L82.4155 929.35" stroke="#231F20" stroke-width="0.670045" stroke-miterlimit="10"/>
<path d="M64.3242 947.21L82.4154 907.064" stroke="#231F20" stroke-width="0.670045" stroke-miterlimit="10"/>
<path d="M54.7822 947.295L82.4149 885.992" stroke="#231F20" stroke-width="0.670045" stroke-miterlimit="10"/>
<path d="M46.2334 944.59L82.4158 864.299" stroke="#231F20" stroke-width="0.670045" stroke-miterlimit="10"/>
<path d="M46.2334 923.518L82.4158 843.227" stroke="#231F20" stroke-width="0.670045" stroke-miterlimit="10"/>
<path d="M46.2334 901.219L82.4158 820.928" stroke="#231F20" stroke-width="0.670045" stroke-miterlimit="10"/>
<path d="M46.2334 880.147L82.4158 799.855" stroke="#231F20" stroke-width="0.670045" stroke-miterlimit="10"/>
<path d="M46.2334 858.467L82.4158 778.176" stroke="#231F20" stroke-width="0.670045" stroke-miterlimit="10"/>
<path d="M46.2334 837.395L82.4158 757.104" stroke="#231F20" stroke-width="0.670045" stroke-miterlimit="10"/>
<path d="M46.2334 815.096L82.4158 734.805" stroke="#231F20" stroke-width="0.670045" stroke-miterlimit="10"/>
<path d="M46.2334 794.024L82.4158 713.732" stroke="#231F20" stroke-width="0.670045" stroke-miterlimit="10"/>
<path d="M46.2334 772.33L82.4158 692.039" stroke="#231F20" stroke-width="0.670045" stroke-miterlimit="10"/>
<path d="M46.2334 751.258L82.4158 670.967" stroke="#231F20" stroke-width="0.670045" stroke-miterlimit="10"/>
<path d="M46.2334 728.973L82.4158 648.682" stroke="#231F20" stroke-width="0.670045" stroke-miterlimit="10"/>
<path d="M46.2334 707.887L82.4158 627.596" stroke="#231F20" stroke-width="0.670045" stroke-miterlimit="10"/>
<path d="M46.2334 686.207L82.4158 605.916" stroke="#231F20" stroke-width="0.670045" stroke-miterlimit="10"/>
<path d="M46.2334 663.908L82.4158 583.617" stroke="#231F20" stroke-width="0.670045" stroke-miterlimit="10"/>
<path d="M46.2334 642.836L82.4158 562.545" stroke="#231F20" stroke-width="0.670045" stroke-miterlimit="10"/>
<path d="M46.2334 621.156L82.4158 540.865" stroke="#231F20" stroke-width="0.670045" stroke-miterlimit="10"/>
<path d="M46.2334 600.084L82.4158 519.793" stroke="#231F20" stroke-width="0.670045" stroke-miterlimit="10"/>
<path d="M46.2334 577.785L82.4158 497.494" stroke="#231F20" stroke-width="0.670045" stroke-miterlimit="10"/>
<path d="M46.2334 556.713L82.4158 476.422" stroke="#231F20" stroke-width="0.670045" stroke-miterlimit="10"/>
<path d="M46.2334 534.414L82.4158 454.123" stroke="#231F20" stroke-width="0.670045" stroke-miterlimit="10"/>
<path d="M551.447 91.1504L515.265 171.442" stroke="#231F20" stroke-width="0.670045" stroke-miterlimit="10"/>
<path d="M551.447 68.9648L515.265 149.256" stroke="#231F20" stroke-width="0.670045" stroke-miterlimit="10"/>
<path d="M551.447 112.225L515.265 192.516" stroke="#231F20" stroke-width="0.670045" stroke-miterlimit="10"/>
<path d="M551.447 134.521L515.265 214.813" stroke="#231F20" stroke-width="0.670045" stroke-miterlimit="10"/>
<path d="M551.447 155.596L515.265 235.887" stroke="#231F20" stroke-width="0.670045" stroke-miterlimit="10"/>
<path d="M551.447 178.5L515.265 258.791" stroke="#231F20" stroke-width="0.670045" stroke-miterlimit="10"/>
<path d="M551.447 199.572L515.265 279.863" stroke="#231F20" stroke-width="0.670045" stroke-miterlimit="10"/>
<path d="M551.447 221.871L515.265 302.162" stroke="#231F20" stroke-width="0.670045" stroke-miterlimit="10"/>
<path d="M551.447 242.943L515.265 323.235" stroke="#231F20" stroke-width="0.670045" stroke-miterlimit="10"/>
<path d="M551.447 264.988L515.265 345.28" stroke="#231F20" stroke-width="0.670045" stroke-miterlimit="10"/>
<path d="M551.447 286.061L515.265 366.352" stroke="#231F20" stroke-width="0.670045" stroke-miterlimit="10"/>
<path d="M551.447 308.359L515.265 388.651" stroke="#231F20" stroke-width="0.670045" stroke-miterlimit="10"/>
<path d="M551.447 329.434L515.265 409.725" stroke="#231F20" stroke-width="0.670045" stroke-miterlimit="10"/>
<path d="M551.447 352.336L515.265 432.627" stroke="#231F20" stroke-width="0.670045" stroke-miterlimit="10"/>
<path d="M551.447 373.41L515.265 453.701" stroke="#231F20" stroke-width="0.670045" stroke-miterlimit="10"/>
<path d="M551.447 395.707L515.265 475.998" stroke="#231F20" stroke-width="0.670045" stroke-miterlimit="10"/>
<path d="M551.447 416.781L515.265 497.072" stroke="#231F20" stroke-width="0.670045" stroke-miterlimit="10"/>
<path d="M551.447 439.686L515.265 519.977" stroke="#231F20" stroke-width="0.670045" stroke-miterlimit="10"/>
<path d="M551.447 460.758L515.265 541.049" stroke="#231F20" stroke-width="0.670045" stroke-miterlimit="10"/>
<path d="M551.447 483.057L515.265 563.348" stroke="#231F20" stroke-width="0.670045" stroke-miterlimit="10"/>
<path d="M551.447 504.129L515.265 584.42" stroke="#231F20" stroke-width="0.670045" stroke-miterlimit="10"/>
<path d="M551.447 527.033L515.265 607.324" stroke="#231F20" stroke-width="0.670045" stroke-miterlimit="10"/>
<path d="M551.447 548.105L515.265 628.397" stroke="#231F20" stroke-width="0.670045" stroke-miterlimit="10"/>
<path d="M551.447 570.404L515.265 650.696" stroke="#231F20" stroke-width="0.670045" stroke-miterlimit="10"/>
<path d="M551.447 591.479L515.265 671.77" stroke="#231F20" stroke-width="0.670045" stroke-miterlimit="10"/>
<path d="M551.447 614.383L515.265 694.674" stroke="#231F20" stroke-width="0.670045" stroke-miterlimit="10"/>
<path d="M551.447 635.455L515.265 715.746" stroke="#231F20" stroke-width="0.670045" stroke-miterlimit="10"/>
<path d="M551.447 657.754L515.265 738.045" stroke="#231F20" stroke-width="0.670045" stroke-miterlimit="10"/>
<path d="M551.447 678.826L515.265 759.117" stroke="#231F20" stroke-width="0.670045" stroke-miterlimit="10"/>
<path d="M551.447 701.73L515.265 782.022" stroke="#231F20" stroke-width="0.670045" stroke-miterlimit="10"/>
<path d="M551.447 722.816L515.265 803.108" stroke="#231F20" stroke-width="0.670045" stroke-miterlimit="10"/>
<path d="M551.447 745.102L515.265 825.393" stroke="#231F20" stroke-width="0.670045" stroke-miterlimit="10"/>
<path d="M551.447 766.174L515.265 846.465" stroke="#231F20" stroke-width="0.670045" stroke-miterlimit="10"/>
<path d="M551.447 789.094L515.265 869.385" stroke="#231F20" stroke-width="0.670045" stroke-miterlimit="10"/>
<path d="M551.447 810.166L515.265 890.457" stroke="#231F20" stroke-width="0.670045" stroke-miterlimit="10"/>
<path d="M551.447 832.449L515.265 912.74" stroke="#231F20" stroke-width="0.670045" stroke-miterlimit="10"/>
<path d="M551.447 853.537L515.265 933.828" stroke="#231F20" stroke-width="0.670045" stroke-miterlimit="10"/>
<path d="M551.447 876.441L519.513 947.295" stroke="#231F20" stroke-width="0.670045" stroke-miterlimit="10"/>
<path d="M551.447 897.514L529.014 947.294" stroke="#231F20" stroke-width="0.670045" stroke-miterlimit="10"/>
<path d="M551.447 919.812L539.064 947.295" stroke="#231F20" stroke-width="0.670045" stroke-miterlimit="10"/>
<path d="M551.447 940.885L548.553 947.294" stroke="#231F20" stroke-width="0.670045" stroke-miterlimit="10"/>
<path d="M73.3701 50.0059L109.553 130.297" stroke="#231F20" stroke-width="0.670045" stroke-miterlimit="10"/>
<path d="M91.4609 50.0059L127.643 130.297" stroke="#231F20" stroke-width="0.670045" stroke-miterlimit="10"/>
<path d="M82.0938 50.0059L118.276 130.297" stroke="#231F20" stroke-width="0.670045" stroke-miterlimit="10"/>
<path d="M100.507 50.0059L136.689 130.297" stroke="#231F20" stroke-width="0.670045" stroke-miterlimit="10"/>
<path d="M118.599 50.0059L154.781 130.297" stroke="#231F20" stroke-width="0.670045" stroke-miterlimit="10"/>
<path d="M109.231 50.0059L145.414 130.297" stroke="#231F20" stroke-width="0.670045" stroke-miterlimit="10"/>
<path d="M127.645 50.0059L163.827 130.297" stroke="#231F20" stroke-width="0.670045" stroke-miterlimit="10"/>
<path d="M145.735 50.0059L181.918 130.297" stroke="#231F20" stroke-width="0.670045" stroke-miterlimit="10"/>
<path d="M136.367 50.0059L172.55 130.297" stroke="#231F20" stroke-width="0.670045" stroke-miterlimit="10"/>
<path d="M154.78 50.0059L190.963 130.297" stroke="#231F20" stroke-width="0.670045" stroke-miterlimit="10"/>
<path d="M172.872 50.0059L209.055 130.297" stroke="#231F20" stroke-width="0.670045" stroke-miterlimit="10"/>
<path d="M163.504 50.0059L199.686 130.297" stroke="#231F20" stroke-width="0.670045" stroke-miterlimit="10"/>
<path d="M181.917 50.0059L218.099 130.297" stroke="#231F20" stroke-width="0.670045" stroke-miterlimit="10"/>
<path d="M200.009 50.0059L236.191 130.297" stroke="#231F20" stroke-width="0.670045" stroke-miterlimit="10"/>
<path d="M190.641 50.0059L226.823 130.297" stroke="#231F20" stroke-width="0.670045" stroke-miterlimit="10"/>
<path d="M209.054 50.0059L245.236 130.297" stroke="#231F20" stroke-width="0.670045" stroke-miterlimit="10"/>
<path d="M227.145 50.0059L263.327 130.297" stroke="#231F20" stroke-width="0.670045" stroke-miterlimit="10"/>
<path d="M217.778 50.0059L253.961 130.297" stroke="#231F20" stroke-width="0.670045" stroke-miterlimit="10"/>
<path d="M236.191 50.0059L272.374 130.297" stroke="#231F20" stroke-width="0.670045" stroke-miterlimit="10"/>
<path d="M254.282 50.0059L290.465 130.297" stroke="#231F20" stroke-width="0.670045" stroke-miterlimit="10"/>
<path d="M244.915 50.0059L281.097 130.297" stroke="#231F20" stroke-width="0.670045" stroke-miterlimit="10"/>
<path d="M262.497 50.0059L298.68 130.297" stroke="#231F20" stroke-width="0.670045" stroke-miterlimit="10"/>
<path d="M280.588 50.0059L316.77 130.297" stroke="#231F20" stroke-width="0.670045" stroke-miterlimit="10"/>
<path d="M271.235 50.0059L307.418 130.297" stroke="#231F20" stroke-width="0.670045" stroke-miterlimit="10"/>
<path d="M289.634 50.0059L325.816 130.297" stroke="#231F20" stroke-width="0.670045" stroke-miterlimit="10"/>
<path d="M307.725 50.0059L343.907 130.297" stroke="#231F20" stroke-width="0.670045" stroke-miterlimit="10"/>
<path d="M298.372 50.0059L334.555 130.297" stroke="#231F20" stroke-width="0.670045" stroke-miterlimit="10"/>
<path d="M316.771 50.0059L352.953 130.297" stroke="#231F20" stroke-width="0.670045" stroke-miterlimit="10"/>
<path d="M334.862 50.0059L371.045 130.297" stroke="#231F20" stroke-width="0.670045" stroke-miterlimit="10"/>
<path d="M325.509 50.0059L361.691 130.297" stroke="#231F20" stroke-width="0.670045" stroke-miterlimit="10"/>
<path d="M343.907 50.0059L380.09 130.297" stroke="#231F20" stroke-width="0.670045" stroke-miterlimit="10"/>
<path d="M361.999 50.0059L398.181 130.297" stroke="#231F20" stroke-width="0.670045" stroke-miterlimit="10"/>
<path d="M352.646 50.0059L388.828 130.297" stroke="#231F20" stroke-width="0.670045" stroke-miterlimit="10"/>
<path d="M371.044 50.0059L407.226 130.297" stroke="#231F20" stroke-width="0.670045" stroke-miterlimit="10"/>
<path d="M389.135 50.0059L425.317 130.297" stroke="#231F20" stroke-width="0.670045" stroke-miterlimit="10"/>
<path d="M379.781 50.0059L415.964 130.297" stroke="#231F20" stroke-width="0.670045" stroke-miterlimit="10"/>
<path d="M398.181 50.0059L434.363 130.297" stroke="#231F20" stroke-width="0.670045" stroke-miterlimit="10"/>
<path d="M416.271 50.0059L452.454 130.297" stroke="#231F20" stroke-width="0.670045" stroke-miterlimit="10"/>
<path d="M406.919 50.0059L443.101 130.297" stroke="#231F20" stroke-width="0.670045" stroke-miterlimit="10"/>
<path d="M425.317 50.0059L461.5 130.297" stroke="#231F20" stroke-width="0.670045" stroke-miterlimit="10"/>
<path d="M443.409 50.0059L479.592 130.297" stroke="#231F20" stroke-width="0.670045" stroke-miterlimit="10"/>
<path d="M434.056 50.0059L470.238 130.297" stroke="#231F20" stroke-width="0.670045" stroke-miterlimit="10"/>
<path d="M452.455 50.0059L488.638 130.297" stroke="#231F20" stroke-width="0.670045" stroke-miterlimit="10"/>
<path d="M470.546 50.0059L506.728 130.297" stroke="#231F20" stroke-width="0.670045" stroke-miterlimit="10"/>
<path d="M461.192 50.0059L497.375 130.297" stroke="#231F20" stroke-width="0.670045" stroke-miterlimit="10"/>
<path d="M478.185 50.0059L514.367 130.297" stroke="#231F20" stroke-width="0.670045" stroke-miterlimit="10"/>
<path d="M496.275 50.0059L523.854 111.224" stroke="#231F20" stroke-width="0.670045" stroke-miterlimit="10"/>
<path d="M486.908 50.0059L519.178 121.62" stroke="#231F20" stroke-width="0.670045" stroke-miterlimit="10"/>
<path d="M514.367 50.0059L532.901 91.1516" stroke="#231F20" stroke-width="0.670045" stroke-miterlimit="10"/>
<path d="M505 50.0059L528.224 101.547" stroke="#231F20" stroke-width="0.670045" stroke-miterlimit="10"/>
<path d="M521.992 50.0059L536.72 82.6858" stroke="#231F20" stroke-width="0.670045" stroke-miterlimit="10"/>
<path d="M540.083 50.0059L545.765 62.613" stroke="#231F20" stroke-width="0.670045" stroke-miterlimit="10"/>
<path d="M530.717 50.0059L541.089 72.9945" stroke="#231F20" stroke-width="0.670045" stroke-miterlimit="10"/>
<path d="M551.447 50.0059L515.265 130.297" stroke="#231F20" stroke-width="1.34009" stroke-miterlimit="10"/>
<path d="M133.661 737.368V716.521C136.239 715.733 138.977 715.733 141.554 716.521V737.65" stroke="#231F20" stroke-width="1.34009" stroke-linecap="round" stroke-linejoin="round"/>
<path d="M141.554 741.452V760.863C140.326 761.495 138.976 761.824 137.608 761.824C136.24 761.824 134.89 761.495 133.661 760.863V760.863V741.41" stroke="#231F20" stroke-width="1.34009" stroke-miterlimit="10"/>
<path d="M196.994 682.123H135.055V690.575H196.994V682.123Z" stroke="#231F20" stroke-width="1.34009" stroke-miterlimit="10"/>
<path d="M134.411 682.164L131.222 685.7L131.168 694.912L135.295 690.574" stroke="#231F20" stroke-width="1.34009" stroke-linecap="round" stroke-linejoin="round"/>
<path d="M131.168 694.913H142.465L147.155 690.574" stroke="#231F20" stroke-width="1.34009" stroke-miterlimit="10"/>
<path d="M146.579 453.223H134.184V457.984H146.579V453.223Z" stroke="#231F20" stroke-width="1.34009" stroke-miterlimit="10"/>
<path d="M149.675 561.729H130.498V569.377H149.675V561.729Z" stroke="#231F20" stroke-width="1.34009" stroke-miterlimit="10"/>
<path d="M144.501 737.594H130.323V741.172H144.501V737.594Z" stroke="#231F20" stroke-width="1.34009" stroke-miterlimit="10"/>
<path d="M589.117 4.50586H4.69043V45.7784H589.117V4.50586Z" stroke="#231F20" stroke-width="1.34009" stroke-miterlimit="10"/>
<path d="M556.473 51.9496V947.281H589.117V51.9496H556.473Z" stroke="#231F20" stroke-width="1.34009" stroke-miterlimit="10"/>
<path d="M4.69043 51.9632L4.69043 947.295H41.7707L41.7707 51.9632H4.69043Z" stroke="#231F20" stroke-width="1.34009" stroke-miterlimit="10"/>
<path d="M130.498 565.559H149.675" stroke="#231F20" stroke-width="1.34009" stroke-miterlimit="10"/>
</svg>
