<svg width="39" height="81" viewBox="0 0 39 81" fill="none" xmlns="http://www.w3.org/2000/svg">
<g clip-path="url(#clip0)">
<path d="M20.9108 11.6392C20.9108 11.5201 20.9108 11.4308 20.9406 11.3117C20.9108 11.4903 20.881 11.6689 20.881 11.8773V11.4903L3.84286 9.01953H2.47266V70.2235H3.84286L20.881 67.7527V67.7229C20.881 67.8718 20.9108 68.0206 20.9108 68.1695V11.6392Z" fill="#D6D6D6"/>
<path d="M35.0889 4.10742L27.3145 10.8351C27.374 11.103 27.4038 11.3412 27.4038 11.6388V68.4966L35.0889 75.1647H36.5186V4.10742H35.0889Z" fill="#D6D6D6"/>
<path d="M20.9695 72.308L1.69727 75.1062V5.89453L20.9695 8.69277V72.308Z" stroke="black" stroke-width="0.5" stroke-miterlimit="10"/>
<path d="M37.0543 80.6732L27.4033 72.3083V8.69306L37.0543 0.328125V80.6732Z" stroke="black" stroke-width="0.5" stroke-miterlimit="10"/>
<path d="M24.1867 75.523C25.9739 75.523 27.4037 74.0643 27.4037 72.308V9.10953C27.4037 7.32342 25.9442 5.89453 24.1867 5.89453C22.3995 5.89453 20.9697 7.35319 20.9697 9.10953V72.2782C20.9697 74.0643 22.3995 75.523 24.1867 75.523Z" stroke="black" stroke-width="0.5" stroke-miterlimit="10"/>
<path d="M27.4037 11.2541C27.4037 9.46795 25.9442 8.03906 24.1867 8.03906C22.3995 8.03906 20.9697 9.49772 20.9697 11.2541" stroke="black" stroke-width="0.5" stroke-miterlimit="10"/>
<path d="M27.4037 20.6294C27.4037 19.647 25.9442 18.873 24.1867 18.873C22.3995 18.873 20.9697 19.6768 20.9697 20.6294" stroke="black" stroke-width="0.5" stroke-miterlimit="10"/>
<path d="M27.4037 23.1606C27.4037 22.1783 25.9442 21.4043 24.1867 21.4043C22.3995 21.4043 20.9697 22.208 20.9697 23.1606" stroke="black" stroke-width="0.5" stroke-miterlimit="10"/>
<path d="M27.4037 60.3711C27.4037 61.3535 25.9442 62.1274 24.1867 62.1274C22.3995 62.1274 20.9697 61.3237 20.9697 60.3711" stroke="black" stroke-width="0.5" stroke-miterlimit="10"/>
<path d="M27.4037 57.8105C27.4037 58.7929 25.9442 59.5669 24.1867 59.5669C22.3995 59.5669 20.9697 58.7631 20.9697 57.8105" stroke="black" stroke-width="0.5" stroke-miterlimit="10"/>
<path d="M27.4037 36.0806C27.4037 35.6043 25.9442 35.1875 24.1867 35.1875C22.3995 35.1875 20.9697 35.5745 20.9697 36.0806" stroke="black" stroke-width="0.5" stroke-miterlimit="10"/>
<path d="M27.4037 33.6099C27.4037 33.1336 25.9442 32.7168 24.1867 32.7168C22.3995 32.7168 20.9697 33.1038 20.9697 33.6099" stroke="black" stroke-width="0.5" stroke-miterlimit="10"/>
<path d="M27.4037 45.9336C27.4037 46.4099 25.9442 46.8267 24.1867 46.8267C22.3995 46.8267 20.9697 46.4397 20.9697 45.9336" stroke="black" stroke-width="0.5" stroke-miterlimit="10"/>
<path d="M27.4037 48.4043C27.4037 48.8806 25.9442 49.2974 24.1867 49.2974C22.3995 49.2974 20.9697 48.9104 20.9697 48.4043" stroke="black" stroke-width="0.5" stroke-miterlimit="10"/>
<path d="M20.9697 69.4805C20.9697 71.2666 22.4293 72.6954 24.1867 72.6954C25.9739 72.6954 27.4037 71.2368 27.4037 69.4805" stroke="black" stroke-width="0.5" stroke-miterlimit="10"/>
<path d="M9.23355 19.5891C10.5496 19.5891 11.6165 18.5229 11.6165 17.2076C11.6165 15.8924 10.5496 14.8262 9.23355 14.8262C7.91747 14.8262 6.85059 15.8924 6.85059 17.2076C6.85059 18.5229 7.91747 19.5891 9.23355 19.5891Z" stroke="black" stroke-width="0.5" stroke-miterlimit="10"/>
<path d="M8.99475 18.6065C8.96497 18.6065 8.93518 18.6065 8.90539 18.6065C8.75646 18.5469 8.66709 18.3981 8.72667 18.2493L9.38198 16.0762C9.44156 15.9273 9.59049 15.838 9.73943 15.8976C9.88837 15.9571 9.97773 16.1059 9.91815 16.2548L9.26284 18.4279C9.23305 18.5172 9.1139 18.6065 8.99475 18.6065Z" stroke="black" stroke-width="0.5" stroke-miterlimit="10"/>
<path d="M10.4246 17.8617C10.3948 17.8617 10.365 17.8617 10.3054 17.8617L8.13098 17.2068C7.98204 17.1771 7.89268 16.9984 7.95225 16.8496C7.98204 16.7008 8.16076 16.6115 8.3097 16.671L10.4842 17.3259C10.6331 17.3557 10.7225 17.5343 10.6629 17.6831C10.6331 17.8022 10.5437 17.8617 10.4246 17.8617Z" stroke="black" stroke-width="0.5" stroke-miterlimit="10"/>
<path d="M13.9992 35.1282C15.3152 35.1282 16.3821 34.062 16.3821 32.7467C16.3821 31.4315 15.3152 30.3652 13.9992 30.3652C12.6831 30.3652 11.6162 31.4315 11.6162 32.7467C11.6162 34.062 12.6831 35.1282 13.9992 35.1282Z" stroke="black" stroke-width="0.5" stroke-miterlimit="10"/>
<path d="M12.5996 32.5092C12.5996 32.4795 12.5996 32.4497 12.5996 32.4199C12.6592 32.2711 12.8081 32.1818 12.9571 32.2413L15.1315 32.8962C15.2804 32.9557 15.3698 33.1046 15.3102 33.2534C15.2507 33.4023 15.1017 33.4916 14.9528 33.432L12.7783 32.7771C12.689 32.7474 12.5996 32.6283 12.5996 32.5092Z" stroke="black" stroke-width="0.5" stroke-miterlimit="10"/>
<path d="M13.3438 33.9679C13.3438 33.9382 13.3438 33.9084 13.3438 33.8489L13.9991 31.6758C14.0289 31.5269 14.2076 31.4376 14.3565 31.4972C14.5054 31.5269 14.5948 31.7055 14.5352 31.8544L13.8799 34.0275C13.8501 34.1763 13.6714 34.2656 13.5225 34.2061C13.4331 34.1763 13.3438 34.087 13.3438 33.9679Z" stroke="black" stroke-width="0.5" stroke-miterlimit="10"/>
<path d="M8.72769 50.7258C10.0438 50.7258 11.1107 49.6596 11.1107 48.3444C11.1107 47.0291 10.0438 45.9629 8.72769 45.9629C7.41161 45.9629 6.34473 47.0291 6.34473 48.3444C6.34473 49.6596 7.41161 50.7258 8.72769 50.7258Z" stroke="black" stroke-width="0.5" stroke-miterlimit="10"/>
<path d="M7.83445 49.4168C7.80466 49.4168 7.77488 49.387 7.77488 49.3572C7.65573 49.2382 7.68551 49.0596 7.77488 48.9702L9.44295 47.4223C9.5621 47.3032 9.74082 47.333 9.83018 47.4223C9.94933 47.5414 9.91954 47.72 9.83018 47.8093L8.16211 49.3572C8.07275 49.4763 7.92381 49.4763 7.83445 49.4168Z" stroke="black" stroke-width="0.5" stroke-miterlimit="10"/>
<path d="M9.44344 49.5354C9.41365 49.5354 9.38386 49.5056 9.35408 49.4758L7.80515 47.8386C7.686 47.7195 7.71579 47.5409 7.80515 47.4516C7.9243 47.3325 8.10302 47.3623 8.19238 47.4516L9.74131 49.0888C9.86046 49.2079 9.83067 49.3865 9.74131 49.4758C9.68173 49.5651 9.5328 49.5651 9.44344 49.5354Z" stroke="black" stroke-width="0.5" stroke-miterlimit="10"/>
<path d="M13.9396 66.7415C15.2557 66.7415 16.3226 65.6752 16.3226 64.36C16.3226 63.0447 15.2557 61.9785 13.9396 61.9785C12.6235 61.9785 11.5566 63.0447 11.5566 64.36C11.5566 65.6752 12.6235 66.7415 13.9396 66.7415Z" stroke="black" stroke-width="0.5" stroke-miterlimit="10"/>
<path d="M13.642 65.7293C13.6122 65.7293 13.5824 65.7293 13.5526 65.6995C13.4037 65.64 13.3441 65.4912 13.4037 65.3423L14.2079 63.199C14.2675 63.0502 14.4164 62.9906 14.5654 63.0502C14.7143 63.1097 14.7739 63.2585 14.7143 63.4074L13.9101 65.5507C13.8803 65.6698 13.7611 65.7293 13.642 65.7293Z" stroke="black" stroke-width="0.5" stroke-miterlimit="10"/>
<path d="M15.1311 65.1048C15.1013 65.1048 15.0716 65.1048 15.012 65.0751L12.8971 64.3011C12.7482 64.2416 12.6886 64.0927 12.7184 63.9439C12.778 63.795 12.9269 63.7355 13.0758 63.7653L15.1907 64.5392C15.3396 64.5988 15.3992 64.7476 15.3694 64.8965C15.3396 65.0155 15.2205 65.1048 15.1311 65.1048Z" stroke="black" stroke-width="0.5" stroke-miterlimit="10"/>
<path d="M31.3057 50.011C31.9638 50.011 32.4972 48.9448 32.4972 47.6295C32.4972 46.3143 31.9638 45.248 31.3057 45.248C30.6477 45.248 30.1143 46.3143 30.1143 47.6295C30.1143 48.9448 30.6477 50.011 31.3057 50.011Z" stroke="black" stroke-width="0.5" stroke-miterlimit="10"/>
<path d="M31.1573 48.9696C31.1573 48.9696 31.1276 48.9696 31.1276 48.9398C31.068 48.8803 31.0084 48.7314 31.0382 48.5826L31.4254 46.4392C31.4552 46.2904 31.5446 46.2309 31.6041 46.2904C31.6637 46.3499 31.7233 46.4988 31.6935 46.6476L31.3063 48.791C31.2765 48.91 31.2169 48.9993 31.1573 48.9696Z" stroke="black" stroke-width="0.5" stroke-miterlimit="10"/>
<path d="M31.902 48.3431C31.8723 48.3431 31.8723 48.3431 31.8425 48.3134L30.7701 47.5394C30.7106 47.4798 30.651 47.331 30.6808 47.1821C30.7106 47.0333 30.7999 46.9738 30.8595 47.0035L31.9318 47.7775C31.9914 47.8371 32.051 47.9859 32.0212 48.1347C31.9914 48.2836 31.9616 48.3431 31.902 48.3431Z" stroke="black" stroke-width="0.5" stroke-miterlimit="10"/>
<path d="M33.7481 32.2395C34.4062 32.2395 34.9396 31.1733 34.9396 29.858C34.9396 28.5428 34.4062 27.4766 33.7481 27.4766C33.0901 27.4766 32.5566 28.5428 32.5566 29.858C32.5566 31.1733 33.0901 32.2395 33.7481 32.2395Z" stroke="black" stroke-width="0.5" stroke-miterlimit="10"/>
<path d="M33.5997 31.2274C33.5997 31.2274 33.5699 31.2274 33.5699 31.1976C33.5104 31.1381 33.4508 30.9892 33.4806 30.8404L33.8678 28.697C33.8976 28.5482 33.987 28.4887 34.0465 28.5482C34.1061 28.6077 34.1657 28.7566 34.1359 28.9054L33.7487 31.0488C33.7189 31.1678 33.6593 31.2274 33.5997 31.2274Z" stroke="black" stroke-width="0.5" stroke-miterlimit="10"/>
<path d="M34.3444 30.5716C34.3146 30.5716 34.3146 30.5716 34.2849 30.5419L33.2125 29.7679C33.1529 29.7083 33.0934 29.5595 33.1232 29.4107C33.1529 29.2618 33.2423 29.2023 33.3019 29.2321L34.3742 30.006C34.4338 30.0656 34.4934 30.2144 34.4636 30.3633C34.4338 30.5121 34.404 30.5716 34.3444 30.5716Z" stroke="black" stroke-width="0.5" stroke-miterlimit="10"/>
<path d="M31.0372 17.2063C31.6952 17.2063 32.2287 16.1401 32.2287 14.8248C32.2287 13.5096 31.6952 12.4434 31.0372 12.4434C30.3791 12.4434 29.8457 13.5096 29.8457 14.8248C29.8457 16.1401 30.3791 17.2063 31.0372 17.2063Z" stroke="black" stroke-width="0.5" stroke-miterlimit="10"/>
<path d="M30.8585 16.1942C30.8585 16.1942 30.8287 16.1942 30.8287 16.1644C30.7692 16.1049 30.7096 15.956 30.7394 15.8072L31.1266 13.6638C31.1564 13.515 31.2458 13.4555 31.3053 13.515C31.3649 13.5745 31.4245 13.7234 31.3947 13.8722L31.0075 16.0156C30.9777 16.1346 30.9181 16.1942 30.8585 16.1942Z" stroke="black" stroke-width="0.5" stroke-miterlimit="10"/>
<path d="M31.6032 15.5697C31.5734 15.5697 31.5734 15.5697 31.5436 15.5399L30.4713 14.7659C30.4117 14.7064 30.3522 14.5576 30.3819 14.4087C30.4117 14.2599 30.5011 14.2003 30.5607 14.2301L31.633 15.0041C31.6926 15.0636 31.7521 15.2125 31.7224 15.3613C31.7224 15.4804 31.6628 15.5697 31.6032 15.5697Z" stroke="black" stroke-width="0.5" stroke-miterlimit="10"/>
<path d="M33.6886 68.5266C34.3466 68.5266 34.88 67.4604 34.88 66.1451C34.88 64.8299 34.3466 63.7637 33.6886 63.7637C33.0305 63.7637 32.4971 64.8299 32.4971 66.1451C32.4971 67.4604 33.0305 68.5266 33.6886 68.5266Z" stroke="black" stroke-width="0.5" stroke-miterlimit="10"/>
<path d="M33.5402 67.5145C33.5402 67.5145 33.5104 67.5145 33.5104 67.4847C33.4508 67.4252 33.3912 67.2763 33.421 67.1275L33.8082 64.9842C33.838 64.8353 33.9274 64.7758 33.987 64.8353C34.0465 64.8949 34.1061 65.0437 34.0763 65.1925L33.6891 67.3359C33.6593 67.4549 33.5997 67.5145 33.5402 67.5145Z" stroke="black" stroke-width="0.5" stroke-miterlimit="10"/>
<path d="M34.2849 66.89C34.2551 66.89 34.2551 66.89 34.2253 66.8602L33.1529 66.0862C33.0934 66.0267 33.0338 65.8779 33.0636 65.729C33.0934 65.5802 33.1827 65.5206 33.2423 65.5504L34.3146 66.3244C34.3742 66.3839 34.4338 66.5328 34.404 66.6816C34.404 66.8007 34.3444 66.8602 34.2849 66.89Z" stroke="black" stroke-width="0.5" stroke-miterlimit="10"/>
<path d="M38.6632 0.328125H37.0547V80.6732H38.6632V0.328125Z" stroke="black" stroke-width="0.5" stroke-miterlimit="10"/>
<path d="M1.69736 5.89453H0.148438V75.1062H1.69736V5.89453Z" stroke="black" stroke-width="0.5" stroke-miterlimit="10"/>
</g>
<defs>
<clipPath id="clip0">
<rect width="38.8125" height="81" fill="white"/>
</clipPath>
</defs>
</svg>
