<svg width="257" height="197" viewBox="0 0 257 197" fill="none" xmlns="http://www.w3.org/2000/svg">
<path d="M8.23255 185.019C7.69255 185.541 7.08055 185.973 6.91855 185.973C6.82855 185.973 6.77455 185.811 6.88255 185.199C7.29655 182.913 7.83655 180.465 8.12455 179.367L8.08855 179.295C7.89055 179.295 7.63855 179.241 7.40455 179.187C7.00855 179.097 6.64855 179.043 6.28855 179.043H6.27055C5.15455 179.043 3.84055 179.673 2.92255 180.429C1.60855 181.527 0.762547 183.489 0.762547 185.307C0.762547 186.747 1.33855 187.323 1.80655 187.323C2.29255 187.323 2.88655 186.999 3.48055 186.513C4.25455 185.883 5.11855 185.037 5.80255 184.029H5.85655L5.49655 185.739C5.22655 187.053 5.46055 187.323 5.80255 187.323C6.25255 187.323 7.45855 186.657 8.44855 185.469L8.23255 185.019ZM5.51455 179.835C5.96455 179.835 6.43255 179.961 6.68455 180.087C6.57655 180.663 6.30655 181.959 6.09055 182.661C5.49655 183.903 3.44455 186.171 2.74255 186.171C2.47255 186.171 2.25655 185.793 2.25655 185.001C2.25655 183.219 2.97655 181.113 4.20055 180.213C4.52455 179.979 5.01055 179.835 5.49655 179.835H5.51455Z" fill="black"/>
<path d="M93.88 180.501C94.186 179.151 94.744 178.179 95.266 177.639C95.734 177.153 96.418 176.865 97.264 176.685C97.822 176.559 98.434 176.415 99.01 176.163C99.892 175.803 100.27 174.885 100.36 174.327C100.342 174.219 100.234 174.129 100.108 174.273C99.82 174.579 99.298 174.795 98.452 175.065C97.858 175.263 97.408 175.461 96.958 175.695C96.22 176.073 95.32 176.667 94.51 177.567C92.98 179.205 91.918 181.509 91.918 184.047C91.918 185.883 92.656 187.323 94.312 187.323C95.104 187.323 96.112 186.855 96.832 186.243C98.074 185.145 98.92 183.417 98.92 181.689C98.92 180.141 98.2 179.043 96.922 179.043H96.904C96.058 179.043 94.834 179.691 93.934 180.519L93.88 180.501ZM96.184 179.889C96.958 179.889 97.426 180.591 97.426 181.833C97.426 184.245 96.292 185.991 95.554 186.387C95.302 186.513 95.086 186.549 94.852 186.549C93.898 186.549 93.376 185.451 93.376 184.065C93.376 182.913 93.592 182.031 93.88 181.437C94.474 180.609 95.5 179.889 96.166 179.889H96.184Z" fill="black"/>
<path d="M186.526 182.463C186.976 182.283 187.228 182.157 187.66 181.905C188.236 181.545 188.596 181.113 188.596 180.537C188.596 179.673 187.894 179.061 186.868 179.061H186.85C186.382 179.061 185.734 179.169 185.032 179.511C183.952 180.051 183.07 180.915 182.548 182.553C182.386 183.021 182.296 183.453 182.17 184.029C181.594 186.531 182.674 187.323 184.078 187.323C184.978 187.323 185.932 187.035 186.76 186.567C187.696 186.045 188.47 185.253 188.47 184.227C188.47 183.039 187.48 182.553 186.526 182.499V182.463ZM186.256 179.745C186.67 179.745 187.174 180.033 187.174 180.735C187.174 181.365 186.544 181.995 185.572 182.355C184.798 182.625 184.204 182.769 183.79 182.859C184.096 181.509 184.51 180.573 185.284 180.033C185.59 179.835 185.878 179.745 186.238 179.745H186.256ZM185.428 183.075C186.274 183.075 186.922 183.525 186.922 184.407C186.922 185.595 186.04 186.621 184.744 186.621C183.556 186.621 183.322 185.577 183.466 184.587C183.538 184.137 183.556 183.921 183.664 183.507C183.988 183.363 184.87 183.075 185.41 183.075H185.428Z" fill="black"/>
<g clip-path="url(#clip0)">
<path d="M202.871 47.7423V2.34595H175.426V62.8217H187.298L202.871 47.7423Z" fill="#EEEEEE"/>
<path d="M212.426 47.7423V2.34595H239.871V62.8217H227.999L212.426 47.7423Z" fill="#EEEEEE"/>
<path d="M212.426 120.257V163.878H239.871V105.766H227.999L212.426 120.257Z" fill="#EEEEEE"/>
<path d="M202.871 120.257V163.878H175.426V105.766H187.298L202.871 120.257Z" fill="#EEEEEE"/>
<path d="M145.947 165.755L154.761 165.755L154.761 59.8217L145.947 59.8217L145.947 165.755Z" fill="#EEEEEE"/>
<path d="M123.625 51.9832L137.507 51.9832L137.507 3.02782L123.625 3.02782L123.625 51.9832Z" fill="#EEEEEE"/>
<path d="M105.117 51.9832L118.998 51.9832L118.998 3.02782L105.117 3.02782L105.117 51.9832Z" fill="#EEEEEE"/>
<path d="M87.9979 165.755L96.8115 165.755L96.8115 59.8217L87.9979 59.8217L87.9979 165.755Z" fill="#EEEEEE"/>
<path d="M2.31823 69.7024L11.1318 69.7024L11.1318 3.05775L2.31823 3.05775L2.31823 69.7024Z" fill="#EEEEEE"/>
<path d="M59.2714 69.7024L68.085 69.7024L68.085 3.05775L59.2714 3.05775L59.2714 69.7024Z" fill="#EEEEEE"/>
<path d="M2.31823 165.267L11.1318 165.267L11.1318 98.622L2.31823 98.622L2.31823 165.267Z" fill="#EEEEEE"/>
<path d="M59.2714 165.267L68.085 165.267L68.085 98.622L59.2714 98.622L59.2714 165.267Z" fill="#EEEEEE"/>
<path d="M208.436 78.1903L221.66 65.0049L208.436 51.8195L195.211 65.0049L208.436 78.1903Z" fill="#EEEEEE"/>
<path d="M121.425 100.845L137.36 87.6642L121.425 74.4829L105.411 87.6642L121.425 100.845Z" fill="#EEEEEE"/>
<path d="M45.7866 77.532L50.6164 72.7692L45.7866 68.0503L41.0625 72.6813L45.7866 77.532Z" fill="#EEEEEE"/>
<path d="M23.4175 77.532L28.2473 72.7692L23.4175 68.0503L18.6846 72.6813L23.4175 77.532Z" fill="#EEEEEE"/>
<path d="M45.7866 100.45L50.6164 95.6784L45.7866 90.9595L41.0625 95.5905L45.7866 100.45Z" fill="#EEEEEE"/>
<path d="M23.4175 100.45L28.2473 95.6784L23.4175 90.9595L18.6846 95.5905L23.4175 100.45Z" fill="#EEEEEE"/>
<path d="M208.441 116.445L221.665 103.26L208.441 90.0744L195.216 103.26L208.441 116.445Z" fill="#EEEEEE"/>
<path d="M70.5089 168H0V0.746582H70.5089V168ZM0.881361 167.121H69.6275V1.62534H0.881361V167.121Z" fill="#231F20"/>
<path d="M57.7293 168H12.5596V0.746582H57.7293V168ZM13.4409 167.121H56.848V1.62534H13.4409V167.121Z" fill="#231F20"/>
<path d="M13.4408 96.0298H0V72.4353H13.4408V96.0298ZM0.881361 95.1511H12.5594V73.3141H0.881361V95.1511Z" fill="#231F20"/>
<path d="M70.5088 96.0298H56.8477V72.4353H70.5088V96.0298ZM57.729 95.1511H69.6274V73.3141H57.729V95.1511Z" fill="#231F20"/>
<path d="M24.0171 1.18604H23.1357V62.5494H24.0171V1.18604Z" fill="#231F20"/>
<path d="M46.2271 1.18604H45.3457V62.5494H46.2271V1.18604Z" fill="#231F20"/>
<path d="M46.2271 106.197H45.3457V167.56H46.2271V106.197Z" fill="#231F20"/>
<path d="M24.0171 106.197H23.1357V167.56H24.0171V106.197Z" fill="#231F20"/>
<path d="M23.4617 79.3422L16.8604 72.7603L23.4617 66.1785L30.0631 72.7603L23.4617 79.3422ZM18.1119 72.7691L23.4617 78.1031L28.8116 72.7691L23.4617 67.4351L18.1119 72.7691Z" fill="#231F20"/>
<path d="M23.4615 84.2897L12.0215 72.8747L23.4704 61.4597L34.9192 72.8747L23.4615 84.2897ZM13.2642 72.8747L23.4615 83.0419L33.6677 72.8747L23.4615 62.7075L13.2642 72.8747Z" fill="#231F20"/>
<path d="M45.7869 79.3422L39.1855 72.7603L45.7869 66.1785L52.3883 72.7603L45.7869 79.3422ZM40.4371 72.7691L45.7869 78.1031L51.1368 72.7691L45.7869 67.4351L40.4371 72.7691Z" fill="#231F20"/>
<path d="M45.7867 84.2897L34.3467 72.8747L45.7956 61.4597L57.2444 72.8747L45.7867 84.2897ZM35.5894 72.8747L45.7867 83.0419L55.9841 72.8747L45.7867 62.7075L35.5894 72.8747Z" fill="#231F20"/>
<path d="M23.4617 102.172L16.8604 95.5904L23.4617 89.0085L30.0631 95.5904L23.4617 102.172ZM18.1119 95.5904L23.4617 100.924L28.8116 95.5904L23.4617 90.2564L18.1119 95.5904Z" fill="#231F20"/>
<path d="M23.4616 107.12L12.0127 95.7046L23.4616 84.2896L34.9104 95.7046L23.4616 107.12ZM13.2642 95.7046L23.4616 105.872L33.6589 95.7046L23.4616 85.5374L13.2642 95.7046Z" fill="#231F20"/>
<path d="M45.7869 102.172L39.1855 95.5904L45.7869 89.0085L52.3883 95.5904L45.7869 102.172ZM40.4371 95.5904L45.7869 100.924L51.1368 95.5904L45.7869 90.2564L40.4371 95.5904Z" fill="#231F20"/>
<path d="M45.7868 107.12L34.3379 95.7046L45.7868 84.2896L57.2356 95.7046L45.7868 107.12ZM35.5894 95.7046L45.7868 105.872L55.9841 95.7046L45.7868 85.5374L35.5894 95.7046Z" fill="#231F20"/>
<path d="M35.0692 107.26H34.1878V61.6354L23.4705 51.1958L13.3084 61.3279L12.6914 60.7039L23.4616 49.9568L35.0692 61.2663V107.26Z" fill="#231F20"/>
<path d="M56.8825 62.0309L45.7598 51.1958L35.1658 61.7672L34.54 61.1433L45.7598 49.9568L57.4995 61.3982L56.8825 62.0309Z" fill="#231F20"/>
<path d="M23.4616 118.034L12.6914 107.295L13.3084 106.672L23.4705 116.804L34.32 106.232L34.937 106.856L23.4616 118.034Z" fill="#231F20"/>
<path d="M45.7598 118.034L34.54 106.856L35.1658 106.232L45.7598 116.804L56.8825 105.969L57.4995 106.592L45.7598 118.034Z" fill="#231F20"/>
<path d="M208.186 0.439209H207.305V47.7425H208.186V0.439209Z" fill="#231F20"/>
<path d="M208.186 121.971H207.305V166.822H208.186V121.971Z" fill="#231F20"/>
<path d="M243 167.253H172.491V-0.000244141H243V167.253ZM173.373 166.374H242.119V0.878509H173.373V166.374Z" fill="#231F20"/>
<path d="M207.745 85.0543L188.355 65.7217L207.745 46.3892L227.135 65.7217L207.745 85.0543ZM189.607 65.7217L207.754 83.8152L225.901 65.7217L207.745 47.6282L189.607 65.7217Z" fill="#231F20"/>
<path d="M207.746 82.4971L190.921 65.7217L207.746 48.9463L224.571 65.7217L207.746 82.4971ZM192.164 65.7217L207.746 81.258L223.329 65.7217L207.746 50.1853L192.164 65.7217Z" fill="#231F20"/>
<path d="M207.746 119.985L190.921 103.209L207.746 86.4338L224.571 103.209L207.746 119.985ZM192.164 103.2L207.746 118.737L223.329 103.2L207.746 87.6641L192.164 103.2Z" fill="#231F20"/>
<path d="M207.745 122.595L188.355 103.262L207.745 83.9294L227.135 103.262L207.745 122.595ZM189.607 103.253L207.754 121.347L225.901 103.253L207.754 85.1597L189.607 103.253Z" fill="#231F20"/>
<path d="M189.343 65.2822H172.932V66.161H189.343V65.2822Z" fill="#231F20"/>
<path d="M189.343 102.814H172.932V103.693H189.343V102.814Z" fill="#231F20"/>
<path d="M242.559 65.2822H226.148V66.161H242.559V65.2822Z" fill="#231F20"/>
<path d="M242.559 102.814H226.148V103.693H242.559V102.814Z" fill="#231F20"/>
<path d="M139.352 0.746582H103.507H86.1709V58.3752V168H156.68V58.3752V0.746582H139.352ZM155.798 1.62534V57.4965H140.225V1.62534H155.798ZM103.507 58.3752V55.5193H120.139L99.3208 72.1804V58.3752H103.507ZM139.352 54.6405H121.875V41.6789H139.352V54.6405ZM121.381 101.689L103.86 87.6816L121.381 73.6567L138.894 87.6728L121.381 101.689ZM120.985 72.8483L103.04 87.2247H99.312V73.3052L120.976 55.9674V72.8483H120.985ZM99.3208 88.1034H102.987L103.155 88.2352L120.985 102.497V122.955L99.3208 105.617V88.1034ZM121.866 102.427L139.758 88.1034H143.16V105.854L121.857 122.902V102.427H121.866ZM143.169 87.2247H139.74L121.875 72.9274V56.0289L143.177 73.0768V87.2247H143.169ZM120.985 54.6405H103.507V41.6789H120.985V54.6405ZM99.3208 106.751L120.985 124.088V167.13H99.3208V106.751ZM121.866 124.027L143.169 106.979V167.121H121.866V124.027ZM143.169 71.9432L122.642 55.5193H139.343V58.3752H143.16V71.9432H143.169ZM139.352 40.8002H121.875V1.62534H139.352V40.8002ZM120.985 1.62534V40.8002H103.507V1.62534H120.985ZM87.0523 1.62534H102.626V57.4965H87.0523V1.62534ZM87.0523 58.3752H98.4395V167.121H87.0523V58.3752ZM155.798 167.121H144.05V58.3752H155.798V167.121Z" fill="#231F20"/>
<path d="M14.2256 61.7411V69.0962L22.1755 61.1699V53.8323L14.2256 61.7411Z" fill="#EEEEEE"/>
<path d="M33.0153 61.7411V69.0962L25.0654 61.1699V53.8323L33.0153 61.7411Z" fill="#EEEEEE"/>
<path d="M14.2256 106.592V99.2285L22.1755 107.155V114.492L14.2256 106.592Z" fill="#EEEEEE"/>
<path d="M33.0153 106.592V99.2285L25.0654 107.155V114.492L33.0153 106.592Z" fill="#EEEEEE"/>
<path d="M36.6289 61.7411V69.0962L44.5788 61.1699V53.8323L36.6289 61.7411Z" fill="#EEEEEE"/>
<path d="M55.4108 61.7411V69.0962L47.4609 61.1699V53.8323L55.4108 61.7411Z" fill="#EEEEEE"/>
<path d="M36.6289 106.592V99.2285L44.5788 107.155V114.492L36.6289 106.592Z" fill="#EEEEEE"/>
<path d="M55.4108 106.592V99.2285L47.4609 107.155V114.492L55.4108 106.592Z" fill="#EEEEEE"/>
<path d="M14.2256 76.46V91.7327L21.9287 84.0436L14.2256 76.46Z" fill="#EEEEEE"/>
<path d="M32.8925 76.46V91.7327L25.1895 84.0436L32.8925 76.46Z" fill="#EEEEEE"/>
<path d="M36.4531 76.46V91.7327L44.1562 84.0436L36.4531 76.46Z" fill="#EEEEEE"/>
<path d="M55.1201 76.46V91.7327L47.417 84.0436L55.1201 76.46Z" fill="#D8D8D8"/>
</g>
<defs>
<clipPath id="clip0">
<rect width="243" height="168" fill="white" transform="translate(0 -0.000244141)"/>
</clipPath>
</defs>
</svg>
