<svg width="598" height="379" viewBox="0 0 598 379" fill="none" xmlns="http://www.w3.org/2000/svg">
<path d="M478.696 88.47L144.641 254.665L30.418 188.081L357.525 37.0667L478.696 88.47Z" fill="#D8D8D8"/>
<path d="M546.508 175.829C547.897 165.708 527.054 135.079 527.054 135.079L464.523 95.6611L393.376 133.748L345.019 160.648L184.939 238.951L371.699 270.912L546.508 175.829Z" fill="#D8D8D8"/>
<path d="M520.662 65.5652L143.808 254.665L1.51562 171.834L369.476 1.37769L520.662 65.5652Z" stroke="#262626" stroke-miterlimit="10"/>
<path d="M475.083 93.7974L537.614 133.215C537.614 133.215 558.458 163.844 557.068 173.965C555.678 184.086 361.693 281.3 361.693 281.3" stroke="#262626" stroke-miterlimit="10"/>
<path d="M80.9985 266.118L27.6387 205.66L44.8694 197.137" stroke="#262626" stroke-miterlimit="10"/>
<path d="M209.953 356.14L189.665 364.93C186.886 366.261 183.273 365.995 180.772 364.13L146.588 342.024" stroke="#262626" stroke-miterlimit="10"/>
<path d="M125.465 337.231C148.81 360.935 169.931 377.981 175.212 378.247C191.053 378.78 223.847 358.804 223.847 358.804" stroke="#262626" stroke-miterlimit="10"/>
<path d="M1.51532 171.834C1.51532 171.834 -2.93133 179.824 14.2994 205.926C20.1357 214.715 51.2622 252.801 74.0513 280.234" stroke="#262626" stroke-miterlimit="10"/>
<path d="M557.07 173.964C557.07 173.964 554.846 200.864 547.898 204.86C540.951 208.855 470.082 245.609 470.082 245.609" stroke="#262626" stroke-miterlimit="10"/>
<path d="M387.262 303.139C392.82 299.144 384.76 310.33 394.487 306.335C404.214 302.34 478.696 256.53 477.028 248.806C475.361 241.615 458.13 250.67 458.13 250.67L379.758 290.088" stroke="#262626" stroke-miterlimit="10"/>
<path d="M351.132 303.14L379.758 290.622C379.758 290.622 401.991 285.029 383.37 305.004C378.924 309.798 387.261 309.798 378.368 314.859C374.477 316.989 355.857 324.181 338.07 330.04" stroke="#262626" stroke-miterlimit="10"/>
<path d="M186.328 350.814C198.557 352.678 188.552 364.93 185.217 365.729" stroke="#262626" stroke-miterlimit="10"/>
<path d="M27.6387 205.66C27.6387 205.66 53.2069 226.701 86.001 256.531" stroke="#262626" stroke-miterlimit="10"/>
<path d="M363.361 258.394L214.398 219.242" stroke="#262626" stroke-miterlimit="10"/>
<path d="M102.121 230.429C102.121 230.429 56.2644 296.481 67.1031 324.446" stroke="#262626" stroke-miterlimit="10"/>
<path d="M530.39 137.21L400.881 206.991" stroke="#262626" stroke-miterlimit="10"/>
<path d="M387.539 225.102C365.862 274.641 324.731 358.271 316.393 367.859C301.108 385.437 298.884 372.387 299.996 368.125C314.17 317.521 411.718 192.875 411.718 192.875L322.785 164.909" stroke="#262626" stroke-miterlimit="10"/>
<path d="M337.516 169.438L405.883 178.227C405.883 178.227 404.215 181.956 401.714 188.614" stroke="#262626" stroke-miterlimit="10"/>
<path d="M66.8262 323.647C81.8336 326.577 303.055 376.649 303.055 376.649" stroke="#262626" stroke-miterlimit="10"/>
<path d="M114.07 329.773C114.07 293.018 148.81 270.646 192.165 270.646C235.519 270.646 270.537 300.476 270.537 336.964C270.537 346.02 268.314 354.809 264.423 362.799" stroke="#262626" stroke-miterlimit="10"/>
<path d="M591.319 300.218C595.008 284.127 574.909 266.221 546.425 260.223C517.942 254.225 491.861 262.407 488.172 278.498C484.483 294.589 504.582 312.495 533.066 318.493C561.549 324.49 587.63 316.308 591.319 300.218Z" stroke="#262626" stroke-miterlimit="10"/>
<path d="M548.175 328.974C543.45 342.823 522.051 353.211 496.204 353.211C467.023 353.211 443.4 339.894 443.4 323.381C443.4 310.596 457.574 296.747 484.532 293.817" stroke="#262626" stroke-miterlimit="10"/>
<path d="M591.252 300.21L589.307 308.732C585.694 324.713 559.57 332.969 531.222 326.843C502.875 320.718 482.587 302.873 486.2 286.893L488.145 278.37" stroke="#262626" stroke-miterlimit="10"/>
<path d="M549.288 327.909V332.17C549.288 348.683 525.665 362 496.484 362C467.303 362 443.68 348.683 443.68 332.17V324.18" stroke="#262626" stroke-miterlimit="10"/>
</svg>
