<svg width="126" height="259" viewBox="0 0 126 259" fill="none" xmlns="http://www.w3.org/2000/svg">
<path d="M4.57813 110.07C4.57813 110.07 9.24431 121.765 9.24431 127.064C9.24431 132.422 3.31077 154.082 3.82924 184.556C4.3477 215.031 11.491 228.223 11.779 232.601C11.9518 235.308 11.779 238.016 11.0877 240.666C10.2236 243.892 8.32259 246.715 6.99762 249.768C5.61505 253.051 6.72339 254.535 8.04836 257.761C8.16357 257.991 8.27878 258.279 8.50921 258.452C8.79725 258.625 9.14289 258.682 9.48853 258.625C10.6407 258.625 11.8504 258.625 13.0026 258.567C13.233 258.567 13.4634 258.567 13.6939 258.452C13.9243 258.337 14.0971 258.164 14.2123 257.991C16.2286 255.859 18.5191 254.607 19.6712 252.187C21.0538 249.249 20.2473 245.62 20.4201 242.394C20.9386 234.099 20.8234 225.688 19.9592 217.45C19.6136 214.109 19.2103 210.653 18.1158 207.484C14.1985 195.905 17.8854 185.939 41.6772 191.873C65.469 197.806 80.562 199.073 97.2105 197.921C113.859 196.769 141.856 189.395 148.308 191.93C154.76 194.465 156.834 203.106 157.756 226.783C157.929 231.679 158.159 236.576 158.044 241.472C157.986 244.583 157.641 246.254 156.316 248.961C155.567 250.459 155.336 252.187 155.567 253.8C155.855 255.817 156.776 255.759 157.813 257.487C158.101 257.948 158.332 258.409 158.793 258.755C159.254 259.1 164.553 258.985 164.669 258.755C165.763 256.738 167.549 255.989 167.722 253.628C167.895 251.381 166.915 248.961 166.858 246.657C166.742 244.468 166.685 242.279 166.57 240.09C166.224 232.831 165.936 225.573 165.763 218.314C165.648 212.957 165.014 206.908 166.224 201.608C167.722 195.156 175.902 188.992 190.534 192.91C205.166 196.827 226.308 198.843 236.217 198.728" stroke="#231F20" stroke-width="0.5" stroke-miterlimit="10" stroke-linecap="round" stroke-linejoin="round"/>
<path d="M183.62 16.3438C183.217 16.459 182.814 16.5166 182.411 16.6318C171.062 19.3969 155.047 23.0838 143.756 24.5816C124.4 27.1163 93.0043 21.586 74.0515 20.1458C58.9584 18.9361 43.3468 28.2684 43.9229 45.0322C44.2686 55.171 47.5522 65.4827 49.6836 75.3912C52.1031 86.6246 53.1977 96.4178 53.1977 96.4178C48.6467 95.2657 43.9229 94.5168 39.2567 93.8831C30.3852 92.7885 21.9746 93.4222 13.1607 93.8255C6.93908 94.1135 0.775103 97.2243 1.00553 104.31C1.06314 105.577 1.4088 106.845 2.10008 107.882C2.38812 108.342 3.65548 110.013 4.34676 109.61C4.75001 109.379 4.75001 108.342 4.86522 107.939C5.03805 107.248 5.32608 106.557 5.67172 105.923C6.99669 103.792 9.99226 103.388 12.2966 103.734C14.7161 104.08 17.366 105.52 18.4029 107.824C19.2094 109.61 19.4399 111.684 19.6127 113.642C19.7855 115.486 19.9007 117.329 19.9583 119.173C20.1311 123.608 20.0159 128.044 19.9007 132.48C19.7279 136.973 19.4975 141.467 19.2094 145.96C18.979 149.301 18.7486 152.7 18.4605 156.041C18.2301 158.749 18.0573 160.419 18.0573 160.419L17.5964 171.71L20.304 176.261L95.6542 178.105L179.069 177.702L253.498 178.508" stroke="#231F20" stroke-width="0.5" stroke-miterlimit="10" stroke-linecap="round" stroke-linejoin="round"/>
<path d="M63.8564 86.2202C63.2228 70.8391 51.7589 55.0547 55.7338 39.3855C56.5403 36.2748 57.9229 33.2792 60.2848 31.0901C64.3749 27.2304 70.5389 26.5967 76.1268 27.1152C104.527 29.8227 132.063 36.5628 160.867 32.9911C187.251 29.7075 212.08 21.4121 238.982 21.2969" stroke="#231F20" stroke-width="0.5" stroke-miterlimit="10" stroke-linecap="round" stroke-linejoin="round"/>
<path d="M66.0454 84.262C65.4117 68.8809 54.812 57.5899 58.7293 41.9207C59.4781 38.8099 60.9183 35.8143 63.165 33.6253C67.1975 29.7656 73.1887 29.1319 78.6614 29.6504C106.543 32.3579 133.503 39.0979 161.731 35.5263C187.597 32.2427 211.907 23.9472 238.233 23.832" stroke="#231F20" stroke-width="0.5" stroke-miterlimit="10" stroke-linecap="round" stroke-linejoin="round"/>
<path d="M81.254 139.678C80.678 133.169 80.9084 126.486 80.966 119.977C81.0236 113.294 81.1964 106.612 81.5421 99.987C81.7725 95.5512 81.7725 91.1154 82.0029 86.6797" stroke="#231F20" stroke-width="0.5" stroke-miterlimit="10" stroke-linecap="round" stroke-linejoin="round"/>
<path d="M79.2941 139.678C78.718 133.169 78.9484 126.486 79.006 119.977C79.0637 113.294 79.2365 106.612 79.5821 99.987C79.8125 95.5512 79.8125 91.1154 80.043 86.6797" stroke="#231F20" stroke-width="0.5" stroke-miterlimit="10" stroke-linecap="round" stroke-linejoin="round"/>
<path d="M72.8429 140.891C72.2668 134.266 72.4973 127.411 72.5549 120.728C72.6125 113.931 72.7853 107.076 73.1309 100.278C73.3614 95.7269 73.3614 91.176 73.5918 86.625" stroke="#231F20" stroke-width="0.5" stroke-miterlimit="10" stroke-linecap="round" stroke-linejoin="round"/>
<path d="M70.8273 140.891C70.2512 134.266 70.4816 127.411 70.5392 120.728C70.5969 113.931 70.7697 107.076 71.1153 100.278C71.3458 95.7269 71.3457 91.176 71.5762 86.625" stroke="#231F20" stroke-width="0.5" stroke-miterlimit="10" stroke-linecap="round" stroke-linejoin="round"/>
<path d="M102.107 138.932C101.359 132.48 101.474 124.473 101.416 117.963C101.301 111.281 101.359 104.598 101.531 97.9734C101.647 93.5376 101.589 89.7356 101.704 85.2422" stroke="#231F20" stroke-width="0.5" stroke-miterlimit="10" stroke-linecap="round" stroke-linejoin="round"/>
<path d="M99.7462 85.2422C99.631 89.6779 99.6886 93.48 99.5733 97.9734C99.4005 104.656 99.3429 111.338 99.4581 117.963C99.5734 124.473 99.4581 132.48 100.149 138.932" stroke="#231F20" stroke-width="0.5" stroke-miterlimit="10" stroke-linecap="round" stroke-linejoin="round"/>
<path d="M93.7539 139.046C93.005 132.421 93.1202 125.565 93.005 118.883C92.8898 112.085 92.9474 105.23 93.1202 98.4324C93.2355 93.8815 93.1778 90.5978 93.2931 86.0469" stroke="#231F20" stroke-width="0.5" stroke-miterlimit="10" stroke-linecap="round" stroke-linejoin="round"/>
<path d="M91.7383 139.104C90.9894 132.479 91.1046 125.624 90.9894 118.942C90.8742 112.144 90.9318 105.289 91.1046 98.491C91.2198 93.9401 91.1622 90.6564 91.2774 86.1055" stroke="#231F20" stroke-width="0.5" stroke-miterlimit="10" stroke-linecap="round" stroke-linejoin="round"/>
<path d="M122.962 138.931C122.213 132.479 122.328 124.471 122.271 117.962C122.155 111.279 122.213 104.597 122.386 97.9721C122.501 93.5363 122.443 87.8332 122.559 83.3398" stroke="#231F20" stroke-width="0.5" stroke-miterlimit="10" stroke-linecap="round" stroke-linejoin="round"/>
<path d="M121.004 138.989C120.255 132.537 120.37 124.53 120.313 118.02C120.197 111.338 120.255 104.656 120.428 98.0307C120.543 93.5949 120.485 87.8918 120.601 83.3984" stroke="#231F20" stroke-width="0.5" stroke-miterlimit="10" stroke-linecap="round" stroke-linejoin="round"/>
<path d="M114.551 139.044C113.802 132.419 113.917 125.564 113.802 118.882C113.687 112.084 113.744 105.229 113.917 98.4311C114.032 93.8802 113.975 88.6955 114.09 84.1445" stroke="#231F20" stroke-width="0.5" stroke-miterlimit="10" stroke-linecap="round" stroke-linejoin="round"/>
<path d="M112.592 139.103C111.843 132.478 111.958 125.623 111.843 118.94C111.728 112.143 111.785 105.287 111.958 98.4897C112.073 93.9387 112.016 88.7541 112.131 84.2031" stroke="#231F20" stroke-width="0.5" stroke-miterlimit="10" stroke-linecap="round" stroke-linejoin="round"/>
<path d="M63.6257 86.2803C63.6257 86.2803 81.2535 87.3748 94.4455 85.9346C107.638 84.4944 130.104 81.9597 132.582 82.8238C135.059 83.688 132.582 92.7899 132.582 92.7899C132.582 92.7899 129.298 117.849 135.75 134.44C135.75 134.44 137.939 139.97 129.586 139.452C121.233 138.933 75.9536 137.435 65.3539 142.735C65.3539 142.735 58.153 144.636 57.9225 142.735C57.6921 140.834 61.955 132.136 62.3583 128.91C62.7615 125.741 65.7571 104.484 64.0865 94.0573C62.4159 83.6303 63.6257 86.2803 63.6257 86.2803Z" stroke="#231F20" stroke-width="0.5" stroke-miterlimit="10" stroke-linecap="round" stroke-linejoin="round"/>
<path d="M63.2809 88.4663L57.5777 84.2034C57.5777 84.2034 52.9692 89.2152 54.5246 93.7086C56.1376 98.2596 58.8451 106.44 58.3266 110.415C57.8658 114.39 54.6398 126.775 54.1789 130.232C53.7181 133.746 50.4345 135.301 50.7801 139.622C51.1257 143.942 50.7801 145.44 50.7801 145.44C50.7801 145.44 64.433 145.209 68.8112 144.461C73.1893 143.769 80.4478 143.366 105.449 143.078C130.451 142.79 141.454 141.811 143.24 140.37C144.968 138.93 139.553 128.331 139.553 123.376C139.553 118.422 140.82 100.045 142.664 82.5328C142.664 82.5328 137.882 72.5667 126.015 78.2699C126.015 78.2699 97.4996 85.4131 92.5453 84.7219C87.5911 84.0306 70.4241 80.4013 63.7993 85.4708" stroke="#231F20" stroke-width="0.5" stroke-miterlimit="10" stroke-linecap="round" stroke-linejoin="round"/>
<path d="M56.5988 85.4141L63.4541 89.8498" stroke="#231F20" stroke-width="0.5" stroke-miterlimit="10" stroke-linecap="round" stroke-linejoin="round"/>
<path d="M55.6195 87.1992L63.4541 90.7133" stroke="#231F20" stroke-width="0.5" stroke-miterlimit="10" stroke-linecap="round" stroke-linejoin="round"/>
<path d="M54.8706 89.332C55.101 89.332 63.4541 91.6363 63.4541 91.6363" stroke="#231F20" stroke-width="0.5" stroke-miterlimit="10" stroke-linecap="round" stroke-linejoin="round"/>
<path d="M54.2351 91.9219L63.8555 92.7284" stroke="#231F20" stroke-width="0.5" stroke-miterlimit="10" stroke-linecap="round" stroke-linejoin="round"/>
<path d="M54.7536 94.4003L64.0859 94.0547" stroke="#231F20" stroke-width="0.5" stroke-miterlimit="10" stroke-linecap="round" stroke-linejoin="round"/>
<path d="M58.2109 143.25L53.4871 145.439" stroke="#231F20" stroke-width="0.5" stroke-miterlimit="10" stroke-linecap="round" stroke-linejoin="round"/>
<path d="M62.5312 143.598L62.6465 144.635" stroke="#231F20" stroke-width="0.5" stroke-miterlimit="10" stroke-linecap="round" stroke-linejoin="round"/>
<path d="M65.7002 142.559L65.4698 144.632" stroke="#231F20" stroke-width="0.5" stroke-miterlimit="10" stroke-linecap="round" stroke-linejoin="round"/>
<path d="M68.0605 141.695V144.345" stroke="#231F20" stroke-width="0.5" stroke-miterlimit="10" stroke-linecap="round" stroke-linejoin="round"/>
<path d="M70.6535 141.062L71.9209 144.116" stroke="#231F20" stroke-width="0.5" stroke-miterlimit="10" stroke-linecap="round" stroke-linejoin="round"/>
<path d="M72.7855 140.66L74.917 143.886" stroke="#231F20" stroke-width="0.5" stroke-miterlimit="10" stroke-linecap="round" stroke-linejoin="round"/>
<path d="M57.9229 141.926L50.9524 143.366" stroke="#231F20" stroke-width="0.5" stroke-miterlimit="10" stroke-linecap="round" stroke-linejoin="round"/>
<path d="M58.7285 139.508C58.4405 139.508 50.8363 139.681 50.8363 139.681" stroke="#231F20" stroke-width="0.5" stroke-miterlimit="10" stroke-linecap="round" stroke-linejoin="round"/>
<path d="M60.458 134.899L53.4875 132.652" stroke="#231F20" stroke-width="0.5" stroke-miterlimit="10" stroke-linecap="round" stroke-linejoin="round"/>
<path d="M61.4951 132.131L54.3518 129.309" stroke="#231F20" stroke-width="0.5" stroke-miterlimit="10" stroke-linecap="round" stroke-linejoin="round"/>
<path d="M77.1058 140.254C77.221 140.312 78.8916 143.883 78.8916 143.883" stroke="#231F20" stroke-width="0.5" stroke-miterlimit="10" stroke-linecap="round" stroke-linejoin="round"/>
<path d="M80.6769 139.91L81.2529 143.885" stroke="#231F20" stroke-width="0.5" stroke-miterlimit="10" stroke-linecap="round" stroke-linejoin="round"/>
<path d="M84.7677 139.391L85.2285 143.481" stroke="#231F20" stroke-width="0.5" stroke-miterlimit="10" stroke-linecap="round" stroke-linejoin="round"/>
<path d="M65.8147 84.4336L67.4277 86.5074" stroke="#231F20" stroke-width="0.5" stroke-miterlimit="10" stroke-linecap="round" stroke-linejoin="round"/>
<path d="M68.2346 83.6289L69.2715 86.5093" stroke="#231F20" stroke-width="0.5" stroke-miterlimit="10" stroke-linecap="round" stroke-linejoin="round"/>
<path d="M71.6338 83.1094L71.0577 86.5082" stroke="#231F20" stroke-width="0.5" stroke-miterlimit="10" stroke-linecap="round" stroke-linejoin="round"/>
<path d="M73.7657 82.9375L74.1113 86.5091" stroke="#231F20" stroke-width="0.5" stroke-miterlimit="10" stroke-linecap="round" stroke-linejoin="round"/>
<path d="M82.3486 83.6289L81.6573 86.5093" stroke="#231F20" stroke-width="0.5" stroke-miterlimit="10" stroke-linecap="round" stroke-linejoin="round"/>
<path d="M85.1133 83.6836L84.4796 86.6216" stroke="#231F20" stroke-width="0.5" stroke-miterlimit="10" stroke-linecap="round" stroke-linejoin="round"/>
<path d="M90.9902 84.7227L89.8381 86.5085" stroke="#231F20" stroke-width="0.5" stroke-miterlimit="10" stroke-linecap="round" stroke-linejoin="round"/>
<path d="M93.7539 84.9531L92.7738 86.0485" stroke="#231F20" stroke-width="0.5" stroke-miterlimit="10" stroke-linecap="round" stroke-linejoin="round"/>
<path d="M101.128 83.918V85.071" stroke="#231F20" stroke-width="0.5" stroke-miterlimit="10" stroke-linecap="round" stroke-linejoin="round"/>
<path d="M104.238 83.3398V84.8952" stroke="#231F20" stroke-width="0.5" stroke-miterlimit="10" stroke-linecap="round" stroke-linejoin="round"/>
<path d="M107.234 82.9375V84.4929" stroke="#231F20" stroke-width="0.5" stroke-miterlimit="10" stroke-linecap="round" stroke-linejoin="round"/>
<path d="M110.635 82.0156L110.347 84.1471" stroke="#231F20" stroke-width="0.5" stroke-miterlimit="10" stroke-linecap="round" stroke-linejoin="round"/>
<path d="M114.377 81.1523L113.398 83.9175" stroke="#231F20" stroke-width="0.5" stroke-miterlimit="10" stroke-linecap="round" stroke-linejoin="round"/>
<path d="M122.039 79.3633L121.29 83.1654" stroke="#231F20" stroke-width="0.5" stroke-miterlimit="10" stroke-linecap="round" stroke-linejoin="round"/>
<path d="M125.323 78.5586L124.402 82.9367" stroke="#231F20" stroke-width="0.5" stroke-miterlimit="10" stroke-linecap="round" stroke-linejoin="round"/>
<path d="M122.213 139.102L120.6 142.904" stroke="#231F20" stroke-width="0.5" stroke-miterlimit="10" stroke-linecap="round" stroke-linejoin="round"/>
<path d="M88.2238 139.219L88.9727 143.366" stroke="#231F20" stroke-width="0.5" stroke-miterlimit="10" stroke-linecap="round" stroke-linejoin="round"/>
<path d="M92.7168 139.219V143.366" stroke="#231F20" stroke-width="0.5" stroke-miterlimit="10" stroke-linecap="round" stroke-linejoin="round"/>
<path d="M96.2315 139.219L96.75 143.309" stroke="#231F20" stroke-width="0.5" stroke-miterlimit="10" stroke-linecap="round" stroke-linejoin="round"/>
<path d="M100.725 138.988L100.437 143.251" stroke="#231F20" stroke-width="0.5" stroke-miterlimit="10" stroke-linecap="round" stroke-linejoin="round"/>
<path d="M107.984 138.875L107.754 143.138" stroke="#231F20" stroke-width="0.5" stroke-miterlimit="10" stroke-linecap="round" stroke-linejoin="round"/>
<path d="M111.845 138.93L111.326 143.02" stroke="#231F20" stroke-width="0.5" stroke-miterlimit="10" stroke-linecap="round" stroke-linejoin="round"/>
<path d="M55.2737 124.816L62.3018 129.31" stroke="#231F20" stroke-width="0.5" stroke-miterlimit="10" stroke-linecap="round" stroke-linejoin="round"/>
<path d="M55.9067 97.7399L64.3174 95.7812" stroke="#231F20" stroke-width="0.5" stroke-miterlimit="10" stroke-linecap="round" stroke-linejoin="round"/>
<path d="M57.2317 101.37L64.5479 98.7773" stroke="#231F20" stroke-width="0.5" stroke-miterlimit="10" stroke-linecap="round" stroke-linejoin="round"/>
<path d="M57.923 104.251L64.6055 102.004" stroke="#231F20" stroke-width="0.5" stroke-miterlimit="10" stroke-linecap="round" stroke-linejoin="round"/>
<path d="M58.2686 111.282L64.375 108.805" stroke="#231F20" stroke-width="0.5" stroke-miterlimit="10" stroke-linecap="round" stroke-linejoin="round"/>
<path d="M57.922 114.046L64.1436 112.605" stroke="#231F20" stroke-width="0.5" stroke-miterlimit="10" stroke-linecap="round" stroke-linejoin="round"/>
<path d="M57.0002 117.326L63.8555 116.059" stroke="#231F20" stroke-width="0.5" stroke-miterlimit="10" stroke-linecap="round" stroke-linejoin="round"/>
<path d="M56.426 119.805H63.5117" stroke="#231F20" stroke-width="0.5" stroke-miterlimit="10" stroke-linecap="round" stroke-linejoin="round"/>
<path d="M55.9065 122.223L62.9922 124.181" stroke="#231F20" stroke-width="0.5" stroke-miterlimit="10" stroke-linecap="round" stroke-linejoin="round"/>
<path d="M119.794 139.047L117.835 142.907" stroke="#231F20" stroke-width="0.5" stroke-miterlimit="10" stroke-linecap="round" stroke-linejoin="round"/>
<path d="M50.7803 144.461C50.7803 144.461 19.9604 154.369 18.5202 156.155" stroke="#231F20" stroke-width="0.5" stroke-miterlimit="10" stroke-linecap="round" stroke-linejoin="round"/>
<path d="M2.73502 108.803C2.73502 108.803 3.59913 101.43 10.224 101.43C16.6184 101.43 19.2683 104.08 21.2846 110.071C23.3008 116.062 21.2846 154.716 21.2846 154.716" stroke="#231F20" stroke-width="0.5" stroke-miterlimit="10" stroke-linecap="round" stroke-linejoin="round"/>
<path d="M46.3438 94.9766C46.3438 94.9766 51.1828 94.8614 54.8696 105.634C57.462 113.353 56.8859 117.847 56.8859 117.847" stroke="#231F20" stroke-width="0.5" stroke-miterlimit="10" stroke-linecap="round" stroke-linejoin="round"/>
<path d="M43.7523 94.5156C43.7523 94.5156 49.9739 95.7254 52.7391 106.728C55.6194 118.192 54.9858 126.2 54.9858 126.2" stroke="#231F20" stroke-width="0.5" stroke-miterlimit="10" stroke-linecap="round" stroke-linejoin="round"/>
<path d="M38.3367 93.7656C38.3367 93.7656 43.4061 94.8026 46.3441 100.045C49.2821 105.287 50.7799 118.998 50.7799 118.998L51.8168 135.243L59.5938 136.971" stroke="#231F20" stroke-width="0.5" stroke-miterlimit="10" stroke-linecap="round" stroke-linejoin="round"/>
<path d="M35.2826 93.4766C35.2826 93.4766 42.3107 94.6287 44.903 101.945C47.553 109.261 48.9932 117.268 48.9932 144.401" stroke="#231F20" stroke-width="0.5" stroke-miterlimit="10" stroke-linecap="round" stroke-linejoin="round"/>
<path d="M37.2412 148.898C37.2412 148.898 30.0403 151.088 29.5794 158.576V176.435" stroke="#231F20" stroke-width="0.5" stroke-miterlimit="10" stroke-linecap="round" stroke-linejoin="round"/>
<path d="M51.2988 145.496C51.2988 145.496 38.222 150.738 38.7981 158.573C39.3741 166.408 38.7981 176.777 38.7981 176.777V180.233" stroke="#231F20" stroke-width="0.5" stroke-miterlimit="10" stroke-linecap="round" stroke-linejoin="round"/>
<path d="M41.1011 176.719V158.573C41.1011 158.573 43.4054 147.8 55.4453 145.496" stroke="#231F20" stroke-width="0.5" stroke-miterlimit="10" stroke-linecap="round" stroke-linejoin="round"/>
<path d="M48.246 177.01V158.576C48.246 158.576 50.4351 150.511 58.2121 145.268L59.1338 143.598" stroke="#231F20" stroke-width="0.5" stroke-miterlimit="10" stroke-linecap="round" stroke-linejoin="round"/>
<path d="M60.458 145.211C60.458 145.211 49.455 153.564 50.3767 158.576L50.78 176.78" stroke="#231F20" stroke-width="0.5" stroke-miterlimit="10" stroke-linecap="round" stroke-linejoin="round"/>
<path d="M60.4582 177.298V158.576C60.4582 158.576 60.8614 148.725 72.7861 144.059" stroke="#231F20" stroke-width="0.5" stroke-miterlimit="10" stroke-linecap="round" stroke-linejoin="round"/>
<path d="M62.7042 177.356V158.23C62.7042 158.23 64.6052 147.976 74.3984 144.059" stroke="#231F20" stroke-width="0.5" stroke-miterlimit="10" stroke-linecap="round" stroke-linejoin="round"/>
<path d="M70.0204 177.526V158.574C70.0204 158.574 70.1357 150.163 80.9082 143.941" stroke="#231F20" stroke-width="0.5" stroke-miterlimit="10" stroke-linecap="round" stroke-linejoin="round"/>
<path d="M72.4404 177.296V158.574C72.4404 158.574 74.8599 147.801 83.7891 143.48" stroke="#231F20" stroke-width="0.5" stroke-miterlimit="10" stroke-linecap="round" stroke-linejoin="round"/>
<path d="M83.3279 177.872L82.867 158.574C82.867 158.574 82.1758 151.545 93.4092 143.48" stroke="#231F20" stroke-width="0.5" stroke-miterlimit="10" stroke-linecap="round" stroke-linejoin="round"/>
<path d="M85.8047 177.931L84.9982 158.229C84.9982 158.229 88.7427 145.959 97.1533 143.309" stroke="#231F20" stroke-width="0.5" stroke-miterlimit="10" stroke-linecap="round" stroke-linejoin="round"/>
<path d="M92.7176 178.103L92.3719 158.286C92.3719 158.286 96.5197 144.922 102.914 143.078" stroke="#231F20" stroke-width="0.5" stroke-miterlimit="10" stroke-linecap="round" stroke-linejoin="round"/>
<path d="M94.8493 178.16L94.5037 158.574C94.5037 158.574 98.997 145.094 104.47 143.308L104.066 138.93" stroke="#231F20" stroke-width="0.5" stroke-miterlimit="10" stroke-linecap="round" stroke-linejoin="round"/>
<path d="M1.46615 106.324C1.58137 105.748 2.90633 97.1071 10.9713 97.2799C14.3702 97.3375 17.6538 98.8929 20.0157 101.255C22.7232 103.962 23.6449 107.419 23.5873 111.163C23.5873 111.221 23.5873 111.336 23.5873 111.394C23.4721 114.332 23.1265 117.27 23.0113 120.208C22.7232 125.68 22.4928 131.211 21.9743 136.683" stroke="#231F20" stroke-width="0.5" stroke-miterlimit="10" stroke-linecap="round" stroke-linejoin="round"/>
<path d="M4.57807 96.7027C7.45843 95.2625 10.9725 94.456 14.1409 95.0897C18.4038 95.9538 23.5885 99.7559 25.3167 103.731C27.2753 108.167 26.0656 114.042 25.8927 118.824C25.7199 123.087 25.6047 127.407 25.4895 131.67C25.4895 131.901 25.4895 132.189 25.4895 132.419C25.2591 139.447 25.4895 146.245 23.2428 152.985C23.1276 153.331 23.0124 153.676 22.782 153.964C22.6091 154.195 22.3787 154.425 22.1483 154.598C21.1113 155.635 20.42 157.017 20.3048 158.515C20.0744 161.568 20.3048 176.258 20.3048 176.258H26.5264L27.1025 158.112C27.1025 158.112 29.1763 150.623 32.46 150.45" stroke="#231F20" stroke-width="0.5" stroke-miterlimit="10" stroke-linecap="round" stroke-linejoin="round"/>
<path d="M30.1563 93.3047C30.1563 93.3047 41.3321 93.8232 42.8299 108.052C43.9244 118.249 44.1549 131.095 44.2701 137.605C44.3277 140.6 43.8092 143.596 42.8299 146.476C42.7147 146.764 42.6571 146.995 42.5995 147.167" stroke="#231F20" stroke-width="0.5" stroke-miterlimit="10" stroke-linecap="round" stroke-linejoin="round"/>
<path d="M27.1023 93.3047C27.1023 93.3047 37.0684 93.3047 39.8911 105.114C42.6563 116.924 42.7715 144.172 39.6031 148.089" stroke="#231F20" stroke-width="0.5" stroke-miterlimit="10" stroke-linecap="round" stroke-linejoin="round"/>
<path d="M63.5678 83.1111L65.8721 81.8438" stroke="#231F20" stroke-width="0.5" stroke-miterlimit="10" stroke-linecap="round" stroke-linejoin="round"/>
<path d="M62.935 79.3651L65.3545 78.3281" stroke="#231F20" stroke-width="0.5" stroke-miterlimit="10" stroke-linecap="round" stroke-linejoin="round"/>
<path d="M62.3012 75.907L64.5479 74.8125" stroke="#231F20" stroke-width="0.5" stroke-miterlimit="10" stroke-linecap="round" stroke-linejoin="round"/>
<path d="M61.4359 72.2782L63.5674 71.6445" stroke="#231F20" stroke-width="0.5" stroke-miterlimit="10" stroke-linecap="round" stroke-linejoin="round"/>
<path d="M60.1108 69.2245L62.5303 68.418" stroke="#231F20" stroke-width="0.5" stroke-miterlimit="10" stroke-linecap="round" stroke-linejoin="round"/>
<path d="M57.5782 84.1445L63.4541 85.8151" stroke="#231F20" stroke-width="0.5" stroke-miterlimit="10" stroke-linecap="round" stroke-linejoin="round"/>
<path d="M18.9227 93.5938C18.9227 93.5938 33.4973 97.2806 33.9006 108.802C34.3038 120.324 33.4397 142.618 33.4397 142.618C33.4397 142.618 32.5756 150.452 29.7529 151.489" stroke="#231F20" stroke-width="0.5" stroke-miterlimit="10" stroke-linecap="round" stroke-linejoin="round"/>
<path d="M34.5336 149.817C34.5336 149.817 36.8379 147.455 36.6075 140.255C36.3195 133.111 37.1836 109.953 36.5499 106.727C35.9162 103.501 33.3239 95.7818 23.8187 93.3047" stroke="#231F20" stroke-width="0.5" stroke-miterlimit="10" stroke-linecap="round" stroke-linejoin="round"/>
<path d="M10.9351 258.451C11.7992 257.472 15.5816 249.767 15.5816 249.767C15.5816 249.767 17.3098 245.446 17.2522 237.439C17.1946 229.374 13.0469 205.755 13.0469 205.755C13.0469 205.755 9.2448 184.613 33.0366 188.069C56.886 191.468 57.0012 195.155 82.118 195.386C107.235 195.616 127.282 190.374 127.282 190.374C127.282 190.374 154.3 182.712 157.871 199.476C160.579 212.034 161.155 227.761 160.925 234.789C160.867 236.805 160.867 238.764 160.925 240.78C160.982 243.603 160.637 248.269 158.159 249.824C158.159 249.824 155.567 252.705 160.579 258.984" stroke="#231F20" stroke-width="0.5" stroke-miterlimit="10" stroke-linecap="round" stroke-linejoin="round"/>
<path d="M78.0279 192.335C76.3734 192.335 75.0323 190.994 75.0323 189.339C75.0323 187.685 76.3734 186.344 78.0279 186.344C79.6823 186.344 81.0234 187.685 81.0234 189.339C81.0234 190.994 79.6823 192.335 78.0279 192.335Z" stroke="#231F20" stroke-width="0.5" stroke-miterlimit="10" stroke-linecap="round" stroke-linejoin="round"/>
<path d="M45.0765 185.421C43.9312 185.421 43.0027 184.493 43.0027 183.347C43.0027 182.202 43.9312 181.273 45.0765 181.273C46.2219 181.273 47.1504 182.202 47.1504 183.347C47.1504 184.493 46.2219 185.421 45.0765 185.421Z" stroke="#231F20" stroke-width="0.5" stroke-miterlimit="10" stroke-linecap="round" stroke-linejoin="round"/>
<path d="M90.9312 192.62C89.2768 192.62 87.9356 191.279 87.9356 189.624C87.9356 187.97 89.2768 186.629 90.9312 186.629C92.5856 186.629 93.9268 187.97 93.9268 189.624C93.9268 191.279 92.5856 192.62 90.9312 192.62Z" stroke="#231F20" stroke-width="0.5" stroke-miterlimit="10" stroke-linecap="round" stroke-linejoin="round"/>
<path d="M75.3183 190.489C75.3183 190.489 75.0303 191.814 71.401 191.699C67.8294 191.526 73.1292 184.728 73.1292 184.728C68.463 186.975 69.9032 191.584 67.1957 191.238C64.4881 190.892 68.6935 185.189 68.6935 185.189C65.3522 185.765 65.2946 190.719 62.4719 191.123C59.6491 191.526 64.0849 186.111 64.0849 186.111L59.9948 190.143C56.1927 191.641 56.7688 189.51 56.7688 189.51L61.1469 186.572C55.5014 187.954 50.2591 189.337 44.4984 188.242C43.1735 188.012 34.3019 186.514 35.2813 183.922C36.3182 181.329 43.0582 182.712 43.0582 182.712C42.2517 182.827 41.3876 182.942 40.5811 183.115C39.8322 183.288 37.3551 183.807 38.5073 185.016C38.9681 185.535 39.9475 185.765 40.6387 185.996C42.0789 186.457 43.5767 186.629 45.0745 186.745C47.206 186.975 49.3374 187.09 51.5265 186.917C52.7939 186.802 54.0612 186.687 55.3286 186.572C58.0937 186.284 60.8589 185.996 63.624 185.708C66.2164 185.42 68.7511 185.132 71.2858 184.786C72.5531 184.613 73.8205 184.498 75.1455 184.325H75.2031C75.2031 184.325 78.8323 183.058 80.5605 187.436" stroke="#231F20" stroke-width="0.5" stroke-miterlimit="10" stroke-linecap="round" stroke-linejoin="round"/>
<path d="M46.7475 184.614C46.7475 184.614 53.2571 186.63 72.2099 183.001C72.2099 183.001 82.5216 181.618 82.1184 187.264C81.7151 192.909 78.0282 192.391 78.0282 192.391" stroke="#231F20" stroke-width="0.5" stroke-miterlimit="10" stroke-linecap="round" stroke-linejoin="round"/>
<path d="M66.0459 185.422C66.0459 185.422 61.3221 189.973 63.7992 190.088" stroke="#231F20" stroke-width="0.5" stroke-miterlimit="10" stroke-linecap="round" stroke-linejoin="round"/>
<path d="M70.251 184.957C70.251 184.957 66.2185 190.084 68.926 190.199" stroke="#231F20" stroke-width="0.5" stroke-miterlimit="10" stroke-linecap="round" stroke-linejoin="round"/>
<path d="M77.5673 186.4C77.5673 186.4 74.3989 186.457 73.074 188.07C71.6914 189.683 75.0902 189.28 75.0902 189.28C75.0902 189.28 72.4979 191.181 71.6914 189.683C70.8849 188.186 74.1685 183.865 76.876 185.305C79.5836 186.803 78.0858 186.342 78.0858 186.342" stroke="#231F20" stroke-width="0.5" stroke-miterlimit="10" stroke-linecap="round" stroke-linejoin="round"/>
<path d="M124.402 186.628C123.256 186.628 122.328 185.7 122.328 184.554C122.328 183.409 123.256 182.48 124.402 182.48C125.547 182.48 126.476 183.409 126.476 184.554C126.476 185.7 125.547 186.628 124.402 186.628Z" stroke="#231F20" stroke-width="0.5" stroke-miterlimit="10" stroke-linecap="round" stroke-linejoin="round"/>
<path d="M93.9275 190.606C93.9275 190.606 94.2155 191.931 97.7872 191.931C101.359 191.931 96.347 184.903 96.347 184.903C100.956 187.322 99.285 191.873 102.05 191.643C104.758 191.412 100.783 185.536 100.783 185.536C104.124 186.228 103.951 191.182 106.774 191.7C109.597 192.219 105.334 186.631 105.334 186.631L109.251 190.779C112.995 192.449 112.477 190.26 112.477 190.26L108.214 187.149C116.164 189.454 123.538 190.836 131.603 187.783C134.656 186.631 134.886 184.672 131.718 183.923C130.105 183.52 128.146 183.751 126.533 183.981C126.533 183.981 133.043 185.076 130.566 185.882C128.089 186.689 124.747 188.474 118.411 187.898C112.074 187.265 94.4459 184.384 94.4459 184.384C94.4459 184.384 90.8743 183.002 88.9733 187.322" stroke="#231F20" stroke-width="0.5" stroke-miterlimit="10" stroke-linecap="round" stroke-linejoin="round"/>
<path d="M122.73 185.767C122.73 185.767 116.106 187.495 97.3257 183.174C97.3257 183.174 87.0716 181.389 87.302 187.034C87.5324 192.68 90.5 192.503 90.5 192.503" stroke="#231F20" stroke-width="0.5" stroke-miterlimit="10" stroke-linecap="round" stroke-linejoin="round"/>
<path d="M103.432 185.879C103.432 185.879 107.983 190.603 105.506 190.603" stroke="#231F20" stroke-width="0.5" stroke-miterlimit="10" stroke-linecap="round" stroke-linejoin="round"/>
<path d="M99.2263 185.188C99.2263 185.188 103.086 190.43 100.378 190.487" stroke="#231F20" stroke-width="0.5" stroke-miterlimit="10" stroke-linecap="round" stroke-linejoin="round"/>
<path d="M91.855 186.399C91.855 186.399 95.0234 186.572 96.2907 188.243C97.6157 189.913 94.2169 189.395 94.2169 189.395C94.2169 189.395 96.694 191.411 97.5581 189.913C98.4222 188.473 95.3114 183.98 92.5463 185.362C89.7811 186.745 91.2789 186.342 91.2789 186.342" stroke="#231F20" stroke-width="0.5" stroke-miterlimit="10" stroke-linecap="round" stroke-linejoin="round"/>
<path d="M85.9769 187.608C84.2487 189.163 87.9355 189.566 87.129 191.352C86.3225 193.196 83.2117 193.196 82.6933 191.295C82.1748 189.394 86.2073 190.488 83.3846 187.55C80.5618 184.612 84.8823 184.094 84.8823 184.094C84.8823 184.094 89.2029 184.67 85.9769 187.608Z" stroke="#231F20" stroke-width="0.5" stroke-miterlimit="10" stroke-linecap="round" stroke-linejoin="round"/>
<path d="M17.7134 170.152C17.7134 170.152 12.7016 179.081 18.5199 179.888C24.3382 180.752 235.296 181.328 235.296 181.328" stroke="#231F20" stroke-width="0.5" stroke-miterlimit="10" stroke-linecap="round" stroke-linejoin="round"/>
<path d="M18.6934 173.609L16.8499 179.255" stroke="#231F20" stroke-width="0.5" stroke-miterlimit="10" stroke-linecap="round" stroke-linejoin="round"/>
<path d="M20.3623 176.316L19.0373 179.946" stroke="#231F20" stroke-width="0.5" stroke-miterlimit="10" stroke-linecap="round" stroke-linejoin="round"/>
<path d="M23.6465 176.434L22.552 180.063" stroke="#231F20" stroke-width="0.5" stroke-miterlimit="10" stroke-linecap="round" stroke-linejoin="round"/>
<path d="M26.1816 176.316L25.7784 179.946" stroke="#231F20" stroke-width="0.5" stroke-miterlimit="10" stroke-linecap="round" stroke-linejoin="round"/>
<path d="M29.2344 176.723V180.237" stroke="#231F20" stroke-width="0.5" stroke-miterlimit="10" stroke-linecap="round" stroke-linejoin="round"/>
<path d="M32.3467 176.777L32.5195 180.234" stroke="#231F20" stroke-width="0.5" stroke-miterlimit="10" stroke-linecap="round" stroke-linejoin="round"/>
<path d="M35.8578 176.723C36.0306 176.895 35.8578 180.237 35.8578 180.237" stroke="#231F20" stroke-width="0.5" stroke-miterlimit="10" stroke-linecap="round" stroke-linejoin="round"/>
<path d="M41.7364 176.836L42.0244 180.235" stroke="#231F20" stroke-width="0.5" stroke-miterlimit="10" stroke-linecap="round" stroke-linejoin="round"/>
<path d="M44.6739 176.895L45.0195 180.236" stroke="#231F20" stroke-width="0.5" stroke-miterlimit="10" stroke-linecap="round" stroke-linejoin="round"/>
<path d="M47.669 177.008L47.8418 180.407" stroke="#231F20" stroke-width="0.5" stroke-miterlimit="10" stroke-linecap="round" stroke-linejoin="round"/>
<path d="M50.7217 176.836L51.0674 180.235" stroke="#231F20" stroke-width="0.5" stroke-miterlimit="10" stroke-linecap="round" stroke-linejoin="round"/>
<path d="M53.7764 177.355L54.0068 180.236" stroke="#231F20" stroke-width="0.5" stroke-miterlimit="10" stroke-linecap="round" stroke-linejoin="round"/>
<path d="M56.7129 177.527L56.8857 180.408" stroke="#231F20" stroke-width="0.5" stroke-miterlimit="10" stroke-linecap="round" stroke-linejoin="round"/>
<path d="M60.3419 177.297L60.6875 180.292" stroke="#231F20" stroke-width="0.5" stroke-miterlimit="10" stroke-linecap="round" stroke-linejoin="round"/>
<path d="M63.3379 177.355L63.6836 180.293" stroke="#231F20" stroke-width="0.5" stroke-miterlimit="10" stroke-linecap="round" stroke-linejoin="round"/>
<path d="M66.2764 177.469L66.5068 180.407" stroke="#231F20" stroke-width="0.5" stroke-miterlimit="10" stroke-linecap="round" stroke-linejoin="round"/>
<path d="M70.0206 177.297L70.3086 180.292" stroke="#231F20" stroke-width="0.5" stroke-miterlimit="10" stroke-linecap="round" stroke-linejoin="round"/>
<path d="M73.1319 177.871L73.4199 180.291" stroke="#231F20" stroke-width="0.5" stroke-miterlimit="10" stroke-linecap="round" stroke-linejoin="round"/>
<path d="M75.9541 177.699L76.127 180.407" stroke="#231F20" stroke-width="0.5" stroke-miterlimit="10" stroke-linecap="round" stroke-linejoin="round"/>
<path d="M79.3526 177.93L79.6406 180.407" stroke="#231F20" stroke-width="0.5" stroke-miterlimit="10" stroke-linecap="round" stroke-linejoin="round"/>
<path d="M82.3487 177.988L82.6943 180.926" stroke="#231F20" stroke-width="0.5" stroke-miterlimit="10" stroke-linecap="round" stroke-linejoin="round"/>
<path d="M85.2842 178.105L85.5146 180.755" stroke="#231F20" stroke-width="0.5" stroke-miterlimit="10" stroke-linecap="round" stroke-linejoin="round"/>
<path d="M88.0508 177.871L88.3965 180.751" stroke="#231F20" stroke-width="0.5" stroke-miterlimit="10" stroke-linecap="round" stroke-linejoin="round"/>
<path d="M90.8731 178.105L91.0459 180.755" stroke="#231F20" stroke-width="0.5" stroke-miterlimit="10" stroke-linecap="round" stroke-linejoin="round"/>
<path d="M94.3301 177.93L94.6182 180.925" stroke="#231F20" stroke-width="0.5" stroke-miterlimit="10" stroke-linecap="round" stroke-linejoin="round"/>
<path d="M97.3272 177.988L97.6152 180.926" stroke="#231F20" stroke-width="0.5" stroke-miterlimit="10" stroke-linecap="round" stroke-linejoin="round"/>
<path d="M100.264 178.105L100.437 180.755" stroke="#231F20" stroke-width="0.5" stroke-miterlimit="10" stroke-linecap="round" stroke-linejoin="round"/>
<path d="M103.663 177.816L103.836 180.812" stroke="#231F20" stroke-width="0.5" stroke-miterlimit="10" stroke-linecap="round" stroke-linejoin="round"/>
<path d="M107.12 177.93L107.408 180.925" stroke="#231F20" stroke-width="0.5" stroke-miterlimit="10" stroke-linecap="round" stroke-linejoin="round"/>
<path d="M110.114 177.988L110.402 180.926" stroke="#231F20" stroke-width="0.5" stroke-miterlimit="10" stroke-linecap="round" stroke-linejoin="round"/>
<path d="M113.053 178.105L113.226 180.755" stroke="#231F20" stroke-width="0.5" stroke-miterlimit="10" stroke-linecap="round" stroke-linejoin="round"/>
<path d="M115.818 177.871L116.106 180.751" stroke="#231F20" stroke-width="0.5" stroke-miterlimit="10" stroke-linecap="round" stroke-linejoin="round"/>
<path d="M118.584 178.105L118.814 180.755" stroke="#231F20" stroke-width="0.5" stroke-miterlimit="10" stroke-linecap="round" stroke-linejoin="round"/>
<path d="M122.039 177.93L122.385 180.925" stroke="#231F20" stroke-width="0.5" stroke-miterlimit="10" stroke-linecap="round" stroke-linejoin="round"/>
<path d="M125.035 177.988L125.323 180.926" stroke="#231F20" stroke-width="0.5" stroke-miterlimit="10" stroke-linecap="round" stroke-linejoin="round"/>
<path d="M18.6919 153.792C19.2103 153.561 21.3418 152.582 21.3418 152.582" stroke="#231F20" stroke-width="0.5" stroke-miterlimit="10" stroke-linecap="round" stroke-linejoin="round"/>
<path d="M18.9223 151.261L21.3418 150.281" stroke="#231F20" stroke-width="0.5" stroke-miterlimit="10" stroke-linecap="round" stroke-linejoin="round"/>
<path d="M19.0376 148.896L21.5723 148.09" stroke="#231F20" stroke-width="0.5" stroke-miterlimit="10" stroke-linecap="round" stroke-linejoin="round"/>
<path d="M19.2699 146.418L21.6895 145.496" stroke="#231F20" stroke-width="0.5" stroke-miterlimit="10" stroke-linecap="round" stroke-linejoin="round"/>
<path d="M19.6146 143.826L21.7461 143.25" stroke="#231F20" stroke-width="0.5" stroke-miterlimit="10" stroke-linecap="round" stroke-linejoin="round"/>
<path d="M19.6136 141.294L21.5723 140.891" stroke="#231F20" stroke-width="0.5" stroke-miterlimit="10" stroke-linecap="round" stroke-linejoin="round"/>
<path d="M8.95809 101.484L9.36133 103.501" stroke="#231F20" stroke-width="0.5" stroke-miterlimit="10" stroke-linecap="round" stroke-linejoin="round"/>
<path d="M11.4922 101.484V103.673" stroke="#231F20" stroke-width="0.5" stroke-miterlimit="10" stroke-linecap="round" stroke-linejoin="round"/>
<path d="M14.6592 102.004L13.7375 103.675" stroke="#231F20" stroke-width="0.5" stroke-miterlimit="10" stroke-linecap="round" stroke-linejoin="round"/>
<path d="M16.8486 103.504L15.6965 105.002" stroke="#231F20" stroke-width="0.5" stroke-miterlimit="10" stroke-linecap="round" stroke-linejoin="round"/>
<path d="M18.9219 105.461L17.4241 106.325" stroke="#231F20" stroke-width="0.5" stroke-miterlimit="10" stroke-linecap="round" stroke-linejoin="round"/>
<path d="M20.3623 107.707H18.6917" stroke="#231F20" stroke-width="0.5" stroke-miterlimit="10" stroke-linecap="round" stroke-linejoin="round"/>
<path d="M21.2842 110.07H19.556" stroke="#231F20" stroke-width="0.5" stroke-miterlimit="10" stroke-linecap="round" stroke-linejoin="round"/>
<path d="M21.5723 112.602L19.556 112.199" stroke="#231F20" stroke-width="0.5" stroke-miterlimit="10" stroke-linecap="round" stroke-linejoin="round"/>
<path d="M21.6895 115.426H20.0188" stroke="#231F20" stroke-width="0.5" stroke-miterlimit="10" stroke-linecap="round" stroke-linejoin="round"/>
<path d="M105.62 177.932V158.518C105.62 158.518 108.616 145.499 114.722 142.907L116.911 139.047" stroke="#231F20" stroke-width="0.5" stroke-miterlimit="10" stroke-linecap="round" stroke-linejoin="round"/>
<path d="M107.984 177.93V158.573C107.984 158.573 113.226 143.25 116.971 143.02" stroke="#231F20" stroke-width="0.5" stroke-miterlimit="10" stroke-linecap="round" stroke-linejoin="round"/>
<path d="M115.069 177.932V158.518C115.069 158.518 118.123 145.268 123.595 142.907C124.229 142.619 124.69 142.503 124.978 141.87L126.303 139.047" stroke="#231F20" stroke-width="0.5" stroke-miterlimit="10" stroke-linecap="round" stroke-linejoin="round"/>
<path d="M117.431 177.931V158.575C117.431 158.575 118.065 154.024 119.793 150.28C121.637 146.247 124.575 143.021 126.303 142.676" stroke="#231F20" stroke-width="0.5" stroke-miterlimit="10" stroke-linecap="round" stroke-linejoin="round"/>
<path d="M78.0276 191.296C77.0732 191.296 76.2994 190.523 76.2994 189.568C76.2994 188.614 77.0732 187.84 78.0276 187.84C78.9821 187.84 79.7559 188.614 79.7559 189.568C79.7559 190.523 78.9821 191.296 78.0276 191.296Z" stroke="#231F20" stroke-width="0.5" stroke-miterlimit="10" stroke-linecap="round" stroke-linejoin="round"/>
<path d="M90.9319 191.238C90.0411 191.238 89.3189 190.516 89.3189 189.625C89.3189 188.734 90.0411 188.012 90.9319 188.012C91.8227 188.012 92.5449 188.734 92.5449 189.625C92.5449 190.516 91.8227 191.238 90.9319 191.238Z" stroke="#231F20" stroke-width="0.5" stroke-miterlimit="10" stroke-linecap="round" stroke-linejoin="round"/>
<path d="M84.3635 188.817L85.6318 188.645" stroke="#231F20" stroke-width="0.5" stroke-miterlimit="10" stroke-linecap="round" stroke-linejoin="round"/>
<path d="M82.5213 185.477L86.957 185.534" stroke="#231F20" stroke-width="0.5" stroke-miterlimit="10" stroke-linecap="round" stroke-linejoin="round"/>
<path d="M82.7508 191.294L87.3018 191.121" stroke="#231F20" stroke-width="0.5" stroke-miterlimit="10" stroke-linecap="round" stroke-linejoin="round"/>
<path d="M82.8093 186.457L86.8994 186.572" stroke="#231F20" stroke-width="0.5" stroke-miterlimit="10" stroke-linecap="round" stroke-linejoin="round"/>
<path d="M83.0398 190.315L87.1299 190.258" stroke="#231F20" stroke-width="0.5" stroke-miterlimit="10" stroke-linecap="round" stroke-linejoin="round"/>
<path d="M60.7461 36.7344L59.4211 59.0284" stroke="#231F20" stroke-width="0.5" stroke-miterlimit="10" stroke-linecap="round" stroke-linejoin="round"/>
<path d="M73.5918 29.5352C73.5918 29.5352 69.0984 65.4821 68.7528 83.1675" stroke="#231F20" stroke-width="0.5" stroke-miterlimit="10" stroke-linecap="round" stroke-linejoin="round"/>
<path d="M77.5674 29.5356C77.5674 29.5356 75.0903 28.5563 73.5925 47.9123C72.0947 67.2683 70.7697 83.2255 70.7697 83.2255" stroke="#231F20" stroke-width="0.5" stroke-miterlimit="10" stroke-linecap="round" stroke-linejoin="round"/>
<path d="M82.8662 30.0537C82.8662 30.0537 81.3684 28.2103 80.0435 40.3078C78.7185 52.4053 76.7598 82.9371 76.7598 82.9371V86.6816" stroke="#231F20" stroke-width="0.5" stroke-miterlimit="10" stroke-linecap="round" stroke-linejoin="round"/>
<path d="M85.1133 30.3398C85.1133 30.3398 83.3851 32.2409 82.8666 38.232C82.3481 44.1656 79.4678 83.1081 79.4678 83.1081L79.1797 86.8525" stroke="#231F20" stroke-width="0.5" stroke-miterlimit="10" stroke-linecap="round" stroke-linejoin="round"/>
<path d="M93.2354 31.3789C93.2354 31.3789 91.0463 35.7571 89.8365 51.599C88.6268 67.441 87.9931 84.1471 87.9931 84.1471L87.3018 86.221" stroke="#231F20" stroke-width="0.5" stroke-miterlimit="10" stroke-linecap="round" stroke-linejoin="round"/>
<path d="M96.1162 31.7227C96.1162 31.7227 94.7336 35.1791 92.8326 53.7286C90.874 72.2781 90.3555 84.5485 90.3555 84.5485" stroke="#231F20" stroke-width="0.5" stroke-miterlimit="10" stroke-linecap="round" stroke-linejoin="round"/>
<path d="M101.128 32.4141C101.128 32.4141 97.4987 55.5722 96.9226 70.6077C96.3465 85.6431 96.0585 84.8366 96.0585 84.8366L96.3465 85.6431" stroke="#231F20" stroke-width="0.5" stroke-miterlimit="10" stroke-linecap="round" stroke-linejoin="round"/>
<path d="M103.145 32.7617C101.532 40.4811 101.071 48.3733 100.495 56.2079C99.8033 65.9435 99.112 75.6791 98.4783 85.4147" stroke="#231F20" stroke-width="0.5" stroke-miterlimit="10" stroke-linecap="round" stroke-linejoin="round"/>
<path d="M20.0179 117.328H21.8613" stroke="#231F20" stroke-width="0.5" stroke-miterlimit="10" stroke-linecap="round" stroke-linejoin="round"/>
<path d="M20.305 119.805H22.0908" stroke="#231F20" stroke-width="0.5" stroke-miterlimit="10" stroke-linecap="round" stroke-linejoin="round"/>
<path d="M20.1322 122.223H22.0908" stroke="#231F20" stroke-width="0.5" stroke-miterlimit="10" stroke-linecap="round" stroke-linejoin="round"/>
<path d="M20.1332 124.184H22.1494" stroke="#231F20" stroke-width="0.5" stroke-miterlimit="10" stroke-linecap="round" stroke-linejoin="round"/>
<path d="M20.1313 126.199H22.3779" stroke="#231F20" stroke-width="0.5" stroke-miterlimit="10" stroke-linecap="round" stroke-linejoin="round"/>
<path d="M20.1322 128.332H22.0908" stroke="#231F20" stroke-width="0.5" stroke-miterlimit="10" stroke-linecap="round" stroke-linejoin="round"/>
<path d="M20.1313 130.461H22.3779" stroke="#231F20" stroke-width="0.5" stroke-miterlimit="10" stroke-linecap="round" stroke-linejoin="round"/>
<path d="M20.0179 132.133H22.1494" stroke="#231F20" stroke-width="0.5" stroke-miterlimit="10" stroke-linecap="round" stroke-linejoin="round"/>
<path d="M19.9603 134.034L22.1494 133.746" stroke="#231F20" stroke-width="0.5" stroke-miterlimit="10" stroke-linecap="round" stroke-linejoin="round"/>
<path d="M20.017 135.531H22.0908" stroke="#231F20" stroke-width="0.5" stroke-miterlimit="10" stroke-linecap="round" stroke-linejoin="round"/>
<path d="M19.9612 138.124L21.6895 137.836" stroke="#231F20" stroke-width="0.5" stroke-miterlimit="10" stroke-linecap="round" stroke-linejoin="round"/>
<path d="M58.9589 65.8253L61.2632 65.0188C60.4567 60.8135 64.0859 32.8164 64.0859 32.8164" stroke="#231F20" stroke-width="0.5" stroke-miterlimit="10" stroke-linecap="round" stroke-linejoin="round"/>
<path d="M57.8657 62.8885L60.5156 61.6211" stroke="#231F20" stroke-width="0.5" stroke-miterlimit="10" stroke-linecap="round" stroke-linejoin="round"/>
<path d="M57.1166 59.7186L59.3057 58.5664" stroke="#231F20" stroke-width="0.5" stroke-miterlimit="10" stroke-linecap="round" stroke-linejoin="round"/>
<path d="M56.2524 56.6112L58.5566 55.5742" stroke="#231F20" stroke-width="0.5" stroke-miterlimit="10" stroke-linecap="round" stroke-linejoin="round"/>
<path d="M55.3891 52.3485L57.9814 51.7148" stroke="#231F20" stroke-width="0.5" stroke-miterlimit="10" stroke-linecap="round" stroke-linejoin="round"/>
<path d="M54.8697 48.4286L57.9229 47.9102" stroke="#231F20" stroke-width="0.5" stroke-miterlimit="10" stroke-linecap="round" stroke-linejoin="round"/>
<path d="M54.9283 44.457C55.2163 44.457 57.9814 44.457 57.9814 44.457" stroke="#231F20" stroke-width="0.5" stroke-miterlimit="10" stroke-linecap="round" stroke-linejoin="round"/>
<path d="M55.734 39.3867L58.96 40.9421" stroke="#231F20" stroke-width="0.5" stroke-miterlimit="10" stroke-linecap="round" stroke-linejoin="round"/>
<path d="M57.4048 34.8359L60.3428 37.5435" stroke="#231F20" stroke-width="0.5" stroke-miterlimit="10" stroke-linecap="round" stroke-linejoin="round"/>
<path d="M60.226 31.0898C60.5716 31.2051 62.3574 34.4311 62.3574 34.4311" stroke="#231F20" stroke-width="0.5" stroke-miterlimit="10" stroke-linecap="round" stroke-linejoin="round"/>
<path d="M63.5686 28.8438L64.9512 32.185" stroke="#231F20" stroke-width="0.5" stroke-miterlimit="10" stroke-linecap="round" stroke-linejoin="round"/>
<path d="M67.0255 27.6328L67.832 30.5132" stroke="#231F20" stroke-width="0.5" stroke-miterlimit="10" stroke-linecap="round" stroke-linejoin="round"/>
<path d="M70.7696 27.0586L71 29.5357" stroke="#231F20" stroke-width="0.5" stroke-miterlimit="10" stroke-linecap="round" stroke-linejoin="round"/>
<path d="M75.0889 27.0586L74.4552 29.4781" stroke="#231F20" stroke-width="0.5" stroke-miterlimit="10" stroke-linecap="round" stroke-linejoin="round"/>
<path d="M79.4111 27.4609L78.4318 29.4772" stroke="#231F20" stroke-width="0.5" stroke-miterlimit="10" stroke-linecap="round" stroke-linejoin="round"/>
<path d="M82.8662 27.8633L81.9445 29.9947" stroke="#231F20" stroke-width="0.5" stroke-miterlimit="10" stroke-linecap="round" stroke-linejoin="round"/>
<path d="M86.6689 28.2656L85.8048 30.5123" stroke="#231F20" stroke-width="0.5" stroke-miterlimit="10" stroke-linecap="round" stroke-linejoin="round"/>
<path d="M90.7012 28.7852L89.7218 30.9166" stroke="#231F20" stroke-width="0.5" stroke-miterlimit="10" stroke-linecap="round" stroke-linejoin="round"/>
<path d="M94.1582 29.2461L93.1789 31.0895" stroke="#231F20" stroke-width="0.5" stroke-miterlimit="10" stroke-linecap="round" stroke-linejoin="round"/>
<path d="M97.4424 29.9961L96.9239 31.7243" stroke="#231F20" stroke-width="0.5" stroke-miterlimit="10" stroke-linecap="round" stroke-linejoin="round"/>
<path d="M100.841 30.3398L100.38 32.1833" stroke="#231F20" stroke-width="0.5" stroke-miterlimit="10" stroke-linecap="round" stroke-linejoin="round"/>
<path d="M104.47 30.8594L103.663 32.7604" stroke="#231F20" stroke-width="0.5" stroke-miterlimit="10" stroke-linecap="round" stroke-linejoin="round"/>
<path d="M112.188 33.9727C112.188 33.9727 110.345 34.6639 110.345 45.2061C110.345 55.7482 108.098 82.5932 108.098 82.5932" stroke="#231F20" stroke-width="0.5" stroke-miterlimit="10" stroke-linecap="round" stroke-linejoin="round"/>
<path d="M114.551 34.2579C114.551 34.2579 113.226 34.0851 112.592 46.0098C111.958 57.9345 110.173 81.8991 110.173 81.8991" stroke="#231F20" stroke-width="0.5" stroke-miterlimit="10" stroke-linecap="round" stroke-linejoin="round"/>
<path d="M119.506 34.8359L115.646 80.7489" stroke="#231F20" stroke-width="0.5" stroke-miterlimit="10" stroke-linecap="round" stroke-linejoin="round"/>
<path d="M121.638 35.1211L117.836 80.4004L117.087 83.3383" stroke="#231F20" stroke-width="0.5" stroke-miterlimit="10" stroke-linecap="round" stroke-linejoin="round"/>
<path d="M107.234 30.8594L106.313 33.1637" stroke="#231F20" stroke-width="0.5" stroke-miterlimit="10" stroke-linecap="round" stroke-linejoin="round"/>
<path d="M110.635 31.4922L109.598 33.6237" stroke="#231F20" stroke-width="0.5" stroke-miterlimit="10" stroke-linecap="round" stroke-linejoin="round"/>
<path d="M114.204 31.9531L113.398 33.9694" stroke="#231F20" stroke-width="0.5" stroke-miterlimit="10" stroke-linecap="round" stroke-linejoin="round"/>
<path d="M117.546 32.1836L116.682 34.8335" stroke="#231F20" stroke-width="0.5" stroke-miterlimit="10" stroke-linecap="round" stroke-linejoin="round"/>
<path d="M121.291 32.7031L120.254 34.9498" stroke="#231F20" stroke-width="0.5" stroke-miterlimit="10" stroke-linecap="round" stroke-linejoin="round"/>
<path d="M124.862 33.1641L123.768 35.3531" stroke="#231F20" stroke-width="0.5" stroke-miterlimit="10" stroke-linecap="round" stroke-linejoin="round"/>
<path d="M53.2568 96.418C53.2568 96.418 58.0382 101.084 58.3839 108.4C58.3839 108.688 64.5479 105.059 64.5479 105.059" stroke="#231F20" stroke-width="0.5" stroke-miterlimit="10" stroke-linecap="round" stroke-linejoin="round"/>
<path d="M16.1562 173.955C11.2596 174.473 13.7943 157.364 14.0248 154.138C14.8889 142.155 15.9258 130.173 16.2715 118.133C16.2715 117.96 16.2715 117.788 16.2715 117.615C16.7323 102.234 8.89773 106.266 8.89773 106.266C8.89773 106.266 4.98043 107.476 5.32608 112.085" stroke="#231F20" stroke-width="0.5" stroke-miterlimit="10" stroke-linecap="round" stroke-linejoin="round"/>
<path d="M47.1869 183.928L42.9824 183.848L43.0043 182.696L47.2088 182.776L47.1869 183.928Z" stroke="#231F20" stroke-width="0.5" stroke-miterlimit="10" stroke-linecap="round" stroke-linejoin="round"/>
<path d="M126.516 185.076L122.312 184.996L122.331 183.959L126.536 184.039L126.516 185.076Z" stroke="#231F20" stroke-width="0.5" stroke-miterlimit="10" stroke-linecap="round" stroke-linejoin="round"/>
</svg>
