<svg width="283" height="486" viewBox="0 0 283 486" fill="none" xmlns="http://www.w3.org/2000/svg">
<path d="M316.857 228.392C316.909 228.671 316.97 228.951 317.03 229.23C318.086 234.073 319.421 238.901 320.802 243.676C322.182 248.451 323.925 253.377 326.694 257.647C330.02 262.784 334.697 266.881 339.314 270.901C339.043 270.683 334.999 273.165 334.509 273.451L331.333 275.118L324.083 278.89L314.857 283.741C305.051 296.565 270.349 305.369 260.286 304.863C250.222 304.358 228.104 311.177 228.104 311.177C219.301 315.983 214.525 310.423 214.525 310.423C201.701 313.69 197.673 305.64 197.673 305.64C191.14 293.072 203.708 288.041 203.708 288.041C206.427 285.49 209.722 283.632 213.312 282.625C216.902 281.617 220.683 281.49 224.332 282.255C235.391 273.202 236.651 261.638 236.651 261.638C223.42 257.285 196.888 236.856 196.888 236.856C187.081 233.65 176.52 222.802 176.52 222.802C163.039 217.431 157.472 211.675 157.472 211.675C153.987 211.487 148.706 209.224 148.706 209.224C138.424 204.984 137.67 197.252 139.367 193.193C141.064 189.135 152.757 191.639 152.757 191.639C157.57 189.61 158.415 190.274 162.473 190.176C166.532 190.078 178.972 195.743 178.972 195.743C192.083 195.366 193.591 201.114 193.591 201.114C204.055 208.846 219.24 208.281 219.24 208.281" stroke="#231F20" stroke-width="0.754376" stroke-miterlimit="10"/>
<path d="M173.668 193.517C179.213 186.079 180.857 187.664 183.12 185.649C185.383 183.635 190.664 179.177 190.664 179.177C200.848 172.765 209.772 181.561 209.772 181.561C209.652 179.803 213.921 176.785 213.921 176.785C220.839 170.879 245.356 184.457 245.356 184.457C247.748 178.543 254.914 180.557 254.914 180.557L271.254 187.475C273.4 187.77 275.412 188.688 277.04 190.115L283.452 190.236C289.864 190.364 310.361 200.548 313.378 202.057C315.269 202.979 317.316 203.534 319.413 203.694C318.757 203.694 317.46 207.466 317.309 207.873C315.37 213.26 315.355 218.819 316.162 224.334C316.162 224.334 314.525 227.231 317.06 229.23" stroke="#231F20" stroke-width="0.754376" stroke-miterlimit="10"/>
<path d="M253.875 186.841L245.328 184.457" stroke="#231F20" stroke-width="0.754376" stroke-miterlimit="10"/>
<path d="M236.651 191.496C236.651 191.496 233.415 192.755 222.77 188.478C212.126 184.201 209.742 181.561 209.742 181.561" stroke="#231F20" stroke-width="0.754376" stroke-miterlimit="10"/>
<path d="M209.743 291.828C209.743 291.828 206.016 299.372 211.252 305.656L216.487 311.947" stroke="#231F20" stroke-width="0.754376" stroke-miterlimit="10"/>
<path d="M199.438 306.1C199.438 306.1 195.41 299.936 197.862 296.73C200.313 293.524 206.228 300.223 206.228 300.223L212.761 309.404C212.761 309.404 202.871 311.184 199.438 306.1Z" stroke="#231F20" stroke-width="0.754376" stroke-miterlimit="10"/>
<path d="M213.961 294.943C213.961 294.943 221.188 302.359 224.394 310.031C224.728 310.609 225.251 311.054 225.875 311.292C226.498 311.53 227.185 311.545 227.819 311.336" stroke="#231F20" stroke-width="0.754376" stroke-miterlimit="10"/>
<path d="M180.392 226.747C179.399 228.348 177.96 229.625 176.251 230.421C174.543 231.217 172.639 231.497 170.774 231.228C163.984 230.473 163.984 222.266 163.984 222.266L177.276 223.578" stroke="#231F20" stroke-width="0.754376" stroke-miterlimit="10"/>
<path d="M193.939 235.709C193.939 235.709 192.355 241.125 197.07 243.389C200.047 244.723 203.408 244.924 206.522 243.954" stroke="#231F20" stroke-width="0.754376" stroke-miterlimit="10"/>
<path d="M225.199 256.139L235.851 265.206" stroke="#231F20" stroke-width="0.754376" stroke-miterlimit="10"/>
<path d="M140.324 192.075C140.324 192.075 139.087 196.338 144.647 196.526C150.207 196.715 145.786 193.147 152.756 191.668" stroke="#231F20" stroke-width="0.754376" stroke-miterlimit="10"/>
<path d="M185.484 189.639C185.484 189.639 188.592 196.051 194.816 199.257C194.816 199.257 197.147 199.476 196.121 202.81" stroke="#231F20" stroke-width="0.754376" stroke-miterlimit="10"/>
<path d="M224.332 282.269C224.332 282.269 243.38 273.73 244.889 265.205L236.651 261.652" stroke="#231F20" stroke-width="0.754376" stroke-miterlimit="10"/>
<path d="M168.231 191.67C167.503 188.493 166.365 185.424 164.843 182.542C161.049 175.951 155.797 170.314 149.491 166.063C143.185 161.812 135.99 159.058 128.457 158.013C120.924 156.967 113.251 157.658 106.025 160.031C98.7996 162.404 92.212 166.398 86.7658 171.706C81.3195 177.015 77.1587 183.498 74.6012 190.661C72.0438 197.823 71.1574 205.476 72.0097 213.033C72.8619 220.591 75.4304 227.854 79.5189 234.267C83.6073 240.68 89.1075 246.073 95.5993 250.036L145.758 251.099C146.625 250.617 147.478 250.111 148.315 249.591C154.451 245.631 159.642 240.372 163.523 234.186L165.477 231.124L166.556 229.215" stroke="#231F20" stroke-width="0.754376" stroke-miterlimit="10"/>
<path d="M154.356 191.036C151.42 185.284 147.004 180.419 141.563 176.94C136.122 173.462 129.852 171.496 123.399 171.246C116.945 170.996 110.542 172.47 104.848 175.517C99.1536 178.563 94.3741 183.072 91.0014 188.58C87.6288 194.087 85.7848 200.394 85.6592 206.851C85.5337 213.307 87.1311 219.681 90.2871 225.315C93.4432 230.95 98.0437 235.641 103.615 238.907C109.187 242.173 115.528 243.894 121.986 243.895C136.229 243.895 148.857 235.016 154.816 223.09L155.427 221.309" stroke="#231F20" stroke-width="0.754376" stroke-miterlimit="10"/>
<path d="M146.217 190.795C142.747 185.363 137.603 181.208 131.563 178.957C125.523 176.707 118.915 176.484 112.736 178.322C106.558 180.16 101.146 183.959 97.3181 189.144C93.49 194.33 91.4537 200.621 91.5171 207.066C91.5804 213.512 93.7399 219.761 97.6693 224.871C101.599 229.98 107.084 233.672 113.297 235.388C119.51 237.104 126.113 236.751 132.108 234.383C138.103 232.014 143.164 227.759 146.526 222.26L147.492 220.404" stroke="#231F20" stroke-width="0.754376" stroke-miterlimit="10"/>
<path d="M120.622 275.223H118.864C107.128 275.223 97.6133 284.737 97.6133 296.473V322.25C97.6133 333.987 107.128 343.501 118.864 343.501H120.622C132.358 343.501 141.873 333.987 141.873 322.25V296.473C141.873 284.737 132.358 275.223 120.622 275.223Z" stroke="#231F20" stroke-width="0.754376" stroke-miterlimit="10"/>
<path d="M127.305 265.529H112.173C100.436 265.529 90.9219 275.044 90.9219 286.78V331.047C90.9219 342.783 100.436 352.298 112.173 352.298H127.305C139.042 352.298 148.556 342.783 148.556 331.047V286.78C148.556 275.044 139.042 265.529 127.305 265.529Z" stroke="#231F20" stroke-width="0.754376" stroke-miterlimit="10"/>
<path d="M113.184 260.506H123.994C131.673 260.506 139.037 263.556 144.467 268.986C149.896 274.416 152.947 281.78 152.947 289.459V327.872C152.945 331.673 152.194 335.436 150.738 338.947C149.281 342.458 147.147 345.648 144.458 348.335C141.769 351.021 138.577 353.152 135.064 354.604C131.552 356.057 127.787 356.804 123.986 356.802H115.492C107.813 356.802 100.449 353.752 95.0192 348.322C89.5895 342.892 86.5391 335.528 86.5391 327.849V287.113C86.5471 280.052 89.358 273.283 94.3542 268.294C99.3504 263.305 106.123 260.504 113.184 260.506V260.506Z" stroke="#231F20" stroke-width="0.754376" stroke-miterlimit="10"/>
<path d="M145.757 251.128C145.757 251.128 169.188 259.72 169.188 286.886V323.375C169.15 336.2 164.039 348.489 154.97 357.557C145.901 366.626 133.612 371.738 120.787 371.775H118.69C105.866 371.738 93.5775 366.626 84.51 357.557C75.4425 348.488 70.3327 336.199 70.2969 323.375V286.886C70.2969 261.418 95.5986 250.064 95.5986 250.064" stroke="#231F20" stroke-width="0.754376" stroke-miterlimit="10"/>
<path d="M163.982 222.267C163.982 222.267 111.93 216.519 105.895 214.882C99.86 213.245 101.489 210.355 101.489 210.355" stroke="#231F20" stroke-width="0.754376" stroke-miterlimit="10"/>
<path d="M146.219 208.008C146.113 208.008 146.022 207.962 145.917 207.947L144.876 207.804C139.844 207.095 134.699 206.831 129.637 206.333C124.447 205.828 119.265 205.345 114.06 205.058C109.307 204.802 104.328 206.371 101.477 210.339C103.181 208.242 106.342 207.676 108.862 207.374C115.591 206.567 122.833 207.993 129.562 208.679C138.871 209.637 148.15 210.806 157.474 211.697" stroke="#231F20" stroke-width="0.754376" stroke-miterlimit="10"/>
<path d="M160.942 214.549C160.942 214.549 106.393 209.095 103.609 211.237C100.825 213.379 170.1 219.995 170.1 219.995" stroke="#231F20" stroke-width="0.754376" stroke-miterlimit="10"/>
<path d="M119.741 330.172C129.998 330.172 138.313 321.08 138.313 309.864C138.313 298.649 129.998 289.557 119.741 289.557C109.483 289.557 101.168 298.649 101.168 309.864C101.168 321.08 109.483 330.172 119.741 330.172Z" stroke="#231F20" stroke-width="0.754376" stroke-miterlimit="10"/>
<path d="M131.884 305.158H128.708C128.393 304.689 127.967 304.306 127.468 304.041C126.97 303.775 126.414 303.637 125.849 303.637C125.284 303.637 124.728 303.775 124.23 304.041C123.731 304.306 123.306 304.689 122.99 305.158C122.674 304.689 122.249 304.306 121.75 304.041C121.252 303.775 120.696 303.637 120.131 303.637C119.566 303.637 119.01 303.775 118.512 304.041C118.013 304.306 117.587 304.689 117.272 305.158H116.797C116.482 304.686 116.057 304.3 115.557 304.032C115.058 303.765 114.5 303.625 113.934 303.625C113.367 303.625 112.809 303.765 112.31 304.032C111.811 304.3 111.385 304.686 111.071 305.158H107.586C106.501 305.168 105.465 305.607 104.703 306.378C103.941 307.15 103.516 308.192 103.52 309.277C103.524 310.36 103.956 311.398 104.722 312.163C105.487 312.929 106.525 313.361 107.608 313.365H111.705C112.318 313.94 113.127 314.259 113.968 314.259C114.808 314.259 115.617 313.94 116.231 313.365H117.89C118.504 313.94 119.313 314.259 120.154 314.259C120.994 314.259 121.803 313.94 122.417 313.365H123.586C124.199 313.941 125.008 314.262 125.849 314.262C126.69 314.262 127.499 313.941 128.112 313.365H131.884C132.965 313.357 133.998 312.924 134.761 312.158C135.524 311.393 135.954 310.357 135.958 309.277C135.962 308.191 135.535 307.148 134.772 306.376C134.008 305.604 132.97 305.166 131.884 305.158V305.158Z" stroke="#231F20" stroke-width="0.754376" stroke-miterlimit="10"/>
<path d="M132.217 307.299H107.27C106.191 307.299 105.316 308.174 105.316 309.253V309.26C105.316 310.339 106.191 311.214 107.27 311.214H132.217C133.297 311.214 134.171 310.339 134.171 309.26V309.253C134.171 308.174 133.297 307.299 132.217 307.299Z" stroke="#231F20" stroke-width="0.754376" stroke-miterlimit="10"/>
<path d="M105.367 309.865H134.109" stroke="#231F20" stroke-width="0.754376" stroke-miterlimit="10"/>
<path d="M31.2812 21.248V439.927" stroke="#231F20" stroke-width="0.754376" stroke-miterlimit="10"/>
<path d="M14.8789 21.248V439.927" stroke="#231F20" stroke-width="0.754376" stroke-miterlimit="10"/>
<path d="M1 21.248V439.927" stroke="#231F20" stroke-width="0.754376" stroke-miterlimit="10"/>
<path d="M350.712 105.104H127.727V0.736328" stroke="#231F20" stroke-width="0.754376" stroke-miterlimit="10"/>
<path d="M336.728 119.128H113.742V14.7598" stroke="#231F20" stroke-width="0.754376" stroke-miterlimit="10"/>
<path d="M350.712 419.633H127.727V485.528" stroke="#231F20" stroke-width="0.754376" stroke-miterlimit="10"/>
<path d="M336.728 405.609H113.742V471.504" stroke="#231F20" stroke-width="0.754376" stroke-miterlimit="10"/>
<path d="M110.43 205.324C112.104 202.518 115.499 200.911 118.637 200.451C122.153 199.93 126.181 201.039 128.444 203.823C129.051 204.574 129.559 205.4 129.953 206.282" stroke="#231F20" stroke-width="0.754376" stroke-miterlimit="10"/>
<path d="M134.225 219.008C132.327 221.108 129.941 222.709 127.278 223.669C124.615 224.629 121.756 224.918 118.955 224.511C116.153 224.104 113.495 223.013 111.215 221.335C108.936 219.656 107.104 217.443 105.883 214.889" stroke="#231F20" stroke-width="0.754376" stroke-miterlimit="10"/>
<path d="M104.191 207.435C104.191 202.863 106.007 198.479 109.24 195.246C112.473 192.013 116.857 190.197 121.429 190.197C126.001 190.197 130.385 192.013 133.618 195.246C136.85 198.479 138.666 202.863 138.666 207.435" stroke="#231F20" stroke-width="0.754376" stroke-miterlimit="10"/>
</svg>
