<svg width="20" height="19" viewBox="0 0 20 19" fill="none" xmlns="http://www.w3.org/2000/svg">
<path fill-rule="evenodd" clip-rule="evenodd" d="M14 0C12.4633 0 11.0615 0.577707 10 1.52779C8.93849 0.577707 7.53671 0 6 0C2.68629 0 0 2.68629 0 6C0 10.8365 4.97858 15.511 9.57832 18.2383C9.81121 18.3828 10.1924 18.3809 10.4246 18.2363C14.994 15.5 20 10.8362 20 6C20 2.68629 17.3137 0 14 0ZM10.0057 16.1333C5.06067 12.9005 2 9.12421 2 6C2 3.79086 3.79086 2 6 2C6.99954 2 7.93695 2.36538 8.66617 3.01806L9.62845 3.87932C9.83645 4.06548 10.1663 4.06298 10.3715 3.87932L11.3338 3.01806C12.0631 2.36538 13.0005 2 14 2C16.2091 2 18 3.79086 18 6C18 9.20454 14.9507 12.9005 10.0057 16.1333Z" fill="black"/>
</svg>
