<svg width="1700" height="483" viewBox="0 0 1700 483" fill="none" xmlns="http://www.w3.org/2000/svg">
<path d="M-2.76953 393.732C-2.76953 393.732 371.894 393.732 373.21 393.732C404.921 393.732 403.963 312.96 395.707 312.84L-2.76953 303.746V393.732V393.732Z" stroke="#231F20" stroke-width="0.5" stroke-miterlimit="10"/>
<path d="M397.263 309.969L330.252 242.001C330.252 242.001 304.644 218.906 285.977 217.351C267.309 215.795 86.3794 220.462 71.5413 220.103C56.7031 219.744 0.46176 215.316 -2.76913 215.316C-6.00002 215.316 -2.76913 300.636 -2.76913 300.636L397.263 309.969Z" stroke="#231F20" stroke-width="0.5" stroke-miterlimit="10" stroke-linecap="round" stroke-linejoin="round"/>
<path d="M325.106 237.69C321.277 230.391 320.2 20.3829 320.2 20.3829C320.2 20.3829 307.157 2.43355 288.489 1.47625C269.822 0.518948 -6 1.47625 -6 1.47625L-2.76911 214.954" stroke="#231F20" stroke-width="0.5" stroke-miterlimit="10"/>
<path d="M201.854 215.196C201.854 215.196 203.529 150.099 196.469 142.321C196.469 142.321 206.042 135.022 205.085 129.278C204.128 123.534 199.102 118.628 198.743 112.884C198.384 107.021 201.974 16.9151 196.469 11.65C196.469 11.65 191.683 6.98312 196.469 1" stroke="#231F20" stroke-width="0.5" stroke-miterlimit="10"/>
<path d="M205.324 131.312C229.017 137.655 322.115 132.15 322.115 132.15" stroke="#231F20" stroke-width="0.5" stroke-miterlimit="10"/>
<path d="M-2.76953 133.109C-2.76953 133.109 57.0617 137.177 67.1134 131.434C67.1134 131.434 162.963 137.177 201.853 131.434" stroke="#231F20" stroke-width="0.5" stroke-miterlimit="10"/>
<path d="M57.541 217.109C66.6354 210.887 61.0112 158.953 59.4556 147.705C57.9 136.577 65.5584 142.32 69.0286 137.534C72.4988 132.747 64.9601 132.388 59.4556 127.841C54.0708 123.414 61.6095 17.991 63.8831 10.3326C66.1567 2.67423 59.4556 1.23828 59.4556 1.23828" stroke="#231F20" stroke-width="0.5" stroke-miterlimit="10"/>
<path d="M321.158 81.1719H350.595C350.595 81.1719 448 137.413 459.249 140.285C469.42 144.473 463.916 142.439 472.531 145.311C479.591 150.456 475.044 188.629 475.044 188.629L463.916 370.277C463.916 370.277 461.044 387.628 449.436 389.183C437.829 390.739 407.435 389.183 407.435 389.183C407.435 389.183 397.982 390.858 392.477 379.491" stroke="#231F20" stroke-width="0.5" stroke-miterlimit="10"/>
<path d="M400.016 324.45L410.666 154.888C410.666 154.888 411.264 143.759 423.23 142.323C435.196 140.887 471.813 145.076 471.813 145.076" stroke="#231F20" stroke-width="0.5" stroke-miterlimit="10"/>
<path d="M321.277 90.8672L412.34 149.262" stroke="#231F20" stroke-width="0.5" stroke-miterlimit="10"/>
<path d="M71.5402 222.855C71.5402 222.855 57.6594 223.214 65.4374 230.753C73.2155 238.292 79.9166 239.848 77.0447 247.506C74.1728 255.164 71.5402 259.353 77.7627 262.703C81.4722 263.9 89.1306 265.455 86.6177 274.071C84.1048 282.687 87.575 287.593 86.9767 293.337C86.3784 299.08 83.3868 302.551 83.3868 302.551" stroke="#231F20" stroke-width="0.5" stroke-miterlimit="10"/>
<path d="M-0.734375 244.033C-0.734375 244.033 65.6783 242.119 72.8581 255.76" stroke="#231F20" stroke-width="0.5" stroke-miterlimit="10"/>
<path d="M86.9785 255.283C86.9785 255.283 139.391 223.812 209.154 260.07" stroke="#231F20" stroke-width="0.5" stroke-miterlimit="10"/>
<path d="M228.061 263.539C228.061 263.539 292.439 238.051 342.578 256.957" stroke="#231F20" stroke-width="0.5" stroke-miterlimit="10"/>
<path d="M212.145 229.316C212.145 229.316 232.128 246.308 222.675 261.147C225.906 262.822 244.453 229.795 291.002 233.983" stroke="#231F20" stroke-width="0.5" stroke-miterlimit="10"/>
<path d="M224.828 268.566C224.828 268.566 249 293.217 238.35 298.362C227.82 303.508 238.948 306.021 238.948 306.021" stroke="#231F20" stroke-width="0.5" stroke-miterlimit="10"/>
<path d="M219.564 260.31C219.564 260.31 223.393 245.711 214.299 242.48" stroke="#231F20" stroke-width="0.5" stroke-miterlimit="10"/>
<path d="M81.4727 251.812C81.4727 251.812 91.1653 240.325 84.4642 233.504" stroke="#231F20" stroke-width="0.5" stroke-miterlimit="10"/>
<path d="M-4.29883 403.688H430.691V451.999H456.912V385.625" stroke="#231F20" stroke-width="0.5" stroke-miterlimit="10"/>
<path d="M219.445 262.584C215.257 260.669 209.513 261.387 213.342 263.182C217.172 264.977 226.146 268.926 224.591 265.456C223.394 262.584 219.445 262.584 219.445 262.584Z" stroke="#231F20" stroke-width="0.5" stroke-miterlimit="10"/>
<path d="M80.2773 254.446C76.2088 255.164 72.9779 258.874 76.6874 258.275C80.3969 257.677 89.0126 256.002 85.6621 253.967C82.6705 252.173 80.2773 254.446 80.2773 254.446Z" stroke="#231F20" stroke-width="0.5" stroke-miterlimit="10"/>
<path d="M198.383 142.919C198.383 142.919 207.358 137.295 206.281 133.227" stroke="#231F20" stroke-width="0.5" stroke-miterlimit="10"/>
<path d="M70.8242 134.426C70.8242 134.426 74.773 140.648 64.123 141.486" stroke="#231F20" stroke-width="0.5" stroke-miterlimit="10"/>
<path d="M306.678 14.7612C237.633 13.9236 198.384 9.49609 198.384 9.49609C198.384 9.49609 78.8408 21.223 65.0796 10.3337C65.0796 10.3337 8.00062 17.5135 -2.88867 12.9663" stroke="#231F20" stroke-width="0.5" stroke-miterlimit="10"/>
<path d="M63.7639 131.311C63.7639 131.311 48.2077 128.559 51.7976 114.559" stroke="#231F20" stroke-width="0.5" stroke-miterlimit="10"/>
<path d="M205.324 129.28C205.324 129.28 212.624 130.117 201.734 112.168" stroke="#231F20" stroke-width="0.5" stroke-miterlimit="10"/>
<path d="M207.717 131.312C207.717 131.312 212.025 127.244 215.854 131.312" stroke="#231F20" stroke-width="0.5" stroke-miterlimit="10"/>
<path d="M207.717 134.426C207.717 134.426 214.179 137.896 211.785 142.922" stroke="#231F20" stroke-width="0.5" stroke-miterlimit="10"/>
<path d="M71.541 134.424C71.541 134.424 78.7208 132.629 78.4814 138.014" stroke="#231F20" stroke-width="0.5" stroke-miterlimit="10"/>
<path d="M-9.76965 452L1700 452M1700 483.479L-9.76966 483.479" stroke="#231F20" stroke-width="0.5" stroke-miterlimit="10"/>
<path d="M-9.99998 463L1700 463" stroke="#231F20" stroke-width="0.5" stroke-miterlimit="10"/>
<path d="M-9.99998 456L1700 456" stroke="#231F20" stroke-width="0.5" stroke-miterlimit="10"/>
<rect x="1111.25" y="208.34" width="541.5" height="203.792" stroke="black" stroke-width="0.5"/>
<rect x="1123.76" y="218.762" width="516.485" height="181.904" stroke="black" stroke-width="0.5"/>
<rect x="1130.01" y="222.934" width="230.892" height="173.565" stroke="black" stroke-width="0.5"/>
<rect x="1367.66" y="222.934" width="267.373" height="173.565" stroke="black" stroke-width="0.5"/>
<rect x="1327.01" y="286.512" width="17.2192" height="31.8115" stroke="black" stroke-width="0.5"/>
<rect x="1372.87" y="300.062" width="256.95" height="9.92308" stroke="black" stroke-width="0.5"/>
<path fill-rule="evenodd" clip-rule="evenodd" d="M1617.3 412.383H1602.19V451.731H1617.3V412.383ZM1601.93 412.125V451.991H1617.56V412.125H1601.93Z" fill="black" stroke="black" stroke-width="0.2"/>
<path fill-rule="evenodd" clip-rule="evenodd" d="M1159.73 412.382H1145.66V451.99H1159.73V412.382ZM1145.4 412.113V452.251H1159.99V412.113H1145.4Z" fill="black" stroke="black" stroke-width="0.2"/>
<path d="M524.163 9.02051H571.378C571.378 9.02051 572.17 8.8013 572.271 9.79617C572.39 10.791 572.271 93.2812 572.271 93.2812C572.271 93.2812 572.153 94.276 571.597 94.276C571.041 94.276 523.708 94.276 523.708 94.276C523.708 94.276 523 94.158 523 93.5004C523 92.8427 523 9.61069 523 9.61069C523 9.61069 523.202 9.00365 524.163 9.02051Z" stroke="#231F20" stroke-width="0.5" stroke-miterlimit="10"/>
<path d="M530.167 15.2243H565.392C565.392 15.2243 565.982 15.0389 566.066 15.882C566.151 16.742 566.066 87.2093 566.066 87.2093C566.066 87.2093 565.982 88.0693 565.56 88.0693C565.139 88.0693 529.829 88.0693 529.829 88.0693C529.829 88.0693 529.307 87.9681 529.307 87.4116C529.307 86.8552 529.307 15.7471 529.307 15.7471C529.307 15.7471 529.442 15.2075 530.167 15.2243Z" stroke="#231F20" stroke-width="0.5" stroke-miterlimit="10"/>
<path d="M547.669 52.1211L547.5 87.9028" stroke="#231F20" stroke-width="0.5" stroke-miterlimit="10"/>
<path d="M529.307 52.1211H566.1" stroke="#231F20" stroke-width="0.5" stroke-miterlimit="10"/>
</svg>
