<svg width="16" height="16" viewBox="0 0 16 16" fill="none" xmlns="http://www.w3.org/2000/svg">
<path fill-rule="evenodd" clip-rule="evenodd" d="M0 8C0 7.44772 0.397969 7 0.888889 7H15.1111C15.602 7 16 7.44772 16 8C16 8.55228 15.602 9 15.1111 9H0.888889C0.397969 9 0 8.55228 0 8Z" fill="#CBA576"/>
<path fill-rule="evenodd" clip-rule="evenodd" d="M8 16C7.44772 16 7 15.602 7 15.1111L7 0.888888C7 0.397969 7.44771 -1.95703e-08 8 -4.37114e-08C8.55228 -6.78526e-08 9 0.397969 9 0.888888L9 15.1111C9 15.602 8.55229 16 8 16Z" fill="#CBA576"/>
</svg>
