<svg width="111" height="111" viewBox="0 0 111 111" fill="none" xmlns="http://www.w3.org/2000/svg">
<path d="M111 55.5C111 86.1518 86.1518 111 55.5 111C24.8482 111 0 86.1518 0 55.5C0 24.8482 24.8482 0 55.5 0C86.1518 0 111 24.8482 111 55.5Z" fill="#868686"/>
<path d="M58.7097 13.9714L58.7287 13.6964C59.3071 13.6679 59.364 13.6016 59.4114 12.9378L59.4873 11.7525L57.4296 11.6102L57.3537 12.7955C57.3063 13.4878 57.3537 13.5447 57.9037 13.6395L57.8847 13.9145L55.7417 13.7722L55.7607 13.4972C56.4244 13.4783 56.4718 13.4214 56.5098 12.7387L56.6805 10.1879C56.7184 9.59997 56.6899 9.51463 56.0072 9.4198L56.0357 9.1543L58.1882 9.29653L58.1692 9.56204C57.6287 9.58101 57.5623 9.65687 57.5244 10.2448L57.458 11.212L59.5157 11.3447L59.5821 10.368C59.62 9.7991 59.5916 9.70428 58.9847 9.61894L59.0037 9.35343L61.1372 9.49566L61.1182 9.76117C60.5208 9.77065 60.4639 9.83703 60.426 10.4344L60.2553 12.9852C60.2079 13.6584 60.2553 13.7343 60.8812 13.8386L60.8622 14.1136L58.7097 13.9714Z" fill="white"/>
<path d="M64.5874 9.97924C65.877 10.2353 66.6356 11.468 66.3796 12.7481C66.0477 14.4265 64.6633 14.9765 63.6297 14.7679C62.2073 14.4834 61.572 13.1653 61.7996 12.0274C62.141 10.3111 63.6297 9.78959 64.5779 9.97924H64.5874ZM64.3788 10.3016C63.753 10.1784 63.0607 10.7094 62.8332 11.8852C62.5677 13.1938 62.947 14.2748 63.8099 14.4549C64.4547 14.5877 65.0805 14.2179 65.365 12.786C65.602 11.5818 65.3081 10.4913 64.3978 10.3111L64.3788 10.3016Z" fill="white"/>
<path d="M69.9649 13.735C70.6666 14.0574 71.1123 14.5694 70.8942 15.2427C70.5528 16.2857 69.2917 16.1719 68.2296 15.8306L66.2478 15.1858L66.3331 14.9203C67.0064 15.0815 67.0917 15.0341 67.3004 14.3987L68.0779 11.9997C68.277 11.3928 68.2581 11.2885 67.6512 11.042L67.7271 10.7954L70.0977 11.5635C70.9795 11.848 71.5011 12.3316 71.2735 13.0238C71.0649 13.6781 70.4201 13.7255 69.9649 13.7065V13.735ZM68.0779 14.6548C67.8788 15.2522 68.0495 15.4134 68.5046 15.5651C69.121 15.7642 69.7658 15.6314 69.9839 14.9772C70.202 14.3229 69.7563 13.8867 69.0167 13.6496L68.4572 13.4695L68.0779 14.6548ZM69.083 13.3083C69.7089 13.5074 70.2115 13.4315 70.3916 12.8721C70.5718 12.3221 70.2209 11.9617 69.633 11.7626C69.1115 11.5919 69.0546 11.6299 68.9693 11.8764L68.571 13.1376L69.083 13.3083Z" fill="white"/>
<path d="M77.5504 15.015C76.9056 14.778 76.8297 14.8254 76.6116 15.29L75.4358 17.7555C75.1798 18.2959 75.1893 18.3718 75.7772 18.7132L75.6634 18.9597L73.7195 18.0304L73.8333 17.7839C74.3643 17.9641 74.4591 17.9261 74.7057 17.4141L75.3505 16.0486C75.4643 15.8021 75.635 15.4417 76.0143 14.7495H75.9953L72.7428 17.1201C72.6385 17.196 72.5626 17.2813 72.5152 17.3762L72.4868 17.4425L70.998 16.7408L71.1118 16.4943C71.7377 16.7219 71.8135 16.6555 72.0885 16.0771L73.179 13.7728C73.4445 13.2134 73.435 13.128 72.8661 12.7867L72.9799 12.5591L74.9522 13.4978L74.8384 13.7254C74.2221 13.5073 74.1652 13.5453 73.9092 14.1047L73.3876 15.1952C73.2359 15.5176 73.0083 15.9917 72.6195 16.7124L72.6385 16.7219L75.9574 14.3133C76.0617 14.247 76.1091 14.1901 76.1375 14.1426L76.166 14.0763L77.6452 14.778L77.5504 15.015Z" fill="white"/>
<path d="M78.5821 20.827L78.7338 20.5994C79.2458 20.8554 79.3312 20.827 79.701 20.2675L80.3553 19.2718L78.6295 18.1434L77.9752 19.1391C77.5959 19.7175 77.6148 19.7934 78.0416 20.1442L77.8898 20.3718L76.0977 19.2055L76.2494 18.9779C76.8373 19.2813 76.9037 19.2529 77.2735 18.6839L78.6674 16.5409C78.9898 16.0478 79.0088 15.9625 78.4588 15.5452L78.601 15.3271L80.4027 16.503L80.2699 16.7211C79.7863 16.465 79.701 16.5125 79.3786 16.9961L78.8476 17.8021L80.5734 18.9305L81.1044 18.115C81.4173 17.6314 81.4363 17.546 80.9527 17.1667L81.0949 16.9486L82.8776 18.115L82.7354 18.3331C82.2138 18.0581 82.1285 18.0771 81.7966 18.5796L80.4027 20.7226C80.0329 21.2916 80.0423 21.3769 80.5259 21.7657L80.3742 21.9933L78.5821 20.827Z" fill="white"/>
<path d="M83.9063 24.9902C83.6029 24.7342 83.3848 24.4592 83.4891 23.8429C83.5934 23.3118 83.7072 22.8282 83.7925 22.5058C83.8969 22.0791 83.7831 21.8516 83.4322 21.5576L82.5693 22.5627C82.2185 22.9705 82.1995 23.0843 82.6357 23.5489L82.4555 23.7575L80.7866 22.3257L80.9668 22.1171C81.4883 22.4869 81.5926 22.4489 81.9435 22.0317L83.7072 19.974C84.0675 19.5568 84.077 19.4809 83.6503 19.0258L83.821 18.8267L85.4235 20.1921L85.2528 20.3913C84.7787 20.0689 84.6934 20.0783 84.333 20.5051L83.6408 21.3111C83.8779 21.5007 84.096 21.6145 84.4563 21.605C84.7882 21.5671 85.3192 21.3964 85.708 21.2921C86.0589 21.1973 86.6278 21.074 86.9597 21.3585C87.1967 21.5576 87.2157 21.7947 87.0924 21.9464C86.9692 22.0886 86.808 22.1171 86.5993 21.9369L86.4666 21.8231C86.1726 21.5766 85.8123 21.6524 85.3382 21.7852C84.9968 21.8895 84.6365 21.9274 84.3899 21.9084L84.3615 21.9369C84.4658 22.0981 84.5986 22.411 84.5606 22.7998C84.5322 23.0938 84.4753 23.3687 84.371 23.9661C84.2667 24.6489 84.3046 24.9144 84.608 25.2178L84.4279 25.4264L83.9063 24.9902Z" fill="white"/>
<path d="M86.8246 28.214C86.7203 28.1002 86.6349 27.8726 86.6349 27.7114C86.6444 27.5123 86.7108 27.37 86.8151 27.1994C86.3125 27.0856 85.6772 26.9813 85.4686 26.7442C84.9566 26.1942 85.0609 25.3882 85.5445 24.9331C85.9143 24.5822 86.3505 24.5632 86.891 24.8572C87.4789 25.1796 88.2185 25.5494 88.5125 25.5874L88.6452 25.4641C89.2142 24.9331 89.2805 24.3926 88.9202 23.9943C88.778 23.8426 88.6168 23.7857 88.4556 23.7857C88.2564 23.7762 88.0289 23.8805 87.7349 24.0228C87.5737 24.0986 87.4504 24.0702 87.3461 23.9659C87.2134 23.8236 87.1849 23.4917 87.3651 23.3305C87.4789 23.2262 87.6496 23.2357 87.8961 23.2831C88.2564 23.359 89.0055 23.5866 89.5176 23.9374C89.7357 24.1745 89.8779 24.4684 89.8969 24.7719C89.9159 25.2649 89.6788 25.6253 89.2616 26.0141L87.8202 27.3511C87.4694 27.6735 87.4884 27.92 87.6116 28.0528C87.697 28.1476 87.8487 28.214 87.9625 28.2424L87.8297 28.5079L86.8246 28.214ZM88.247 25.8244C88.0099 25.7391 87.4978 25.521 87.2703 25.4261C86.853 25.2555 86.5496 25.2175 86.2651 25.483C85.8574 25.8623 85.9617 26.3459 86.1893 26.583C86.3789 26.7821 86.7582 26.9339 87.0522 26.9433L88.247 25.8244Z" fill="white"/>
<path d="M92.9884 37.3269L93.235 37.2036C93.5479 37.6872 93.6332 37.7062 94.2401 37.4027L95.3021 36.8717L94.3823 35.0226L93.3203 35.5537C92.704 35.8571 92.6755 35.933 92.8652 36.4545L92.6186 36.5778L91.6609 34.6528L91.9074 34.5296C92.2583 35.089 92.3341 35.0985 92.941 34.7951L95.2358 33.6572C95.7668 33.3917 95.8237 33.3348 95.5582 32.69L95.7952 32.5762L96.7529 34.5106L96.5159 34.6244C96.2314 34.1597 96.1271 34.1503 95.6056 34.4158L94.7427 34.8425L95.6625 36.6915L96.5349 36.2554C97.0469 35.9993 97.1133 35.9329 96.8857 35.3545L97.1228 35.2407L98.071 37.1562L97.8339 37.27C97.521 36.7579 97.4452 36.739 96.8952 37.0139L94.6004 38.1518C93.9936 38.4553 93.9556 38.5311 94.1832 39.119L93.9367 39.2423L92.9884 37.3269Z" fill="white"/>
<path d="M99.3789 40.3611C99.8056 41.6033 99.1229 42.8739 97.8902 43.3006C96.2687 43.8601 95.1023 42.9403 94.761 41.9446C94.2869 40.5697 95.1023 39.3654 96.2118 38.9861C97.8712 38.4172 99.066 39.4413 99.3789 40.3516V40.3611ZM99.0091 40.3516C98.8005 39.7447 97.9945 39.4223 96.8566 39.8111C95.5954 40.2473 94.8463 41.1102 95.1308 41.9446C95.3489 42.5705 95.9747 42.9213 97.3592 42.4472C98.5255 42.0489 99.3125 41.2429 99.0091 40.3516Z" fill="white"/>
<path d="M98.8519 46.933C98.9183 47.7011 98.7097 48.3459 98.0174 48.4881C96.9459 48.7157 96.4054 47.5778 96.1684 46.4778L95.7322 44.4486L95.9977 44.3917C96.1968 45.0555 96.2822 45.1029 96.9364 44.9607L99.4019 44.4296C100.028 44.2969 100.104 44.221 100.009 43.5857L100.255 43.5288L100.786 45.9658C100.985 46.8666 100.824 47.5683 100.113 47.72C99.4398 47.8623 99.0795 47.3407 98.8709 46.933H98.8519ZM97.1071 45.7572C96.4908 45.8899 96.4339 46.1175 96.5382 46.5822C96.6709 47.2175 97.1166 47.7011 97.7899 47.5588C98.4631 47.4166 98.6148 46.8192 98.4536 46.0606L98.3304 45.4917L97.1071 45.7572ZM98.7855 45.9563C98.9277 46.6011 99.2502 46.9994 99.8191 46.8761C100.388 46.7528 100.521 46.2692 100.398 45.6624C100.284 45.1219 100.217 45.0934 99.9613 45.1503L98.6717 45.4253L98.7855 45.9563Z" fill="white"/>
<path d="M101.574 54.1012C101.45 53.428 101.375 53.3806 100.862 53.428L98.141 53.665C97.5531 53.7125 97.4867 53.7599 97.4867 54.4426L97.2118 54.4616L97.0221 52.3185L97.2971 52.2901C97.4109 52.8496 97.4867 52.9065 98.0557 52.8496L99.5539 52.7168C99.8289 52.6978 100.218 52.6599 101.005 52.6315V52.6125L97.3066 51.0005C97.1833 50.9436 97.079 50.9246 96.9747 50.9341L96.8988 50.9436L96.7566 49.3126L97.0316 49.2936C97.1549 49.9479 97.2497 49.9764 97.885 49.9195L100.426 49.7014C101.043 49.6445 101.109 49.5971 101.119 48.9428L101.375 48.9238L101.564 51.1048L101.308 51.1238C101.185 50.4884 101.119 50.46 100.512 50.5074L99.3074 50.6117C98.947 50.6401 98.4255 50.6876 97.61 50.716V50.735L101.365 52.3849C101.479 52.4418 101.555 52.4513 101.602 52.4513L101.678 52.4418L101.82 54.0728L101.574 54.1012Z" fill="white"/>
<path d="M97.0741 57.9514L97.3491 57.9609C97.387 58.5393 97.4534 58.5962 98.1266 58.6246L99.3119 58.6815L99.4067 56.6239L98.2309 56.567C97.5387 56.5385 97.4818 56.5859 97.3965 57.1359L97.1215 57.1264L97.2258 54.9834L97.5008 54.9929C97.5292 55.6566 97.5956 55.7041 98.2689 55.7325L100.829 55.8558C101.427 55.8842 101.502 55.8558 101.588 55.173L101.853 55.1825L101.749 57.335L101.483 57.3256C101.455 56.7851 101.37 56.7282 100.791 56.6997L99.824 56.6523L99.7291 58.71L100.706 58.7574C101.275 58.7859 101.37 58.7574 101.445 58.141L101.711 58.1505L101.607 60.2841L101.341 60.2746C101.313 59.6772 101.256 59.6203 100.649 59.5919L98.0887 59.4686C97.406 59.4401 97.3396 59.4875 97.2542 60.1039L96.9792 60.0944L97.0741 57.9514Z" fill="white"/>
<path d="M96.1875 64.6272C96.2539 64.2384 96.3772 63.9065 96.9651 63.6884C97.4676 63.5083 97.9513 63.366 98.2737 63.2712C98.7004 63.1385 98.8331 62.9298 98.909 62.4747L97.6004 62.2471C97.0694 62.1523 96.9651 62.1902 96.7944 62.8066L96.5194 62.7592L96.8987 60.5972L97.1737 60.6446C97.1263 61.2799 97.2116 61.3558 97.7426 61.4506L100.407 61.9247C100.948 62.0195 101.024 61.9911 101.194 61.3937L101.46 61.4411L101.09 63.5083L100.824 63.4609C100.862 62.8824 100.805 62.8255 100.265 62.7212L99.2219 62.5316C99.184 62.835 99.1934 63.0721 99.3831 63.3755C99.5822 63.6505 99.9995 64.0108 100.293 64.2953C100.549 64.5419 100.948 64.9686 100.872 65.4142C100.815 65.7177 100.635 65.8599 100.436 65.822C100.246 65.7841 100.142 65.6608 100.189 65.3858L100.218 65.2151C100.284 64.8358 100.028 64.5703 99.677 64.2289C99.421 63.9919 99.2029 63.6979 99.0891 63.4798L99.0512 63.4703C98.9659 63.641 98.7573 63.916 98.4064 64.0772C98.1314 64.2005 97.8754 64.2953 97.3064 64.5039C96.6711 64.76 96.453 64.9212 96.3487 65.3479L96.0737 65.3005L96.1875 64.6272Z" fill="white"/>
<path d="M94.8879 68.7611C94.9354 68.6094 95.0871 68.4198 95.2293 68.3439C95.4 68.2491 95.5612 68.2301 95.7603 68.2396C95.6086 67.7465 95.381 67.1491 95.4664 66.8457C95.6845 66.125 96.4336 65.8026 97.0784 66.0018C97.562 66.144 97.799 66.5043 97.8275 67.1207C97.8465 67.7939 97.9033 68.6189 98.0171 68.8939L98.1878 68.9413C98.9274 69.1594 99.4395 68.9508 99.5912 68.4293C99.6481 68.2396 99.6197 68.0594 99.5343 67.9267C99.4395 67.756 99.2404 67.6043 98.9654 67.4241C98.8137 67.3198 98.7757 67.1965 98.8231 67.0543C98.88 66.8741 99.1455 66.675 99.3826 66.7414C99.5343 66.7888 99.6102 66.9405 99.6955 67.1776C99.8093 67.5284 99.9895 68.287 99.9516 68.9034C99.8567 69.2068 99.6766 69.4913 99.43 69.6525C99.0223 69.918 98.5766 69.899 98.0456 69.7378L96.1681 69.1689C95.7129 69.0361 95.5043 69.1689 95.4474 69.3396C95.4095 69.4628 95.4284 69.624 95.4569 69.7378L95.1629 69.7568L94.8879 68.7611ZM97.6568 68.7801C97.6094 68.5336 97.543 67.9836 97.5051 67.737C97.4387 67.2819 97.3249 67.0069 96.9456 66.8931C96.4146 66.7319 96.0543 67.0638 95.9595 67.3862C95.8836 67.6517 95.95 68.0594 96.0827 68.306L97.6568 68.7801Z" fill="white"/>
<path d="M90.1143 78.6699L90.3418 78.8217C90.0763 79.3337 90.1143 79.419 90.6737 79.7889L91.6694 80.4432L92.7978 78.7174L91.8021 78.0631C91.2237 77.6838 91.1478 77.7027 90.797 78.1294L90.5694 77.9777L91.7452 76.1855L91.9728 76.3373C91.6599 76.9252 91.6978 76.9916 92.2668 77.3614L94.4098 78.7648C94.9029 79.0872 94.9882 79.1061 95.4055 78.5562L95.6236 78.6984L94.4383 80.5L94.2202 80.3578C94.4762 79.8742 94.4288 79.7889 93.9452 79.4665L93.1392 78.9354L92.0107 80.6613L92.8262 81.2018C93.3098 81.5147 93.3952 81.5336 93.7745 81.05L93.9926 81.1923L92.8168 82.975L92.5987 82.8422C92.8831 82.3112 92.8547 82.2353 92.3521 81.9034L90.2091 80.5C89.6401 80.1302 89.5548 80.1397 89.1565 80.6233L88.929 80.4716L90.1143 78.6699Z" fill="white"/>
<path d="M90.7086 85.7345C89.8457 86.7302 88.4044 86.7871 87.4182 85.9337C86.1191 84.8242 86.3277 83.345 87.0104 82.5484C87.9587 81.4485 89.4095 81.5433 90.3008 82.3019C91.6189 83.4398 91.3439 84.9854 90.7086 85.7345ZM90.5284 85.3932C90.9457 84.9096 90.8129 84.0467 89.9026 83.2596C88.888 82.3872 87.769 82.1786 87.1906 82.8519C86.7639 83.3545 86.7734 84.0751 87.8828 85.0234C88.8216 85.8389 89.9121 86.1138 90.5284 85.3932Z" fill="white"/>
<path d="M84.7845 88.5802C84.1587 89.0258 83.4949 89.1681 83.0113 88.6465C82.2717 87.8405 82.9829 86.7975 83.8078 86.0389L85.344 84.626L85.5336 84.8251C85.0595 85.3277 85.069 85.432 85.5147 85.9251L87.2215 87.7836C87.6577 88.2483 87.7525 88.2862 88.2646 87.8784L88.4352 88.0681L86.5957 89.756C85.9129 90.3818 85.2397 90.5999 84.7371 90.0594C84.2725 89.5474 84.538 88.9689 84.7845 88.5896V88.5802ZM84.9173 86.4845C84.4906 86.0199 84.263 86.0863 83.9121 86.4087C83.438 86.8449 83.2389 87.4802 83.7035 87.9828C84.1682 88.4948 84.7655 88.3241 85.3345 87.7931L85.7612 87.3949L84.9173 86.4845ZM85.6 88.0207C85.1164 88.4664 84.9362 88.95 85.3345 89.3767C85.7328 89.8034 86.2164 89.6801 86.6715 89.2629C87.0793 88.8931 87.0698 88.8172 86.8896 88.6276L85.9983 87.6604L85.6 88.0207Z" fill="white"/>
<path d="M79.9689 94.5634C80.4904 94.1177 80.4904 94.0229 80.1965 93.6151L78.6224 91.3868C78.281 90.9032 78.2052 90.8747 77.6173 91.2161L77.4561 90.9885L79.2198 89.7463L79.381 89.9739C78.9543 90.3532 78.9448 90.448 79.2767 90.9127L80.1491 92.1454C80.3103 92.3729 80.5378 92.6953 80.9551 93.3591L80.974 93.3496L80.4904 89.348C80.4715 89.2153 80.443 89.111 80.3766 89.0256L80.3292 88.9688L81.6663 88.0205L81.8275 88.2481C81.3249 88.6843 81.3438 88.7791 81.7137 89.3006L83.1834 91.3773C83.5438 91.8799 83.6196 91.9178 84.1886 91.5859L84.3403 91.7945L82.5576 93.0557L82.4059 92.8471C82.899 92.4204 82.8895 92.354 82.5292 91.8514L81.8275 90.8652C81.6188 90.5713 81.3154 90.1446 80.8792 89.4524L80.8602 89.4618L81.3344 93.5393C81.3439 93.6626 81.3723 93.7384 81.4007 93.7763L81.4482 93.8332L80.1111 94.7815L79.9689 94.5634Z" fill="white"/>
<path d="M74.3737 92.6379L74.497 92.8844C74.0229 93.2068 74.0039 93.3016 74.3169 93.8895L74.8668 94.9421L76.6969 93.9844L76.147 92.9318C75.8246 92.3154 75.7582 92.2965 75.2366 92.4956L75.1134 92.2491L77.0193 91.2534L77.1426 91.5C76.5926 91.8603 76.5832 91.9362 76.8961 92.543L78.0814 94.8093C78.3564 95.3403 78.4227 95.3878 79.0581 95.1128L79.1813 95.3498L77.2659 96.3455L77.1426 96.1084C77.5978 95.8145 77.6073 95.7102 77.3323 95.1886L76.8866 94.3352L75.0565 95.2929L75.5116 96.1558C75.7771 96.6679 75.8435 96.7248 76.4125 96.4877L76.5357 96.7248L74.6393 97.7109L74.516 97.4739C75.0185 97.1515 75.0375 97.0661 74.753 96.5351L73.5677 94.2688C73.2548 93.662 73.179 93.6335 72.591 93.8706L72.4678 93.624L74.3737 92.6379Z" fill="white"/>
<path d="M68.1547 95.2359C68.5246 95.1032 68.8754 95.0368 69.359 95.435C69.7668 95.7859 70.1366 96.1273 70.3736 96.3548C70.696 96.6583 70.9521 96.6678 71.3788 96.5066L70.9236 95.2644C70.734 94.7523 70.6581 94.6859 70.0323 94.8471L69.9374 94.5911L72.0046 93.8325L72.0994 94.0885C71.521 94.3635 71.5115 94.4773 71.6917 94.9894L72.621 97.5307C72.8106 98.0522 72.877 98.0901 73.4744 97.9384L73.5692 98.185L71.5969 98.9056L71.502 98.6591C72.0141 98.403 72.0425 98.3272 71.8529 97.8057L71.4831 96.81C71.1986 96.9238 70.9995 97.0565 70.8288 97.3789C70.696 97.6919 70.5917 98.2324 70.4969 98.6211C70.4116 98.972 70.2409 99.5315 69.8236 99.6832C69.5392 99.7875 69.3211 99.7021 69.2547 99.5125C69.1883 99.3323 69.2452 99.1806 69.5012 99.0763L69.6624 99.0194C70.0228 98.8866 70.1271 98.5358 70.2504 98.0617C70.3262 97.7203 70.4685 97.3884 70.6012 97.1703L70.5822 97.1324C70.3926 97.1419 70.0512 97.104 69.7288 96.8764C69.4823 96.7057 69.2737 96.5255 68.7995 96.1462C68.259 95.7195 68.0125 95.6247 67.5858 95.7385L67.491 95.4825L68.1547 95.2359Z" fill="white"/>
<path d="M63.9156 96.1943C64.0673 96.1563 64.3139 96.1943 64.4466 96.2701C64.6173 96.3744 64.7121 96.4977 64.807 96.6779C65.1578 96.2986 65.5561 95.796 65.869 95.7201C66.5991 95.54 67.2534 96.0331 67.4146 96.6779C67.5379 97.1709 67.3388 97.5597 66.8172 97.8916C66.2483 98.2519 65.5561 98.7071 65.3759 98.9536L65.4138 99.1243C65.594 99.8829 66.0397 100.205 66.5612 100.082C66.7603 100.035 66.8931 99.9208 66.969 99.7786C67.0733 99.6079 67.1017 99.3614 67.1207 99.0295C67.1302 98.8493 67.2155 98.7545 67.3672 98.7166C67.5569 98.6692 67.8603 98.8019 67.9172 99.039C67.9551 99.1907 67.8603 99.3329 67.6991 99.5321C67.462 99.8071 66.8931 100.348 66.3336 100.623C66.0207 100.698 65.6888 100.679 65.4233 100.547C64.9871 100.319 64.788 99.9398 64.6552 99.3898L64.1906 97.4744C64.0768 97.0097 63.8587 96.896 63.6786 96.9434C63.5553 96.9718 63.4225 97.0666 63.3372 97.1615L63.1665 96.9149L63.9156 96.1943ZM65.3001 98.6028C65.4897 98.4416 65.9354 98.1002 66.125 97.9485C66.4854 97.664 66.6655 97.427 66.5707 97.0382C66.4379 96.4977 65.9638 96.3555 65.6509 96.4313C65.3854 96.4977 65.063 96.7537 64.9113 97.0003L65.3001 98.6028Z" fill="white"/>
<path d="M52.975 97.0757L52.9655 97.3507C52.3871 97.3886 52.3302 97.455 52.3018 98.1283L52.2449 99.3136L54.3026 99.4179L54.3594 98.2326C54.3974 97.5403 54.3405 97.4834 53.8 97.3981L53.8095 97.1231L55.9525 97.2274L55.943 97.5024C55.2792 97.5309 55.2318 97.5972 55.2034 98.2705L55.0706 100.831C55.0422 101.428 55.0706 101.504 55.7534 101.589L55.7439 101.855L53.5914 101.751L53.6009 101.485C54.1413 101.457 54.1982 101.381 54.2362 100.793L54.2836 99.8256L52.2259 99.7213L52.1785 100.698C52.15 101.267 52.1785 101.352 52.7854 101.438L52.7759 101.703L50.6423 101.599L50.6518 101.333C51.2492 101.314 51.3061 101.248 51.3346 100.641L51.4673 98.0808C51.5052 97.3981 51.4483 97.3317 50.832 97.2369L50.8415 96.9619L52.975 97.0757Z" fill="white"/>
<path d="M47.1994 101.163C45.9003 100.926 45.1322 99.7121 45.3598 98.4225C45.6632 96.7441 47.0382 96.1657 48.0718 96.3553C49.5036 96.6113 50.1579 97.9199 49.9493 99.0673C49.6364 100.793 48.1571 101.334 47.2089 101.163H47.1994ZM47.3985 100.85C48.0244 100.964 48.7071 100.414 48.9157 99.238C49.1528 97.9199 48.764 96.8484 47.8916 96.6967C47.2468 96.5829 46.6305 96.9527 46.3649 98.394C46.1468 99.6078 46.4598 100.689 47.3796 100.85H47.3985Z" fill="white"/>
<path d="M41.6994 97.4931C40.9977 97.1802 40.533 96.6776 40.7511 95.9949C41.0735 94.9518 42.3347 95.0372 43.4157 95.369L45.407 95.9854L45.3216 96.2509C44.6484 96.0992 44.5631 96.1466 44.3639 96.7914L43.6243 99.2094C43.4346 99.8163 43.4631 99.9206 44.07 100.158L43.9941 100.404L41.6045 99.6741C40.7227 99.3991 40.1917 98.925 40.4003 98.2233C40.5994 97.5595 41.2442 97.5026 41.6994 97.5216V97.4931ZM42.5907 97.9103C41.9649 97.7207 41.4528 97.806 41.2821 98.3655C41.1114 98.925 41.4718 99.2758 42.0597 99.456C42.5907 99.6172 42.6476 99.5792 42.7235 99.3232L43.1122 98.0621L42.5907 97.9103ZM43.5769 96.5449C43.757 95.9475 43.5864 95.7863 43.1312 95.644C42.5148 95.4544 41.87 95.5966 41.6614 96.2604C41.4623 96.9242 41.908 97.3509 42.6476 97.5784L43.2071 97.7491L43.5769 96.5449Z" fill="white"/>
<path d="M34.1415 96.3643C34.7863 96.5823 34.8621 96.5444 35.0707 96.0798L36.1991 93.5954C36.4457 93.0549 36.4362 92.979 35.8388 92.6377L35.9526 92.3911L37.9155 93.2825L37.8017 93.5385C37.2612 93.3678 37.1758 93.4057 36.9388 93.9273L36.3129 95.3022C36.1991 95.5488 36.0379 95.9091 35.6776 96.6108L35.6966 96.6203L38.9111 94.1833C39.0154 94.1074 39.0913 94.0221 39.1387 93.9273L39.1671 93.8609L40.6559 94.5341L40.5421 94.7807C39.9163 94.5626 39.8404 94.6385 39.5749 95.2169L38.5223 97.5401C38.2663 98.0995 38.2758 98.1849 38.8447 98.5168L38.7404 98.7538L36.7491 97.853L36.8534 97.6159C37.4698 97.8245 37.5267 97.7771 37.7827 97.2177L38.2853 96.1177C38.437 95.7858 38.6456 95.3117 39.0249 94.591L39.0059 94.5816L35.7345 97.047C35.6302 97.1134 35.5828 97.1797 35.5638 97.2271L35.5354 97.2935L34.0466 96.6203L34.1415 96.3643Z" fill="white"/>
<path d="M32.99 90.561L32.8383 90.7981C32.3168 90.5421 32.2314 90.58 31.8806 91.1489L31.2453 92.1541L32.99 93.254L33.6254 92.2489C33.9952 91.661 33.9762 91.5946 33.54 91.2438L33.6822 91.0067L35.4934 92.1541L35.3512 92.3911C34.7632 92.0972 34.6874 92.1256 34.3271 92.7041L32.9616 94.866C32.6487 95.3686 32.6297 95.454 33.1892 95.8617L33.0469 96.0893L31.2263 94.9419L31.3685 94.7143C31.8521 94.9609 31.947 94.9135 32.2599 94.4204L32.7719 93.6049L31.0272 92.5049L30.5056 93.3299C30.2022 93.8135 30.1832 93.9083 30.6763 94.2781L30.5341 94.5057L28.7324 93.3678L28.8747 93.1402C29.4057 93.4152 29.4815 93.3868 29.8039 92.8747L31.1694 90.7127C31.5297 90.1343 31.5203 90.0585 31.0272 89.6697L31.1694 89.4326L32.99 90.561Z" fill="white"/>
<path d="M27.6088 86.4838C27.9123 86.7304 28.1399 87.0054 28.045 87.6312C27.9502 88.1622 27.8459 88.6458 27.77 88.9682C27.6752 89.4044 27.7985 89.6225 28.1493 89.9165L28.9933 88.8924C29.3346 88.4751 29.3536 88.3708 28.9079 87.9157L29.0691 87.6976L30.7665 89.101L30.5958 89.3096C30.0648 88.9493 29.9605 88.9967 29.6191 89.4139L27.8933 91.5C27.5425 91.9267 27.533 92.0026 27.9692 92.4388L27.7985 92.6474L26.177 91.3104L26.3477 91.1018C26.8313 91.4147 26.9071 91.4052 27.2675 90.9785L27.9407 90.163C27.6942 89.9734 27.4856 89.8691 27.1252 89.888C26.7934 89.926 26.2623 90.1156 25.883 90.2294C25.5417 90.3337 24.9727 90.4665 24.6219 90.182C24.3848 89.9829 24.3564 89.7553 24.4796 89.6036C24.6029 89.4518 24.7641 89.4234 24.9727 89.6036L25.1055 89.7079C25.3994 89.9544 25.7598 89.8691 26.2339 89.7268C26.5658 89.6225 26.9261 89.5656 27.1821 89.5846L27.2106 89.5467C27.1063 89.3949 26.9735 89.0725 27.002 88.6838C27.0304 88.3898 27.0778 88.1148 27.1727 87.5174C27.2675 86.8347 27.2295 86.5692 26.9071 86.2657L27.0873 86.0571L27.6088 86.4838Z" fill="white"/>
<path d="M24.6343 83.3168C24.7481 83.4306 24.8334 83.6581 24.8334 83.8193C24.8334 84.0185 24.767 84.1607 24.6627 84.3314C25.1653 84.4357 25.8006 84.5305 26.0187 84.7676C26.5403 85.3081 26.4549 86.1236 25.9713 86.5882C25.6015 86.9391 25.1748 86.9675 24.6248 86.6925C24.0274 86.3796 23.2878 86.0193 22.9843 85.9813L22.8516 86.1046C22.2921 86.6451 22.2258 87.1856 22.6051 87.5839C22.7473 87.7261 22.9085 87.7925 23.0792 87.783C23.2783 87.783 23.5059 87.6882 23.7998 87.5365C23.961 87.4606 24.0843 87.4796 24.1886 87.5934C24.3214 87.7356 24.3593 88.058 24.1886 88.2287C24.0748 88.3425 23.9041 88.333 23.6576 88.2856C23.2973 88.2192 22.5482 88.0011 22.0266 87.6597C21.8085 87.4322 21.6568 87.1382 21.6284 86.8348C21.5999 86.3417 21.8275 85.9719 22.2352 85.5831L23.6481 84.2176C23.9895 83.8857 23.9705 83.6392 23.8472 83.5064C23.7619 83.4116 23.6102 83.3547 23.4869 83.3168L23.6102 83.0513L24.6343 83.3168ZM23.2593 85.7253C23.4964 85.8012 24.0084 86.0193 24.2455 86.1046C24.6722 86.2658 24.9662 86.3037 25.2506 86.0288C25.6489 85.6495 25.5351 85.1659 25.3075 84.9288C25.1179 84.7297 24.7291 84.5874 24.4446 84.5779L23.2593 85.7253Z" fill="white"/>
<path d="M18.3146 74.2889L18.0681 74.4216C17.7457 73.938 17.6604 73.9285 17.063 74.2414L16.0104 74.7914L16.9587 76.6215L18.0112 76.0716C18.6276 75.7586 18.6465 75.6828 18.4474 75.1612L18.6939 75.038L19.6801 76.9439L19.4336 77.0672C19.0732 76.5078 18.9974 76.5077 18.3905 76.8207L16.1147 77.9965C15.5837 78.2715 15.5363 78.3284 15.8018 78.9732L15.5647 79.0965L14.5691 77.181L14.8061 77.0577C15.1001 77.5129 15.2044 77.5224 15.7165 77.2569L16.5794 76.8112L15.6311 74.9811L14.7587 75.4268C14.2467 75.6923 14.1898 75.7586 14.4268 76.3276L14.1898 76.4509L13.2036 74.5544L13.4407 74.4311C13.7631 74.9337 13.8389 74.9526 14.3794 74.6776L16.6552 73.5018C17.2621 73.1889 17.2905 73.113 17.063 72.5251L17.3095 72.4019L18.3146 74.2889Z" fill="white"/>
<path d="M11.8769 71.3691C11.4312 70.1269 12.095 68.8467 13.3182 68.4011C14.9302 67.8131 16.1155 68.714 16.4759 69.7096C16.969 71.0751 16.1629 72.2888 15.0725 72.6871C13.4225 73.2845 12.2088 72.2794 11.8769 71.3691ZM12.2467 71.3785C12.4648 71.9759 13.2803 72.2888 14.4087 71.8811C15.6699 71.4259 16.4 70.5441 16.0966 69.7191C15.869 69.1028 15.2337 68.7519 13.8587 69.2545C12.7019 69.6717 11.9243 70.4872 12.2467 71.3691V71.3785Z" fill="white"/>
<path d="M12.2924 64.7973C12.2166 64.0292 12.4062 63.3844 13.1079 63.2232C14.17 62.9767 14.7294 64.1051 14.9855 65.205L15.4596 67.2343L15.1941 67.3007C14.9855 66.6369 14.9001 66.599 14.2458 66.7507L11.7804 67.3291C11.164 67.4713 11.0787 67.5472 11.183 68.192L10.9365 68.2489L10.3675 65.8214C10.1589 64.9206 10.3011 64.2189 11.0123 64.0577C11.6856 63.8965 12.0554 64.4275 12.2735 64.8257L12.2924 64.7973ZM12.3778 65.7835C12.2261 65.1387 11.8942 64.7499 11.3252 64.8826C10.7563 65.0154 10.633 65.5085 10.7753 66.1059C10.8985 66.6464 10.9649 66.6748 11.2209 66.6084L12.5011 66.305L12.3778 65.7835ZM14.0562 65.9447C14.6631 65.8024 14.7199 65.5748 14.6156 65.1102C14.4639 64.4749 14.0088 63.9913 13.3355 64.1525C12.6623 64.3137 12.52 64.9111 12.7002 65.6697L12.8329 66.2386L14.0562 65.9447Z" fill="white"/>
<path d="M9.44963 57.6667C9.58238 58.3399 9.65824 58.3778 10.1703 58.3304L12.8823 58.0554C13.4702 57.9985 13.5366 57.9416 13.5271 57.2589L13.8021 57.2305L14.0202 59.3735L13.7452 59.4019C13.6219 58.852 13.546 58.7951 12.9771 58.852L11.4789 59.0037C11.2039 59.0321 10.8151 59.0701 10.0281 59.108V59.127L13.7547 60.6726C13.8779 60.72 13.9822 60.7484 14.096 60.7295L14.1719 60.72L14.3426 62.3415L14.0676 62.3699C13.9348 61.7251 13.84 61.6872 13.2047 61.7536L10.6729 62.0096C10.0565 62.076 9.99013 62.1234 9.99961 62.7872L9.72462 62.8346L9.49704 60.6631L9.75307 60.6347C9.88582 61.27 9.9522 61.2984 10.5591 61.232L11.7633 61.1088C12.1237 61.0709 12.6357 61.014 13.4607 60.976V60.9571L9.67721 59.3735C9.56342 59.3166 9.48756 59.3071 9.44015 59.3166H9.36429L9.1936 57.6856L9.44963 57.6667Z" fill="white"/>
<path d="M13.8814 53.7505L13.6064 53.741C13.559 53.1626 13.4926 53.1057 12.8194 53.0867L11.6341 53.0488L11.5677 55.1065L12.753 55.1444C13.4452 55.1634 13.5021 55.1159 13.578 54.566L13.853 54.5754L13.7866 56.7185L13.5116 56.709C13.4737 56.0452 13.4073 56.0073 12.7246 55.9788L10.1643 55.903C9.56692 55.884 9.49106 55.9125 9.41521 56.6047L9.15918 56.5952L9.22556 54.4427L9.49106 54.4522C9.52899 54.9927 9.61434 55.0496 10.1928 55.0685L11.16 55.097L11.2263 53.0393L10.2497 53.0108C9.68071 52.9919 9.58589 53.0203 9.51951 53.6367L9.254 53.6272L9.32038 51.4937L9.58589 51.5031C9.62382 52.1005 9.68071 52.1574 10.2876 52.1764L12.8478 52.2522C13.5306 52.2712 13.597 52.2238 13.6728 51.598L13.9478 51.6074L13.8814 53.7505Z" fill="white"/>
<path d="M14.664 47.0372C14.5976 47.426 14.4839 47.7579 13.8959 47.9855C13.3934 48.1751 12.9193 48.3269 12.5969 48.4217C12.1796 48.5544 12.0469 48.7725 11.971 49.2277L13.2796 49.4363C13.8106 49.5216 13.9149 49.4837 14.0856 48.8674L14.3606 48.9148L14.0097 51.0862L13.7347 51.0388C13.7727 50.4035 13.6873 50.3276 13.1563 50.2423L10.4823 49.8156C9.9323 49.7303 9.86592 49.7587 9.70472 50.3561L9.43921 50.3182L9.77109 48.2415L10.0366 48.2794C10.0082 48.8579 10.065 48.9148 10.6055 49.0096L11.6581 49.1803C11.696 48.8768 11.6771 48.6398 11.4779 48.3363C11.2788 48.0708 10.8426 47.7105 10.5581 47.4355C10.2926 47.189 9.89437 46.7717 9.96074 46.3261C10.0082 46.0226 10.1978 45.8804 10.3969 45.9088C10.5866 45.9373 10.6909 46.07 10.653 46.3355L10.6245 46.5062C10.5676 46.8855 10.8236 47.151 11.1745 47.4924C11.44 47.7295 11.6581 48.0139 11.7719 48.232L11.8098 48.2415C11.8952 48.0708 12.0943 47.7958 12.4451 47.6252C12.7106 47.4924 12.9762 47.3976 13.5356 47.1795C14.1709 46.914 14.3796 46.7433 14.4839 46.3166L14.7589 46.364L14.664 47.0372Z" fill="white"/>
<path d="M15.8987 42.9125C15.8513 43.0642 15.6996 43.2539 15.5668 43.3392C15.3961 43.434 15.2349 43.453 15.0358 43.453C15.197 43.9366 15.4341 44.534 15.3487 44.8469C15.1401 45.5771 14.4005 45.9089 13.7557 45.7193C13.2626 45.5771 13.0255 45.2262 12.9876 44.6099C12.9592 43.9366 12.8928 43.1116 12.7695 42.8366L12.5988 42.7892C11.8497 42.5806 11.3471 42.7987 11.2049 43.3202C11.148 43.5194 11.1765 43.6901 11.2713 43.8228C11.3661 43.9935 11.5652 44.1357 11.8497 44.3159C12.0014 44.4107 12.0394 44.534 12.0014 44.6762C11.954 44.8564 11.679 45.065 11.4514 44.9986C11.2997 44.9512 11.2239 44.7995 11.129 44.5624C11.0058 44.2211 10.8066 43.453 10.8446 42.8366C10.9299 42.5332 11.1101 42.2487 11.3566 42.078C11.7644 41.8031 12.2006 41.822 12.7411 41.9737L14.6375 42.5048C15.1022 42.6375 15.3013 42.4953 15.3487 42.3151C15.3867 42.1918 15.3582 42.0306 15.3298 41.9168L15.6237 41.8884L15.8987 42.9125ZM13.1204 42.9315C13.1678 43.178 13.2531 43.728 13.291 43.9745C13.3669 44.4297 13.4807 44.7047 13.86 44.809C14.391 44.9607 14.7513 44.6193 14.8462 44.2969C14.922 44.0314 14.8462 43.6237 14.7039 43.3771L13.1204 42.9315Z" fill="white"/>
<path d="M20.4873 32.9178L20.2502 32.766C20.5062 32.2445 20.4683 32.1592 19.8994 31.8083L18.8942 31.173L17.7943 32.9083L18.7994 33.5436C19.3873 33.9134 19.4537 33.8945 19.8045 33.4677L20.0416 33.6195L18.8942 35.4306L18.6572 35.2789C18.9511 34.691 18.9227 34.6151 18.3537 34.2548L16.1917 32.8893C15.6892 32.5764 15.6133 32.5574 15.1961 33.1169L14.9685 32.9747L16.1159 31.154L16.3435 31.2963C16.0969 31.7799 16.1443 31.8747 16.6374 32.1876L17.4529 32.6997L18.5529 30.9549L17.7279 30.4334C17.2443 30.1299 17.1589 30.111 16.7796 30.6041L16.5521 30.4618L17.69 28.6602L17.9175 28.8024C17.6425 29.3334 17.671 29.4093 18.183 29.7317L20.345 31.0971C20.9235 31.4575 20.9993 31.448 21.3881 30.9549L21.6252 31.1066L20.4873 32.9178Z" fill="white"/>
<path d="M19.7867 25.8534C20.6306 24.8388 22.072 24.7629 23.0771 25.5973C24.3952 26.6878 24.215 28.1671 23.5418 28.9826C22.6125 30.1015 21.1522 30.0256 20.2608 29.2765C18.9143 28.1576 19.1704 26.6025 19.7867 25.8534ZM19.9764 26.1853C19.5686 26.6783 19.7109 27.5412 20.6306 28.3093C21.6642 29.1627 22.7832 29.3524 23.3521 28.6791C23.7693 28.1766 23.7504 27.4464 22.622 26.5171C21.6737 25.7111 20.5738 25.4551 19.9764 26.1853Z" fill="white"/>
<path d="M25.6622 22.9042C26.2785 22.4491 26.9423 22.2879 27.4259 22.8094C28.1845 23.6059 27.4828 24.6585 26.6673 25.436L25.1596 26.8679L24.97 26.6687C25.4346 26.1567 25.4251 26.0524 24.97 25.5688L23.2252 23.7387C22.789 23.274 22.6847 23.2456 22.1821 23.6628L22.002 23.4732L23.8131 21.7568C24.4863 21.1215 25.1596 20.8845 25.6622 21.4155C26.1363 21.918 25.8803 22.506 25.6432 22.8853L25.6622 22.9042ZM24.8562 23.4732C25.3303 23.018 25.501 22.5344 25.1027 22.1077C24.7044 21.681 24.2114 21.8232 23.7657 22.2499C23.3674 22.6292 23.3674 22.6956 23.5571 22.8947L24.4674 23.8525L24.8562 23.4732ZM25.5673 25.0093C26.0035 25.4645 26.2311 25.3981 26.5725 25.0662C27.0466 24.6205 27.2268 23.9852 26.7526 23.4826C26.2785 22.9801 25.6906 23.1602 25.1217 23.7007L24.695 24.099L25.5673 25.0093Z" fill="white"/>
<path d="M30.374 16.8444C29.862 17.2996 29.862 17.3849 30.1654 17.8022L31.7774 20.0021C32.1283 20.4857 32.2041 20.5047 32.7826 20.1538L32.9438 20.3814L31.2085 21.652L31.0473 21.4339C31.4645 21.0451 31.474 20.9503 31.1326 20.4857L30.2413 19.2719C30.0801 19.0444 29.843 18.7314 29.4163 18.0771L29.3973 18.0866L29.9473 22.0882C29.9663 22.221 30.0042 22.3253 30.0611 22.4106L30.1085 22.4675L28.7905 23.4347L28.6293 23.2166C29.1224 22.7804 29.1034 22.6761 28.7241 22.1641L27.2164 20.1064C26.8561 19.6133 26.7707 19.5754 26.2018 19.9073L26.05 19.6986L27.8138 18.409L27.9655 18.6176C27.4819 19.0538 27.4914 19.1202 27.8612 19.6228L28.5724 20.5995C28.781 20.8934 29.0939 21.3107 29.5396 21.9934L29.5585 21.9839L29.018 17.9159C29.0086 17.7927 28.9801 17.7168 28.9517 17.6789L28.9043 17.622L30.2223 16.6548L30.374 16.8444Z" fill="white"/>
<path d="M35.9761 18.6939L35.8434 18.4474C36.3175 18.1155 36.327 18.0301 36.0046 17.4422L35.4356 16.3992L33.6245 17.3853L34.1934 18.4284C34.5253 19.0353 34.5917 19.0542 35.1132 18.8456L35.246 19.0922L33.359 20.1163L33.2262 19.8697C33.7762 19.4999 33.7762 19.4241 33.4538 18.8267L32.2306 16.5793C31.9461 16.0578 31.8797 16.0104 31.2539 16.2949L31.1306 16.0578L33.0271 15.0242L33.1504 15.2613C32.7047 15.5647 32.6952 15.669 32.9702 16.1811L33.4348 17.0345L35.246 16.0483L34.7813 15.1854C34.5064 14.6828 34.44 14.6259 33.871 14.8725L33.7478 14.6354L35.6253 13.6113L35.7486 13.8484C35.2555 14.1803 35.2365 14.2561 35.521 14.7966L36.7442 17.044C37.0666 17.6414 37.1425 17.6698 37.7304 17.4327L37.8631 17.6793L35.9761 18.6939Z" fill="white"/>
<path d="M42.1811 15.973C41.8207 16.1152 41.4699 16.1816 40.9768 15.7928C40.5596 15.4514 40.1898 15.1196 39.9432 14.892C39.6113 14.598 39.3648 14.5885 38.9381 14.7592L39.4217 16.0014C39.6208 16.504 39.6967 16.5799 40.3225 16.4092L40.4173 16.6652L38.3597 17.4522L38.2554 17.1962C38.8243 16.9023 38.8433 16.798 38.6441 16.2954L37.6674 13.7636C37.4683 13.2515 37.4019 13.2041 36.8045 13.3653L36.7097 13.1188L38.6726 12.3602L38.7674 12.6067C38.2554 12.8722 38.2269 12.9481 38.426 13.4696L38.8053 14.4558C39.0898 14.3325 39.2889 14.1998 39.4501 13.8774C39.5829 13.5644 39.6777 13.0145 39.7631 12.6257C39.8484 12.2748 40.0001 11.7154 40.4173 11.5542C40.7018 11.4404 40.9199 11.5257 40.9958 11.7154C41.0622 11.8955 41.0147 12.0473 40.7587 12.1516L40.5975 12.2085C40.2372 12.3507 40.1424 12.7015 40.0286 13.1851C39.9622 13.536 39.8294 13.8679 39.6872 14.0765L39.7062 14.1144C39.8958 14.0955 40.2372 14.1334 40.5596 14.3515C40.8061 14.5222 41.0242 14.6929 41.4983 15.0722C42.0483 15.4894 42.3044 15.5842 42.7216 15.4514L42.8259 15.7075L42.1811 15.973Z" fill="white"/>
<path d="M46.3828 14.9577C46.2311 14.9957 45.9846 14.9577 45.8518 14.8913C45.6811 14.7965 45.5863 14.6638 45.482 14.4931C45.1406 14.8819 44.7424 15.3844 44.4389 15.4698C43.7088 15.6594 43.045 15.1853 42.8838 14.531C42.7606 14.0379 42.9407 13.6491 43.4528 13.3078C44.0122 12.9475 44.695 12.4733 44.8751 12.2268L44.8277 12.0561C44.6286 11.307 44.1924 10.9846 43.6614 11.1173C43.4623 11.1648 43.3295 11.2785 43.2631 11.4303C43.1683 11.6009 43.1399 11.8475 43.1304 12.1794C43.1209 12.3595 43.0355 12.4544 42.8933 12.4923C42.7037 12.5397 42.4002 12.407 42.3433 12.1794C42.3054 12.0277 42.4002 11.8759 42.5519 11.6863C42.789 11.4018 43.3485 10.8518 43.8984 10.5674C44.2114 10.4915 44.5432 10.501 44.8088 10.6243C45.2449 10.8424 45.4536 11.2216 45.5958 11.7716L46.0889 13.6776C46.2122 14.1422 46.4303 14.2465 46.6104 14.1991C46.7337 14.1707 46.8664 14.0664 46.9518 13.981L47.1225 14.2181L46.3828 14.9577ZM44.9605 12.5682C44.7708 12.7388 44.3346 13.0802 44.145 13.2414C43.7941 13.5259 43.614 13.7724 43.7088 14.1517C43.851 14.6827 44.3251 14.825 44.6381 14.7396C44.9036 14.6733 45.2165 14.3983 45.3682 14.1517L44.9605 12.5682Z" fill="white"/>
<path d="M38.36 60.8C37.46 62.69 37.07 62.81 35.45 62.81H29.87L34.1 58.34C36.86 55.4 38.06 53.63 38.06 50.99C38.06 47.87 35.66 45.95 33.02 45.95C31.31 45.95 29.9 46.73 28.97 47.72L27.26 50.15L27.92 50.75C28.7 49.58 29.99 47.96 32.03 47.96C34.22 47.96 35.54 49.43 35.54 51.95C35.54 54.53 33.65 56.96 31.79 59.21C30.32 60.95 28.61 62.66 26.96 64.31V65H38.15C38.51 63.65 38.81 62.33 39.2 61.07L38.36 60.8ZM47.6141 45.95C43.0841 45.95 41.4641 51.26 41.4641 55.64C41.4641 60.38 43.0841 65.36 47.6141 65.36C52.1141 65.36 53.7041 60.02 53.7041 55.64C53.7041 51.02 52.1141 45.95 47.6441 45.95H47.6141ZM47.5841 46.94C50.2841 46.94 51.0341 51.38 51.0341 55.64C51.0341 59.81 50.3141 64.34 47.6141 64.34C44.9741 64.34 44.1341 59.78 44.1341 55.61C44.1341 51.41 44.8541 46.94 47.5541 46.94H47.5841ZM67.1881 60.8C66.2881 62.69 65.8981 62.81 64.2781 62.81H58.6981L62.9281 58.34C65.6881 55.4 66.8881 53.63 66.8881 50.99C66.8881 47.87 64.4881 45.95 61.8481 45.95C60.1381 45.95 58.7281 46.73 57.7981 47.72L56.0881 50.15L56.7481 50.75C57.5281 49.58 58.8181 47.96 60.8581 47.96C63.0481 47.96 64.3681 49.43 64.3681 51.95C64.3681 54.53 62.4781 56.96 60.6181 59.21C59.1481 60.95 57.4381 62.66 55.7881 64.31V65H66.9781C67.3381 63.65 67.6381 62.33 68.0281 61.07L67.1881 60.8ZM76.4422 45.95C71.9122 45.95 70.2922 51.26 70.2922 55.64C70.2922 60.38 71.9122 65.36 76.4422 65.36C80.9422 65.36 82.5322 60.02 82.5322 55.64C82.5322 51.02 80.9422 45.95 76.4722 45.95H76.4422ZM76.4122 46.94C79.1122 46.94 79.8622 51.38 79.8622 55.64C79.8622 59.81 79.1422 64.34 76.4422 64.34C73.8022 64.34 72.9622 59.78 72.9622 55.61C72.9622 51.41 73.6822 46.94 76.3822 46.94H76.4122Z" fill="white"/>
</svg>
