<svg width="55" height="54" viewBox="0 0 55 54" fill="none" xmlns="http://www.w3.org/2000/svg">
<g clip-path="url(#clip0)">
<path d="M44.7841 16.0564C44.7841 16.0564 45.2544 14.2571 46.4622 11.6973C46.4622 11.6973 27.9811 19.6551 18.6711 25.096L4.5083 40.2833L35.1427 49.7621C35.1427 49.7621 51.315 15.8957 52.8221 13.1003C52.8221 13.1003 51.7532 13.5716 44.7841 16.0564Z" fill="#EEEEEE"/>
<path d="M33.796 40.2825L32.6416 38.5795L32.8661 38.4296L33.8495 39.8862L36.5858 37.5406L36.2438 36.8551L33.9884 38.9437L33.176 37.7013L33.3898 37.5513L34.0419 38.526L36.3293 36.416L36.9172 37.6049L33.796 40.2825Z" fill="#262626"/>
<path d="M0.5 42.5214L0.703091 42.2751L26.0357 11.4612L26.0678 11.4505C38.1355 6.9093 51.518 3.1071 51.6462 3.07497L51.9135 3L51.7959 3.25705C50.4919 6.25596 32.7804 38.912 32.5987 39.244L32.5666 39.3083L32.4918 39.319L0.5 42.5214ZM26.196 11.6754L1.10927 42.1894L32.4063 39.0405C33.2614 37.4661 49.4657 7.57334 51.4431 3.407C49.4657 3.96394 37.2804 7.50908 26.196 11.6754Z" fill="#262626"/>
<path d="M35.5915 51.1635L0.777832 42.4773L0.841963 42.2203L35.4526 50.8422L54.0726 12.6489L46.9752 12.4025V12.1348L54.5001 12.3918L35.5915 51.1635Z" fill="#262626"/>
<path d="M23.4703 14.9636L23.3955 14.7066C23.62 14.6423 45.5001 8.28033 49.8291 6.65234L49.9253 6.89868C45.5749 8.53738 23.6948 14.8994 23.4703 14.9636Z" fill="#262626"/>
<path d="M5.98399 36.246C5.95193 36.246 5.93056 36.246 5.90918 36.246L5.95193 35.9782C5.96262 35.9782 5.984 35.9782 6.00538 35.9782C7.44837 35.9782 28.5481 32.3581 36.7144 30.9336L36.7571 31.2014C35.5707 31.4049 7.80109 36.246 5.98399 36.246Z" fill="#262626"/>
<path d="M34.4582 47.277L34.362 47.2555L8.45215 41.6861L8.5056 41.4291L34.3085 46.9664L36.0829 43.4212L20.0282 40.4973L20.0817 40.2402L36.4784 43.2177L34.4582 47.277Z" fill="#262626"/>
<path d="M49.1657 18.2506L44.0991 17.7579L44.1312 17.4902L49.016 17.9614L50.2239 15.7872L45.2428 15.4231L45.2642 15.166L50.6621 15.5516L49.1657 18.2506Z" fill="#262626"/>
<path d="M42.2392 31.2112L37.2368 30.44L37.2796 30.1722L42.1003 30.9113L43.4685 28.48L38.6264 27.9338L38.6584 27.666L43.896 28.2551L42.2392 31.2112Z" fill="#262626"/>
<path d="M34.2763 41.6857C32.1813 41.6857 30.8346 40.8932 30.2681 39.3295L30.5246 39.2438C31.0483 40.6897 32.3096 41.4287 34.2763 41.4287C36.4568 41.4287 38.2204 40.0042 38.2204 38.2584C38.2204 36.6519 36.724 35.2916 34.7359 35.1096L34.7573 34.8418C36.8843 35.0453 38.4876 36.5126 38.4876 38.2584C38.4983 40.1434 36.6064 41.6857 34.2763 41.6857Z" fill="#262626"/>
<path d="M18.3184 24.2716L22.0702 19.7518L22.1129 19.7411L40.081 15.1035L36.8422 20.3195L36.7888 20.3302L18.3184 24.2716ZM22.2198 19.9875L19.0131 23.8432L36.6712 20.0731L39.4931 15.5212L22.2198 19.9875Z" fill="#262626"/>
</g>
<defs>
<clipPath id="clip0">
<rect width="54" height="54" fill="white" transform="translate(0.5)"/>
</clipPath>
</defs>
</svg>
