<svg width="55" height="54" viewBox="0 0 55 54" fill="none" xmlns="http://www.w3.org/2000/svg">
<g clip-path="url(#clip0)">
<path d="M44.1003 17.4141L13.7608 33.1823L3.4165 26.875L33.0847 12.5293L44.1003 17.4141Z" fill="#EEEEEE"/>
<path d="M50.2411 25.6938C50.3621 24.7455 48.4803 21.8344 48.4803 21.8344L42.802 18.1074L36.3643 21.7132L31.9735 24.2603L17.4365 31.6813L34.3835 34.7136L50.2411 25.6938Z" fill="#EEEEEE"/>
<path d="M13.6834 33.347L0.5 25.3085L0.731086 25.1982L34.1739 9L34.2289 9.02205L48.2157 15.2301L13.6834 33.347ZM1.08324 25.3306L13.6944 33.0272L47.5884 15.2521L34.1849 9.30875L1.08324 25.3306Z" fill="#262626"/>
<path d="M33.5359 35.8282L33.4038 35.5856C40.3697 31.9247 50.824 26.2129 51.0771 25.4851C51.1762 24.7574 49.8776 22.5741 49.3494 21.7581L43.6931 18.0421L43.8471 17.8105L49.5585 21.5817C49.6355 21.703 51.4733 24.5479 51.3412 25.5292C51.2202 26.4996 36.4851 34.2845 33.5359 35.8282Z" fill="#262626"/>
<path d="M7.88485 34.3499L2.94385 28.4947L4.67154 27.6016L4.79259 27.8441L3.37302 28.5829L8.09393 34.1735L7.88485 34.3499Z" fill="#262626"/>
<path d="M17.5244 43.8546C17.3373 43.8546 17.1392 43.7995 16.9851 43.6892L13.8818 41.5831L14.0359 41.3516L17.1392 43.4577C17.3373 43.59 17.6014 43.612 17.8105 43.5128L19.6482 42.6748L19.7583 42.9284L17.9205 43.7664C17.7995 43.8215 17.6564 43.8546 17.5244 43.8546Z" fill="#262626"/>
<path d="M16.5897 45.0583C16.5677 45.0583 16.5567 45.0583 16.5347 45.0583C15.8965 45.0362 13.6956 43.0073 11.9238 41.1328L12.1219 40.9453C14.3448 43.305 16.1386 44.7716 16.5347 44.7826C16.5457 44.7826 16.5677 44.7826 16.5787 44.7826C17.9763 44.7826 20.8485 42.9742 20.8815 42.9522L21.0246 43.1837C20.9255 43.2609 18.0753 45.0583 16.5897 45.0583Z" fill="#262626"/>
<path d="M7.27999 35.6852C5.39821 33.3255 2.40497 29.4882 1.84374 28.6171C0.270095 26.1581 0.622242 25.3421 0.677265 25.2539L0.919349 25.3862L0.798316 25.3201L0.919349 25.3862C0.919349 25.3973 0.589217 26.1471 2.07483 28.4737C2.57003 29.2566 5.17812 32.6087 7.50007 35.5198L7.27999 35.6852Z" fill="#262626"/>
<path d="M43.3952 32.4761L43.2632 32.2335C43.3292 32.2005 49.7008 28.7381 50.3171 28.3632C50.7352 28.1095 50.9993 26.4886 51.0764 25.5293L51.3515 25.5514C51.3295 25.816 51.1314 28.1978 50.4601 28.6058C49.8329 28.9696 43.6593 32.3328 43.3952 32.4761Z" fill="#262626"/>
<path d="M36.1656 38.3196C36.0996 38.3196 36.0336 38.3086 35.9785 38.2645C35.8465 38.1652 35.8575 37.9888 35.8685 37.8675L35.7254 37.6801C35.8025 37.6249 35.9345 37.5257 36.0556 37.5918C36.1656 37.647 36.1546 37.7793 36.1436 37.8785C36.1436 37.9226 36.1326 38.0219 36.1436 38.0439C36.1436 38.0439 36.2096 38.066 36.4187 37.9778C37.4421 37.5477 43.8467 33.3245 43.8247 32.6739C43.8137 32.6078 43.7807 32.5747 43.7257 32.5526C43.4506 32.4313 42.7133 32.7291 42.3171 32.9496L35.2082 36.6987L35.0762 36.4561L42.1851 32.707C42.2951 32.6409 43.3515 32.0785 43.8357 32.299C43.9678 32.3542 44.0558 32.4755 44.0889 32.6188C44.2869 33.545 36.9689 38.0439 36.5178 38.2314C36.4187 38.2755 36.2867 38.3196 36.1656 38.3196Z" fill="#262626"/>
<path d="M31.3449 40.482L31.2568 40.2174C32.9295 39.633 34.5912 38.9713 34.8993 38.7839C35.2625 38.5634 35.2405 38.4972 35.2075 38.42C35.1524 38.2767 35.1194 38.1113 35.3285 37.8687C36.0438 37.0637 35.9888 36.8211 35.9558 36.766C35.8677 36.6227 35.4276 36.6557 35.1414 36.7329L32.5554 37.9128L32.4453 37.6592L35.0534 36.4683C35.2185 36.4242 35.9668 36.2478 36.1979 36.6116C36.374 36.8983 36.1649 37.3504 35.5376 38.0451C35.4166 38.1774 35.4386 38.2326 35.4716 38.3208C35.5596 38.5634 35.5156 38.7398 35.0534 39.0155C34.6792 39.247 32.9185 39.9417 31.3449 40.482Z" fill="#262626"/>
<path d="M17.4681 43.8433L17.4131 43.5677C17.5451 43.5456 17.9523 43.0935 17.9523 42.7627C17.9523 42.6966 17.9523 42.4981 17.5341 42.4319L17.5782 42.1562C18.1394 42.2445 18.2274 42.5753 18.2274 42.7627C18.2384 43.2258 17.7432 43.7882 17.4681 43.8433Z" fill="#262626"/>
<path d="M8.35712 33.4566C5.40792 30.6779 3.08597 28.66 3.06396 28.649L3.24002 28.4395C3.26203 28.4615 5.584 30.4794 8.5332 33.2581L8.35712 33.4566Z" fill="#262626"/>
<path d="M33.59 33.6772L20.0654 29.9612L20.1315 29.6855L33.667 33.4126L33.59 33.6772Z" fill="#262626"/>
<path d="M6.59535 39.8537C5.60494 37.1632 9.62162 31.0544 9.78669 30.8008L10.0178 30.9552C9.97376 31.0213 5.91308 37.2073 6.84847 39.7655L6.59535 39.8537Z" fill="#262626"/>
<path d="M37.1018 28.7928L36.9697 28.5502L48.7336 21.9121L48.8656 22.1547L37.1018 28.7928Z" fill="#262626"/>
<path d="M28.2422 44.9138C28.1651 44.9138 28.0991 44.8917 28.0221 44.8586C27.692 44.6822 27.67 44.1529 27.736 43.9103C28.9465 39.3894 36.7047 28.8589 37.7831 27.3923L29.8819 24.79L29.9699 24.5254L38.2343 27.249L38.1242 27.4034C38.0912 27.4364 37.1889 28.6494 35.9233 30.4467C34.0196 35.0118 30.223 43.0723 29.4527 44.0096C28.9575 44.6161 28.5613 44.9138 28.2422 44.9138ZM35.175 31.5274C32.4789 35.4088 28.7924 41.0544 28.0111 43.9875C27.9561 44.175 28.0001 44.5389 28.1541 44.6161C28.2312 44.6491 28.5283 44.7043 29.2436 43.8332C29.9039 43.0503 33.0732 36.4342 35.175 31.5274Z" fill="#262626"/>
<path d="M37.2215 26.9737L36.9684 26.8744C37.1225 26.4995 37.2325 26.2128 37.2876 26.0474L31.2461 25.2425L31.2791 24.9668L37.6727 25.8269L37.6067 25.9923C37.6067 25.9813 37.4746 26.3451 37.2215 26.9737Z" fill="#262626"/>
<path d="M28.1204 44.9035C27.9223 44.8594 8.02615 40.1399 6.68359 39.8753L6.73862 39.5996C8.09218 39.8643 27.9884 44.5837 28.1865 44.6278L28.1204 44.9035Z" fill="#262626"/>
<path d="M24.7544 43.524L24.5013 43.4027C24.8645 42.6419 25.0516 41.8369 25.0516 41.0099C25.0516 37.6137 21.9153 34.846 18.0637 34.846C13.981 34.846 11.1198 37.0954 11.1198 40.3152H10.8447C10.8447 36.93 13.8159 34.5703 18.0637 34.5703C22.0693 34.5703 25.3267 37.4593 25.3267 41.0099C25.3267 41.881 25.1286 42.7301 24.7544 43.524Z" fill="#262626"/>
<path d="M50.7142 39.5555C50.164 39.5555 49.5808 39.4893 49.0086 39.368C47.732 39.0924 46.5986 38.53 45.8172 37.8022C45.0139 37.0524 44.6618 36.2034 44.8378 35.4205C45.0139 34.6376 45.6852 34.0201 46.7306 33.6782C47.754 33.3474 49.0195 33.3144 50.2851 33.6011C51.5616 33.8767 52.6951 34.4391 53.4764 35.1669C54.2797 35.9167 54.6319 36.7657 54.4558 37.5486C54.2797 38.3315 53.6084 38.949 52.563 39.2909C52.0128 39.4673 51.3855 39.5555 50.7142 39.5555ZM48.5684 33.6782C47.9301 33.6782 47.3359 33.7665 46.8077 33.9429C45.8613 34.2516 45.256 34.803 45.102 35.4866C44.9479 36.1703 45.267 36.9201 46.0043 37.6038C46.7526 38.2984 47.8421 38.8388 49.0746 39.1034C50.2961 39.3791 51.5176 39.346 52.486 39.0262C53.4324 38.7175 54.0376 38.1661 54.1917 37.4825C54.3457 36.7988 54.0266 36.049 53.2893 35.3653C52.541 34.6707 51.4515 34.1303 50.219 33.8657C49.6578 33.7334 49.0966 33.6782 48.5684 33.6782Z" fill="#262626"/>
<path d="M45.7064 42.6545C42.9883 42.6545 40.7764 41.3313 40.7764 39.6993C40.7764 38.4974 41.9869 37.0529 44.639 36.7441L44.672 37.0198C42.185 37.3065 41.0515 38.6077 41.0515 39.6993C41.0515 41.1769 43.1424 42.3788 45.7064 42.3788C47.9513 42.3788 49.8771 41.4525 50.2843 40.1845L50.5484 40.2727C50.0972 41.6621 48.0614 42.6545 45.7064 42.6545Z" fill="#262626"/>
<path d="M50.538 40.3709C49.9877 40.3709 49.4045 40.3048 48.8323 40.1835C47.5558 39.9078 46.4223 39.3454 45.641 38.6177C44.8377 37.8679 44.4855 37.0188 44.6616 36.2359L44.8376 35.4199L45.1018 35.4751L44.9257 36.291C44.7716 36.9747 45.0908 37.7245 45.8281 38.4082C46.5764 39.1028 47.6658 39.6432 48.8983 39.9078C50.1308 40.1835 51.3413 40.1504 52.3097 39.8306C53.2561 39.5219 53.8613 38.9705 54.0154 38.2869L54.1914 37.4709L54.4555 37.526L54.2795 38.342C54.1034 39.1249 53.4321 39.7424 52.3867 40.0842C51.8365 40.2827 51.1982 40.3709 50.538 40.3709Z" fill="#262626"/>
<path d="M45.7064 43.4914C42.9883 43.4914 40.7764 42.1682 40.7764 40.5362V39.7754H41.0515V40.5362C41.0515 42.0138 43.1424 43.2157 45.7064 43.2157C48.2705 43.2157 50.3613 42.0138 50.3613 40.5362V40.1282H50.6364V40.5362C50.6364 42.1682 48.4245 43.4914 45.7064 43.4914Z" fill="#262626"/>
</g>
<defs>
<clipPath id="clip0">
<rect width="54" height="54" fill="white" transform="translate(0.5)"/>
</clipPath>
</defs>
</svg>
