<svg width="90" height="90" viewBox="0 0 90 90" fill="none" xmlns="http://www.w3.org/2000/svg">
<rect width="90" height="90" fill="white"/>
<path d="M62.7774 67.196L64.6991 58.9665L63.7016 52.1599L66.4008 48.2579C66.4008 48.2579 66.7968 17.2176 37.9569 13.2129C37.9569 13.2129 9.92387 14.6065 9.92387 34.0433C9.93854 53.4655 12.0363 61.6657 12.0363 61.6657L49.487 75.2788L56.9977 71.2594L71.3443 75.8509L77.2267 71.2741L62.7774 67.196ZM39.8786 60.2281C32.3679 63.822 22.7595 59.4066 18.4321 50.3703C14.1046 41.334 16.6864 31.0801 24.2118 27.4861C31.7372 23.8922 41.3309 28.3076 45.6583 37.3439C49.9858 46.3802 47.404 56.6341 39.8786 60.2281Z" fill="#EEEEEE"/>
<path d="M72.4301 80.9995C72.3128 80.9995 72.2394 80.9115 72.2541 80.8088L72.4301 77.5669L60.6067 73.7822L52.4799 78.139C52.4359 78.1683 52.3772 78.1684 52.3332 78.1537L11.4204 63.279C11.3618 63.2643 11.3178 63.2056 11.3031 63.147C11.2737 63.0589 9 53.92 9 32.9282C9 24.1706 14.3396 17.4373 24.4175 13.4326C32.0162 10.4254 39.7029 10.0147 39.7762 10C56.1619 12.2737 63.7752 22.6156 67.2959 30.8891C71.0952 39.8374 71.0219 48.3749 71.0219 48.463C71.0219 48.4923 71.0072 48.5363 70.9925 48.5656L68.088 52.7757L69.1736 60.1397C69.1736 60.1544 69.1736 60.1838 69.1736 60.1984L67.5746 67.7971L80.5129 71.7432C80.601 71.7725 80.645 71.8459 80.645 71.9339L80.3222 75.1611C80.3076 75.2638 80.2342 75.3372 80.1169 75.3225C80.0142 75.3078 79.9408 75.2198 79.9555 75.1171L80.2636 72.0366L67.3106 68.0759C67.2225 68.0465 67.1639 67.9585 67.1785 67.8558L68.8068 60.1251L67.7213 52.7171C67.7213 52.6731 67.7213 52.6291 67.7506 52.585L70.6698 48.3603C70.6698 47.6121 70.5671 39.4853 66.9585 30.9771C63.4819 22.7916 55.9418 12.5671 39.7762 10.3227C39.7322 10.3227 32.0895 10.7335 24.5495 13.726C17.6402 16.5132 9.3814 22.0729 9.3814 32.9282C9.3814 52.7464 11.4058 61.9587 11.6551 62.9709L52.3772 77.7723L60.504 73.4155C60.548 73.3861 60.592 73.3861 60.6507 73.4008L72.6795 77.2442C72.7529 77.2735 72.8116 77.3469 72.8116 77.4349L72.6355 80.8235C72.6062 80.9262 72.5328 80.9995 72.4301 80.9995Z" fill="#262626"/>
<path d="M59.9611 50.1651C59.9317 50.1651 59.9024 50.1504 59.8731 50.1358C59.8144 50.1064 59.785 50.0477 59.785 49.9891C58.6995 33.6474 46.5093 22.0293 46.3919 21.912C46.3479 21.868 46.3186 21.7946 46.3333 21.7359C46.3479 21.6773 46.3919 21.6186 46.4506 21.6039L55.5309 18.6701C55.5896 18.6554 55.6483 18.6701 55.707 18.6994C66.4596 27.1783 68.9827 45.8083 68.9974 45.999C69.012 46.0724 68.968 46.1604 68.8947 46.1897L60.0344 50.1504C60.0197 50.1651 59.9904 50.1651 59.9611 50.1651ZM46.8614 21.8533C48.519 23.5109 59.0222 34.5716 60.1224 49.7104L68.616 45.911C68.3666 44.2094 65.6528 27.0756 55.5456 19.0515L46.8614 21.8533Z" fill="#262626"/>
<path d="M32.9112 62.3404C26.6621 62.3404 20.1929 58.0863 16.863 51.133C14.7506 46.7176 14.1932 41.8914 15.2934 37.5199C16.3936 33.1484 19.034 29.7598 22.716 27.9995C26.398 26.2392 30.6961 26.2979 34.7889 28.1902C38.8816 30.0679 42.2996 33.5298 44.412 37.9453C48.7688 47.0696 46.1429 57.4408 38.5442 61.0788C36.7546 61.9296 34.8476 62.3404 32.9112 62.3404ZM28.3931 27.09C26.4714 27.09 24.6084 27.5007 22.8774 28.3369C19.2981 30.0532 16.731 33.3538 15.6454 37.6226C14.5599 41.906 15.1173 46.6442 17.1857 50.9863C21.4691 59.92 30.9749 64.3061 38.3829 60.7561C45.7909 57.2061 48.3433 47.055 44.0746 38.1213C42.0062 33.7792 38.6469 30.3906 34.6422 28.5423C32.5738 27.5594 30.4468 27.09 28.3931 27.09Z" fill="#262626"/>
<path d="M56.7632 36.7134C56.6899 36.7134 56.6165 36.6693 56.5872 36.596C56.5432 36.508 56.6018 36.3906 56.6898 36.3613L65.3007 32.9727C65.3888 32.9433 65.5061 32.9873 65.5355 33.0754C65.5795 33.1634 65.5208 33.2807 65.4328 33.3101L56.8219 36.6987C56.8072 36.7134 56.7779 36.7134 56.7632 36.7134Z" fill="#262626"/>
<path d="M57.6433 39.1188C57.57 39.1188 57.4966 39.0747 57.4673 39.0014C57.438 38.9134 57.482 38.796 57.57 38.7667L66.1515 35.4954C66.2396 35.4514 66.3569 35.5101 66.3862 35.5981C66.4156 35.6861 66.3716 35.8035 66.2836 35.8328L57.702 39.1041C57.6873 39.1188 57.658 39.1188 57.6433 39.1188Z" fill="#262626"/>
<path d="M58.5236 41.7741C58.4503 41.7741 58.3769 41.7301 58.3476 41.6567C58.3036 41.5687 58.3476 41.4513 58.4503 41.422L66.8558 37.916C66.9585 37.872 67.0612 37.916 67.0905 38.0187C67.1345 38.1067 67.0905 38.2241 66.9878 38.2534L58.5823 41.7594C58.5676 41.7594 58.553 41.7741 58.5236 41.7741Z" fill="#262626"/>
<path d="M56.7632 75.8071C56.6606 75.8071 56.5872 75.7191 56.5872 75.6311V72.0371C56.5872 71.9637 56.6312 71.9051 56.6899 71.8757L67.5599 66.5214C67.6479 66.4774 67.7652 66.5214 67.8092 66.6094C67.8533 66.6974 67.8092 66.8148 67.7212 66.8588L56.9539 72.1544V75.6311C56.9393 75.7337 56.8513 75.8071 56.7632 75.8071Z" fill="#262626"/>
<path d="M72.6059 77.6116C72.5912 77.6116 72.5619 77.6116 72.5472 77.5969L56.8217 72.5653C56.719 72.536 56.675 72.4333 56.7044 72.3306C56.7337 72.2279 56.8364 72.1839 56.9391 72.2133L72.6646 77.2448C72.7673 77.2742 72.8113 77.3769 72.7819 77.4796C72.7673 77.5529 72.6939 77.6116 72.6059 77.6116Z" fill="#262626"/>
<path d="M56.7629 47.2456C56.6896 47.2456 56.6162 47.1869 56.5869 47.1135C52.8169 33.5004 46.9785 24.3908 39.2184 20.0046C32.0158 15.9412 25.752 17.6282 25.6933 17.6429C25.5906 17.6722 25.4879 17.6135 25.4733 17.5108C25.4439 17.4082 25.5026 17.3055 25.6053 17.2908C25.664 17.2761 32.0891 15.5452 39.4091 19.6819C47.2572 24.112 53.1543 33.3097 56.9536 47.0108C56.983 47.1135 56.9243 47.2162 56.8216 47.2309C56.7923 47.2456 56.7776 47.2456 56.7629 47.2456Z" fill="#262626"/>
<path d="M72.6059 77.6105C72.5473 77.6105 72.4886 77.5812 72.4592 77.5372C72.4006 77.4492 72.4152 77.3465 72.5033 77.2878L80.3513 71.7721C80.4394 71.7135 80.542 71.7281 80.6007 71.8162C80.6594 71.9042 80.6447 72.0069 80.5567 72.0655L72.7086 77.5812C72.6793 77.5959 72.65 77.6105 72.6059 77.6105Z" fill="#262626"/>
<path d="M72.4303 80.9999C72.3716 80.9999 72.3129 80.9706 72.2836 80.9266C72.2249 80.8386 72.2396 80.7359 72.3276 80.6772L80.029 75.0002C80.117 74.9415 80.2197 74.9562 80.2784 75.0442C80.3371 75.1322 80.3224 75.2349 80.2344 75.2936L72.533 80.9706C72.5036 80.9853 72.4743 80.9999 72.4303 80.9999Z" fill="#262626"/>
<path d="M56.7636 72.345C56.7489 72.345 56.7343 72.345 56.7196 72.345C56.6169 72.3303 56.5582 72.2276 56.5729 72.1249L58.1572 64.7903L56.5729 55.6953C56.5582 55.5926 56.6169 55.5046 56.7196 55.4899C56.8223 55.4606 56.9103 55.5339 56.925 55.6366L58.5093 64.7756C58.5093 64.8049 58.5093 64.8196 58.5093 64.8489L56.925 72.2129C56.925 72.2863 56.837 72.345 56.7636 72.345Z" fill="#262626"/>
<path d="M58.3473 64.9809C58.2739 64.9809 58.2153 64.9369 58.1859 64.8636C58.1419 64.7756 58.1859 64.6582 58.2739 64.6289L68.9385 59.9787C69.0266 59.9347 69.1439 59.9787 69.1732 60.0667C69.2173 60.1547 69.1732 60.2721 69.0852 60.3014L58.4206 64.9663C58.3913 64.9809 58.362 64.9809 58.3473 64.9809Z" fill="#262626"/>
<path d="M67.4719 68.1347C67.4572 68.1347 67.4426 68.1347 67.4132 68.12L65.9756 67.68C65.873 67.6506 65.8289 67.5479 65.8583 67.4452C65.8876 67.3426 65.9903 67.2986 66.093 67.3279L67.5306 67.768C67.6333 67.7973 67.6773 67.9 67.6479 68.0027C67.6186 68.076 67.5453 68.1347 67.4719 68.1347Z" fill="#262626"/>
</svg>
