<svg width="90" height="90" viewBox="0 0 90 90" fill="none" xmlns="http://www.w3.org/2000/svg">
<rect width="90" height="90" fill="white"/>
<path d="M71.2742 29.5341L22.3736 54.8978L5.70093 44.7523L53.5196 21.6766L71.2742 29.5341Z" fill="#EEEEEE"/>
<path d="M81.1722 42.8532C81.3673 41.3279 78.3343 36.6453 78.3343 36.6453L69.1821 30.6503L58.806 36.4502L51.729 40.5475L28.2985 52.4844L55.6133 57.362L81.1722 42.8532Z" fill="#EEEEEE"/>
<path d="M22.2488 55.1631L1 42.2329L1.37246 42.0555L55.2749 16L55.3636 16.0355L77.9072 26.0213L22.2488 55.1631ZM1.94005 42.2683L22.2665 54.6487L76.8961 26.0568L55.2926 16.4966L1.94005 42.2683Z" fill="#262626"/>
<path d="M54.2466 59.1547L54.0337 58.7645C65.2612 52.8758 82.1112 43.6881 82.5192 42.5175C82.6788 41.3469 80.5859 37.8349 79.7345 36.5224L70.6177 30.5451L70.866 30.1726L80.0715 36.2386C80.1956 36.4337 83.1577 41.0098 82.9449 42.5884C82.7498 44.1493 59.0001 56.6715 54.2466 59.1547Z" fill="#262626"/>
<path d="M12.9025 56.7777L4.93867 47.3594L7.72335 45.9227L7.91846 46.3129L5.63041 47.5013L13.2395 56.4939L12.9025 56.7777Z" fill="#262626"/>
<path d="M28.4394 72.0659C28.1379 72.0659 27.8186 71.9773 27.5703 71.7999L22.5685 68.4121L22.8168 68.0397L27.8186 71.4274C28.1379 71.6403 28.5636 71.6757 28.9006 71.5161L31.8626 70.1681L32.04 70.576L29.0779 71.924C28.8828 72.0127 28.6523 72.0659 28.4394 72.0659Z" fill="#262626"/>
<path d="M26.9323 74C26.8968 74 26.8791 74 26.8436 74C25.8149 73.9645 22.2675 70.701 19.4118 67.6857L19.7311 67.3842C23.314 71.1798 26.2051 73.5389 26.8436 73.5566C26.8613 73.5566 26.8968 73.5566 26.9146 73.5566C29.1672 73.5566 33.7965 70.6477 33.8497 70.6123L34.0803 70.9847C33.9206 71.1089 29.3268 74 26.9323 74Z" fill="#262626"/>
<path d="M11.9275 58.9235C8.89452 55.1278 4.07008 48.9554 3.1655 47.5542C0.629129 43.5988 1.19671 42.2863 1.2854 42.1444L1.67558 42.3573L1.4805 42.2508L1.67558 42.3573C1.67558 42.375 1.14348 43.5811 3.53796 47.3236C4.33612 48.5829 8.53978 53.9749 12.2823 58.6575L11.9275 58.9235Z" fill="#262626"/>
<path d="M70.137 53.7616L69.9242 53.3714C70.0306 53.3182 80.3003 47.7488 81.2935 47.1458C81.9675 46.7378 82.3932 44.1305 82.5174 42.5874L82.9608 42.6229C82.9253 43.0486 82.6061 46.8797 81.5241 47.536C80.5131 48.1213 70.5627 53.5311 70.137 53.7616Z" fill="#262626"/>
<path d="M58.4848 63.1633C58.3784 63.1633 58.2719 63.1456 58.1833 63.0746C57.9704 62.915 57.9882 62.6312 58.0059 62.4361L57.7753 62.1346C57.8995 62.0459 58.1123 61.8863 58.3074 61.9927C58.4848 62.0814 58.4671 62.2942 58.4493 62.4538C58.4493 62.5248 58.4316 62.6844 58.4493 62.7199C58.4493 62.7199 58.5558 62.7554 58.8928 62.6135C60.5423 61.9217 70.8651 55.1285 70.8297 54.082C70.8119 53.9756 70.7587 53.9224 70.67 53.8869C70.2266 53.6918 69.0383 54.1707 68.3997 54.5255L56.9417 60.556L56.7289 60.1658L68.1869 54.1352C68.3642 54.0288 70.067 53.1242 70.8474 53.479C71.0602 53.5677 71.2022 53.7628 71.2554 53.9933C71.5746 55.4832 59.7796 62.7199 59.0524 63.0214C58.8927 63.0924 58.6799 63.1633 58.4848 63.1633Z" fill="#262626"/>
<path d="M50.7146 66.6381L50.5727 66.2124C53.2687 65.2724 55.947 64.2081 56.4436 63.9066C57.0289 63.5519 56.9935 63.4455 56.9403 63.3213C56.8516 63.0907 56.7984 62.8247 57.1354 62.4344C58.2883 61.1397 58.1996 60.7494 58.1464 60.6608C58.0045 60.4302 57.295 60.4834 56.8338 60.6075L52.6657 62.5054L52.4883 62.0975L56.6919 60.1819C56.958 60.1109 58.1641 59.8271 58.5366 60.4124C58.8204 60.8736 58.4834 61.6008 57.4724 62.7182C57.2773 62.9311 57.3127 63.0198 57.366 63.1617C57.5079 63.5519 57.4369 63.8357 56.6919 64.2791C56.0889 64.6516 53.251 65.769 50.7146 66.6381Z" fill="#262626"/>
<path d="M28.3491 72.0476L28.2604 71.6042C28.4732 71.5687 29.1295 70.8415 29.1295 70.3094C29.1295 70.203 29.1295 69.8837 28.4555 69.7773L28.5265 69.3339C29.431 69.4758 29.5729 70.0079 29.5729 70.3094C29.5907 71.0543 28.7925 71.9589 28.3491 72.0476Z" fill="#262626"/>
<path d="M13.6643 55.3398C8.91083 50.8701 5.16835 47.6243 5.13287 47.6065L5.41664 47.2695C5.45212 47.305 9.19462 50.5509 13.9481 55.0206L13.6643 55.3398Z" fill="#262626"/>
<path d="M54.3338 55.6939L32.5352 49.7166L32.6416 49.2732L54.458 55.2683L54.3338 55.6939Z" fill="#262626"/>
<path d="M10.8243 65.6279C9.22803 61.3001 15.702 51.4739 15.9681 51.0659L16.3405 51.3142C16.2696 51.4207 9.72468 61.3711 11.2323 65.486L10.8243 65.6279Z" fill="#262626"/>
<path d="M59.9941 47.8371L59.7812 47.4469L78.742 36.7693L78.9548 37.1595L59.9941 47.8371Z" fill="#262626"/>
<path d="M45.7143 73.77C45.5901 73.77 45.4837 73.7345 45.3596 73.6813C44.8275 73.3975 44.792 72.5462 44.8984 72.1559C46.8495 64.8838 59.354 47.9451 61.0922 45.5861L48.3571 41.4002L48.499 40.9745L61.8194 45.3555L61.6421 45.6038C61.5888 45.657 60.1344 47.6081 58.0947 50.4992C55.0262 57.8423 48.907 70.8079 47.6654 72.3156C46.8672 73.2911 46.2287 73.77 45.7143 73.77ZM56.8886 52.2374C52.543 58.4808 46.6012 67.5621 45.3418 72.2801C45.2532 72.5816 45.3241 73.1669 45.5724 73.2911C45.6966 73.3443 46.1755 73.433 47.3284 72.0318C48.3926 70.7725 53.5008 60.1303 56.8886 52.2374Z" fill="#262626"/>
<path d="M60.1872 44.9112L59.7793 44.7516C60.0276 44.1485 60.205 43.6874 60.2937 43.4213L50.5561 42.1265L50.6093 41.6831L60.9145 43.0666L60.808 43.3326C60.808 43.3149 60.5952 43.9002 60.1872 44.9112Z" fill="#262626"/>
<path d="M45.5181 73.7514C45.1989 73.6805 13.1306 66.0891 10.9667 65.6634L11.0554 65.22C13.237 65.6457 45.3053 73.237 45.6246 73.308L45.5181 73.7514Z" fill="#262626"/>
<path d="M40.0926 71.5338L39.6847 71.3387C40.27 70.1149 40.5715 68.8201 40.5715 67.4898C40.5715 62.0268 35.5165 57.5749 29.3086 57.5749C22.7282 57.5749 18.1166 61.1932 18.1166 66.3724H17.6732C17.6732 60.9272 22.4621 57.1315 29.3086 57.1315C35.7648 57.1315 41.0149 61.7785 41.0149 67.4898C41.0149 68.891 40.6957 70.2568 40.0926 71.5338Z" fill="#262626"/>
<path d="M81.9343 65.1493C81.0474 65.1493 80.1074 65.0429 79.1851 64.8478C77.1276 64.4044 75.3007 63.4998 74.0414 62.3292C72.7466 61.1231 72.179 59.7573 72.4628 58.498C72.7466 57.2387 73.8285 56.2454 75.5135 55.6956C77.1631 55.1635 79.2028 55.1103 81.2426 55.5714C83.3 56.0148 85.127 56.9194 86.3863 58.0901C87.6811 59.2962 88.2486 60.6619 87.9649 61.9212C87.6811 63.1805 86.5991 64.1738 84.9141 64.7237C84.0273 65.0074 83.0162 65.1493 81.9343 65.1493ZM78.4756 55.6956C77.4469 55.6956 76.4891 55.8375 75.6377 56.1213C74.1123 56.6179 73.1368 57.5047 72.8885 58.6044C72.6402 59.7041 73.1545 60.9102 74.3429 62.0099C75.549 63.1273 77.305 63.9964 79.2915 64.4221C81.2603 64.8655 83.2291 64.8123 84.7899 64.298C86.3153 63.8013 87.2908 62.9145 87.5392 61.8148C87.7875 60.7151 87.2731 59.509 86.0847 58.4093C84.8786 57.2919 83.1227 56.4228 81.1361 55.9971C80.2316 55.7843 79.327 55.6956 78.4756 55.6956Z" fill="#262626"/>
<path d="M73.8629 70.1339C69.4819 70.1339 65.9167 68.0055 65.9167 65.3804C65.9167 63.4471 67.8678 61.1236 72.1424 60.627L72.1956 61.0704C68.1871 61.5315 66.3601 63.6245 66.3601 65.3804C66.3601 67.7572 69.7302 69.6905 73.8629 69.6905C77.4812 69.6905 80.5851 68.2006 81.2414 66.1609L81.6671 66.3028C80.9399 68.5376 77.6586 70.1339 73.8629 70.1339Z" fill="#262626"/>
<path d="M81.6495 66.4618C80.7626 66.4618 79.8226 66.3554 78.9002 66.1603C76.8428 65.7168 75.0159 64.8123 73.7566 63.6416C72.4618 62.4355 71.8942 61.0698 72.1779 59.8105L72.4617 58.4979L72.8874 58.5866L72.6036 59.8991C72.3553 60.9988 72.8697 62.2049 74.0581 63.3046C75.2642 64.422 77.0201 65.2912 79.0067 65.7168C80.9932 66.1603 82.9443 66.1071 84.5051 65.5927C86.0305 65.096 87.006 64.2092 87.2543 63.1095L87.5381 61.797L87.9638 61.8857L87.68 63.1982C87.3962 64.4575 86.3143 65.4508 84.6292 66.0006C83.7424 66.3199 82.7137 66.4618 81.6495 66.4618Z" fill="#262626"/>
<path d="M73.8629 71.4809C69.4819 71.4809 65.9167 69.3524 65.9167 66.7274V65.5035H66.3601V66.7274C66.3601 69.1041 69.7302 71.0374 73.8629 71.0374C77.9956 71.0374 81.3656 69.1041 81.3656 66.7274V66.0711H81.809V66.7274C81.809 69.3524 78.2439 71.4809 73.8629 71.4809Z" fill="#262626"/>
</svg>
