<svg width="90" height="90" viewBox="0 0 90 90" fill="none" xmlns="http://www.w3.org/2000/svg">
<rect width="90" height="90" fill="white"/>
<path d="M72.0663 28.0274C72.0663 28.0274 72.7892 25.2673 74.6457 21.3407C74.6457 21.3407 46.2397 33.5475 31.9299 41.8935L10.1613 65.1901L57.2472 79.7299C57.2472 79.7299 82.1045 27.7809 84.421 23.4929C84.421 23.4929 82.7781 24.2158 72.0663 28.0274Z" fill="#EEEEEE"/>
<path d="M55.1772 65.1901L53.4028 62.5778L53.7479 62.3478L55.2593 64.5822L59.4652 60.9842L58.9394 59.9327L55.4729 63.1364L54.2243 61.2307L54.5529 61.0006L55.555 62.4957L59.0709 59.2592L59.9745 61.0828L55.1772 65.1901Z" fill="#262626"/>
<path d="M4 68.6235L4.31216 68.2456L43.2492 20.979L43.2985 20.9626C61.847 13.9966 82.4163 8.16429 82.6134 8.115L83.0242 8L82.8435 8.3943C80.8391 12.9945 53.616 63.0869 53.3367 63.5962L53.2874 63.6948L53.1724 63.7112L4 68.6235ZM43.4957 21.3076L4.93647 68.1142L53.041 63.284C54.3553 60.869 79.2619 15.0152 82.3013 8.62431C79.2619 9.47862 60.5327 14.9167 43.4957 21.3076Z" fill="#262626"/>
<path d="M57.9368 81.8812L4.42712 68.5572L4.52569 68.1629L57.7232 81.3883L86.3428 22.802L75.4339 22.4242V22.0134L87 22.4077L57.9368 81.8812Z" fill="#262626"/>
<path d="M39.3063 26.3507L39.1913 25.9564C39.5363 25.8578 73.1667 16.0989 79.8205 13.6017L79.9684 13.9796C73.2817 16.4932 39.6513 26.2521 39.3063 26.3507Z" fill="#262626"/>
<path d="M12.4291 58.996C12.3799 58.996 12.347 58.996 12.3141 58.996L12.3799 58.5853C12.3963 58.5853 12.4291 58.5853 12.462 58.5853C14.6799 58.5853 47.111 53.0322 59.6629 50.8472L59.7286 51.2579C57.905 51.5701 15.2221 58.996 12.4291 58.996Z" fill="#262626"/>
<path d="M56.1948 75.9178L56.047 75.885L16.2227 67.3418L16.3049 66.9475L55.9648 75.4414L58.6921 70.0034L34.0155 65.5182L34.0976 65.1239L59.2999 69.6912L56.1948 75.9178Z" fill="#262626"/>
<path d="M78.8004 31.3948L71.0129 30.6391L71.0622 30.2283L78.5704 30.9512L80.4268 27.6161L72.7708 27.0575L72.8037 26.6632L81.1004 27.2547L78.8004 31.3948Z" fill="#262626"/>
<path d="M68.1541 51.2734L60.4653 50.0905L60.531 49.6797L67.9405 50.8134L70.0435 47.0839L62.6011 46.2461L62.6503 45.8353L70.7006 46.7389L68.1541 51.2734Z" fill="#262626"/>
<path d="M55.9159 67.341C52.6958 67.341 50.6257 66.1252 49.755 63.7266L50.1493 63.5951C50.9543 65.8131 52.893 66.9467 55.9159 66.9467C59.2675 66.9467 61.9783 64.7616 61.9783 62.0837C61.9783 59.6193 59.6782 57.5328 56.6224 57.2535L56.6552 56.8428C59.9246 57.1549 62.389 59.4057 62.389 62.0837C62.4054 64.9752 59.4975 67.341 55.9159 67.341Z" fill="#262626"/>
<path d="M31.387 40.6282L37.1536 33.6951L37.2193 33.6786L64.8368 26.5648L59.8587 34.5658L59.7766 34.5822L31.387 40.6282ZM37.3836 34.0565L32.4549 39.971L59.5959 34.1879L63.9331 27.2056L37.3836 34.0565Z" fill="#262626"/>
</svg>
