<svg width="18" height="18" viewBox="0 0 18 18" fill="none" xmlns="http://www.w3.org/2000/svg">
<path d="M10.519 5.51C10.114 5.17 9.561 5 8.861 5C8.549 5 8.217 5.035 7.867 5.105C7.517 5.175 7.228 5.254 7 5.342V6.338H7.049C7.231 6.224 7.479 6.112 7.794 6.001C8.108 5.891 8.441 5.835 8.793 5.835C9.187 5.835 9.508 5.925 9.757 6.106C10.006 6.287 10.13 6.561 10.13 6.929C10.13 7.209 10.078 7.439 9.974 7.62C9.87 7.801 9.723 7.976 9.535 8.145C9.379 8.291 9.178 8.436 8.932 8.579C8.686 8.723 8.457 8.854 8.246 8.975V10.464H9.12V9.365C9.387 9.212 9.639 9.054 9.877 8.891C10.115 8.728 10.325 8.554 10.507 8.368C10.693 8.176 10.842 7.955 10.956 7.706C11.07 7.457 11.127 7.173 11.127 6.854C11.127 6.299 10.924 5.851 10.519 5.51Z" fill="#505050"/>
<path d="M9.1979 11.387H8.2019V12.417H9.1979V11.387Z" fill="#505050"/>
<path d="M9 18C4.038 18 0 13.963 0 9C0 4.038 4.038 0 9 0C13.963 0 18 4.038 18 9C18 13.963 13.963 18 9 18ZM9 1C4.589 1 1 4.589 1 9C1 13.411 4.589 17 9 17C13.411 17 17 13.411 17 9C17 4.589 13.411 1 9 1Z" fill="#505050"/>
</svg>
