
<svg width="512" height="613" viewBox="0 0 512 613" fill="none" xmlns="http://www.w3.org/2000/svg">
<path d="M501.408 360.435C482.94 531.751 254.797 602.129 254.797 602.129C93.6851 571.94 8.99414 417.38 8.99414 360.435C8.99414 303.49 8.99414 271.563 8.99414 214.618V68.8007C8.99414 68.8007 254.797 -58.5698 501.408 68.8" stroke="#D9D9D9" stroke-miterlimit="10"/>
<path d="M511 361.513C491.873 538.864 255.581 611.721 255.581 611.721C88.7156 580.469 1 420.464 1 361.513C1 302.561 1 269.51 1 210.558V59.6037C1 59.6037 255.581 -72.2542 511 59.603" stroke="#D9D9D9" stroke-miterlimit="10"/>
<path d="M448.65 349.174C434.079 484.277 254.083 539.778 254.083 539.778C126.972 515.971 60.1543 394.082 60.1543 349.174C60.1543 304.266 60.1543 279.088 60.1543 234.18V119.186C60.1543 119.186 254.083 18.7394 448.65 119.186" stroke="#C5C5C5" stroke-miterlimit="10"/>
</svg>
