<svg width="53" height="69" viewBox="0 0 53 69" fill="none" xmlns="http://www.w3.org/2000/svg">
<path d="M21.3322 60.9663V65.6643H15.7051V1.83398H21.3322V52.3896" fill="#D8D8D8"/>
<path d="M49.122 60.9663V65.6643H26.5889V1.83398H46.5363L49.122 3.98521V52.3896" fill="#D8D8D8"/>
<path d="M13.7129 60.9663V65.6643H10.8022V1.83398H13.7129V52.3896" fill="#D8D8D8"/>
<path d="M42.4245 62.319L35.5505 54.9575C35.3739 54.7703 34.6568 54.682 34.4166 54.6043C32.8513 54.0441 31.3546 53.3082 29.9552 52.4107C29.2279 51.9452 28.5306 51.4344 27.8676 50.8811C27.267 50.3831 26.7301 49.719 26.0378 49.3481C23.3673 47.9139 19.5558 46.5645 16.6098 46.2608C16.6098 46.2608 14.3809 45.9534 14.0842 44.6429C13.7874 43.3324 15.8998 43.6079 15.8998 43.6079L22.1769 45.1233C22.1769 45.1233 23.2366 45.4766 23.823 44.6924C23.8925 44.592 23.9389 44.4774 23.9587 44.3569C23.9785 44.2364 23.9712 44.113 23.9374 43.9956C23.9035 43.8783 23.844 43.7699 23.7631 43.6784C23.6823 43.5869 23.582 43.5146 23.4697 43.4666C23.1165 43.3183 22.7632 43.1876 22.6255 43.1134L19.5205 41.5309C17.8921 40.6972 15.0308 39.7647 13.8687 38.4082C13.8687 38.4082 12.5652 36.914 13.7274 36.144C13.964 35.9943 14.2369 35.9116 14.5168 35.9047C14.7967 35.8979 15.0733 35.9671 15.317 36.1051L19.0189 38.0974C20.4575 38.8706 21.9595 39.5194 23.5086 40.0367L24.4199 40.3405C24.4199 40.3405 25.9989 40.1886 25.0169 38.8569C23.0918 36.2358 20.5237 33.9786 18.2806 31.6296C17.0584 30.3473 16.7193 28.0972 19.4039 28.733C20.2623 28.9344 23.3461 32.17 25.0982 34.0952C25.4514 34.4979 29.337 38.5884 29.5313 37.0235C29.6302 36.257 28.3374 33.4912 27.6909 32.1842C27.1646 31.1244 26.6312 30.0647 26.1331 29.005C25.7622 28.2173 24.9463 27.0516 25.0416 26.1544C25.1688 24.9251 26.5111 24.5754 27.1611 25.4479C29.3335 28.3656 30.591 31.9616 32.7564 34.9465C33.2915 35.7853 33.8815 36.5877 34.5226 37.3485C35.5576 38.5884 36.8222 39.6658 38.4895 39.8212C38.6628 39.8479 38.8399 39.837 39.0087 39.7894C39.9554 39.468 40.1391 37.2885 40.3793 36.4831C40.7325 35.3139 41.2553 34.0846 42.1985 33.2721C43.0039 32.5657 43.7563 31.838 44.8478 32.2336C44.9793 32.2731 45.1001 32.3419 45.201 32.435C45.6885 32.933 45.0597 34.1517 44.8478 34.6604C44.6358 35.169 44.3674 35.6883 44.1872 36.2252C43.7881 37.4368 44.1201 38.9381 44.06 40.2133C44.0565 41.3237 43.8984 42.4281 43.5902 43.4949C43.2557 44.4415 43.2055 45.4654 43.4459 46.4402C43.6863 47.415 44.2068 48.2982 44.9431 48.9807L50.3654 54.9151L42.4245 62.319Z" fill="white" stroke="black" stroke-width="0.7" stroke-linecap="round" stroke-linejoin="round"/>
<path d="M46.2146 58.8041V63.3927H1V1H46.2146V50.4182" stroke="black" stroke-width="0.7" stroke-linecap="round" stroke-linejoin="round"/>
<path d="M46.2144 1L52.1135 5.53559V67.9283L46.2144 63.3927" stroke="black" stroke-width="0.7" stroke-linecap="round" stroke-linejoin="round"/>
<path d="M52.1137 67.9282H6.89557L1 63.3926H46.2146L52.1137 67.9282Z" stroke="black" stroke-width="0.7" stroke-linecap="round" stroke-linejoin="round"/>
</svg>
